<svg xmlns="http://www.w3.org/2000/svg" width="43.876" height="40.776" viewBox="0 0 43.876 40.776">
  <g id="Group_15281" data-name="Group 15281" transform="translate(0.723 0.42)">
    <path id="Path_38204" data-name="Path 38204" d="M6.9,28.339c.1-.139,4.642,2.18,4.715,2.083,0,0-5.158-2.636-5.088-2.73,0,0,6.995,3.139,7.023,3.1.158-.21-10.89-6.921-10.89-6.921.291-.387,14.933,6.691,14.986,6.62.214-.285-16.289-8.516-16.289-8.516.182-.243,21.221,9.374,21.221,9.374L1.244,20.615,22.91,30.186S1.2,18.695,1.445,18.372c.037-.049,23.437,11.055,23.833,10.528.53-.705-23.064-11.3-23.064-11.3S28.423,29.848,28.8,29.347c.416-.554-26.976-12.21-26.867-12.355.3-.4,25.675,12.214,26.167,11.559,0,0-28.537-12.943-28.094-13.532L30.052,28.294C30.3,27.96,1.241,13.378,1.241,13.378c.269-.358,30.415,13.436,30.415,13.436L1.968,12.159c.6-.8,28.781,12.714,28.781,12.714L2.592,10.41S31.9,23.734,32.11,23.449.971,9.841,1.171,9.574C1.889,8.62,33.7,23.945,33.7,23.945,34.193,23.292.846,8.312,1.595,7.317,2.282,6.4,33.787,21.583,33.813,21.549L1.738,5.469c.3-.393,32.75,15.5,33.332,14.725C35.586,19.507,2.315,5.848,3.06,4.858c.364-.485,31.369,13.858,31.369,13.858S4.93,5.235,5.178,4.9l29.35,12.966c.234-.311-31-14.68-30.624-15.181.461-.614,31.523,14.431,31.808,14.051.31-.412-30.544-14.924-30.355-15.175.516-.686,30,13.326,30.04,13.27C35.494,14.708,6.832.984,6.937.844,7.491.107,34.832,14.028,35.318,13.381,35.5,13.14,10.3.444,10.586.058L35.377,11.009c.232-.308-24.705-10.68-24.465-11,.284-.378,23.723,11.369,24.225,10.7C35.468,10.27,12.146.331,12.147.331c.266-.354,23.4,10.338,23.4,10.338S14.39.589,14.63.269C14.721.148,32.2,8.6,32.526,8.175c0,0-16.617-7.425-16.259-7.9,0,0,13.961,6.662,14.24,6.291.078-.1-9.8-5.09-9.6-5.344,0,0,5.185,2.521,5.316,2.348" transform="matrix(-0.966, 0.259, -0.259, -0.966, 42.511, 30.437)" fill="none" stroke="#55cee2" stroke-width="1"/>
  </g>
</svg>
