<svg xmlns="http://www.w3.org/2000/svg" xmlns:xlink="http://www.w3.org/1999/xlink" width="749" height="120.5" viewBox="0 0 749 120.5">
  <defs>
    <clipPath id="clip-path">
      <rect id="Rectangle_7103" data-name="Rectangle 7103" width="749" height="120.5" transform="translate(0.5 41)" fill="#fff"/>
    </clipPath>
  </defs>
  <g id="Mask_Group_160" data-name="Mask Group 160" transform="translate(-0.5 -41)" clip-path="url(#clip-path)">
    <path id="Union_251" data-name="Union 251" d="M709.6,0a161.167,161.167,0,0,0-25.347,2.565C661.642,6.274,639.032,10.2,616.516,14.92c-33.07,6.936-65.963,15.577-99.1,21.808-41.044,7.716-82.216,14.215-123.409,20.26-26.94,3.954-53.993,6.592-81.034,9.031-21.813,1.97-43.674,3.593-65.524,3.882q-48.9.641-97.8-.968C124.776,68.1,99.9,66.165,75.087,63.622c-23.2-2.377-46.343-5.9-69.451-9.627C.833,53.22.017,54.519.02,60.71Q.079,200.764.089,340.8H0v861H1102.941V53.6c-10.957,2.845-21.236,5.722-31.571,8.154-29.68,6.979-59.323,14.314-89.094,20.474-23.626,4.887-47.374,8.858-71.149,12.1-21.412,2.922-42.914,5.162-64.414,6.08-15.591.665-31.279-.65-46.853-2.338C787.144,96.689,774.575,93.2,763.1,84.678,754.8,78.506,749.2,69.666,749.571,55.825a130.906,130.906,0,0,1,1.848-15.635c2.562-17.218-2.108-29.066-14.029-34.985a40.5,40.5,0,0,0-7.4-2.675A74.574,74.574,0,0,0,710.372,0Z" transform="translate(0 41)" fill="#fff"/>
  </g>
</svg>
