<svg id="Group_11045" data-name="Group 11045" xmlns="http://www.w3.org/2000/svg" width="57.286" height="55.497" viewBox="0 0 57.286 55.497">
  <path id="Subtraction_5" data-name="Subtraction 5" d="M28.642,55.5A28.924,28.924,0,0,1,8.389,47.369a27.14,27.14,0,0,1,0-39.241A28.924,28.924,0,0,1,28.642,0,28.928,28.928,0,0,1,48.9,8.128a27.139,27.139,0,0,1,0,39.241A28.927,28.927,0,0,1,28.642,55.5Zm4.036-38.111a1.533,1.533,0,0,0-1.085.446l-9.165,9.159a1.524,1.524,0,0,0-.046,2.108l9.2,9.223a1.542,1.542,0,0,0,2.164,0,1.524,1.524,0,0,0,.448-1.088,1.5,1.5,0,0,0-.448-1.07l-8.084-8.09,8.09-8.085a1.525,1.525,0,0,0-1.079-2.6Z" fill="#fff"/>
</svg>
