<svg xmlns="http://www.w3.org/2000/svg" width="39.975" height="38.685" viewBox="0 0 39.975 38.685">
  <g id="Group_13890" data-name="Group 13890" transform="translate(0 0)">
    <path id="Subtraction_6" data-name="Subtraction 6" d="M19.988,38.685A20.2,20.2,0,0,1,5.855,33.018a18.9,18.9,0,0,1,0-27.354A20.2,20.2,0,0,1,19.988,0,20.2,20.2,0,0,1,34.121,5.665a18.9,18.9,0,0,1,0,27.354A20.2,20.2,0,0,1,19.988,38.685ZM17.161,11.757a1.065,1.065,0,0,0-.753,1.821l5.656,5.65-5.652,5.655a1.068,1.068,0,0,0,1.513,1.509l6.435-6.448a1.065,1.065,0,0,0-.032-1.473l-6.407-6.4A1.073,1.073,0,0,0,17.161,11.757Z" transform="translate(0 0)" fill="#182e54"/>
  </g>
</svg>
