<svg xmlns="http://www.w3.org/2000/svg" width="53.064" height="50.574" viewBox="0 0 53.064 50.574">
  <g id="Group_13890" data-name="Group 13890" transform="translate(53.064) rotate(90)">
    <path id="Subtraction_6" data-name="Subtraction 6" d="M25.287,53.064a24.537,24.537,0,0,1-17.88-7.772A27.028,27.028,0,0,1,0,26.532,27.029,27.029,0,0,1,7.407,7.771a24.457,24.457,0,0,1,35.761,0,27.03,27.03,0,0,1,7.406,18.761,27.029,27.029,0,0,1-7.406,18.76A24.537,24.537,0,0,1,25.287,53.064ZM21.71,16.127a1.283,1.283,0,0,0-.953.428,1.5,1.5,0,0,0-.4,1.026,1.524,1.524,0,0,0,.4,1.043l7.155,7.751-7.15,7.758a1.549,1.549,0,0,0,0,2.069,1.285,1.285,0,0,0,1.914,0l8.141-8.844a1.551,1.551,0,0,0-.041-2.02l-8.106-8.783A1.306,1.306,0,0,0,21.71,16.127Z" transform="translate(0 0)" fill="#182e54"/>
  </g>
</svg>
