<svg xmlns="http://www.w3.org/2000/svg" width="21.217" height="28.29" viewBox="0 0 21.217 28.29">
  <path id="Icon_awesome-file-download" data-name="Icon awesome-file-download" d="M12.377,7.514V0H1.326A1.323,1.323,0,0,0,0,1.326V26.963a1.323,1.323,0,0,0,1.326,1.326H19.891a1.323,1.323,0,0,0,1.326-1.326V8.84H13.7A1.33,1.33,0,0,1,12.377,7.514ZM16.6,19.193,11.273,24.48a.942.942,0,0,1-1.328,0L4.617,19.193a.884.884,0,0,1,.622-1.512h3.6v-4.42a.884.884,0,0,1,.884-.884h1.768a.884.884,0,0,1,.884.884v4.42h3.6A.884.884,0,0,1,16.6,19.193ZM20.83,5.8,15.421.387A1.325,1.325,0,0,0,14.482,0h-.337V7.072h7.072V6.735A1.322,1.322,0,0,0,20.83,5.8Z" fill="#182e54"/>
</svg>
