<svg xmlns="http://www.w3.org/2000/svg" width="35" height="35" viewBox="0 0 35 35">
  <g id="Group_17492" data-name="Group 17492" transform="translate(16981 -1776)">
    <circle id="Ellipse_28" data-name="Ellipse 28" cx="17.5" cy="17.5" r="17.5" transform="translate(-16981 1776)" fill="#182e54"/>
    <g id="Icon_feather-instagram" data-name="Icon feather-instagram" transform="translate(-16972.16 1784.839)">
      <path id="Path_44953" data-name="Path 44953" d="M7.331,3h8.661a4.331,4.331,0,0,1,4.331,4.331v8.661a4.331,4.331,0,0,1-4.331,4.331H7.331A4.331,4.331,0,0,1,3,15.992V7.331A4.331,4.331,0,0,1,7.331,3Z" transform="translate(-3 -3)" fill="none" stroke="#fff" stroke-linecap="round" stroke-linejoin="round" stroke-width="2"/>
      <path id="Path_44954" data-name="Path 44954" d="M18.956,14.891a3.464,3.464,0,1,1-2.919-2.919,3.464,3.464,0,0,1,2.919,2.919Z" transform="translate(-6.831 -6.776)" fill="none" stroke="#fff" stroke-linecap="round" stroke-linejoin="round" stroke-width="2"/>
      <path id="Path_44955" data-name="Path 44955" d="M26.25,9.75h0" transform="translate(-12.825 -5.853)" fill="none" stroke="#fff" stroke-linecap="round" stroke-linejoin="round" stroke-width="2"/>
    </g>
  </g>
</svg>
