<svg xmlns="http://www.w3.org/2000/svg" width="122.605" height="107.279" viewBox="0 0 122.605 107.279">
  <path id="Icon_awesome-quote-right" data-name="Icon awesome-quote-right" d="M111.11,2.25H80.459A11.5,11.5,0,0,0,68.965,13.744V44.4A11.5,11.5,0,0,0,80.459,55.89H99.616V71.215A15.34,15.34,0,0,1,84.291,86.541H82.375a5.733,5.733,0,0,0-5.747,5.747v11.494a5.733,5.733,0,0,0,5.747,5.747h1.916A38.3,38.3,0,0,0,122.6,71.215V13.744A11.5,11.5,0,0,0,111.11,2.25Zm-68.965,0H11.494A11.5,11.5,0,0,0,0,13.744V44.4A11.5,11.5,0,0,0,11.494,55.89H30.651V71.215A15.34,15.34,0,0,1,15.326,86.541H13.41a5.733,5.733,0,0,0-5.747,5.747v11.494a5.733,5.733,0,0,0,5.747,5.747h1.916A38.3,38.3,0,0,0,53.64,71.215V13.744A11.5,11.5,0,0,0,42.145,2.25Z" transform="translate(0 -2.25)" fill="#ff9100" opacity="0.5"/>
</svg>
