<svg xmlns="http://www.w3.org/2000/svg" width="35" height="35" viewBox="0 0 35 35">
  <g id="Group_17491" data-name="Group 17491" transform="translate(17040.635 -1776.365)">
    <circle id="Ellipse_27" data-name="Ellipse 27" cx="17.5" cy="17.5" r="17.5" transform="translate(-17040.635 1776.365)" fill="#182e54"/>
    <path id="Icon_awesome-youtube" data-name="Icon awesome-youtube" d="M20.843,6.724a2.54,2.54,0,0,0-1.787-1.8c-1.577-.425-7.9-.425-7.9-.425s-6.322,0-7.9.425a2.54,2.54,0,0,0-1.787,1.8,26.647,26.647,0,0,0-.422,4.9,26.647,26.647,0,0,0,.422,4.9,2.5,2.5,0,0,0,1.787,1.77c1.577.425,7.9.425,7.9.425s6.322,0,7.9-.425a2.5,2.5,0,0,0,1.787-1.77,26.647,26.647,0,0,0,.422-4.9,26.647,26.647,0,0,0-.422-4.9ZM9.09,14.627V8.616l5.284,3.006L9.09,14.627Z" transform="translate(-17034.293 1782.258)" fill="#fff"/>
  </g>
</svg>
