<svg xmlns="http://www.w3.org/2000/svg" xmlns:xlink="http://www.w3.org/1999/xlink" width="169.215" height="157.385" viewBox="0 0 169.215 157.385">
  <defs>
    <clipPath id="clip-path">
      <rect id="Rectangle_6513" data-name="Rectangle 6513" width="87.204" height="47.911" fill="#182e54"/>
    </clipPath>
  </defs>
  <g id="Group_15281" data-name="Group 15281" transform="translate(3.213 2.712)">
    <path id="Path_38204" data-name="Path 38204" d="M26.3,108.246c.4-.532,17.742,8.333,18.021,7.961,0,0-19.713-10.077-19.445-10.433,0,0,26.734,12,26.84,11.857.6-.8-41.622-26.451-41.622-26.451,1.111-1.478,57.074,25.573,57.278,25.3C68.188,115.4,5.114,83.935,5.114,83.935c.7-.929,81.106,35.829,81.106,35.829L4.668,78.726l82.806,36.581S4.508,71.388,5.436,70.154c.141-.187,89.577,42.253,91.091,40.24,2.026-2.695-88.153-43.18-88.153-43.18s100.171,46.8,101.611,44.887c1.59-2.116-103.1-46.666-102.688-47.22,1.144-1.524,98.131,46.681,100.01,44.18,0,0-109.069-49.467-107.375-51.72l114.84,50.733C115.732,106.8,4.657,51.066,4.657,51.066,5.685,49.7,120.9,102.418,120.9,102.418L7.434,46.41C9.72,43.37,117.436,95,117.436,95L9.821,39.723s112,50.924,112.817,49.837c.778-1.032-119.016-52.01-118.25-53.03,2.742-3.648,124.333,54.924,124.333,54.924C130.6,88.958,3.146,31.705,6.008,27.9c2.628-3.5,123.04,54.526,123.137,54.4L6.556,20.838c1.13-1.5,125.172,59.235,127.394,56.278C135.923,74.494,8.762,22.288,11.606,18.5,13,16.65,131.5,71.467,131.5,71.467S18.755,19.943,19.7,18.682L131.882,68.238c.895-1.19-118.483-56.109-117.044-58.021,1.762-2.346,120.48,55.157,121.571,53.7,1.185-1.574-116.741-57.039-116.017-58C22.365,3.3,135.046,56.855,135.205,56.64,135.573,56.151,26.025,3.7,26.427,3.16,28.545.345,133.041,53.551,134.9,51.08c.694-.923-95.64-49.446-94.529-50.922l94.752,41.856C136.01,40.835,40.7,1.193,41.619-.03c1.085-1.445,90.669,43.453,92.587,40.9C135.473,39.186,46.336,1.2,46.338,1.2c1.018-1.355,89.445,39.512,89.445,39.512S54.911,2.187,55.829.964C56.177.5,123,32.819,124.227,31.18c0,0-63.512-28.379-62.142-30.2,0,0,53.359,25.464,54.426,24.044.3-.4-37.437-19.452-36.705-20.426,0,0,19.819,9.635,20.316,8.976" transform="matrix(-0.966, 0.259, -0.259, -0.966, 162.664, 115.859)" fill="none" stroke="#5fbb46" stroke-width="5"/>
    <g id="Group_15998" data-name="Group 15998" transform="translate(37.729 53.735)">
      <g id="Group_15997" data-name="Group 15997" clip-path="url(#clip-path)">
        <path id="Path_42241" data-name="Path 42241" d="M84.817,117.491H47.17c-7.092,0-13.3-3.015-15.458-7.5a1.362,1.362,0,0,1,1.554-1.913,23.13,23.13,0,0,0,6.077.546,17.643,17.643,0,0,0,9.792-2.85,1.364,1.364,0,0,1,1.69.1c2.637,2.368,7.154,3.738,13.427,4.073.888.047,1.756.071,2.58.071,7.613,0,10.96-2.013,12.427-3.7a1.363,1.363,0,0,1,2.12.077c1.23,1.643,4.7,2.548,9.782,2.548,1.458,0,3.028-.076,4.666-.227.913-.083,1.784-.2,2.59-.351a1.362,1.362,0,0,1,1.551,1.742c-1.041,3.368-4.516,7.382-15.151,7.382m-48.7-6.222c2.258,1.961,6.028,3.5,11.048,3.5H84.817c4.055,0,8.944-.635,11.35-3.342l-.093.009c-1.719.157-3.372.238-4.913.238-5.114,0-8.764-.853-10.882-2.537-3.216,2.741-8.664,3.938-16.171,3.539-6.336-.338-11.135-1.714-14.287-4.094a20.87,20.87,0,0,1-10.407,2.77,31.756,31.756,0,0,1-3.292-.078" transform="translate(-20.821 -69.581)" fill="#182e54"/>
        <path id="Path_42242" data-name="Path 42242" d="M181.307,94.176h0c-6.131,0-10.156-1.225-11.964-3.641a5.276,5.276,0,0,1-1.033-3.6,1.363,1.363,0,0,1,1.643-1.245c.755.16,1.425.286,2.048.385a19.431,19.431,0,0,0,3.053.265c3.743,0,13.684-2.874,18-6.969a1.362,1.362,0,0,1,1.859-.016c1.67,1.531,3.582,3.866,3.214,6.294-.481,3.168-1.934,6.585-9.061,7.9l-.042.007c-.878.162-1.821.29-2.8.379-1.719.158-3.372.238-4.913.238m-9.895-5.436q.053.083.112.163c1.229,1.643,4.7,2.547,9.782,2.548h0c1.458,0,3.027-.076,4.665-.227.913-.083,1.784-.2,2.59-.351l.043-.007c5.669-1.058,6.481-3.359,6.825-5.626.115-.758-.437-1.847-1.506-3.021-5.344,4.27-14.988,6.847-18.871,6.847a22.074,22.074,0,0,1-3.48-.3l-.161-.026" transform="translate(-110.966 -52.086)" fill="#182e54"/>
        <path id="Path_42243" data-name="Path 42243" d="M94.374,103.626c-.872,0-1.789-.025-2.725-.075-6.911-.368-11.992-1.972-15.1-4.767A9.659,9.659,0,0,1,73.371,93.3a1.362,1.362,0,0,1,1.609-1.58c1.236.249,2.562.645,3.966,1.065.674.2,1.363.408,2.062.6a22.1,22.1,0,0,0,5.666.961,27.693,27.693,0,0,0,6.491-1.113,23.845,23.845,0,0,1,5.435-.965,25.45,25.45,0,0,1,5.641,1.04c1.008.255,2.05.519,3.114.75a1.363,1.363,0,0,1,1.071,1.419,2.589,2.589,0,0,0,.5,1.792,1.362,1.362,0,0,1-.063,1.71c-2.674,3.079-7.548,4.64-14.484,4.64m-17.465-8.6a7.788,7.788,0,0,0,1.457,1.73C81,99.125,85.521,100.5,91.794,100.83c.888.047,1.756.071,2.58.071,6.625,0,10.02-1.525,11.755-3.033a5.165,5.165,0,0,1-.385-1.374c-.743-.175-1.466-.359-2.173-.538A24.66,24.66,0,0,0,98.6,95a22.269,22.269,0,0,0-4.769.882,30.12,30.12,0,0,1-7.157,1.2,24.569,24.569,0,0,1-6.394-1.06c-.719-.2-1.425-.412-2.115-.618-.428-.128-.847-.253-1.257-.373" transform="translate(-48.363 -60.459)" fill="#182e54"/>
        <path id="Path_42244" data-name="Path 42244" d="M23.875,98.537a24.778,24.778,0,0,1-5.881-.637c-5.805-1.414-9-5.367-8.548-10.574a1.363,1.363,0,0,1,2.174-.972,9.428,9.428,0,0,0,5.674,1.676c.54-.033,5.827-.35,10.147-.35a31.3,31.3,0,0,1,5.075.282l.292.057a1.362,1.362,0,0,1,1.081,1.093A6.962,6.962,0,0,0,36.2,93.055a1.363,1.363,0,0,1-.131,2.132,20.3,20.3,0,0,1-11.28,3.337q-.468.012-.918.012M12.291,89.83c.591,2.662,2.778,4.553,6.351,5.424a23.074,23.074,0,0,0,6.08.547,18.711,18.711,0,0,0,8.43-2.014,9.5,9.5,0,0,1-1.713-3.227,38.16,38.16,0,0,0-4-.154c-4.45,0-9.966.344-10.021.347l-.086,0a13.36,13.36,0,0,1-5.043-.926" transform="translate(-6.2 -56.759)" fill="#182e54"/>
        <path id="Path_42247" data-name="Path 42247" d="M93.647,26.613H93.63a1.363,1.363,0,0,1-1.345-1.38c.063-4.908-1.952-8.756-6.158-11.764a1.363,1.363,0,1,1,1.585-2.217,16.228,16.228,0,0,1,7.3,14.015,1.363,1.363,0,0,1-1.362,1.345" transform="translate(-56.411 -7.251)" fill="#182e54"/>
        <path id="Path_42248" data-name="Path 42248" d="M154.352,26.613c-.038,0-.077,0-.116,0a1.363,1.363,0,0,1-1.243-1.472,12.841,12.841,0,0,0-4.938-11.722,1.363,1.363,0,0,1,1.73-2.106,15.586,15.586,0,0,1,5.924,14.057,1.362,1.362,0,0,1-1.356,1.248" transform="translate(-97.292 -7.251)" fill="#182e54"/>
        <path id="Path_42249" data-name="Path 42249" d="M7.469,15.7h0c.006.018,3.485,7.837,5.551,7.837s57.8,1.741,57.8,1.741S80.4,18.425,79.635,15.7s5.77,5.551,5.77,5.551a7.466,7.466,0,0,1-2.5,4.027c-4.418,3.84-14.047,9.68-18.613,8.055-6.422-2.286-16.545-2.286-16.545-2.286L34.9,32.358,27.171,30.29,9.1,29.854,3.441,26.915,1.374,23.541l2.067-5.007c-.435-.326,3.484-2.83,3.484-2.83" transform="translate(0.187 2.064)" fill="#fff"/>
        <path id="Path_42245" data-name="Path 42245" d="M79.839,28.426H35.486c-12.5,0-14.789-8.5-15.192-12.155a17.317,17.317,0,0,1-.11-1.96c0-6.374,4.4-11.422,11.477-13.173l.054-.012a17.585,17.585,0,0,1,3.5-.37,15.106,15.106,0,0,1,8.473,2.692l.059.036A19.169,19.169,0,0,1,54.572,0a17.676,17.676,0,0,1,10.559,3.53l.085-.038A29.382,29.382,0,0,1,78.695.338c7.146,0,14.742,5.087,14.742,14.514,0,.36-.009.684-.028.99-.492,8.261-7.2,12.584-13.569,12.584M32.288,3.789c-5.873,1.462-9.379,5.393-9.379,10.52A14.709,14.709,0,0,0,23,15.966C23.4,19.6,25.56,25.7,35.486,25.7H79.839c4.121,0,10.411-2.669,10.849-10.023.015-.252.023-.522.023-.826,0-7.657-6.191-11.789-12.016-11.789A26.7,26.7,0,0,0,66.332,5.979c-.284.127-.565.253-.845.377a1.363,1.363,0,0,1-1.418-.2,14.959,14.959,0,0,0-9.5-3.434A16.664,16.664,0,0,0,44.629,6.2a1.364,1.364,0,0,1-1.48.1c-.272-.153-.567-.333-.888-.531A12.533,12.533,0,0,0,35.218,3.48a14.806,14.806,0,0,0-2.93.31" transform="translate(-13.308 -0.001)" fill="#182e54"/>
        <path id="Path_42246" data-name="Path 42246" d="M64.087,64.842a22.071,22.071,0,0,1-3.48-.3c-.669-.105-1.385-.24-2.187-.41-1.115-.242-2.181-.512-3.211-.773a24.641,24.641,0,0,0-4.971-.957,22.275,22.275,0,0,0-4.769.882,30.118,30.118,0,0,1-7.157,1.2,24.554,24.554,0,0,1-6.394-1.061c-.719-.2-1.425-.411-2.115-.618-1.342-.4-2.61-.78-3.723-1l-.276-.054a28.533,28.533,0,0,0-4.563-.233c-4.448,0-9.966.344-10.021.347l-.086,0a12.131,12.131,0,0,1-7.348-2.219A9.453,9.453,0,0,1,.213,50.09,9.777,9.777,0,0,1,8.05,42.652a1.362,1.362,0,0,1,1.644,1.181c.4,3.634,2.558,9.73,12.484,9.73H66.531c4.121,0,10.411-2.669,10.849-10.023a1.363,1.363,0,0,1,1.858-1.188c4.826,1.893,7.484,5.193,7.484,9.291a7.63,7.63,0,0,1-2.76,5.48c-5.043,4.789-15.734,7.718-19.875,7.718M50.238,59.678a25.447,25.447,0,0,1,5.64,1.04c1.008.255,2.05.519,3.114.75.749.159,1.419.285,2.042.383a19.434,19.434,0,0,0,3.053.265c3.743,0,13.685-2.874,18-6.969A5.076,5.076,0,0,0,84,51.644c0-2.968-2-4.846-4.135-6.007-1.34,7-7.477,10.651-13.33,10.651H22.178c-10.913,0-14.043-6.479-14.931-10.556a6.869,6.869,0,0,0-4.371,4.935,6.636,6.636,0,0,0,2.543,6.792,9.426,9.426,0,0,0,5.675,1.677c.539-.033,5.827-.35,10.147-.35a31.314,31.314,0,0,1,5.075.282l.293.057c1.245.25,2.571.647,3.975,1.067.673.2,1.363.408,2.061.6a22.112,22.112,0,0,0,5.666.962A27.7,27.7,0,0,0,44.8,60.643a23.846,23.846,0,0,1,5.435-.965" transform="translate(0 -27.863)" fill="#182e54"/>
      </g>
    </g>
  </g>
</svg>
