<svg xmlns="http://www.w3.org/2000/svg" xmlns:xlink="http://www.w3.org/1999/xlink" width="169.215" height="157.385" viewBox="0 0 169.215 157.385">
  <defs>
    <clipPath id="clip-path">
      <rect id="Rectangle_6511" data-name="Rectangle 6511" width="70.879" height="65.13" fill="none" stroke="#182e54" stroke-width="2"/>
    </clipPath>
  </defs>
  <g id="Group_15281" data-name="Group 15281" transform="translate(3.111 2.865)">
    <path id="Path_38204" data-name="Path 38204" d="M26.386,108.311c.4-.532,17.742,8.333,18.021,7.961,0,0-19.713-10.077-19.445-10.433,0,0,26.734,12,26.84,11.857.6-.8-41.622-26.451-41.622-26.451,1.111-1.478,57.074,25.573,57.278,25.3C68.276,115.459,5.2,84,5.2,84c.7-.929,81.106,35.829,81.106,35.829L4.755,78.79l82.806,36.581S4.6,71.452,5.523,70.218c.141-.187,89.577,42.253,91.091,40.24,2.026-2.695-88.153-43.18-88.153-43.18s100.171,46.8,101.611,44.887c1.59-2.116-103.1-46.666-102.688-47.22,1.144-1.524,98.131,46.681,100.01,44.18,0,0-109.069-49.467-107.375-51.72l114.84,50.733C115.82,106.863,4.744,51.13,4.744,51.13c1.028-1.369,116.246,51.352,116.246,51.352L7.522,46.474c2.286-3.039,110,48.592,110,48.592L9.909,39.787s112,50.924,112.817,49.837C123.5,88.592,3.71,37.614,4.476,36.594c2.742-3.648,124.333,54.924,124.333,54.924C130.686,89.022,3.234,31.769,6.1,27.964c2.628-3.5,123.04,54.526,123.137,54.4L6.644,20.9c1.13-1.5,125.172,59.235,127.394,56.278C136.011,74.558,8.849,22.352,11.694,18.566c1.393-1.852,119.894,52.965,119.894,52.965S18.842,20.007,19.791,18.746L131.969,68.3c.895-1.19-118.483-56.109-117.044-58.021,1.762-2.346,120.48,55.157,121.571,53.7,1.185-1.574-116.741-57.039-116.017-58C22.452,3.361,135.134,56.919,135.293,56.7c.368-.489-109.18-52.945-108.779-53.48C28.633.409,133.129,53.615,134.988,51.144,135.682,50.22,39.348,1.7,40.459.221l94.752,41.856C136.1,40.9,40.788,1.257,41.707.034c1.085-1.445,90.669,43.453,92.587,40.9,1.266-1.684-87.87-39.67-87.868-39.67,1.018-1.355,89.445,39.512,89.445,39.512S55,2.251,55.917,1.029c.348-.462,67.167,31.855,68.4,30.216,0,0-63.512-28.379-62.142-30.2,0,0,53.359,25.464,54.426,24.044.3-.4-37.437-19.452-36.705-20.426,0,0,19.819,9.635,20.316,8.976" transform="matrix(-0.966, 0.259, -0.259, -0.966, 162.868, 115.745)" fill="none" stroke="#ffce00" stroke-width="5"/>
    <g id="Group_15996" data-name="Group 15996" transform="translate(47.524 46.378)">
      <g id="Group_15993" data-name="Group 15993">
        <g id="Group_15992" data-name="Group 15992" clip-path="url(#clip-path)">
          <path id="Path_42238" data-name="Path 42238" d="M.707,20l6.2,6.2,6.2-6.2" transform="translate(0.389 11.014)" fill="none" stroke="#182e54" stroke-miterlimit="10" stroke-width="2"/>
        </g>
      </g>
      <g id="Group_15995" data-name="Group 15995">
        <g id="Group_15994" data-name="Group 15994" clip-path="url(#clip-path)">
          <circle id="Ellipse_26" data-name="Ellipse 26" cx="20.16" cy="20.16" r="20.16" transform="translate(18.155 12.404)" fill="#fff" stroke="#182e54" stroke-miterlimit="10" stroke-width="2"/>
          <path id="Path_42240" data-name="Path 42240" d="M6.337,41.968a31.038,31.038,0,1,0-1.631-9.953l0,0v3.1" transform="translate(2.592 0.55)" fill="none" stroke="#182e54" stroke-miterlimit="10" stroke-width="2"/>
        </g>
      </g>
      <path id="Path_42239" data-name="Path 42239" d="M30.91,31.608l-6.2-6.2V13" transform="translate(13.608 7.159)" fill="none" stroke="#182e54" stroke-miterlimit="10" stroke-width="2"/>
    </g>
  </g>
</svg>
