<svg xmlns="http://www.w3.org/2000/svg" xmlns:xlink="http://www.w3.org/1999/xlink" width="169.215" height="157.385" viewBox="0 0 169.215 157.385">
  <defs>
    <clipPath id="clip-path">
      <rect id="Rectangle_6510" data-name="Rectangle 6510" width="63.584" height="74.414" fill="none" stroke="#182e54" stroke-width="2"/>
    </clipPath>
  </defs>
  <g id="Group_15281" data-name="Group 15281" transform="translate(3.213 2.712)">
    <path id="Path_38204" data-name="Path 38204" d="M26.3,108.246c.4-.532,17.742,8.333,18.021,7.961,0,0-19.713-10.077-19.445-10.433,0,0,26.734,12,26.84,11.857.6-.8-41.622-26.451-41.622-26.451,1.111-1.478,57.074,25.573,57.278,25.3C68.188,115.4,5.114,83.935,5.114,83.935c.7-.929,81.106,35.829,81.106,35.829L4.668,78.726l82.806,36.581S4.508,71.388,5.436,70.154c.141-.187,89.577,42.253,91.091,40.24,2.026-2.695-88.153-43.18-88.153-43.18s100.171,46.8,101.611,44.887c1.59-2.116-103.1-46.666-102.688-47.22,1.144-1.524,98.131,46.681,100.01,44.18,0,0-109.069-49.467-107.375-51.72l114.84,50.733C115.732,106.8,4.657,51.066,4.657,51.066,5.685,49.7,120.9,102.418,120.9,102.418L7.434,46.41C9.72,43.37,117.436,95,117.436,95L9.821,39.723s112,50.924,112.817,49.837c.778-1.032-119.016-52.01-118.25-53.03,2.742-3.648,124.333,54.924,124.333,54.924C130.6,88.958,3.146,31.705,6.008,27.9c2.628-3.5,123.04,54.526,123.137,54.4L6.556,20.838c1.13-1.5,125.172,59.235,127.394,56.278C135.923,74.494,8.762,22.288,11.606,18.5,13,16.65,131.5,71.467,131.5,71.467S18.755,19.943,19.7,18.682L131.882,68.238c.895-1.19-118.483-56.109-117.044-58.021,1.762-2.346,120.48,55.157,121.571,53.7,1.185-1.574-116.741-57.039-116.017-58C22.365,3.3,135.046,56.855,135.205,56.64,135.573,56.151,26.025,3.7,26.427,3.16,28.545.345,133.041,53.551,134.9,51.08c.694-.923-95.64-49.446-94.529-50.922l94.752,41.856C136.01,40.835,40.7,1.193,41.619-.03c1.085-1.445,90.669,43.453,92.587,40.9C135.473,39.186,46.336,1.2,46.338,1.2c1.018-1.355,89.445,39.512,89.445,39.512S54.911,2.187,55.829.964C56.177.5,123,32.819,124.227,31.18c0,0-63.512-28.379-62.142-30.2,0,0,53.359,25.464,54.426,24.044.3-.4-37.437-19.452-36.705-20.426,0,0,19.819,9.635,20.316,8.976" transform="matrix(-0.966, 0.259, -0.259, -0.966, 162.664, 115.859)" fill="none" stroke="#ffce00" stroke-width="5"/>
    <g id="Group_15991" data-name="Group 15991" transform="translate(49.54 35.483)">
      <g id="Group_15990" data-name="Group 15990" clip-path="url(#clip-path)">
        <ellipse id="Ellipse_22" data-name="Ellipse 22" cx="5.027" cy="5.027" rx="5.027" ry="5.027" transform="translate(25.863 29.662)" fill="#fff" stroke="#182e54" stroke-linecap="round" stroke-linejoin="round" stroke-width="2"/>
        <ellipse id="Ellipse_23" data-name="Ellipse 23" cx="5.027" cy="5.027" rx="5.027" ry="5.027" transform="translate(39.691 26.938)" fill="#fff" stroke="#182e54" stroke-linecap="round" stroke-linejoin="round" stroke-width="2"/>
        <ellipse id="Ellipse_24" data-name="Ellipse 24" cx="5.027" cy="5.027" rx="5.027" ry="5.027" transform="translate(25.863 13.217)" fill="#fff" stroke="#182e54" stroke-linecap="round" stroke-linejoin="round" stroke-width="2"/>
        <ellipse id="Ellipse_25" data-name="Ellipse 25" cx="5.027" cy="5.027" rx="5.027" ry="5.027" transform="translate(39.691 10.493)" fill="#fff" stroke="#182e54" stroke-linecap="round" stroke-linejoin="round" stroke-width="2"/>
        <path id="Path_42235" data-name="Path 42235" d="M120.8,267.62a3.288,3.288,0,0,1,2.768-1.384h20.368c1.538,0,10-8.482,11.072-9.688a73.928,73.928,0,0,0,6.92-11.072c-.8-1.081-2.972-1.979-5.536-1.384-2.447.568-3.886,2.326-5.536,5.536l-6.028,3.13" transform="translate(-99.902 -201.706)" fill="none" stroke="#182e54" stroke-linecap="round" stroke-linejoin="round" stroke-width="2"/>
        <path id="Path_42236" data-name="Path 42236" d="M75.328,278.688H87.784c5.536,0,5.536-6.92,0-6.92h-8.3c-1.153,0-3.315-2.768-5.144-2.768h-6.92c-1.87,0-4.193,1.517-5.536,2.768-2.074,2.074-5.632,5.441-5.632,5.441" transform="translate(-46.518 -222.462)" fill="none" stroke="#182e54" stroke-linecap="round" stroke-linejoin="round" stroke-width="2"/>
        <path id="Path_42237" data-name="Path 42237" d="M9,306.5l5.5-5.5,15.224,15.224-5.559,5.559" transform="translate(-7.443 -248.926)" fill="none" stroke="#182e54" stroke-linecap="round" stroke-linejoin="round" stroke-width="2"/>
      </g>
    </g>
  </g>
</svg>
