<svg xmlns="http://www.w3.org/2000/svg" width="169.215" height="157.385" viewBox="0 0 169.215 157.385">
  <g id="Group_15281" data-name="Group 15281" transform="translate(3.213 2.712)">
    <path id="Path_38204" data-name="Path 38204" d="M26.3,108.246c.4-.532,17.742,8.333,18.021,7.961,0,0-19.713-10.077-19.445-10.433,0,0,26.734,12,26.84,11.857.6-.8-41.622-26.451-41.622-26.451,1.111-1.478,57.074,25.573,57.278,25.3C68.188,115.4,5.114,83.935,5.114,83.935c.7-.929,81.106,35.829,81.106,35.829L4.668,78.726l82.806,36.581S4.508,71.388,5.436,70.154c.141-.187,89.577,42.253,91.091,40.24,2.026-2.695-88.153-43.18-88.153-43.18s100.171,46.8,101.611,44.887c1.59-2.116-103.1-46.666-102.688-47.22,1.144-1.524,98.131,46.681,100.01,44.18,0,0-109.069-49.467-107.375-51.72l114.84,50.733C115.732,106.8,4.657,51.066,4.657,51.066,5.685,49.7,120.9,102.418,120.9,102.418L7.434,46.41C9.72,43.37,117.436,95,117.436,95L9.821,39.723s112,50.924,112.817,49.837c.778-1.032-119.016-52.01-118.25-53.03,2.742-3.648,124.333,54.924,124.333,54.924C130.6,88.958,3.146,31.705,6.008,27.9c2.628-3.5,123.04,54.526,123.137,54.4L6.556,20.838c1.13-1.5,125.172,59.235,127.394,56.278C135.923,74.494,8.762,22.288,11.606,18.5,13,16.65,131.5,71.467,131.5,71.467S18.755,19.943,19.7,18.682L131.882,68.238c.895-1.19-118.483-56.109-117.044-58.021,1.762-2.346,120.48,55.157,121.571,53.7,1.185-1.574-116.741-57.039-116.017-58C22.365,3.3,135.046,56.855,135.205,56.64,135.573,56.151,26.025,3.7,26.427,3.16,28.545.345,133.041,53.551,134.9,51.08c.694-.923-95.64-49.446-94.529-50.922l94.752,41.856C136.01,40.835,40.7,1.193,41.619-.03c1.085-1.445,90.669,43.453,92.587,40.9C135.473,39.186,46.336,1.2,46.338,1.2c1.018-1.355,89.445,39.512,89.445,39.512S54.911,2.187,55.829.964C56.177.5,123,32.819,124.227,31.18c0,0-63.512-28.379-62.142-30.2,0,0,53.359,25.464,54.426,24.044.3-.4-37.437-19.452-36.705-20.426,0,0,19.819,9.635,20.316,8.976" transform="matrix(-0.966, 0.259, -0.259, -0.966, 162.664, 115.859)" fill="none" stroke="#38c2d9" stroke-width="5"/>
    <g id="Group_13951" data-name="Group 13951" transform="translate(49.661 39.043)">
      <path id="Path_38195" data-name="Path 38195" d="M85.478,173.359a75.26,75.26,0,0,1-10.55,6.48C73.409,179.445,48,164.581,48,154.461V136.506" transform="translate(-43.208 -112.321)" fill="none" stroke="#182e54" stroke-linecap="round" stroke-linejoin="round" stroke-width="1.5"/>
      <g id="Group_13950" data-name="Group 13950">
        <g id="Group_13944" data-name="Group 13944" transform="translate(10.824 19.229)">
          <g id="Group_13937" data-name="Group 13937" transform="translate(0 0)">
            <g id="Group_13949" data-name="Group 13949">
              <path id="Path_38173" data-name="Path 38173" d="M528.562,927.758l-1.884,1.884a2.253,2.253,0,0,0,3.187,3.187l1.884-1.884a2.253,2.253,0,0,0-3.187-3.187Z" transform="translate(-508.868 -898.649)" fill="#fff" stroke="#182e54" stroke-miterlimit="22.926" stroke-width="1.5"/>
              <path id="Path_38183" data-name="Path 38183" d="M15.037,34.034l9.527-9.392,2.528.542L30.434,26.9l7.393-2.541L48.27,34.8l-3.36,6.321v3.1l-8.47,7.542-3.244-1.9-2.128,1.9-14.63-13.8Z" transform="translate(-10.143 -19.885)" fill="#fff"/>
              <path id="Path_38171" data-name="Path 38171" d="M414.042,774.778l-4.132,4.132A2.254,2.254,0,0,0,413.1,782.1l4.132-4.132a2.253,2.253,0,0,0-3.187-3.187Z" transform="translate(-398.592 -754.174)" fill="#fff" stroke="#182e54" stroke-miterlimit="22.926" stroke-width="1.5"/>
              <path id="Path_38172" data-name="Path 38172" d="M470.2,853.136l-2.963,2.963a2.253,2.253,0,1,0,3.187,3.187l2.963-2.963a2.253,2.253,0,1,0-3.187-3.187Z" transform="translate(-452.73 -828.175)" fill="#fff" stroke="#182e54" stroke-miterlimit="22.926" stroke-width="1.5"/>
              <path id="Path_38174" data-name="Path 38174" d="M357.007,742.181l-2.659,2.659a2.253,2.253,0,1,0,3.187,3.187l2.659-2.659a2.253,2.253,0,1,0-3.187-3.187Z" transform="translate(-346.118 -723.388)" fill="#fff" stroke="#182e54" stroke-miterlimit="22.926" stroke-width="1.5"/>
              <path id="Path_38175" data-name="Path 38175" d="M640.221,847.586l.874.9a2.253,2.253,0,0,0,3.187-3.187l-3.966-3.966" transform="translate(-616.72 -817.651)" fill="#fff" stroke="#182e54" stroke-linecap="round" stroke-linejoin="round" stroke-width="1.5"/>
              <path id="Path_38176" data-name="Path 38176" d="M687.484,778.6l.346.345a2.253,2.253,0,0,0,3.187-3.187l-5.1-5.1" transform="translate(-659.874 -750.907)" fill="none" stroke="#182e54" stroke-linecap="round" stroke-linejoin="round" stroke-width="1.5"/>
              <path id="Path_38177" data-name="Path 38177" d="M681.1,690.916l5.228,5.227.4.4a2.254,2.254,0,0,0,3.187-3.187l-6.789-6.854" transform="translate(-655.327 -671.428)" fill="#fff" stroke="#182e54" stroke-linecap="round" stroke-linejoin="round" stroke-width="1.5"/>
              <path id="Path_38178" data-name="Path 38178" d="M300.382,506.827l-1.879-1.879a8.067,8.067,0,0,1-2.322-4.889m9.866-9.883a8.067,8.067,0,0,1,4.9,2.324l1.076,1.076" transform="translate(-291.805 -486.013)" fill="none" stroke="#182e54" stroke-linecap="round" stroke-linejoin="round" stroke-width="1.5"/>
              <path id="Path_38179" data-name="Path 38179" d="M496.683,491.354a5.469,5.469,0,0,1-2.7,2.111,4.692,4.692,0,0,1-3.845-.517,3.732,3.732,0,0,0-1.417-.517,2.325,2.325,0,0,0-1.875.98l-1.662,1.662a3.866,3.866,0,0,1-5.45,0l-.13-.131a.893.893,0,0,1,0-1.259l6.588-6.588c1.985-1.985,4.046-2.821,6.057-2.587" transform="translate(-464.785 -480.625)" fill="#fff" stroke="#182e54" stroke-linecap="round" stroke-linejoin="round" stroke-width="1.5"/>
              <path id="Path_38180" data-name="Path 38180" d="M833.824,680.748l.979-.979c2.009-2.009,2.84-4.094,2.578-6.128" transform="translate(-799.561 -659.28)" fill="none" stroke="#182e54" stroke-linecap="round" stroke-linejoin="round" stroke-width="1.5"/>
              <path id="Path_38181" data-name="Path 38181" d="M230.157,419.326l2.016,2.016a.9.9,0,0,1,0,1.275l-11.407,11.406a.9.9,0,0,1-1.275,0l-2.016-2.016" transform="translate(-217.476 -419.102)" fill="none" stroke="#182e54" stroke-linecap="round" stroke-linejoin="round" stroke-width="1.5"/>
              <path id="Path_38182" data-name="Path 38182" d="M712.869,427.98l-2.04,2.04a.9.9,0,0,1-1.275,0l-11.407-11.407a.9.9,0,0,1,0-1.275l2.04-2.04" transform="translate(-671.178 -415.299)" fill="none" stroke="#182e54" stroke-linecap="round" stroke-linejoin="round" stroke-width="1.5"/>
            </g>
          </g>
        </g>
        <path id="Path_38194" data-name="Path 38194" d="M39.67,8C42.8,12.18,62.405,19.932,71.34,19.932V52.318c0,11.556-29.883,28.528-31.67,28.977C37.883,80.846,8,63.874,8,52.318V19.932C16.935,19.932,36.543,12.18,39.67,8Z" transform="translate(-8 -8)" fill="none" stroke="#182e54" stroke-linecap="round" stroke-linejoin="round" stroke-width="1.5"/>
        <path id="Path_38196" data-name="Path 38196" d="M88.972,64.027c7.11-2.294,14.545-5.912,16.243-8.249,2.646,3.644,19.24,10.4,26.8,10.4v28.23c0,2.719-1.842,5.782-4.562,8.812" transform="translate(-74.319 -50.215)" fill="none" stroke="#182e54" stroke-linecap="round" stroke-linejoin="round" stroke-width="1.5"/>
      </g>
    </g>
  </g>
</svg>
