<svg xmlns="http://www.w3.org/2000/svg" xmlns:xlink="http://www.w3.org/1999/xlink" width="562.559" height="542.887" viewBox="0 0 562.559 542.887">
  <defs>
    <clipPath id="clip-path">
      <path id="Path_46047" data-name="Path 46047" d="M-16671.111-7073.446l43.52-204.887-21.174-48.59,21.174-28.442,15.289-94.81-65.861-105.474,118.787-18.963,39.988,68.737,119.965-32,184.653-17.777,72.919,61.625-52.926,74.663-15.287,100.734-4.706,71.107,72.919,105.475v37.923l-55.911,20.219-67.724,3.549-273.895,21.266Z" transform="translate(17010 8879)" fill="none" stroke="#707070" stroke-width="1"/>
    </clipPath>
    <clipPath id="clip-path-2">
      <rect id="Rectangle_7253" data-name="Rectangle 7253" width="858.066" height="600.253" fill="#182e54" stroke="#182e54" stroke-width="1"/>
    </clipPath>
  </defs>
  <g id="Mask_Group_170" data-name="Mask Group 170" transform="matrix(0.999, 0.052, -0.052, 0.999, -236.133, -1319.967)" clip-path="url(#clip-path)">
    <g id="Group_17797" data-name="Group 17797" transform="translate(-9.458 1199.89)">
      <g id="Group_17796" data-name="Group 17796" transform="translate(0 0)">
        <g id="Group_17795" data-name="Group 17795" transform="translate(0 0)" clip-path="url(#clip-path-2)">
          <path id="Path_45978" data-name="Path 45978" d="M1809.609,950.783c-2.832.31-4.248-.573-5.056-2.67-.57-1.485-1.32-2.9-2-4.341-1.472-3.12-1.62-6.245.249-9.225.9-1.443,1.136-2.6-.264-3.822a8.684,8.684,0,0,1-1.236-1.656c-2.405-3.438-2.029-5.223,1.564-7.549.959-.621,1.862-1.332,2.833-1.93,3.076-1.893,3.881-5.223,4.9-8.317.337-1.024-.344-2.4-.607-3.881-4.857,3.383-9.377,6.2-15.121,3.693,2.031-5.344,5.523-8.216,10.771-8.756a17.972,17.972,0,0,1,2.037-.028c1.053.013,2.574.5,3.068-.022a11.824,11.824,0,0,0,2.8-4.617c.8-2.776-.317-4.674-2.813-6.027-.532-.29-.992-.713-1.5-1.05-1.372-.9-2.417-1.132-3.95.246-3.924,3.527-8.433,5.832-13.947,4.443-3.031-.763-4.144-2.577-2.645-4.462a8.471,8.471,0,0,1,3.412-2.562,28.407,28.407,0,0,1,6.546-1.665,59.676,59.676,0,0,1,7.04-.058,31.962,31.962,0,0,0-.08-6.046,5.028,5.028,0,0,0-4.494-4.027,46.455,46.455,0,0,0-6.078-.055c.626-1.887,5.775-2.958,9.2-1.675,4.2,1.573,6.3,4.623,4.447,12.181,1.578.976,3.205,1.917,4.766,2.961a8.35,8.35,0,0,1,.737,13.269c-1.528,1.239-1.7,2.346-.949,3.94,2.115,4.492.186,8.141-2.584,11.424a73,73,0,0,1-5.724,5.5c-1.322,1.256-1.693,2.555-.159,3.936.11.1.166.265.277.365,2.392,2.163,2.377,4.316.8,7.2-2.126,3.868-.225,7.609,1.527,11.157.631,1.279,1.355,2.509,2.238,4.125m-6.505-61.542c-3.538-.174-7.059-.259-10.182,1.764a9.007,9.007,0,0,0-1.563,1.707,7.512,7.512,0,0,0,2.148.923c3.921.346,6.8-1.89,9.6-4.394m4.507,15.894a7.158,7.158,0,0,0-8,4.392c2.33.183,4.988-1.245,8-4.392" transform="translate(-1308.63 -635.441)" fill="#182e54" stroke="#182e54" stroke-width="1" fill-rule="evenodd"/>
          <path id="Path_45979" data-name="Path 45979" d="M250.9,753.986c1.752-3.548,3.653-7.289,1.527-11.157-1.58-2.88-1.6-5.034.8-7.2.112-.1.167-.267.277-.365,1.534-1.381,1.164-2.679-.158-3.936a72.977,72.977,0,0,1-5.724-5.5c-2.77-3.283-4.7-6.932-2.584-11.424.75-1.593.579-2.7-.949-3.94a8.351,8.351,0,0,1,.737-13.269c1.56-1.044,3.187-1.985,4.766-2.961-1.85-7.558.242-10.608,4.447-12.181,3.425-1.283,8.574-.212,9.2,1.675a46.38,46.38,0,0,0-6.078.055,5.026,5.026,0,0,0-4.494,4.027,31.936,31.936,0,0,0-.08,6.046,59.666,59.666,0,0,1,7.04.059,28.394,28.394,0,0,1,6.546,1.665,8.473,8.473,0,0,1,3.412,2.562c1.5,1.885.385,3.7-2.645,4.462-5.514,1.389-10.023-.916-13.947-4.443-1.534-1.377-2.578-1.15-3.95-.246-.508.337-.968.761-1.5,1.05-2.5,1.353-3.609,3.251-2.813,6.027a11.821,11.821,0,0,0,2.8,4.617c.493.522,2.014.036,3.068.023a17.838,17.838,0,0,1,2.037.028c5.248.539,8.74,3.412,10.771,8.756-5.744,2.506-10.264-.31-15.121-3.694-.263,1.484-.944,2.857-.607,3.881,1.022,3.094,1.828,6.424,4.9,8.317.971.6,1.874,1.309,2.833,1.93,3.593,2.326,3.969,4.11,1.563,7.548a8.687,8.687,0,0,1-1.236,1.656c-1.4,1.223-1.169,2.379-.264,3.823,1.869,2.981,1.722,6.1.249,9.225-.68,1.442-1.43,2.855-2,4.341-.808,2.1-2.225,2.98-5.056,2.67.883-1.615,1.607-2.846,2.238-4.125m13.865-53.023a7.525,7.525,0,0,0,2.148-.923,9.022,9.022,0,0,0-1.564-1.707c-3.123-2.023-6.644-1.937-10.182-1.763,2.8,2.5,5.677,4.74,9.6,4.394m-6.1,15.892a7.159,7.159,0,0,0-8-4.392c3.014,3.147,5.672,4.576,8,4.392" transform="translate(-175.736 -495.186)" fill="#182e54" stroke="#182e54" stroke-width="1" fill-rule="evenodd"/>
          <path id="Path_45980" data-name="Path 45980" d="M1223.193,862.439c-1.731.9-3.834,1.277-5.445.324a62.836,62.836,0,0,1-8.785-6.4c-3.639-3.119-3.766-7.728-4.222-12.08a31.922,31.922,0,0,1,.244-4.941c-2.839-2.1-3.624-4.683-2.655-8.494.76-2.99,1.247-6.071,3.587-8.2-1.431-1.869-2.82-3.661-4.183-5.469a4.788,4.788,0,0,1-.2-5.615c1.836-3.37,3.984-6.621,7.774-7.647,2.3-.624,4.915-.157,7.379-.034.415.023.793.8,1.184,1.215a2.785,2.785,0,0,1-3.684,1.147,6.033,6.033,0,0,0-7.238,2.751c-.681,1.111-1.271,2.28-1.908,3.42a2.8,2.8,0,0,0,.311,3.6c1.23,1.4,2.318,2.931,3.658,4.651a10.291,10.291,0,0,1,8.308-3.5c1.871-.008,6.122,2.507,6.48,3.824.395,1.448.022,2.163-1.568,2.292-4.028.325-7.988,1.468-12.119.558-.763-.168-2.323.994-2.7,1.893a35.3,35.3,0,0,0-2.237,7.668c-.183,1.111.745,2.413,1.01,3.177,2.828-1.011,5.1-1.932,7.437-2.627,2.63-.78,4.709.678,6.668,2.157a1.724,1.724,0,0,1-.448,3.077,86.748,86.748,0,0,1-9.732,1.924c-1.489.2-2.055.753-1.968,2.129.372,5.876,2.145,11.025,7.264,14.458.746.5,1.27,1.362,2.033,1.822a31.8,31.8,0,0,0,3.939,1.929,8.117,8.117,0,0,0,1.826.338c-.005.218-.009.437-.015.655m-6.32-25.215c-2.843-1.556-5.175-1.026-6.631,1.368,2.491,1.357,4.4.028,6.631-1.368m-3.825-15.466,6.658-.462c-3.07-2.019-4.617-1.97-6.658.462" transform="translate(-878.504 -584.079)" fill="#182e54" stroke="#182e54" stroke-width="1" fill-rule="evenodd"/>
          <path id="Path_45981" data-name="Path 45981" d="M2526.083,746.808c-.84,0-1.733-.034-2.623.005a4.939,4.939,0,0,0-4.479,7.1,16.274,16.274,0,0,0,4.889,6.468,30.942,30.942,0,0,1,6.467,7.864c1.694,2.736-.7,4.75-2.316,6.536s-3.682,3.172-5.434,4.856c-4.107,3.947-3.666,7.834.955,11.623a18.654,18.654,0,0,1,3.85,3.822,3.972,3.972,0,0,1-.131,3.266,52.768,52.768,0,0,1-3.477,5.446c.978.9,1.742,2.032,2.788,2.475,2.275.962,2.206,2.557,1.827,4.549-.992,5.215.175,10.249,1.394,15.275a8.921,8.921,0,0,1-.1,2.452c-.663-.54-1.556-.943-1.953-1.639a24.8,24.8,0,0,1-2.9-14.961,4.578,4.578,0,0,0-2.148-4.842c-3.546-2.449-3.6-3.647-.534-6.775,2.746-2.8,2.684-3.593-.384-6.159-1.113-.933-2.155-1.951-3.243-2.918a7.5,7.5,0,0,1-2.554-7.475c.491-1.953,2.32-3.662,3.8-5.23,1.677-1.773,3.688-3.209,5.46-4.9,2.2-2.095,2.472-4.16.521-6.441a76.949,76.949,0,0,0-6.258-6.137,15.071,15.071,0,0,1-4.926-10.015c-.189-2.263,3.446-5.62,6.135-6.129,1.192-.225,2.4-.352,3.608-.49,1.554-.178,2.357.359,1.763,2.369" transform="translate(-1840.729 -540.986)" fill="#182e54" stroke="#182e54" stroke-width="1" fill-rule="evenodd"/>
          <path id="Path_45982" data-name="Path 45982" d="M1627.4,755.324a26.549,26.549,0,0,1-4.19,1.105c-2.889.239-5.477.9-7.175,3.573a14.044,14.044,0,0,1-1.372,1.552c-1.491,1.707-1.322,3.5.346,5.011,3.368,3.058,6.69,6.166,10.462,9.651-2.386,1.726-4.567,3.406-6.847,4.931-3.731,2.5-3.984,5.859-.548,8.8,1.562,1.336,3.159,2.63,4.766,3.912,1.405,1.12,1.3,2.361-.082,4.186a27.267,27.267,0,0,0-2.841,4.617c-1.193,2.487-.026,4.413,1.735,6.146,1.958,1.924,3.883,3.891,5.752,5.9a9.965,9.965,0,0,1,1.037,2.348c-5.087-2.367-9.144-4.95-11.769-9.242-1.577-2.579-.808-6.678,1.289-8.9,2.595-2.753,2.546-2.691-.386-5.111a35.236,35.236,0,0,1-4.222-4.2c-2.428-2.827-1.616-7.068,1.83-9.6,1.752-1.289,3.638-2.392,6.264-4.521a7.979,7.979,0,0,1-2.132-.923c-2.658-2.263-5.252-4.606-7.847-6.945-1.506-1.357-1.931-2.88-.651-4.683a6.472,6.472,0,0,0,.869-1.858c1.707-5.709,9.7-9.165,15.71-5.759" transform="translate(-1178.289 -547.951)" fill="#182e54" stroke="#182e54" stroke-width="1" fill-rule="evenodd"/>
          <path id="Path_45983" data-name="Path 45983" d="M1033.569,747.517c1.145-6.916,6.767-10.69,10.931-15.761-2.858-2.206-6.043-4.017-10.17-3.745q-1.639,3.886-3.275,7.755l.614.3q1.455-1.244,2.911-2.485c.19.142.38.284.57.428-.573,1.086-1.069,2.222-1.733,3.243-1.741,2.684-4.194,4.945-4.178,8.6,0,.524-1.778,1.487-2.734,1.485-1.608,0-1.169-1.211-.856-2.365.92-3.4,1.6-6.873,2.539-10.268a50.634,50.634,0,0,1,3.029-8.924c.4-.806,2.848-1.207,4.075-.834a100.682,100.682,0,0,1,10.1,3.964,33.814,33.814,0,0,1,3.518,2.013,5.117,5.117,0,0,1-2.653,4.269c-2.269,1.521-4.008,3.9-5.866,6.006-1.715,1.945-3.262,4.042-4.943,6.019a4.823,4.823,0,0,1-1.405.81l-.48-.507" transform="translate(-750.063 -526.714)" fill="#182e54" stroke="#182e54" stroke-width="1" fill-rule="evenodd"/>
          <path id="Path_45984" data-name="Path 45984" d="M2081.689,675.632h15.748c-2.394-3.225-4.421-5.95-6.459-8.693,1.61-1.251,2.595-.772,3.57.388,2.152,2.553,4.4,5.024,6.523,7.6.27.327.115,1.088.034,1.627a11.954,11.954,0,0,1-.544,1.735c-6.718.133-13.582,1.491-20.4-.412a4.542,4.542,0,0,1-2.057-.865,1.906,1.906,0,0,1-.1-1.834,31.433,31.433,0,0,0,9.7-14.709c.363-1.236,1.166-2.008,2.316-1.463a2.381,2.381,0,0,1,.685,2.218c-1.764,3.609-3.649,7.166-5.663,10.639-.707,1.222-1.893,2.157-3.354,3.77" transform="translate(-1520.861 -478.689)" fill="#182e54" stroke="#182e54" stroke-width="1" fill-rule="evenodd"/>
          <path id="Path_45985" data-name="Path 45985" d="M2836.714,839.463l8.409-13.536c-3.96.336-7.31.623-10.68.91-.181-2.052.743-2.643,2.229-2.862,3.272-.486,6.527-1.1,9.8-1.548.416-.057.967.482,1.372.84a11.707,11.707,0,0,1,1.153,1.394c-3.477,5.845-6.011,12.47-11.235,17.314a4.589,4.589,0,0,1-1.818,1.306c-.466.1-1.514-.494-1.577-.9a31.645,31.645,0,0,0-7.056-16.19c-.834-.972-1.048-2.074.02-2.772a2.3,2.3,0,0,1,2.21.6c2.06,3.443,4.013,6.963,5.826,10.548a28.168,28.168,0,0,1,1.344,4.9" transform="translate(-2069.258 -597.777)" fill="#182e54" stroke="#182e54" stroke-width="1" fill-rule="evenodd"/>
          <path id="Path_45986" data-name="Path 45986" d="M1343.3,1167.066a11.68,11.68,0,0,1,3.9-7.773,26.8,26.8,0,0,0,6.983-11.937,4.739,4.739,0,0,0-.14-1.177,48.658,48.658,0,0,0-4.125,5.189c-2.17,3.664-4.162,7.441-6.082,11.248-.89,1.763-1.912,2.24-3.786,1.048.968-2.18,1.781-4.485,2.965-6.574,2.082-3.667,4.295-7.271,6.638-10.773,1.329-1.987,3.073-3.484,5.8-3.329,2.466.142,3.172,1.328,2.532,3.79-1.59,6.114-5.4,10.713-9.418,15.249a17.868,17.868,0,0,0-2.647,4.258c-.618,1.311-1.314,1.5-2.615.781" transform="translate(-980.54 -831.124)" fill="#182e54" stroke="#182e54" stroke-width="1" fill-rule="evenodd"/>
          <path id="Path_45987" data-name="Path 45987" d="M590.321,791.879c.527-3.629,5.369-5.4,3.381-10.631,1.634.5,2.99.5,3.569,1.177a3.051,3.051,0,0,1-.03,4.209,17.577,17.577,0,0,0-4.462,9.6,3.078,3.078,0,0,1-2.018,1.883c-.523.138-1.594-.713-1.979-1.383q-3.247-5.645-6.23-11.45a2.3,2.3,0,0,1,.134-2.081c3.552-3.624,4.158-8.724,6.491-12.936.333-.6,1.45-.759,2.2-1.12.247.643.873,1.446.685,1.9a108.123,108.123,0,0,1-4.63,10.266c-1.031,1.909-1.69,3.52-.519,5.554.966,1.678,1.772,3.451,2.649,5.182l.756-.176" transform="translate(-425.636 -558.996)" fill="#182e54" stroke="#182e54" stroke-width="1" fill-rule="evenodd"/>
          <path id="Path_45988" data-name="Path 45988" d="M423,511.1c.527-3.629,5.369-5.4,3.381-10.631,1.634.5,2.99.5,3.569,1.177a3.051,3.051,0,0,1-.03,4.209,17.577,17.577,0,0,0-4.462,9.6,3.079,3.079,0,0,1-2.018,1.883c-.523.138-1.593-.713-1.979-1.383q-3.247-5.645-6.23-11.45a2.3,2.3,0,0,1,.134-2.082c3.552-3.624,4.158-8.724,6.491-12.936.333-.6,1.45-.759,2.2-1.12.248.643.873,1.446.685,1.9a108.114,108.114,0,0,1-4.63,10.266c-1.031,1.909-1.69,3.52-.519,5.554.966,1.678,1.772,3.452,2.649,5.183L423,511.1" transform="translate(-303.097 -354.605)" fill="#182e54" stroke="#182e54" stroke-width="1" fill-rule="evenodd"/>
          <path id="Path_45989" data-name="Path 45989" d="M1439.716,557.1a14.729,14.729,0,0,1,1.02-1.586,22.983,22.983,0,0,1,2.973-3.357c1.879-1.525,1.9-2.536-.093-3.874-1.94-1.3-3.846-2.662-5.677-4.118-.392-.312-.39-1.135-.571-1.724,1.027-.265,2.6-1.086,2.985-.7,1.333,1.336,3.485,1.342,4.451,3.425.583,1.253,2.437,1.89,3.7,2.831.646.478,1.253,1.014,2.175,1.767a26.2,26.2,0,0,1-3.254,3.111c-3.343,2.216-5.037,5.59-6.731,9.057a3.843,3.843,0,0,1-2.459,2.006c-.591.065-1.6-1.294-1.983-2.206-1.374-3.321-.048-6.68.19-10.015a3.185,3.185,0,0,1,1.38-1.951,2.031,2.031,0,0,1,1.818.06c.3.168.339,1.062.259,1.591-.265,1.792-.635,3.567-.964,5.348l.778.329" transform="translate(-1050.551 -393.386)" fill="#182e54" stroke="#182e54" stroke-width="1" fill-rule="evenodd"/>
          <path id="Path_45990" data-name="Path 45990" d="M1217.189,1180.348c-.5,3.664-1.534,5.041-4.484,5.4a2.367,2.367,0,0,1-1.656-.316c-2.3-1.936-4.129-4.155-4.656-7.353-.722-4.4-1.73-8.744-2.53-13.129-.1-.529.177-1.484.543-1.654a1.819,1.819,0,0,1,1.724.4c2.844,3.7,5.681,7.419,8.336,11.263a42.387,42.387,0,0,1,2.724,5.386m-4.332,2.687c1.539-3.94.435-6.545-3.984-10.06-.22,3.871,1.392,6.983,3.984,10.06" transform="translate(-880.788 -845.859)" fill="#182e54" stroke="#182e54" stroke-width="1" fill-rule="evenodd"/>
          <path id="Path_45991" data-name="Path 45991" d="M2858.1,1081.969c-1.844-2.875-5.414-4.495-5.586-8.6a10.959,10.959,0,0,0-.409-2.242,12.487,12.487,0,0,1,2.07-10.63,4.2,4.2,0,0,1,3.389-1.594,4.033,4.033,0,0,1,2.631,2.64c.424,2.266.741,4.846.077,6.966a29.158,29.158,0,0,0-1.319,11.154,11.05,11.05,0,0,1-.21,2l-.643.3m-2.07-8.074c.653-3.843,2.25-7.344,1.637-11.341-3.608,1.974-4.375,7.41-1.637,11.341" transform="translate(-2087.63 -769.906)" fill="#182e54" stroke="#182e54" stroke-width="1" fill-rule="evenodd"/>
          <path id="Path_45992" data-name="Path 45992" d="M283.164,1132.5c.262,2.045.56,4.085.761,6.137a4.016,4.016,0,0,1-.385,1.373c-.387-.295-1.007-.514-1.125-.9-.94-3.063-1.662-6.2-2.693-9.225a68.468,68.468,0,0,0-3.256-7.762c-.281-.577-1.342-.763-2.042-1.129-.183.756-.685,1.614-.492,2.252.974,3.219,2.167,6.367,3.187,9.571a6.346,6.346,0,0,1-.056,2.062c-.648-.21-1.463-.244-1.9-.675a5.871,5.871,0,0,1-1.363-2.265c-1.067-3.122-2.139-6.25-3-9.435-.708-2.613.5-4.127,3.161-4.38a6.5,6.5,0,0,1,6.7,4.133c1.113,3.332,1.988,6.746,2.966,10.126l-.464.114" transform="translate(-197.305 -813.014)" fill="#182e54" stroke="#182e54" stroke-width="1" fill-rule="evenodd"/>
          <path id="Path_45993" data-name="Path 45993" d="M2176.661,965c-.917-.053-2.013.206-2.725-.212-2.338-1.372-4.928-2.623-6.713-4.587-4.184-4.61-7.143-5.137-12.334-1.584-2.794,1.911-5.7,3.677-8.64,5.339-.517.293-1.489-.242-2.252-.394a7.277,7.277,0,0,1,1.277-1.93c1.919-1.484,3.972-2.785,5.916-4.237,3.088-2.307,6.348-4.275,10.254-4.508a6.082,6.082,0,0,1,3.755,1.054c1.984,1.5,3.643,3.429,5.514,5.094,1.737,1.548,3.576,2.975,5.357,4.471a7.276,7.276,0,0,1,.743.835q-.075.329-.151.658" transform="translate(-1569.331 -692.746)" fill="#182e54" stroke="#182e54" stroke-width="1" fill-rule="evenodd"/>
          <path id="Path_45994" data-name="Path 45994" d="M2145.991,1022.386c4.918-3.509,9.613-6.975,14.455-10.213a5.372,5.372,0,0,1,3.9-.695,14.717,14.717,0,0,1,7.035,4.774c2.321,2.566,4.876,4.914,7.4,7.424-.685,1-3.1,1.243-4.957-.3-1.986-1.642-3.647-3.684-5.512-5.486a20.2,20.2,0,0,0-3.818-3.223,3.386,3.386,0,0,0-2.964.1c-3.995,2.61-7.863,5.421-11.772,8.167-1.281.9-2.523,1.417-3.76-.556" transform="translate(-1570.792 -735.314)" fill="#182e54" stroke="#182e54" stroke-width="1" fill-rule="evenodd"/>
          <path id="Path_45995" data-name="Path 45995" d="M611.757,1113.54c2.677-1.693,3.3-1.449,4.194,1.313,1.126,3.47,2.355,6.907,3.573,10.345a4.662,4.662,0,0,0,.752,1.045c.19-.061.38-.12.568-.178-1.141-4.177-2.284-8.351-3.476-12.707,2.625-.166,3.379,1.7,3.853,3.085a96.55,96.55,0,0,1,2.763,10.43c.372,1.677-1.147,3.491-3.049,4.017-1.783.492-2.107-.91-2.958-2.045-2.952-3.932-4.194-8.452-5.125-13.154a8.766,8.766,0,0,0-1.095-2.152" transform="translate(-447.16 -808.92)" fill="#182e54" stroke="#182e54" stroke-width="1" fill-rule="evenodd"/>
          <path id="Path_45996" data-name="Path 45996" d="M2694.263,1068.347c2.677-1.693,3.3-1.449,4.194,1.313,1.126,3.47,2.355,6.907,3.572,10.345a4.65,4.65,0,0,0,.752,1.045l.568-.178c-1.141-4.177-2.284-8.351-3.475-12.707,2.625-.166,3.378,1.705,3.853,3.085a96.412,96.412,0,0,1,2.762,10.43c.372,1.677-1.146,3.491-3.049,4.017-1.783.492-2.107-.91-2.958-2.045-2.952-3.932-4.193-8.452-5.124-13.154a8.784,8.784,0,0,0-1.094-2.152" transform="translate(-1972.331 -776.022)" fill="#182e54" stroke="#182e54" stroke-width="1" fill-rule="evenodd"/>
          <path id="Path_45997" data-name="Path 45997" d="M405.5,1114.862c-2.055,3.388-3.591,6.958-3.027,11.471-.987.064-2.035.136-3.715.248a67.517,67.517,0,0,1,1.485-8.3,27.055,27.055,0,0,1,3.37-7.179c.618-.914,2.494-1.249,3.794-1.234.48,0,1.387,1.779,1.342,2.71a45.877,45.877,0,0,1-3.3,15.906,1.742,1.742,0,0,1-1.527.755,1.681,1.681,0,0,1-.912-1.389c.421-1.86,1.217-3.641,1.567-5.509.462-2.463.629-4.982.923-7.478" transform="translate(-291.165 -807.022)" fill="#182e54" stroke="#182e54" stroke-width="1" fill-rule="evenodd"/>
          <path id="Path_45998" data-name="Path 45998" d="M819.317,1013.457c.737-2.405,1.463-4.814,2.219-7.214a16.822,16.822,0,0,1,1.307-3.66,9.019,9.019,0,0,1,2.286-1.9c.264.2.53.407.8.61-1.3,4.29-2.344,8.688-4.039,12.807-.553,1.338-2.712,2.316-4.325,2.776a2.19,2.19,0,0,1-2.863-2.331q.192-4.9.665-9.789a20.624,20.624,0,0,1,1-4.436,2.282,2.282,0,0,1,1.422-1.414,3.347,3.347,0,0,1,2.193.793c.223.178-.047,1.2-.29,1.743-1.728,3.821-2.558,7.7-1.243,11.776.288.082.577.163.867.242" transform="translate(-595.787 -726.239)" fill="#182e54" stroke="#182e54" stroke-width="1" fill-rule="evenodd"/>
          <path id="Path_45999" data-name="Path 45999" d="M1064.732,2048.521c-1.675-.554-3.559-.781-4.985-1.724-4.544-3.015-8.95-6.247-13.333-9.505a9.857,9.857,0,0,1-2.485-2.971c-.341-.59-.1-1.531-.116-2.312.91.1,2.329-.144,2.653.35,3.976,6.1,11,8.133,16.115,12.669.918.814,1.7,1.779,2.548,2.674l-.4.819" transform="translate(-763.538 -1478.294)" fill="#182e54" stroke="#182e54" stroke-width="1" fill-rule="evenodd"/>
          <path id="Path_46000" data-name="Path 46000" d="M487.048,2012.72a56.668,56.668,0,0,0,3.857,6.431,12.3,12.3,0,0,1,2.717,9.2c-.177,1.921-.54,3.84-.529,5.756.011,1.675-.879,2.1-2.094,1.825-.378-.088-.756-1.39-.683-2.086.335-3.264,1.1-6.572-.363-9.7-1.042-2.231-2.545-4.235-3.669-6.435a6.184,6.184,0,0,1-.782-3.353c.1-.733,1.225-1.325,1.545-1.641" transform="translate(-354.674 -1464.254)" fill="#182e54" stroke="#182e54" stroke-width="1" fill-rule="evenodd"/>
          <path id="Path_46001" data-name="Path 46001" d="M503.848,2123.074c0,2.988-.037,5.993.015,9a30.322,30.322,0,0,1,.248,4.339c-.1.778-1.074,1.436-1.653,2.149-.627-.6-1.77-1.177-1.8-1.8-.149-3.6.008-7.2-.024-10.8-.021-2.521.318-2.914,3.211-2.878" transform="translate(-365.748 -1544.584)" fill="#182e54" stroke="#182e54" stroke-width="1" fill-rule="evenodd"/>
          <path id="Path_46002" data-name="Path 46002" d="M654.041,2117.481c.2-5.243.363-10.506.661-15.759.03-.535.871-1.023,1.337-1.532.358.5,1.02,1,1.02,1.5,0,4.451-.127,8.9-.2,13.352-.028,1.713-.56,2.841-2.822,2.443" transform="translate(-478.127 -1527.927)" fill="#182e54" stroke="#182e54" stroke-width="1" fill-rule="evenodd"/>
          <path id="Path_46003" data-name="Path 46003" d="M527.285,2048.42c.054,3.077.171,6.158.095,9.231-.013.479-.91.933-1.4,1.4-.422-.574-1.13-1.113-1.214-1.735-.333-2.47-.45-4.97-.691-7.455-.212-2.226,1.515-1.227,2.35-1.715.285.093.571.184.856.276" transform="translate(-382.934 -1490.04)" fill="#182e54" stroke="#182e54" stroke-width="1" fill-rule="evenodd"/>
          <path id="Path_46004" data-name="Path 46004" d="M618.2,2049.062c-1.884,1.289-3.463.9-5-.4-1.161-.976-2.453-1.8-3.578-2.812a5.684,5.684,0,0,1-.9-1.742c.8-.248,1.854-.952,2.377-.664a70.782,70.782,0,0,1,6.536,4.251c.346.244.391.927.562,1.37" transform="translate(-444.938 -1486.568)" fill="#182e54" stroke="#182e54" stroke-width="1" fill-rule="evenodd"/>
          <path id="Path_46005" data-name="Path 46005" d="M1129.823,2096.427c2.926-1.139,7.357,1.9,7.768,5.149-2.28.526-6.441-2.182-7.768-5.149" transform="translate(-826.577 -1525.01)" fill="#182e54" stroke="#182e54" stroke-width="1" fill-rule="evenodd"/>
          <path id="Path_46006" data-name="Path 46006" d="M2985.822,1996.474c1.525-.8,3.062-1.575,4.573-2.4,2.673-1.455,5.393-2.835,7.978-4.44,2.563-1.594,5.007-3.392,7.441-5.191.369-.274.4-1.029.582-1.562-.621-.141-1.348-.56-1.841-.365a27.556,27.556,0,0,0-2.68,1.673c-3.339,1.8-6.776,3.414-10.033,5.352a38.285,38.285,0,0,0-5.564,4.325c-.538.474-.651,1.446-.96,2.191.169.138.337.275.5.414" transform="translate(-2185.492 -1442.232)" fill="#182e54" stroke="#182e54" stroke-width="1" fill-rule="evenodd"/>
          <path id="Path_46007" data-name="Path 46007" d="M3078.457,2068.206c.368.4.621.916.931.954a1.3,1.3,0,0,0,.964-.671c1.666-3.251,3.335-6.5,4.882-9.81a9.111,9.111,0,0,0,.8-3.316c.032-.578-.588-1.194-.914-1.792-.705.411-1.784.653-2.054,1.264-1.381,3.14-2.607,6.356-3.777,9.586a28.3,28.3,0,0,0-.829,3.785" transform="translate(-2253.705 -1493.991)" fill="#182e54" stroke="#182e54" stroke-width="1" fill-rule="evenodd"/>
          <path id="Path_46008" data-name="Path 46008" d="M2981.871,2051.3c1.674-.493,3.363-.932,5.012-1.5a18.342,18.342,0,0,0,3.7-1.6,9.11,9.11,0,0,0,1.793-2.042c-.837-.263-1.853-.967-2.484-.705a70.214,70.214,0,0,0-7.241,3.624c-.529.293-.78,1.105-1.158,1.68.127.181.251.363.379.545" transform="translate(-2182.69 -1488.038)" fill="#182e54" stroke="#182e54" stroke-width="1" fill-rule="evenodd"/>
          <path id="Path_46009" data-name="Path 46009" d="M3057.875,2119.581c-.932.382-2.092.533-2.748,1.2a20.137,20.137,0,0,0-2.777,3.908c-.237.4,0,1.094.025,1.652.515-.145,1.225-.119,1.516-.463,1.536-1.807,2.967-3.709,4.435-5.579-.149-.24-.3-.478-.452-.717" transform="translate(-2234.509 -1542.043)" fill="#182e54" stroke="#182e54" stroke-width="1" fill-rule="evenodd"/>
          <path id="Path_46010" data-name="Path 46010" d="M2939.964,2057.123c.592,1.368.889,2.05,1.477,3.406,1.169-1.143,2.178-2.065,3.081-3.081.135-.154-.264-1.1-.336-1.093-1.318.183-2.624.456-4.222.767" transform="translate(-2152.277 -1496.018)" fill="#182e54" stroke="#182e54" stroke-width="1" fill-rule="evenodd"/>
          <path id="Path_46011" data-name="Path 46011" d="M2976.245,1832.991c3.039,5.319,5.882,10.3,8.725,15.272,1.805-1.045,1.983-2.809.735-5.041-1.564-2.793-3.023-5.648-4.562-8.459a9.852,9.852,0,0,0-1.322-1.868c-1.737-1.928-2.738-1.725-3.575.1" transform="translate(-2178.847 -1332.36)" fill="#182e54" stroke="#182e54" stroke-width="1" fill-rule="evenodd"/>
          <path id="Path_46012" data-name="Path 46012" d="M3017.258,1910.844c.2-.844.719-1.768.535-2.513a12.094,12.094,0,0,0-1.667-3.495,2.823,2.823,0,0,0-1.667-1.124c-.459-.094-1.037.4-1.563.639.276.592.561,1.179.825,1.776.506,1.144.947,2.322,1.518,3.431a7.471,7.471,0,0,0,1.166,1.361c.283-.026.569-.051.852-.075" transform="translate(-2205.69 -1384.892)" fill="#182e54" stroke="#182e54" stroke-width="1" fill-rule="evenodd"/>
          <path id="Path_46013" data-name="Path 46013" d="M940.27,1374.472c4.868.958,9.872,1.482,14.557,3.01,3.679,1.2,6.969,3.631,10.41,5.556.354.2.556.674.7,1.743-1.37-.14-2.99.155-4.062-.492a50.538,50.538,0,0,0-19.449-7.255c-1.359-.183-2.9-.5-2.111-2.611l-.048.049" transform="translate(-687.632 -999.605)" fill="#182e54" stroke="#182e54" stroke-width="1" fill-rule="evenodd"/>
          <path id="Path_46014" data-name="Path 46014" d="M637.89,1528a4.358,4.358,0,0,1-.588,1.153c-3.282,2.933-4.269,7-5.16,11.051-.226,1.024.283,2.2.409,3.319.106.957.149,1.922.218,2.884-.644.033-1.683.344-1.875.062-3.2-4.738-1.842-13.1,2.588-16.9,1.219-1.046,2.089-2.772,4.408-1.571" transform="translate(-459.89 -1111.107)" fill="#182e54" stroke="#182e54" stroke-width="1" fill-rule="evenodd"/>
          <path id="Path_46015" data-name="Path 46015" d="M556.414,1791.9c-2.37-.012-4.334-1.576-4.337-3.452a3.857,3.857,0,0,1,3.442-3.6c2.368.015,4.5,1.847,4.47,3.851-.03,2.135-1.231,3.21-3.574,3.2" transform="translate(-403.452 -1298.379)" fill="#182e54" stroke="#182e54" stroke-width="1" fill-rule="evenodd"/>
          <path id="Path_46016" data-name="Path 46016" d="M2328.577,2104.623c-.093,1.228.406,1.965,1.568,1.084,1.061-.8,2.37-1.74,2.753-2.9,1.322-4,2.288-8.125,3.388-12.2l-.49-.131c0-.7.223-1.514-.063-2.055a2.565,2.565,0,0,0-1.668-1.164c-.451-.068-1.046.525-1.5.914a1.159,1.159,0,0,0-.237.861c.451,5.07-1.742,9.477-3.356,14.032a6.2,6.2,0,0,0-.4,1.557" transform="translate(-1704.505 -1518.51)" fill="#182e54" stroke="#182e54" stroke-width="1"/>
          <path id="Path_46017" data-name="Path 46017" d="M2318.579,2165.274c1.117.745,1.751,1.5,2.265,1.429.676-.1,1.256-.864,1.876-1.342a7.127,7.127,0,0,0-1.975-1.5c-.388-.121-1.043.644-2.167,1.41" transform="translate(-1697.191 -1574.269)" fill="#182e54" stroke="#182e54" stroke-width="1"/>
          <path id="Path_46018" data-name="Path 46018" d="M2748.4,1491.816c-3.139-5.869-6.229-11.775-9.615-17.484-3.008-5.075-6.537-9.81-9.564-14.873-1.978-3.309-3.866-6.7-3.539-11.03.129-1.7-1.166-3.527-1.805-5.3a84.357,84.357,0,0,1-3.336-9.466c-1.172-5.074-2.194-10.133-7.489-12.257a63.848,63.848,0,0,0-6.825-1.805,2.687,2.687,0,0,1-1.6-.906,55.415,55.415,0,0,0-10.577-13.769,24.119,24.119,0,0,1-3.411-3.3,35.59,35.59,0,0,1-2.961-5.572c-1.958-4.3-3.987-8.582-5.664-13.005-.988-2.6-2.672-4.6-4-6.844-3.028-5.1-4.905-10.948-7.271-16.482-.644-1.51-1.41-2.962-2.026-4.484a20.5,20.5,0,0,1-1.8-5.131c-.659-5.854-1.333-11.736-1.457-17.622-.216-10.2-4.391-17.359-14.91-20.811-1.069-.351-2.073-.907-3.777-1.665,2.553-2.535,4.762-4.727,6.97-6.917.221-.218.63-.436.632-.655.028-3.92,3.3-5.754,5.01-8.575,1.786-2.94,3.8-5.726,5.665-8.616q2.952-4.565,5.8-9.2c1.394-2.262,2.7-4.584,4.1-6.841.218-.351.714-.519,1.093-.746.907-.553,1.824-1.091,2.987-1.786-2.172-2.9-4.179-5.281-5.842-7.9-1.361-2.14-3.413-3.146-5.423-4a59.174,59.174,0,0,0-9.054-2.767,2.742,2.742,0,0,0-2.3.9c-1.383,1.743-2.3,3.928-3.809,5.518-5.693,6.009-9.578,13.4-14.308,20.14a6.234,6.234,0,0,1-.625.62c-1.384-2.083-2.493-4.4-4.165-6.1-2.2-2.237-4.6-4.552-7.334-5.847-6.572-3.107-13.507-5.423-19.565-9.641-3.905-2.717-7.556-5.832-11.4-8.645a3,3,0,0,0-2.435-.17c-.363.125-.746,1.412-.544,1.918a48.525,48.525,0,0,0,3.2,6.831c1.317,2.207,3.013,4.163,4.507,6.259a6.481,6.481,0,0,1,.534,1.428l-8.186,3.616,1.147,3.039a61.822,61.822,0,0,1,32.241,10.74c-2.418.05-4.834.136-7.252.136-4.262,0-7.226,3-10.695,4.9-4.721,2.582-9.579,4.905-14.45,7.161a17.527,17.527,0,0,1-4.872,1.16,2.023,2.023,0,0,0-1.983,2.576c.213,1.534,1.19,1.717,2.549,1.584,2.147-.209,4.323-.127,6.789-.176-.721,2.585-1.37,4.481-3.386,5.441a2,2,0,0,0-.754,3.185,2.663,2.663,0,0,0,2.467.39c6.387-2.325,12.681-4.946,19.111-7.127,3.132-1.064,6.5-1.38,9.556-1.994.3,1.271.6,2.532.935,3.94a3.674,3.674,0,0,0,3.384-2.4,23.036,23.036,0,0,1,3.311-4.845,1.779,1.779,0,0,1,1.728-.184c1.067.563,1.939,1.541,3.011,2.089,3.917,2,7.886,3.9,12.3,6.067-.927,1.112-2.094,2.514-3.44,4.132-2.171-.819-4.412-1.529-6.543-2.5-2.285-1.045-4.407-1.209-6.421.509-1.053.9-1.878,1-2.49-.48-.114-.275-.333-.649-.564-.7-3.436-.811-6.744-2.9-10.432-1.414a32.9,32.9,0,0,0-5.429,2.633,5.345,5.345,0,0,0-2.592,5.241,2.622,2.622,0,0,1-.8,2.1c-4.219,2.135-3.714,5.94-3.225,9.7.161,1.229.2,2.147-1.016,2.8-4.343,2.32-4.637,6.317-3.45,9.992.694,2.148-.074,3.233-1.479,4.457-1.268,1.107-2.323,2.48-3.513,3.691q-6.2,6.309-12.437,12.584a2.848,2.848,0,0,0,.431,4.578,5.247,5.247,0,0,1,1.812,1.646c2.155,4.123,5.844,5.769,9.861,6.822a66.755,66.755,0,0,0,8.232,1.655c.758.1,2.269-.706,2.351-1.269.492-3.4,3.045-5.232,4.847-7.626.882-1.167,1.811-2.294,2.916-3.686a13.662,13.662,0,0,1,1.032,1.865c2.238,6.507,7.213,9.556,12.917,12.247,7.233,3.414,15.355,5.493,20.408,12.776.491.708,3.348,5.751,4.081,7.1,1.157,2.121,2.091,4.38,3.19,6.54a35.148,35.148,0,0,1,2.848,6.771c.037.139.073.282.107.425l.35.525c.74,1.1,1.223,2.39,1.952,3.5a5.91,5.91,0,0,1,1.008,4.257,4.84,4.84,0,0,0,.986,2.756c.781,1.252,1.981,2.245,2.636,3.551a72.082,72.082,0,0,1,6.282,17.909,3.776,3.776,0,0,1-.486,2.166c-1.739,3.542-4.23,6.86-5.167,10.612-1.375,5.5-1.614,11.3-2.423,16.968-.257,1.816-.786,3.594-1.333,6.015,4.072,3.342,6.887,8.777,9.453,14.33,1.387,3,2.191,6.283,3.438,9.36,1.572,3.871,3.468,7.6,4.937,11.512a20.864,20.864,0,0,1,.933,5.849,3.453,3.453,0,0,0,.042.356h2.856a1.093,1.093,0,0,0,.059-.543c-1.1-4.62-2.121-9.287-3.641-13.764-1.651-4.862-3.674-9.606-5.788-14.272-1.69-3.727-3.762-7.26-5.726-11,4.976-6.626,10.529-13.2,17.849-17.585,3.987-2.391,8.489-3.848,12.787-5.657,5.5-2.313,11.319-3.94,15.842-8.279,1.312-1.259,2.485-2.678,4.028-4.356.214,1.173.345,2.072.544,2.954.456,2.014,1.1,4,1.365,6.036a8.215,8.215,0,0,1-.37,4.141c-2.038,4.593-4.575,8.932-8.459,12.05-1.956,1.571-4.4,2.453-6.583,3.731-1.213.713-2.333,1.6-3.639,2.505,2.548,1.489,8.583-1.031,12.889-4.57,3.85-3.165,6.179-7.389,8.3-12.007,1.562,2.569,2.98,4.9,4.488,7.386-2.5,1.644-2.151,3.933-1.443,6.044,1.838,5.47.711,10.515-1.013,15.807a54.569,54.569,0,0,1-5.775,12.106c-1.245,1.99-2.781,3.782-4.2,5.684.321.674.658,1.381,1.105,2.319.839-.519,2-.852,2.568-1.651,3.933-5.5,7.787-11.067,9.347-17.946.368-1.631.863-3.233,1.352-4.833a18.708,18.708,0,0,0-.665-12.435,5.692,5.692,0,0,1-.34-2.754,28.339,28.339,0,0,1,2.524,3.062c4.136,6.678,8.357,13.308,12.25,20.142,1.728,3.035,3.177,6.244,4.685,9.42Zm-108.787-209.7c.9-1.465,2.03-2.771,2.982-4.2,2.647-3.989,5.146-8.092,7.918-11.981,1.847-2.6,4.352-4.7,6.036-7.388,1.7-2.721,3.439-3.633,6.36-2.343,4.583,2.024,9.333,3.735,11.064,9.34-1,1.358-1.934,2.5-2.736,3.747-2.874,4.458-5.694,8.956-8.552,13.424-1.642,2.565-3.367,5.072-4.96,7.669-.911,1.489-2.138,1.613-3.574,1.325-3.886-.783-7.782-1.509-11.655-2.36-3.8-.837-4.983-3.8-2.884-7.228m-12.057,12.322a6.936,6.936,0,0,1-3.094,1.673c-6.448,1.836-12.925,3.561-19.39,5.339-2.143.59-4.274,1.226-6.41,1.84a4.556,4.556,0,0,1,1.427-1.846c.694-.743,1.28-1.6,1.91-2.4a19.593,19.593,0,0,0-2.509-1.329,15.982,15.982,0,0,0-2.666-.489c3.688-2,7.018-3.908,10.425-5.648,4.344-2.217,8.286-5.369,13.388-5.83a16.92,16.92,0,0,1,11.3,3.124c-1.6,2.074-2.857,3.961-4.382,5.571m-26.533-25.344a24.987,24.987,0,0,0,3.106-2.016,1.96,1.96,0,0,0,.465-1.731c-1.668-2.35-3.495-4.576-5.231-6.874-.635-.839-1.158-1.772-2.062-3.173a7.808,7.808,0,0,1,1.4.375c3.97,2.742,7.782,5.782,11.938,8.164a79.2,79.2,0,0,0,12.517,5.693,17.53,17.53,0,0,1,10.607,9.93,29.786,29.786,0,0,1,1.224,4.854l-.847.488c-9.337-9.167-21.073-12.679-33.122-15.709m44.9,30.627a19.093,19.093,0,0,1-9.3-4.211c-3.563-3.041-3.659-2.918-.047-5.871,5.171,3.8,11.483,3.684,17.487,5.408-2.4,4.654-3.711,5.47-8.143,4.674m-22.988,9.69c1.789-1.731,3.479.637,5.248.98.456.088.964.972,1.1,1.575.4,1.86.432,3.828.987,5.622a9.9,9.9,0,0,0,2.251,3.975c1.891,1.892,4.08,3.458,6.148,5.159-.062.224-.124.446-.187.668-2.375-.852-4.92-1.38-7.087-2.629-3.821-2.2-5.54-6.453-7.66-10.163-.8-1.4-2.6-3.447-.795-5.188m-9.84.67a7.044,7.044,0,0,1,6.072-2.932c-.1,1.892-.673,3.8-.169,5.3a35.481,35.481,0,0,0,3.831,7.828c2.02,3.129,4.419,5.989,6.656,8.964-.063.364-.125.726-.188,1.088-1.472.16-3.043.741-4.4.4-3.571-.9-5.868-3.69-7.774-6.815a33.541,33.541,0,0,1-3.091-5.543,39.78,39.78,0,0,1-1.551-6.787,2.416,2.416,0,0,1,.616-1.5m-6.451,18.781c1.859,2.572,3.7,5.215,5.642,7.771,1.189,1.568,1,4.62-.654,5.563-.756.433-2.246.74-2.669.31-2.174-2.213-4.368-4.495-4.894-7.888-.39-2.507-.107-4.631,2.575-5.756m6.3,26.551c-2.59,3.433-5.282,6.784-7.741,10.316-1.823,2.62-3.126,3.242-6.223,2.231a13.233,13.233,0,0,0-2.425-.692c-3.94-.5-6.561-3.152-9-6.052-1.044-1.241-1.4-2.585.243-3.841a28.379,28.379,0,0,0,3.565-3.326c3.549-3.845,7.013-7.777,10.574-11.608.881-.948,1.817-1.261,2.758.282,1.783,2.915,4.154,3.714,6.52,2.813,4.262-1.626,6.17-6.329,5.436-9.058l6.468-.777c-1.739-2.5-3.745-2-5.443-1.951-3.449.1-5.356-2.322-7.082-4.68-2-2.738-2.373-6.166-2.121-9.584a6.358,6.358,0,0,1,.782-1.859,6.828,6.828,0,0,1,1.52,1.369c2.126,3.575,3.839,7.364,6.849,10.4,3.161,3.187,6.265,5.744,11.3,4.273a43.633,43.633,0,0,1-2.637,4.529c-3.406,4.473-6.923,8.854-10.384,13.281-1.01,1.293-1.97,2.629-2.96,3.939m53.991,58.824c-2.223-4.945-14.694-28.442-16.442-30.137-2.448-2.375-4.851-5.016-7.737-6.63-4.614-2.578-9.686-4.239-14.411-6.622a25.447,25.447,0,0,1-6.638-4.827c-2.669-2.724-5.122-5.792-5.036-10.34,3.287-4.261,6.723-8.712,10.156-13.163,2.333-3.026,4.568-6.145,7.035-9.046,1.171-1.377,1.468-2.134-.347-2.968-.413-.19-.639-.832-1.217-1.636,1.876.246,3.2.419,4.49.587,0,.435.058.621,0,.729-4.007,6.972.119,12.468,3.07,18.127.26.5,1.4.5,2.128.727a6.076,6.076,0,0,0,.084-2.111c-.6-1.785-1.419-3.489-2.1-5.246-2.326-5.966-1.438-9.578,3.3-13.576,1.614-1.362,1.558-2.095-.189-3.18-1.8-1.118-3.544-2.334-5.368-3.409a9.075,9.075,0,0,1-4.538-7.618c-.289-4.633-.291-5.048,4.143-4.154a15.068,15.068,0,0,1,2.839.815c3.875,1.618,7.775,3.188,11.579,4.977,5.752,2.707,9.509,7.164,10.1,13.974.523,6.042.809,12.108,1.3,18.152.155,1.891.185,4.041,1.063,5.573,3.094,5.4,5.071,11.284,7.314,17.067.844,2.178,1.765,4.623,3.363,6.1.876.81,4.172,7.059,4.362,7.948,3.011,6.476,4.44,14.321,9.632,20.488-3.78,2.633-7.027,5.3-10.624,7.271a47.9,47.9,0,0,1-9.363,3.359c-.515.155-1.668-.607-1.948-1.229m44.262,31.277c-3.624,1.654-7.272,3.257-10.948,4.779-3.881,1.608-7.944,2.8-11.673,4.725-3.362,1.731-6.381,4.2-9.714,6.456-.2-.762-.408-1.341-.5-1.939-.81-5.047-1.592-10.1-2.4-15.147-.27-1.688-.472-3.254,1.006-4.621.544-.5.538-1.661.781-2.52-.164-.127-.328-.253-.492-.383l-2.211,1.434c-2.355-6.562-4.717-13.141-7.113-19.818a18.273,18.273,0,0,0,3.933-.4c5.87-1.88,11.067-5.155,16.034-8.865a5.011,5.011,0,0,1,7.287.874c2.469,3.4,4.581,7.094,6.753,10.723.878,1.466,1.461,3.124,2.257,4.651,2.677,5.151,5.433,10.257,8.065,15.432,1.177,2.313.808,3.76-1.064,4.615" transform="translate(-1890.066 -913.836)" fill="#182e54" stroke="#182e54" stroke-width="1"/>
          <path id="Path_46019" data-name="Path 46019" d="M2302.395,2155.041c-.428-.933-.614-2.215-1.333-2.726-1.482-1.057-2.655-.2-2.748,1.685a7.442,7.442,0,0,1-.454,2.926c-.676,1.322-.36,2.669.732,2.721,1.022.047,2.269-1.054,3.092-1.955.449-.494.223-1.621.3-2.461.136-.064.274-.127.409-.189" transform="translate(-1681.757 -1565.538)" fill="#182e54" stroke="#182e54" stroke-width="1"/>
          <path id="Path_46020" data-name="Path 46020" d="M2347.09,2062.647c-1.05-.489-1.865-1.217-2.625-1.16-2.807.211-4.736-3.163-7.991-2.131,1.66,4.078,7.091,5.791,10.616,3.291" transform="translate(-1710.296 -1498.059)" fill="#182e54" stroke="#182e54" stroke-width="1"/>
          <path id="Path_46021" data-name="Path 46021" d="M1483.752,1842.766a9.956,9.956,0,0,0-.953,2.087c-.992,3.054-1.9,6.137-2.917,9.179-.814,2.43-.313,4.129,1.653,4.811,1.873-5.43,3.745-10.863,5.747-16.666-1.16-1.629-2.18-1.637-3.53.589" transform="translate(-1082.678 -1339.263)" fill="#182e54" stroke="#182e54" stroke-width="1"/>
          <path id="Path_46022" data-name="Path 46022" d="M979.007,1586.92q-.446,5.725-.592,11.47h3.35c.058-.608.034-1.249.074-1.859.244-3.654.127-7.376.8-10.945a109.474,109.474,0,0,1,3.716-14.053c1.253-3.781,3.15-7.336,4.637-11.043,2.595-6.464,1.651-12.963-1.337-18.8a43.775,43.775,0,0,0-12-13.959c-1.72-1.372-2.939-3.008-2.454-5.516a7.319,7.319,0,0,0,.026-3.906c-1.176-2.841.2-4.812,1.571-6.962a100.791,100.791,0,0,0,5.107-11.915,23.244,23.244,0,0,1,1.8-4.878c.856-1.506,6.8-13.354,7.693-14.145,2.9-2.574,6.041-4.92,8.671-7.751a151.265,151.265,0,0,0,12.132-14.3c3.068-4.262,5.114-9.269,7.943-13.731,2.115-3.334,4.737-6.341,7.178-9.459a36.026,36.026,0,0,1,3.984-4.715c3.105-2.8,4.782-6.44,6.232-10.209a8.332,8.332,0,0,0,.261-3.885c-.279-2.152-1.454-2.784-3.344-1.813a39.745,39.745,0,0,0-5.25,3.228c-2.13,1.557-4.122,3.306-6.173,4.973a84.3,84.3,0,0,1,3.6-8.476c1.093-2.439,2.106-4.922,3.005-7.443.949-2.664,2.269-5.357,2.439-8.1.214-3.467-.265-5.106-3.258-4.641a10.568,10.568,0,0,0-4.954,2.473c-2.327,2-4.321,4.406-6.592,6.784a3.924,3.924,0,0,1,.049-.789c2.317-7.1,4.535-14.245,7.025-21.287.94-2.659-.255-4.67-1.143-6.827a1.923,1.923,0,0,0-1.658-.869c-2.159.57-4.514.975-6.314,2.184a16.2,16.2,0,0,0-4.154,4.916,90.48,90.48,0,0,0-6.515,11.3c-2.5,5.618-4.421,11.5-6.6,17.266-.719,1.9-1.474,3.783-2.211,5.675a18,18,0,0,1,.106-5.371,124.348,124.348,0,0,1,2.891-12.13c1.5-4.78,1.195-9.634.972-14.446-.154-3.319-3.511-4.426-6.329-2.651-3.488,2.195-5.316,5.862-6.769,9.265-1.9,4.447-2.669,9.464-3.451,14.314-.789,4.914-1,9.923-1.495,15.173-.637-1-1.523-1.779-1.625-2.653-.469-3.979-3.254-6.037-6.253-7.666-2.368-1.287-4.991-2.294-7.889-1.491-2.664.738-2.958,1.228-1.762,3.839,1.083,2.362,2.613,4.609,3.2,7.09,1.4,5.986,3.015,12.06,1.128,18.261-1.951,6.411-3.842,12.851-6.115,19.144-1.517,4.2-.5,8.033.529,12,.856,3.308-2.906,12.618-3.622,14.45-.126.324-3,7.12-4.3,10.3-1.819,4.472-3.625,8.951-5.575,13.362a69.959,69.959,0,0,1-3.4,6.3c-.149.261-.666.341-1.032.432a18.427,18.427,0,0,0-8.289,4.518c-3.984,3.7-7.337,7.888-8.353,13.349-.67,3.605-.465,7.378-.652,11.078-.219,4.387-.273,8.775-2.651,12.739a28.569,28.569,0,0,0-1.914,4.952q-3.585,9.838-7.152,19.684c-1.847,5.109-4.67,13.712-6.436,18.85a2.619,2.619,0,0,0-.145.786h2.762c3.259-8.852,7.171-20.127,10.286-28.457.3.073.592.149.89.225a6.954,6.954,0,0,0,.149,2.174,3.335,3.335,0,0,0,1.454,1.741c.356.161,1.457-.458,1.606-.929a7.573,7.573,0,0,0,.378-3.413c-.875-5.232-.957-10.319,1.187-15.343a47.645,47.645,0,0,0,2.452-8.09,29.593,29.593,0,0,0,.372-4.937c2.811,2.37,5.586,4.85,8.519,7.123,1.508,1.17,2.833.848,3.234-1.191a46.184,46.184,0,0,0-4.609-3.849,8.416,8.416,0,0,1-3.684-4.725c-.6-1.879-1.834-3.625-2.078-5.525-.227-1.752.663-3.624.722-5.456.034-1.05,1.357-3.9,2.852-4.719-.216,3.828-.618,7.647,1.865,10.932a26.306,26.306,0,0,0,4.011,4.9c3.224,2.7,6.248,5.542,10.131,7.281,9.537,4.267,17.3,11.14,25.406,17.583,3.4,2.7,3.889,5.433,3.152,9.384a131.487,131.487,0,0,0-1.422,13.82m-22.156-91.007c1.2-2.982,2.317-6,3.555-8.962.212-.5,6.344-10.141,6.147-11.621a3.721,3.721,0,0,1,.026-2.072c1.054-1.826.545-3.5-.076-5.261-.506-1.438-.854-2.933-1.27-4.4-1.145-4.053.281-7.717,1.629-11.407.369-1,.471-2.108.821-3.122,1.044-3.018,2.184-6,3.226-9.023,2.714-7.863,1.59-15.687-.465-23.434-.521-1.972-1.711-3.758-2.308-5.855,3.031-.085,5.585.556,7.174,2.948a23.738,23.738,0,0,1,4.177,10.421c.093.808,1.082,1.69,1.877,2.133.279.155,1.251-.86,1.841-1.414,2.068-1.943,1.8-4.621,2.046-7.1.51-5.264,1.195-10.532,1.3-15.81.1-5.212,2.8-9.475,4.333-14.145.579-1.771,2.485-3.177,3.986-4.523.912-.818,1.9-.208,1.845.988-.227,4.751.127,9.505-1.264,14.228a149.082,149.082,0,0,0-3.639,16.422,14.92,14.92,0,0,0,.588,6.14c.261,1,1.519,1.728,2.327,2.579.629-.63,1.549-1.145,1.839-1.908,2.081-5.48,4.738-10.722,5.6-16.692.376-2.6,2.12-5.011,3.332-7.461,2.064-4.173,3.9-8.506,6.4-12.4,2-3.112,3.485-6.888,7.448-8.379,1.336-.5,1.911-.3,2.053,1a8.913,8.913,0,0,1-.007,3.575c-1.942,5.925-3.921,11.846-6.136,17.672-2.074,5.456-4.449,10.8-6.711,16.178-1.1,2.623-2.26,5.221-3.367,7.84a1.733,1.733,0,0,0,1.109,2.587c1.018.278,2.846.5,3.144.007,2.338-3.847,5.994-7.072,6.005-12.111a1.472,1.472,0,0,1,.112-.681c1.538-2.81,2.837-5.806,4.719-8.355a57.148,57.148,0,0,1,6.363-6.555,7.719,7.719,0,0,1,1.763-1l.886.284c-.262,1.578-.21,3.3-.838,4.708-3.882,8.712-7.932,17.349-11.862,26.038-.279.619-.3,1.978-.009,2.127.831.425,2.236.885,2.779.471,1.515-1.155,2.6-2.876,4.052-4.133a135.771,135.771,0,0,1,10.7-8.386,8.382,8.382,0,0,1-2.143,6.629c-4.189,5.357-8.85,10.345-12.882,15.816-2.757,3.741-4.746,8.063-7.128,12.1a43.842,43.842,0,0,1-4.3,6.775c-4.317,4.926-8.938,9.577-13.372,14.4-3.156,3.434-7.236,5.952-9.953,9.834-.426.709-.862,1.413-1.278,2.127-.252.433-.525.883-.788,1.347a8.425,8.425,0,0,1-1.06,3.38l.038,0c-1.817,4.657-3.4,9-5.2,13.254-1.737,4.1-3.7,8.115-5.908,12.934-6.737,1.033-13.078-1.913-19.288-5.921,2.058-5.071,4.043-9.932,6-14.8m8.1,54.1c-4.552-2.723-9.354-5.02-13.854-7.821a52.249,52.249,0,0,1-7.022-5.831,1.759,1.759,0,0,1-.354-1.193,1.114,1.114,0,0,1-1.083-.659c-1.5-3.122.346-6.462,1.368-9.427a31.86,31.86,0,0,1,2.231-5.4c.974-1.721,1.52-3.649,2.855-5.137a1.193,1.193,0,0,1,.814-.426c.008-.04.016-.08.025-.12l.315.149a1.332,1.332,0,0,1,.461.218c2.484,1.18,4.633,2.281,6.858,3.172a22.937,22.937,0,0,0,11.335,1.671c2.647-.309,2.937.248,2.911,2.992-.075,8.349-.175,16.7-.164,25.047,0,2.536.343,5.07.564,8.1-2.667-1.983-4.835-3.883-7.262-5.334m10.942-11.962a2.256,2.256,0,0,1-1.005-1.347c-.108-2.214-.049-4.436-.049-6.7,11.235,7.837,19.042,21.237,10.786,34.84-.257-4.328-.3-8.654-.815-12.919-.73-6.023-4.1-10.463-8.917-13.869" transform="translate(-665.125 -998.974)" fill="#182e54" stroke="#182e54" stroke-width="1"/>
          <path id="Path_46023" data-name="Path 46023" d="M1422.823,2081.985c-.209.649-.7,1.372-.566,1.933a9.067,9.067,0,0,0,1.394,3.105c2.131,2.954,4.371,5.828,6.609,8.7a1.29,1.29,0,0,0,1.071.474c.3-.1.452-.649.739-1.114a28.272,28.272,0,0,0-1.513-3.56c-1.746-2.947-3.545-5.873-5.482-8.693-.378-.549-1.482-.581-2.251-.849" transform="translate(-1040.731 -1514.675)" fill="#182e54" stroke="#182e54" stroke-width="1"/>
          <path id="Path_46024" data-name="Path 46024" d="M1403.634,1471.689a19.586,19.586,0,0,1-.131-5.722c.739-3.987,1.93-7.885,2.778-11.854.672-3.154.873-6.422,1.7-9.528,1.521-5.752,3.306-11.441,6.7-15.384-.968-2.191-1.8-3.775-2.379-5.448-1.8-5.215-3.072-10.674-5.4-15.625-1.586-3.379-4.617-6.05-6.951-9.077a3.536,3.536,0,0,1-.862-1.961,68.427,68.427,0,0,1,2.954-18.174c.408-1.363,1.406-2.533,1.947-3.868a4.607,4.607,0,0,0,.474-2.8,5.579,5.579,0,0,1,.227-4.227c.516-1.19.758-2.5,1.286-3.688a110.474,110.474,0,0,1,4.989-10.529c.793-1.365,2.647-2.115,2.28-4.151-.3-1.647-.763-3.267-.985-4.923a5.067,5.067,0,0,1,.257-2.657c3.646-7.866,11.227-11.384,17.7-16,5.1-3.637,9.429-7.475,10.458-14.07a13.1,13.1,0,0,1,.677-1.964c1.329,1.109,2.44,2,3.511,2.939,2.191,1.926,5.017,3.177,6.106,6.307.181.518,1.8.994,2.528.755a68.738,68.738,0,0,0,7.762-3.136c3.744-1.763,7.061-4.026,8.434-8.345a5.223,5.223,0,0,1,1.48-1.905,2.7,2.7,0,0,0-.395-4.423q-7.216-4.774-14.42-9.562c-1.381-.922-2.658-2.023-4.1-2.831-1.594-.893-2.539-1.775-2.243-3.944.506-3.711-.5-7.444-5.16-8.816-1.309-.387-1.431-1.264-1.493-2.46-.193-3.662-.378-7.365-4.888-8.586-.527-.142-1.093-1.169-1.161-1.839a5.075,5.075,0,0,0-3.472-4.476,33.054,33.054,0,0,0-5.784-1.463c-3.876-.709-6.741,1.9-9.959,3.327-.216.095-.363.492-.427.774-.335,1.521-1.16,1.583-2.351.929-2.279-1.245-4.326-.685-6.376.74-1.914,1.328-3.98,2.428-5.959,3.618-1.606-1.278-3-2.385-4.1-3.262,3.937-2.894,7.484-5.448,10.961-8.094.951-.723,1.63-1.817,2.574-2.553a1.821,1.821,0,0,1,1.724-.156,22,22,0,0,1,4.1,3.963,3.634,3.634,0,0,0,3.74,1.628c.077-1.4.145-2.651.212-3.914,3.105,0,6.454-.341,9.71.072,6.683.844,13.312,2.131,19.978,3.119.76.113,2.1-.29,2.346-.839a1.891,1.891,0,0,0-1.307-2.876c-2.145-.526-3.118-2.2-4.286-4.513,2.423-.424,4.539-.916,6.677-1.126,1.353-.133,2.277-.492,2.212-1.987-.063-1.479-.847-2.148-2.4-2.065a17.9,17.9,0,0,1-4.976-.172c-5.171-1.211-10.341-2.489-15.423-4.038-3.734-1.139-7.171-3.418-11.342-2.606-2.366.46-4.748.839-7.123,1.251a63.381,63.381,0,0,1,29.644-16.32c.184-.988.355-1.9.581-3.1l-8.658-1.87a6.143,6.143,0,0,1,.268-1.455c1.089-2.271,2.4-4.449,3.3-6.791a46.456,46.456,0,0,0,1.912-7.085c.108-.518-.5-1.665-.875-1.714a3.077,3.077,0,0,0-2.353.625c-3.263,3.4-6.281,7.047-9.619,10.366-5.177,5.151-11.552,8.667-17.431,12.864a27.47,27.47,0,0,0-6.136,6.939c-1.333,1.936-2.005,4.341-2.988,6.58a6.011,6.011,0,0,1-.722-.469c-5.834-5.488-10.955-11.755-17.6-16.369-1.757-1.221-3.049-3.116-4.713-4.506a2.77,2.77,0,0,0-2.415-.416,60.736,60.736,0,0,0-8.369,4.347c-1.815,1.2-3.645,2.539-4.594,4.827-1.161,2.8-2.7,5.437-4.31,8.6,1.262.437,2.256.772,3.243,1.124a3.036,3.036,0,0,1,1.2.5c1.77,1.873,3.463,3.826,5.231,5.705q3.621,3.846,7.318,7.62c2.34,2.385,4.81,4.643,7.083,7.089,2.179,2.349,5.708,3.465,6.433,7.176.041.208.48.337.736.5,2.552,1.656,5.106,3.313,8.057,5.231-1.532,1.042-2.416,1.762-3.4,2.3-9.682,5.276-12.491,12.854-10.882,22.567.929,5.6,1.318,11.309,1.718,16.983a19.473,19.473,0,0,1-.851,5.208c-.331,1.559-.823,3.083-1.184,4.636-1.327,5.7-2.122,11.6-4.175,17.01-.9,2.382-2.2,4.594-2.7,7.251-.852,4.512-2.075,8.957-3.224,13.407a34.27,34.27,0,0,1-1.9,5.845,23.959,23.959,0,0,1-2.75,3.782,54.192,54.192,0,0,0-7.9,15.067c-.166.5-.866.9-1.4,1.164a65.73,65.73,0,0,0-6.359,3.011c-4.8,3.022-4.9,8.012-5.144,13.046a80.136,80.136,0,0,1-1.576,9.609c-.311,1.8-1.253,3.774-.823,5.365,1.093,4.042-.151,7.617-1.5,11.13-2.059,5.376-4.669,10.537-6.707,15.921-2.316,6.11-4.3,12.353-6.346,18.567-.916,2.785-1.729,8.041-2.489,11.52h3.087c1.182-4.716,2.135-11.221,3.551-15.171,2.591-7.219,5.54-14.309,8.4-21.427a27.8,27.8,0,0,1,1.925-3.383,5.345,5.345,0,0,1,.158,2.676,17.517,17.517,0,0,0,1.568,11.916c.763,1.423,1.534,2.847,2.186,4.324,2.755,6.224,7.521,10.769,12.352,15.233.7.649,1.895.744,2.809,1.076.27-.974.475-1.709.668-2.409-1.729-1.532-3.554-2.939-5.127-4.589a51.5,51.5,0,0,1-7.813-10.377c-2.632-4.689-4.635-9.257-3.812-14.792.316-2.136.253-4.373-2.491-5.455,1.033-2.642,2-5.125,3.075-7.857,2.9,3.974,5.935,7.535,10.268,9.8,4.847,2.535,11.2,3.775,13.433,1.879-1.441-.611-2.7-1.237-4.01-1.682-2.362-.8-4.915-1.167-7.109-2.284-4.358-2.216-7.616-5.847-10.43-9.813a7.658,7.658,0,0,1-1.1-3.855c-.108-1.982.171-3.985.259-5.981.037-.875.005-1.752.005-2.9,1.81,1.3,3.211,2.418,4.719,3.363,5.2,3.253,11.192,3.686,16.985,4.833,4.529.9,9.2,1.421,13.526,2.929,7.949,2.767,14.555,7.938,20.61,13.273-1.256,3.915-2.655,7.66-3.643,11.515a149.607,149.607,0,0,0-3.12,14.632c-.689,4.534-.856,9.152-1.108,13.741a1.41,1.41,0,0,0,.342.79h2.47a2.315,2.315,0,0,0,.117-1.177m18.092-230.185c5.077-.534,9.5,1.7,14.146,2.979,3.645,1,7.245,2.172,11.212,3.371a16.489,16.489,0,0,0-2.522.97,20,20,0,0,0-2.219,1.737c.761.645,1.487,1.344,2.3,1.916a4.373,4.373,0,0,1,1.725,1.478c-2.2-.176-4.4-.373-6.6-.524-6.646-.454-13.294-.858-19.934-1.37a6.946,6.946,0,0,1-3.327-1c-1.779-1.236-3.347-2.786-5.283-4.447a17.369,17.369,0,0,1,10.505-5.113m-13.975-3.455a17.4,17.4,0,0,1,8.611-11.433,80.953,80.953,0,0,0,11.237-7.779c3.642-3.049,6.831-6.657,10.229-10.013a8.011,8.011,0,0,1,1.309-.623c-.635,1.5-.981,2.485-1.452,3.4-1.29,2.509-2.681,4.968-3.895,7.513-.16.335.333,1.317.764,1.553a24.887,24.887,0,0,0,3.4,1.32c-11.253,5.166-22.115,10.729-29.619,21.2l-.916-.3a28.08,28.08,0,0,1,.332-4.835m-21.5,14.911c-2.022-2.159-4.159-4.206-6.223-6.326-3.594-3.692-7.157-7.419-10.766-11.1-1.007-1.025-2.129-1.934-3.347-3.032.694-5.643,5.039-8.169,9.164-10.96,2.629-1.778,4.49-1.245,6.644,1.011,2.128,2.227,4.956,3.747,7.227,5.855,3.408,3.16,6.586,6.574,9.889,9.852,1.188,1.177,2.53,2.2,3.669,3.417,2.666,2.848,2.04,5.884-1.534,7.4-3.64,1.544-7.323,2.974-10.987,4.456-1.355.546-2.578.662-3.736-.576m4.414,3.73c5.57-2.778,11.769-3.868,16.153-8.457,4.062,2.112,3.947,2.014,1,5.575a19.477,19.477,0,0,1-8.349,5.762c-4.2,1.6-5.626,1.074-8.805-2.88m52.453,23.03c2.825.556,3.483,2.516,3.548,4.967.09,3.317-1.651,5.9-3.384,8.41-.337.488-1.851.48-2.668.214-1.783-.579-2.517-3.436-1.632-5.149,1.445-2.793,2.776-5.649,4.137-8.441m-5.81-8.569a6.778,6.778,0,0,1,1.244-1.588,5.982,5.982,0,0,1,1.1,1.614c.857,3.193,1.1,6.513-.366,9.49-1.268,2.564-2.7,5.223-6.1,5.785-1.672.276-3.723.189-4.98,2.886l6.469-.494c-.231,2.727,2.475,6.822,6.938,7.552,2.478.4,4.656-.8,5.88-3.908.646-1.642,1.618-1.523,2.649-.792,4.17,2.954,8.261,6.023,12.421,8.992a27.686,27.686,0,0,0,4.083,2.476c1.832.878,1.724,2.22.923,3.6-1.866,3.213-3.958,6.229-7.726,7.45a13.671,13.671,0,0,0-2.25,1.118c-2.85,1.548-4.237,1.206-6.489-.931-3.037-2.88-6.27-5.545-9.418-8.306-1.2-1.054-2.381-2.137-3.6-3.171-4.178-3.539-8.4-7.022-12.534-10.614a41.493,41.493,0,0,1-3.39-3.792c5.188.437,7.77-2.578,10.3-6.2,2.405-3.449,3.407-7.367,4.849-11.161m-9.211-4.638c.225-1.524-.68-3.219-1.111-4.994a7.071,7.071,0,0,1,6.467,1.624c.384.346.871.867.871,1.308a37.465,37.465,0,0,1-.307,6.729,32.263,32.263,0,0,1-2.037,5.843c-1.308,3.325-3.06,6.4-6.394,7.941-1.27.584-2.91.333-4.38.462-.127-.332-.251-.662-.378-1,1.658-3.247,3.5-6.415,4.916-9.766a34.005,34.005,0,0,0,2.353-8.15m-11.607,11.212a9.533,9.533,0,0,0,1.495-4.2c.224-1.807-.1-3.678-.037-5.518.02-.6.361-1.531.791-1.7,1.67-.662,2.9-3.229,4.962-1.929,2.076,1.308.681,3.59.147,5.07-1.412,3.921-2.338,8.277-5.684,11.093-1.9,1.6-4.3,2.581-6.469,3.842-.1-.2-.2-.4-.3-.6,1.721-2.006,3.584-3.908,5.1-6.062m-31.682,60.051c1.3-1.7,1.767-4.2,2.2-6.421,1.163-5.91,2.05-11.859,4.114-17.572.586-1.62.232-3.664.047-5.486-.594-5.825-1.4-11.629-1.962-17.457-.637-6.568,2.245-11.509,7.393-15.17,3.4-2.421,6.941-4.652,10.447-6.922a15.424,15.424,0,0,1,2.632-1.313c4.181-1.692,4.253-1.3,4.8,3.149a8.779,8.779,0,0,1-3.083,8.085c-1.594,1.367-3.084,2.852-4.646,4.254-1.517,1.361-1.441,2.067.381,3.051,5.356,2.887,6.869,6.142,5.657,12.241-.357,1.8-.852,3.567-1.124,5.374a5.656,5.656,0,0,0,.46,1.986c.674-.358,1.786-.572,1.953-1.094,1.878-5.927,4.937-11.922-.229-17.769-.08-.091-.059-.278-.134-.691l4.291-1.411c-.422.872-.529,1.524-.9,1.783-1.629,1.137-1.2,1.8.19,2.88,2.932,2.281,5.675,4.812,8.5,7.236,4.155,3.567,8.312,7.132,12.29,10.546.9,4.3-.959,7.672-3.085,10.762a25.587,25.587,0,0,1-5.637,5.84c-4.2,3.158-8.869,5.7-12.925,9.021-2.537,2.079-4.417,5.041-6.391,7.758-1.409,1.94-2.386,4.2-3.765,6.165a3.228,3.228,0,0,1-2.336,1.043,28.809,28.809,0,0,1-12.983-2.812,31.941,31.941,0,0,1-5.713-3.655c-.992-.779-1.776-1.654-.443-3.4m-2.667,7.7q11.04,3.675,21.72,7.233c-.322,1.432-.6,2.732-.9,4.028-1.185,5.138-2.331,10.287-3.625,15.4-.164.644-1.156,1.586-1.688,1.537a48.613,48.613,0,0,1-9.764-1.4c-3.871-1.183-7.526-3.094-11.7-4.871,4.114-7.062,3.976-15.057,5.957-21.922m13.945,73.711c-3.665-1.5-7.061-3.27-10.661-4.271-3.993-1.113-8.183-1.472-12.27-2.258-3.87-.743-7.727-1.568-11.569-2.446-1.984-.455-2.6-1.756-1.865-4.173,1.652-5.408,3.44-10.773,5.141-16.166.506-1.6.782-3.282,1.379-4.839,1.478-3.853,2.887-7.755,4.7-11.451a5.115,5.115,0,0,1,6.977-2.216c5.523,2.572,11.2,4.688,17.277,5.352a18.806,18.806,0,0,0,3.921-.371c-1.154,6.786-2.293,13.473-3.427,20.142l-2.42-.939c-.138.154-.276.3-.414.457.391.768.592,1.868,1.214,2.24,1.691,1.014,1.772,2.538,1.81,4.189.113,4.94.249,9.876.357,14.816.013.584-.086,1.173-.147,1.933" transform="translate(-973.832 -873.449)" fill="#182e54" stroke="#182e54" stroke-width="1"/>
          <path id="Path_46025" data-name="Path 46025" d="M136.25,1514.357c-.546-3.7-1.512-7.355-1.819-11.068-.359-4.356-.268-8.756-.238-13.136a103,103,0,0,1,.465-12.942,10.051,10.051,0,0,0-1.75-7.255c-2.5-3.911-6.614-5.507-10.265-7.8a3.381,3.381,0,0,1-1.553-1.957,35.24,35.24,0,0,1-.369-6.462c.3-6.778.83-13.526,2.986-20.037a11.638,11.638,0,0,0,.048-3.475c.346-9.164.726-18.386,3.505-27.268-1.242-1.36-2.268-3.192-3.81-4a4.988,4.988,0,0,1-2.876-4.667,10.754,10.754,0,0,0-.063-1.612c-2.159-10.052.739-19.184,4.9-28.091a69.422,69.422,0,0,1,3.747-7.893c3.446-5.435,5.5-10.953,2.733-17.349a2.756,2.756,0,0,1,1.011-3.633,8.411,8.411,0,0,0,2.625-3.054c1.441-3.417,2.509-6.994,3.883-10.443,2.379-5.978,4.884-11.9,7.323-17.858,1.216-2.969,2.309-6,3.645-8.9a3.9,3.9,0,0,1,2.211-2.076,3.587,3.587,0,0,0,3.141-3.666c.136-2.187.512-4.534-.08-6.547-.711-2.422-1.791-5.473-3.679-6.638a42.322,42.322,0,0,0-12.292-5.036c-4.075-.976-7.859,1.013-11.019,3.743-.67.581-.878,1.745-1.227,2.671-1.417,3.782-2.593,7.679-4.261,11.342-2,4.4-4.4,8.6-6.649,12.879-.64,1.217-1.352,2.394-2.131,3.767a4.748,4.748,0,0,1-.573-.94c-1.566-7.652-3.137-15.305-4.667-22.967-.57-2.857-1.143-5.72-1.536-8.608-.389-2.859-.426-5.771-.892-8.616a3.526,3.526,0,0,0-1.824-2.4c-1.6-.553-2.226.84-2.565,2.193q-.679,2.694-1.275,5.406c-.385,1.741-1.275,1.866-2.638,1a52.028,52.028,0,0,0-4.907-2.885,3.053,3.053,0,0,0-2.258-.044,1.86,1.86,0,0,0-.754,1.646c.8,2.483,1.832,4.886,2.7,7.346,1.675,4.748,3.3,9.514,4.929,14.276.25.726.372,1.5.67,2.206,2.011,4.716,3.174,9.846,6.554,13.9a7.312,7.312,0,0,1,.782,1.671,1.342,1.342,0,0,1-1.178-.392,62.107,62.107,0,0,0-5.447-5.465,37.649,37.649,0,0,0-14.732-7.34,39.774,39.774,0,0,0-14.6-1.073c-3.148.418-6.313.7-9.471,1.035-1.4.146-3.526-.184-3.472,1.671.056,1.921,2.172,1.485,3.654,1.656,2.5.288,4.98.816,7.467,1.241.026.3.052.592.078.888-2.774,1.962-5.585,3.871-8.3,5.925-.585.443-.8,1.389-1.188,2.1.836.39,1.668,1.107,2.506,1.113,4.233.03,8.493-.445,12.7-.146,7.916.562,15.8,1.521,23.7,2.352a24.091,24.091,0,0,1,3.029.779c-2.426,1.425-4.311,2.555-6.222,3.634a3.488,3.488,0,0,1-1.461.462c-7.589.4-11.84,5.794-10.164,13.479.594,2.719-.143,4.435-2.225,5.584-3.5,1.927-4.146,4.872-3.4,8.444a4.5,4.5,0,0,1-1.156,4.2,10.586,10.586,0,0,0-1.614,12.171,3.812,3.812,0,0,1-.036,2.577,6.993,6.993,0,0,0,.11,5.531c1.076,2.517,3.051,4.984,1.353,8.226-1.417,2.7-2.247,5.719-3.407,8.566a39.458,39.458,0,0,1-1.973,4.121c-1.849,3.363-3.781,6.678-5.637,10.039-1.58,2.863-3.142,5.738-4.6,8.663a2.488,2.488,0,0,0-.045,2.085c1.374,1.938,3.042,3.656,4.412,5.594,4.613,6.517,10.607,6.438,16.791,3.849.8-.337,1.4-1.536,1.8-2.465,1.381-3.208,2.444-6.57,3.995-9.687a53.932,53.932,0,0,1,4.265-6.307l.942.2c0,2.2.1,4.4-.041,6.582-.067,1.046-.864,2.067-.851,3.092.082,5.948.557,11.9.374,17.836-.092,2.975-.648,6.331-2.163,8.759a17.052,17.052,0,0,0-2.573,9.094c-.091,3.7-.339,7.388-.6,11.076a2.056,2.056,0,0,1-.825,1.423c-4.222,2.507-8.759,4.568-12.673,7.493-5.056,3.777-8.567,8.516-7.692,15.759.514,4.243,0,8.593,1.452,12.785a25.665,25.665,0,0,1,1.331,6.494c.35,4.853.575,9.714.8,14.576h2.532c.081-4.306.164-8.539-.177-12.736-.491-6.069-1.847-12.063-2.822-18.093l.639-.2c6.921,8.97,16.285,14.387,26.289,19.167.679-2.246.2-3.539-1.8-4.411a72.7,72.7,0,0,1-6.672-3.506,38.848,38.848,0,0,1-5.985-3.694,56.844,56.844,0,0,1-7.135-7.026c-2.091-2.5-4.066-5.216-4.485-8.67-.219-1.822.291-3.27,1.927-3.947a21.191,21.191,0,0,0,2.351,3.565c3.42,3.4,6.862,6.784,10.492,9.944,3.436,2.992,6.75,6.2,11.482,7.246a22.83,22.83,0,0,1,6.927,2.789c3.354,2.071,6.48,4.534,9.635,6.924,2.087,1.581,2.8,1.51,4.075-.69,1.915-3.319,3.716-6.725,5.879-9.87.722-1.048,2.677-1.161,3.582-2.156.966-1.063-.637-2.971.968-4.309a43.451,43.451,0,0,0,4.263-4.821c0,1.362.009,2.17,0,2.98-.036,2.936-.214,5.878-.086,8.807.249,5.7.622,11.4,1.052,17.094a24.768,24.768,0,0,0,1.011,5.19,1.17,1.17,0,0,0,.251.425h2.716a9.111,9.111,0,0,0,.192-3m-16.337-102.284c-.367,3.438-1.048,6.862-1.156,10.3-.078,2.5.7,5.007.853,7.526.19,3.213-1.244,4.791-4.425,5.176-1.954.237-3.922.376-5.882.56-.007.079-.017.157-.024.234-3.827-.437-7.662-.816-11.478-1.332-2.107-.286-2.563-2.131-2.6-3.8-.108-5.535-.007-11.076-.009-16.612,0-2.984.791-3.582,3.68-2.9a33.05,33.05,0,0,0,15.566-.235c.936-.225,1.758-.941,2.692-1.2a3.789,3.789,0,0,1,2.535-.057c.387.214.328,1.533.244,2.331m14.02-137.091c1.88-.318,3.913-1.251,5.614-.823a38.244,38.244,0,0,1,9.688,3.813c3.291,1.893,4.773,7.966,3.258,11.432-.194.441-1.016.729-1.6.842-4.555.909-8.072-1.508-11.434-4.015-2.057-1.537-4.531-2.816-5.644-6.291,1.686,1.129,2.865,1.9,4.028,2.7,3.317,2.271,6.622,4.564,9.948,6.828,1.5,1.021,2.093.278,2.13-1.26.067-2.948.108-5.878-2.96-7.612-1.1-.62-1.43-2.588-3.247-1.947a2.556,2.556,0,0,0-1.37.82c-.149.264.216,1.01.544,1.336,1.065,1.052,2.219,2.009,3.336,3-.2.272-.408.545-.612.818l-11.823-8.686c.048-.316.093-.634.142-.95m-17.653,36.97c1.424-3.876,2.746-7.812,4.49-11.539s4.014-7.193,5.922-10.845c1.288-2.466,2.345-5.056,3.585-7.758,4.607,5.921,10.449,9.435,17.184,12.134-.882,2.624-1.66,5.261-2.645,7.811-2.1,5.414-4.315,10.777-6.443,16.178-.7,1.778-4.833,4.163-7.268,3.72-5.665-1.035-10.43-3.965-14.63-7.861a2.136,2.136,0,0,1-.2-1.839m-14.258-19.466c-2.191-5.713-4.248-11.481-6.374-17.221-.158-.426-.458-.8-.61-1.226a7.139,7.139,0,0,1-.1-1.434,32.309,32.309,0,0,1,3.5,1.771c2.3,1.546,3.232,1.31,4.334-1.264.357-.84.763-1.661,1.152-2.5,2.329,12.463,4.646,24.85,6.962,37.239-.089.174-.177.35-.266.524-1.3-1.493-2.962-2.8-3.816-4.519-1.821-3.673-3.306-7.528-4.777-11.369m1.809,23.341.6-.155c1.274,1.951,2.467,3.961,3.837,5.838,2.915,3.995,7.089,6.086,11.609,7.562a2.094,2.094,0,0,0,1.547-.136,2.54,2.54,0,0,0,1.134-1.4c.067-.276-.625-1-1.069-1.1-4.177-.954-7.431-3.573-10.345-6.439-1.705-1.677-2.593-4.224-3.775-6.421a1.359,1.359,0,0,1,.2-1.248,1.251,1.251,0,0,1,1.195-.047c1.056.653,2.833.811,2.113,2.908-.067.2.966,1.166,1.385,1.1,2.908-.462,4.375,2,6.445,3.162,7.472,4.209,7.424,5.28,16.322,5.266-.9,2.49-1.64,4.737-2.539,6.917-.171.414-.927.653-1.458.835-6.893,2.352-13.733,1.4-20.282-1.092a8.168,8.168,0,0,1-5.564-6.512c-.318-2.343-.927-4.644-1.342-6.975a11.888,11.888,0,0,1-.019-2.063m-35.764-9.494c1.054-1.257,2.165-2.715,3.414-4.046,1.649-1.758,1.279-3.323-1.126-4.305,7.766-3.652,26.518,3.531,31.151,11.939l-33.439-3.588m21.043,93.424a69.665,69.665,0,0,0-5.834,10.081c-1.165,2.282-1.86,4.808-2.932,7.147a3.318,3.318,0,0,1-1.86,1.7c-4.252,1.088-7.444-.163-10.611-3.608-3.529-3.844-4.121-6.981-1.21-11.326a103.493,103.493,0,0,0,6.65-11.969c1.379-2.8,2.21-5.868,3.44-8.748a43.034,43.034,0,0,1,2.636-4.5c1.422,3.94,4.807,5.037,7.115,7.274,1.969,1.908,2.747,5.159,3.846,7.9.881,2.2.274,4.026-1.24,6.052m2.044-14.238a3.584,3.584,0,0,0-1.817-2.214c-6.017-2.116-8.3-7.255-10.345-12.675-.9-2.375-1.528-4.634-.026-7.036.287-.458.013-1.4-.208-2.04-.516-1.508-1.454-2.925-1.677-4.462a6.443,6.443,0,0,1,2.759-6.65c1.612-1.105,2.074-2.308,1.322-4.453-.916-2.609-1.024-5.457,1.826-7.411A14.731,14.731,0,0,0,85.9,1335.7a3.646,3.646,0,0,0,.644-1.974c.2-3.031-.012-6.137.566-9.083.514-2.606,2.58-3.31,5.214-2.9a5.126,5.126,0,0,0,3.018-.765,39.782,39.782,0,0,0,3.715-2.673,9.1,9.1,0,0,1,1.327-.562c.408,2.4.84,4.549,1.126,6.717.711,5.382,4.449,8.045,8.822,9.975a31.52,31.52,0,0,0,17.212,2.032c.664,2.717,1.392,5.392,1.966,8.1.815,3.857-1.54,6.908-2.8,10.19-1.169,3.05-2.854,5.894-4.268,8.85-2.212,4.621-4.278,9.316-6.622,13.865-1.186,2.3-2.9,4.309-4.242,6.533a5.668,5.668,0,0,0-.261,2.2c.951-.116,2.066.041,2.815-.417.908-.556,1.508-1.635,2.64-2.948,0,2.04-.132,3.541.024,5.011.43,4.027,1.076,8.029,1.439,12.062a27.426,27.426,0,0,1-.257,5.747c-.06.479-.864.982-1.426,1.26-5.827,2.878-11.907,2.674-17.99,1.193a3.942,3.942,0,0,1-2.145-2.519c-1.839-6.669-3.455-13.4-5.268-20.081m29.986,104.085c-2.322,4.05-4.672,8.082-7.134,12.325-2.791-2.01-5.315-4.02-8.029-5.716a22.891,22.891,0,0,0-5.976-2.721,27.554,27.554,0,0,1-12.076-6.96,1.984,1.984,0,0,1-.674-1.15c-.1-4.171-1.554-8.266-.421-12.518,1.285-4.81,2.591-9.64,3.4-14.542a83.646,83.646,0,0,0,.931-12.612c.041-3.226,2-5.418,3.4-7.919.229-.411,1.323-.5,2-.448,4.509.316,9.006.933,13.515,1,2.956.042,5.925-.679,9.215-1.1-.287,2.369-.614,4.625-.823,6.891-.328,3.6-.7,7.2-.815,10.8-.082,2.505.5,5.052-.812,7.416-.1.18-.158.56-.06.653,2.662,2.49,1.14,5.921,1.839,8.858,1.3,5.452,1.852,11.086,2.692,16.647a1.821,1.821,0,0,1-.182,1.1" transform="translate(-41.046 -930.753)" fill="#182e54" stroke="#182e54" stroke-width="1"/>
          <path id="Path_46026" data-name="Path 46026" d="M1472.752,1918.8a2.849,2.849,0,0,0-1.43,1.423,12.163,12.163,0,0,0-.99,3.751c-.043.766.637,1.575.99,2.365.283-.031.568-.061.851-.089a7.549,7.549,0,0,0,.893-1.559c.356-1.2.572-2.439.857-3.66.149-.636.32-1.268.482-1.9-.561-.131-1.219-.509-1.653-.329" transform="translate(-1075.955 -1395.851)" fill="#182e54" stroke="#182e54" stroke-width="1"/>
          <path id="Path_46027" data-name="Path 46027" d="M540.647,1433.967c-.194-2.12-.879-4.247-.741-6.332.409-6.322.946-12.649,1.806-18.92.26-1.909-.877-4.509,1.764-5.764a5.1,5.1,0,0,0,3.3-5.036,8.124,8.124,0,0,1,.994-2.808c.544-1.35,1.163-2.669,1.679-4.027,2.781-7.325,1.337-14.688-.249-21.909a15.985,15.985,0,0,0-4.129-8.023c-4.874-4.466-9.574-9.4-16.534-10.839-2.712-.562-3.712-2.731-2.353-4.58,1.836-2.5,1.632-5.362,2.23-8.067,1.3-5.872,2.241-11.823,3.58-17.684.8-3.508-2.219-8.161-6.208-8.439.728-1.9,2.033-3.711,1.973-5.477-.138-4.153,2.532-6.833,4.386-9.863,1.739-2.836,4.252-5.168,6.247-7.857a50.007,50.007,0,0,0,6.214-9.838c2.36-5.429,4.319-10.87,4.762-16.8.335-4.493,1.3-5.244,5.406-4.044a8.3,8.3,0,0,1,1.761.465c1.888,1.062,4.32,1.8,5.417,3.438,1.158,1.734.3,4.493.208,6.633-.1,2.163.689,2.388,1.934,2.7,1.158.3,2.426.118,3.61.343,7.923,1.51,15.823,1.93,23.645-.534,7.783-2.452,15.935-3.989,22.774-8.886a62.789,62.789,0,0,0,8.66-6.986c2.353-2.421,3.825-5.717,6.126-8.2,3.721-4.026,4.477-9.931,9.252-13.439,3.174-2.333,5.225-6.252,7.757-9.479a48.448,48.448,0,0,1,3.481-4.524,121.487,121.487,0,0,1,9.989-9.358c3-2.389,5.183-5.925,9.211-7.005.554-.149.878-1.477,1.124-2.312.058-.191-.6-.716-1.016-.918-2.954-1.453-6.041-2.67-8.876-4.328-6.167-3.606-12.055-7.732-18.347-11.081-5.7-3.033-11.787-5.31-17.694-7.936-3.889-1.73-7.806-3.4-11.633-5.259-4.642-2.25-9.285-4.521-13.768-7.072-2.219-1.264-5.343-1.434-6.279-4.629-.069-.234-1.14-.4-1.608-.23a9.23,9.23,0,0,0-2.79,1.521c-3.049,2.629-6.093,5.272-8.991,8.069-2.863,2.759-5.5,5.752-8.318,8.564-4.092,4.1-8.269,8.1-12.376,12.183-4.605,4.58-9.138,9.235-13.768,13.79-3.15,3.1-6.309,6.2-9.661,9.062-1.754,1.495-3.347,3.705-6.43,2.517-.985-.378-2.759.379-3.745,1.168-2.58,2.059-4.645,4.6-4.958,8.215-.5-1.289-.89-2.541-1.463-3.7-1.241-2.5-4.161-2.968-5.936-.816a40.761,40.761,0,0,0-2.969,4.807,9.216,9.216,0,0,1-1.724,2.636c-4.5,3.418-8.128,7.231-9.529,13.156-2.392,10.1-5.274,20.089-5.655,30.548a81.5,81.5,0,0,0,.24,12.905,22.74,22.74,0,0,0,4.736,11.871c3.885,4.748,5.084,10.383,4.879,16.41-.018.564-.208,1.392-.6,1.629-2.308,1.4-3.621,2.907-3.386,6.118.275,3.777-.465,7.652-.964,11.46-.4,3.05-1.083,6.063-1.666,9.089-.6,3.112-2,6.307-1.661,9.307.5,4.521-1.156,7-4.894,8.655a5.683,5.683,0,0,0-.586.354c-3.207,1.9-4.51,5.322-4.829,8.536a7.152,7.152,0,0,0,3.463,6.568,55.424,55.424,0,0,0,6.2,2.854c9.2,3.785,18.472,7.4,27.6,11.358,3.094,1.343,5.808,3.582,8.738,5.338,3.571,2.142,7.185,4.207,10.9,6.375-1.726,4.479-5.14,7.331-9.883,9.445.341.518.747,1.642,1.14,1.639a6.243,6.243,0,0,0,3.109-.865,42.946,42.946,0,0,0,4.131-3.362c-.3,2.978-.478,5.206-.762,7.418-1.009,7.849-2.027,15.691-.178,23.563.126.538.205,2.825.293,4.749h2.74c-.02-2.879-.166-6.748-.3-8.23M631.89,1235.4c-.321.427-.879.8-.965,1.262-1.031,5.66-5.1,9.592-8.068,14.047a30.076,30.076,0,0,1-13.671,11.133,174.106,174.106,0,0,1-23.106,7.471c-5.812,1.444-11.862.234-17.776-.6-1.782-.252-1.964-1.051-1.608-2.86,1.311-6.682,5.784-10.658,11.183-13.667,4.358-2.43,9.064-4.2,13.55-6.409a21.3,21.3,0,0,0,5.139-3.279c5.536-5.14,11.616-9.255,19.107-10.609,5.86-1.059,11.767-1.362,18.113.92-.775,1.058-1.329,1.828-1.9,2.589M527.978,1218.36c-1.482,1.177-2.96,2.352-4.062,3.226,0-1.883,1.666-2.9,4.062-3.226m2.3,2.49c3.716-3.724,7.394-7.6,11.434-11.068,6.307-5.418,12.115-11.442,18.046-17.3,3.023-2.986,5.793-6.235,8.79-9.25q7.054-7.088,14.278-14c1.421-1.366,3.075-2.483,4.572-3.773,1.966-1.692,3.9-1.365,6.047-.288,8.511,4.258,16.988,8.6,25.637,12.556,6.746,3.088,13.809,5.464,20.572,8.521a106.554,106.554,0,0,1,11,6.346c4.233,2.563,8.41,5.216,12.606,7.838a11.515,11.515,0,0,1,1.031.851c-1.969,1.83-3.773,3.654-5.728,5.295a118.224,118.224,0,0,0-18.495,19.658c-1.169,1.554-3.107,2.526-4.741,3.693a1.671,1.671,0,0,1-1.244.056,41.274,41.274,0,0,0-25.34,1.027,35.575,35.575,0,0,0-10.493,6.4,59.413,59.413,0,0,1-16.605,9.617,32.172,32.172,0,0,0-13.474,9.494,4.723,4.723,0,0,1-.912.564c0-2.5-.119-4.772.03-7.023a65.528,65.528,0,0,1,.918-7.592,17.279,17.279,0,0,1,5.9-10.372c.542-.458,1.21-1.552,1.018-1.974-.717-1.567.231-2.272,1.221-2.778,3.976-2.022,7.975-4.007,12.027-5.864,4.635-2.123,9.6-2.583,14.617-2.774a9.012,9.012,0,0,0,2.81-1.078c-1.506-2.186-3.846-1.2-5.629-1.083a51.764,51.764,0,0,0-27.339,9.751c-2.72,1.966-4.574,5.156-7.266,7.177-3.1,2.328-1.08,5.013-1.115,7.477a85.868,85.868,0,0,1-1.739,15.763l-10.587-3.164a27.785,27.785,0,0,1,2.176-5.128c1.513-2.242,3.576-4.1,5.091-6.345a3.368,3.368,0,0,0-.309-3.079,3.859,3.859,0,0,0-2.908-1.029c-5.2.272-10.6-.134-15.328,2.611a19.388,19.388,0,0,0-5.391,4.8c-1.3,1.662-2.286,1.926-3.931.824-3.416-2.287-7.152-4.186-10.194-6.894a7.21,7.21,0,0,0-4.71-2.174c-.95-.065-1.85-.9-3.161-1.59,1.236-.929,2.195-1.6,3.1-2.342a176.4,176.4,0,0,0,13.71-12.346m-14.831.123c.761,2.464,1.528,4.941,2.394,7.74-2.031,1.569-4.447,3.432-6.981,5.388-1.226-4.287,1.282-11.939,4.587-13.127m-14.261,74.694c-3.291-3.7-4.851-8.111-5.609-12.908a56.175,56.175,0,0,1,.516-19.519c1.31-6.77,2.573-13.577,4.415-20.208,1.192-4.288,2.394-8.845,6.519-12.037a33,33,0,0,1-.037,4.651,18.635,18.635,0,0,0,1.251,10.164c.618,1.493.527,3.295.715,4.962.093.835-.223,1.975.208,2.456a9.211,9.211,0,0,0,2.755,1.516,7.922,7.922,0,0,0,.7-2.362,69.752,69.752,0,0,0-.581-7.792c-.115-.819-1.005-1.523-1.543-2.28-.225.1-.452.206-.677.311.1-.884.208-1.77.363-3.085,2.23,1.043,4.25,1.895,6.165,2.939a2.993,2.993,0,0,1,1.214,1.775c.674,2.69,1.069,5.461,1.862,8.11a8.5,8.5,0,0,0,2.2,3.219,1.891,1.891,0,0,0,1.875-.218,3.055,3.055,0,0,0,.062-2.161c-.706-2.583-1.525-5.132-2.3-7.694l.631-.48c2.753,1.539,5.508,3.071,8.256,4.625.391.223.7.613,1.1.8,1.769.833,2,1.994,1.132,3.741-.719,1.44-1.218,3.122.216,4.458a2.93,2.93,0,0,0,2.031.525c.248-.018.479-.939.642-1.471,1.2-3.869,1.85-8.048,3.761-11.509,1.165-2.114,4.08-3.688,6.53-4.5,3.133-1.041,6.59-1.073,10.088-1.565-2.476,4.572-4.559,8.453-6.694,12.306a3.171,3.171,0,0,1-1.186,1c-.968.581-1.063,1.208-.968,2.428a32.876,32.876,0,0,1-.61,6.385c-.627,5.164-1.731,10.279-4.215,14.8a83.7,83.7,0,0,1-8.209,12.059c-3.794,4.722-7.915,9.239-9.5,15.251-.935,3.54-1.009,7.313-1.482,10.982-.164,1.276-.358,2.549-.561,3.967-5.5.524-10.657-.933-15.719-2.81a2.245,2.245,0,0,1-.981-1.8,38.538,38.538,0,0,0-2.156-15.063,12.234,12.234,0,0,0-2.185-3.966m21.039,62.272v27.028c-1.359-.543-3.068-1.2-4.76-1.9-5.791-2.407-11.57-4.839-17.365-7.234-1.469-.608-3.125-.893-4.414-1.76a3.6,3.6,0,0,1-1.214-2.821,76.57,76.57,0,0,1,1.508-10.742,26.224,26.224,0,0,0,.722-9.222c-.223-1.9.3-3.891.5-5.838.168-1.615,1.21-1.507,2.342-1.213a64.826,64.826,0,0,0,18.829,2.462c1.566-.06,3.118-.415,5.164-.7-.984,4.335.177,8.571-1.316,11.947m2.558-17.994c-.011,2.061-.951,3.132-3.109,3.514-7.063,1.253-13.85-.155-20.615-1.881-2.672-.681-2.632-1.179-2.174-4,.756-4.663,1.269-9.373,1.671-14.083.2-2.367.726-2.388,2.584-2.973,5.091-1.6,9.416,1.673,14.181,1.724,2.338.025,4.676,0,7.471,0,0,6.024.018,11.857-.01,17.691m15.06,28.92c-1.556-2.6-2.984-5.4-5.06-7.516a13.915,13.915,0,0,0-6.553-3.72c-2.446-.539-2.984-1.525-2.664-3.675.067-.452.052-.918.084-1.567,21.6,5.7,27.353,27.6,17.841,43.423.134-2.212.285-4.424.395-6.638.356-7.119-.288-14.051-4.043-20.307" transform="translate(-353.179 -842.782)" fill="#182e54" stroke="#182e54" stroke-width="1"/>
          <path id="Path_46028" data-name="Path 46028" d="M448.4,1947.776c-.22-3.49-.52-6.894.689-10.251,1.515-4.212,2.725-8.5,2.388-13.047-.106-1.434-.084-3.4-.942-4.156-2.383-2.094-3.007-4.632-2.943-7.537.084-3.788.266-7.575.4-11.148,5.086,2.757,9.736,5.582,14.636,7.857,6.031,2.8,11.421,7.058,18.107,8.372.948.186,1.927.218,2.891.321.1-.385.2-.772.3-1.156-2.37-1.2-4.734-2.407-7.109-3.594-6.657-3.323-13.377-6.517-19.937-10.024a14.4,14.4,0,0,1-5.469-4.672c-2.591-4.226-1.586-7.363,2.934-10.31-1.229-.607-2.195-1.086-3.323-1.646,1.841-6.694,7.772-8.534,13.2-11.208-.672-.436-1.418-.871-1.914-.666a62.9,62.9,0,0,0-8.315,3.769c-4.57,2.71-6.285,7.28-6.975,12.365a48.605,48.605,0,0,1-1.225,7.741c-1.832,5.974-1.238,12.076-1.346,18.145a2.947,2.947,0,0,0,.81,1.86c4.134,4.307,3.455,9.467,2.286,14.523-1.042,4.521-2.785,8.851-2.254,13.667.6,5.431.966,10.887,1.436,16.332h2.126c-.061-5.184-.125-10.369-.451-15.538" transform="translate(-324.62 -1363.899)" fill="#182e54" stroke="#182e54" stroke-width="1"/>
          <path id="Path_46029" data-name="Path 46029" d="M940.73,1374.4l-.071.031.017.024Z" transform="translate(-688.039 -999.59)" fill="#182e54" stroke="#182e54" stroke-width="1"/>
          <path id="Path_46030" data-name="Path 46030" d="M1472.165,2146.758c-.082-.553.026-1.28-.281-1.628a19.93,19.93,0,0,0-3.45-3.308c-.767-.528-1.934-.454-2.921-.651-.1.263-.209.526-.311.79,1.787,1.556,3.545,3.15,5.388,4.632.35.282,1.042.122,1.575.165" transform="translate(-1072.201 -1557.759)" fill="#182e54" stroke="#182e54" stroke-width="1"/>
          <path id="Path_46031" data-name="Path 46031" d="M1509.23,2060.822c1.724.241,3.464.349,5.2.513.091-.2.18-.405.271-.608-.478-.492-.875-1.242-1.448-1.429a69.784,69.784,0,0,0-7.781-2.176c-.668-.136-1.536.749-2.31,1.168a9.08,9.08,0,0,0,2.139,1.663,18.257,18.257,0,0,0,3.93.868" transform="translate(-1100.001 -1496.566)" fill="#182e54" stroke="#182e54" stroke-width="1"/>
          <path id="Path_46032" data-name="Path 46032" d="M2362.508,1997.243l-6.9-1.355c1.26,3.417,4.107,3.89,6.9,1.355" transform="translate(-1724.306 -1452.001)" fill="#182e54" stroke="#182e54" stroke-width="1"/>
          <path id="Path_46033" data-name="Path 46033" d="M2033.665,1383.9c.157-3.077.564-6.14.919-9.2.069-.588.237-1.411.641-1.671,2.409-1.543,1.7-4.581,3.147-6.6.322-.449-.233-1.569-.423-2.371-.53-2.254-.575-4.827-1.731-6.682a72.059,72.059,0,0,0-7.869-10.228c-1.91-2.1-4.432-3.63-6.691-5.4a1.465,1.465,0,0,0-.8-.4c-3.662.157-3.641-2.867-4.547-5.229-1.923-5-4.1-9.908-6-14.921-.975-2.574-1.558-5.3-2.377-7.937a12.449,12.449,0,0,0-1.152-2.732c-2.573-4.247-2.435-9.153-3.286-13.808-.691-3.8-1.2-7.628-1.672-11.46-.224-1.832-.144-3.7-.224-5.552-.119-2.8-.376-5.51-3.74-6.362-.3-.076-.737-.456-.752-.713-.2-3.993-2.007-7.884.919-11.956,1.534-2.133,1.717-5.565,1.772-8.425a20.16,20.16,0,0,1,2.582-9.675c2.679-5.009,4.274-10.728,2.077-16.653-1.6-4.309-3.06-8.67-4.721-12.953-.787-2.03.84-2.641,1.8-3.5q6.979-6.227,14.126-12.256c2.087-1.768,4.324-3.355,6.647-5.144,2.934,5.685,3.511,11.519,4.574,17.243,1.279,6.888,2.7,13.747,4.2,20.589.281,1.275,1.326,2.355,1.849,3.6.5,1.188.337,2.043-1.311,2.142a4.009,4.009,0,0,0-2.3,1.178,18.8,18.8,0,0,0-5.274,10.145c-.329,1.735.244,2.1,1.912,1.7,1.416-2.888,2.649-5.4,3.883-7.916.343.125.686.249,1.031.377-1.072,3.864-2.161,7.724-3.2,11.6a4.176,4.176,0,0,0-.1,2.091c.063.229,1.2.431,1.609.2a2.831,2.831,0,0,0,1.247-1.6c.793-3.027,1.459-6.091,2.172-9.142l.649,0c.47,2.179.92,4.366,1.416,6.54.42,1.845.992,3.166,3.39,2.023.973-.463,2.418.087,4.231.218-1.4-4.715-2.628-8.821-3.851-12.929,2.434,2.664,4.609,5.471,4.7,9.3.062,2.71,1.271,3.665,4.155,2.793-.626-1.644-1.244-3.268-1.977-5.191l3.8.362c-.933-6.419-2.733-10.786-10.216-12.306-1.555-.316-2.671-.772-3.116-2.426-1.158-4.3-2.526-8.539-3.5-12.877-1.586-7.035-2.9-14.13-4.384-21.189a66.29,66.29,0,0,0-1.739-6.661,3.387,3.387,0,0,1,1.068-3.94c4.263-3.79,8.467-7.654,12.841-11.3.869-.726,2.414-.581,3.615-.95.529-.165,1.279-.543,1.372-.956s-.376-1.122-.78-1.506c-4.943-4.7-9.963-9.308-14.874-14.039-4.585-4.421-9.077-8.939-13.585-13.443-4.139-4.133-8.169-8.383-12.384-12.433-4.005-3.851-8.22-7.475-12.282-11.267-2.949-2.752-5.721-5.7-8.716-8.4-4.462-4.023-9.083-7.868-13.574-11.862-2.031-1.805-3.863-3.841-5.875-5.669-1.044-.95-2.342-1.608-3.425-2.524-3.21-2.706-6.292-5.579-9.615-8.129a3.385,3.385,0,0,0-3.208.341,154.346,154.346,0,0,0-11.9,10.678c-5.026,5.194-9.693,10.745-14.5,16.153-4.751,5.339-9.512,10.664-14.219,16.041-2.8,3.194-5.338,6.635-8.28,9.681-4.218,4.371-8.682,8.5-13.068,12.7q-3.479,3.332-7.052,6.562c-4.011,3.62-8.178,7.074-12.053,10.836-3.708,3.6-7.13,7.5-10.918,11.518,1.022.732,1.776,1.3,2.565,1.82.242.159.8.123.831.269.759,3.181,3.976,2.317,5.839,3.681,2.02,1.477,4.176,2.764,6.279,4.121,2.049,1.319,4.129,2.591,6.158,3.938,3.3,2.192,6.608,4.372,9.836,6.671,1.623,1.156,3.043,2.6,4.607,3.851,3.424,2.731,6.9,5.389,10.312,8.135a44.139,44.139,0,0,1,3.516,3.255c2.951,2.958,5.844,5.976,8.811,8.915.751.744,1.758,1.21,2.541,1.928,5.423,4.965,10.814,9.968,16.224,14.949,1.121,1.032,2.227,2.089,3.427,3.018,1.869,1.451,3.42,1.133,4.829-.838.293-.409.648-.774,1.169-1.389,2.387,3.257,4.661,6.307,6.875,9.4,4.369,6.109,8.833,12.107,14.269,17.335a51.753,51.753,0,0,1,6.508,8,12.044,12.044,0,0,1,1.477,4.773c.074.439-.861,1.4-1.468,1.545-2.266.557-1.92,1.865-1.279,3.473,2.029,5.106,4.542,10.094,5.853,15.387,1.186,4.787,1.1,9.914,1.4,14.9.037.622-.933,1.412-1.577,1.95-1.273,1.063-2.768,1.875-3.933,3.037-.911.906-1.551,1.983-3.064,1.764-.309-.044-.908.21-.972.443-1.255,4.555-4.836,8.3-4.421,13.456.151,1.868-.242,3.778-.233,5.668,0,.61.348,1.591.789,1.775,4.624,1.921,5.527,6.192,5.8,10.357.227,3.459-.655,7-1.07,10.5-.518,4.354-1.061,8.7-1.594,13.057-.272,2.208-.621,4.411-.789,6.629a14.81,14.81,0,0,0,.161,2.726h2.809a2.754,2.754,0,0,0,.7-2.04c.183-5.231.712-10.453,1.269-15.661a41.922,41.922,0,0,1,1.419-7c1.627-5.666.442-10.991-1.506-16.257a8.618,8.618,0,0,1,8.379,8.837,47.951,47.951,0,0,1-1.566,13.721,4.232,4.232,0,0,0-.18,2.029,9.622,9.622,0,0,0,1.052,2.095,10.738,10.738,0,0,0,1.653-1.769c3.14-5.375,2.649-11.343,2.565-17.22a8.363,8.363,0,0,0-.931-2.816c-1.966-4.792-6.057-6.888-10.532-8.419-4.754-1.625-5.547-2.812-5.007-7.937.378-3.593,1.675-6.568,3.077-7.645,1.5,2.545,2.789,5.325,4.652,7.624.864,1.065,2.822,1.277,4.328,1.727,6.028,1.807,12.238,3.125,18.061,5.452,5.377,2.148,10.389,5.268,15.477,8.118,4.565,2.558,9.012,5.33,13.509,8.008,2.936,1.748,5.922,3.417,8.789,5.274,2.15,1.392,2.159,2.172.549,4.214-.84,1.065-1.649,2.157-2.688,3.516-2.251-2.093-4.464-4.148-6.67-6.209-4.985-4.659-10.929-7.436-17.382-9.265-2.622-.744-5.193-1.673-7.811-2.439a4.924,4.924,0,0,0-1.685.123c.064.561-.046,1.245.231,1.657a2.912,2.912,0,0,0,1.56,1.194,58.394,58.394,0,0,1,19.029,7.45,43.909,43.909,0,0,1,5.285,4.585c1.4,1.258,2.829,2.492,4.127,3.854,2.447,2.572,2.412,2.606-.622,5.59,1.6.277,2.736.474,4.068.7-.239,2.279-.5,4.829-.773,7.392a13.032,13.032,0,0,0,.617,1.511h2.477a16.47,16.47,0,0,0,.913-4.614m8.033-145.924q1.6,2.124,3.192,4.249c-.288.214-.575.43-.861.643l-2.983-4.411.652-.481m-103.525-7.832a68.444,68.444,0,0,0,1.767,7.371c.6,1.847-.443,2.759-1.5,3.718-1.318,1.192-2.1-.2-2.871-.873-1.5-1.3-2.826-2.8-4.276-4.165-4.006-3.767-8.02-7.529-12.074-11.244-1.8-1.65-3.9-3-5.529-4.8a145.9,145.9,0,0,0-19.979-17.816c-7.1-5.41-14.49-10.442-21.858-15.485-3.727-2.551-7.681-4.76-12.01-7.416,2.276-2.5,4.641-5.387,7.306-7.951,2.682-2.581,5.711-4.787,8.505-7.257,3.243-2.867,6.415-5.817,9.578-8.774,2.82-2.634,5.715-5.208,8.347-8.028,4.47-4.788,8.746-9.764,13.13-14.635,4.186-4.651,8.452-9.232,12.6-13.916,4.494-5.072,8.74-10.38,13.386-15.3,4.907-5.2,10.159-10.062,15.02-14.834,1.37.991,2.185,1.646,3.064,2.2,1.694,1.071,3.861,1.72,5.049,3.194,2.952,3.669,7.792,5,10.363,9.041.206.323.866.31,1.214.584,2.729,2.171,5.465,4.335,8.138,6.576,1.646,1.381,3.176,2.907,4.779,4.343.962.863,2.026,1.616,2.934,2.53,4.484,4.5,8.91,9.072,13.4,13.568,2.463,2.464,5.071,4.779,7.513,7.259,2.24,2.275,4.267,4.767,6.53,7.013,4.25,4.214,8.595,8.33,12.918,12.467,1.867,1.788,3.777,3.533,5.672,5.291,2.507,2.325,5.058,4.6,7.517,6.979,1.99,1.921,1.983,3.415.041,5.23-2.9,2.708-5.829,5.374-8.767,8.037-1.135,1.027-2.327,1.994-3.634,3.111-.311-.844-.515-1.336-.675-1.845-1.735-5.441-4.384-10.283-8.863-13.911a26.254,26.254,0,0,0-14.868-5.661c-1.108-.087-2.277.649-3.416,1.006.005.269.011.536.017.8a16.806,16.806,0,0,0,4.013,1.026c4.175.023,7.567,2.021,10.882,4.171,5.514,3.577,7.4,9.589,9.574,15.352a2.449,2.449,0,0,1-.722,2.069c-2.88,2.516-5.914,4.855-8.8,7.365-4.358,3.785-8.567,7.747-12.981,11.464-2.651,2.233-5.648,4.038-8.34,6.225-2.241,1.823-2.973,1.741-4.028-1.041-1.227-3.234-2.295-6.54-3.684-9.7-2.1-4.78-4.231-9.5-4.474-14.872-.024-.524-1.193-1.355-1.886-1.419a7.262,7.262,0,0,0-6.24,2.46c-1.746,1.782-2.634,3.37-2.219,5.847.489,2.925.769,5.889,1.143,8.872-8.578-1.214-12.021-.11-12.332,8.682-2.337.212-5.016-.248-6.815.821-1.709,1.017-2.5,3.628-3.895,5.859-4.377.184-7.482,1.942-7.884,7.206a11.718,11.718,0,0,0,.221,3.2m28.212,38.424c-4.494-4.285-8.87-8.793-12.084-14-3.2-5.185-8.813-9.005-9.338-15.818-2.656-2.252-2.861-5.522-3.34-8.617-.655-4.262.575-8.214,5.7-7.378a9.125,9.125,0,0,0,1.363-.027c1.67.013,2.239-.666,1.958-2.453-.562-3.574.028-4.084,3.754-3.8.682.053,1.37.081,2.053.115,3.637.181,4.281-.551,3.771-4.282s.877-5.431,4.542-5.333c1.41.038,2.8.566,4.211.724,1.21.134,2.88.608,3-1.34.121-1.972-.287-3.97-.35-5.961-.1-2.946-1.463-5.991.419-8.8a9.007,9.007,0,0,1,2.044-1.671,9.5,9.5,0,0,1,1.282,1.97c1.065,3.067,1.91,6.22,3.051,9.257,2.109,5.62,4.369,11.182,6.683,17.065.024-.026-.376.4-.765.816,1.4,2.045,5.495,2.528,7.567.872-.391-.585-.785-1.176-1.13-1.694.989-.854,1.825-1.614,2.7-2.324s1.806-1.383,2.9-2.212c1.177,2.748,2.223,5.223,3.3,7.687,2.411,5.531,3.594,11.146,1.035,16.976a51.663,51.663,0,0,1-2.628,5.331,10.607,10.607,0,0,0-1.646,7.232,12.366,12.366,0,0,1-2.753,10.114c-1.4,1.641-1.176,3.368-.979,5.236.432,4.14.838,8.286,1.146,12.438a3.646,3.646,0,0,1-2.319,4.063,34.342,34.342,0,0,1-14.172,2.74c-2.437-.062-2.9-1.308-3.146-3.253-.221-1.743-.147-3.777-1.024-5.132a47.115,47.115,0,0,0-6.8-8.549m9.157,29.485c-.979-3.226-2.051-6.424-3.219-10.046,9.151.52,17.837-.479,26.027-5.488.247,2.113.429,3.667.6,5.113-1.754.819-4.12.418-4,2.972.159,3.4,1.607,4.748,4.961,4.743a62.685,62.685,0,0,0,.966,6.788c.552,2.241-.383,3.111-2.271,3.658a62.639,62.639,0,0,1-15.886,2.507c-4.071.106-5.038-.706-5.7-4.471a49.788,49.788,0,0,0-1.478-5.776m43.443,55.763c-12.355-8.911-25.7-15.592-40.578-18.233.519-3.215,1.37-5.941,1.3-8.644a108.542,108.542,0,0,0-1.361-11.918c-.452-3.279-.1-3.868,3.068-3.972,6.986-.231,13.93-.706,20.86-3.453,5.8,15.365,11.55,30.595,17.3,45.826-.2.131-.391.262-.586.394" transform="translate(-1357.276 -785.105)" fill="#182e54" stroke="#182e54" stroke-width="1"/>
          <path id="Path_46034" data-name="Path 46034" d="M2389.258,2004.492q-.206.417-.413.831a38.284,38.284,0,0,0,4.529,2.6c2.6,1.073,5.324,1.786,7.023,4.415.354.544,1.521.547,2.314.8.064-.776.415-1.692.127-2.294a6.179,6.179,0,0,0-2.093-2.571c-3.532-2.161-7.13-4.27-11.488-3.783" transform="translate(-1748.651 -1458.213)" fill="#182e54" stroke="#182e54" stroke-width="1"/>
          <path id="Path_46035" data-name="Path 46035" d="M1570.761,1767.142c2.316-.18,1.687-2.41,2.12-3.737.153-.473-1.206-1.455-2.176-2.54-1.575,1.223-3.088,1.934-3.851,3.137-.584.925,2.3,3.262,3.907,3.14" transform="translate(-1146.59 -1280.916)" fill="#182e54" stroke="#182e54" stroke-width="1"/>
          <path id="Path_46036" data-name="Path 46036" d="M1567.922,1798.072c.909-.1,2.335-.331,2.331-2.35a2.92,2.92,0,0,0-3.085-2.618c-1.621.152-2.636.96-2.581,2.786.056,1.864,1.207,2.279,3.334,2.182" transform="translate(-1144.986 -1304.377)" fill="#182e54" stroke="#182e54" stroke-width="1"/>
          <path id="Path_46037" data-name="Path 46037" d="M1472.649,2013.76c.138-.168.278-.335.417-.5-.441-.672-.732-1.6-1.347-1.968a38,38,0,0,0-6.265-3.185c-3.557-1.281-7.232-2.214-10.843-3.34a27.153,27.153,0,0,0-2.942-1.131c-.52-.1-1.156.452-1.74.709.281.488.447,1.224.86,1.423,2.723,1.3,5.456,2.6,8.269,3.676,2.835,1.082,5.761,1.919,8.656,2.837,1.636.52,3.289.989,4.934,1.481" transform="translate(-1061.015 -1457.63)" fill="#182e54" stroke="#182e54" stroke-width="1"/>
          <path id="Path_46038" data-name="Path 46038" d="M1573.709,2056.785c-1.627,0-2.96-.019-4.29.052-.072,0-.289,1.013-.128,1.138,1.076.825,2.237,1.538,3.6,2.437.326-1.444.491-2.17.822-3.627" transform="translate(-1148.39 -1496.329)" fill="#182e54" stroke="#182e54" stroke-width="1"/>
          <path id="Path_46039" data-name="Path 46039" d="M187.787,1990.715c0-3.412-.266-6.727.06-9.981.557-5.538,1.426-11.049,2.286-16.552a3.75,3.75,0,0,1,4.4-3.44c.034.148.142.35.084.441-3.152,4.877-2.329,10.582-3.122,15.928-.561,3.776-.48,7.645-.75,11.468-.16,2.256-.218,2.25-2.962,2.136" transform="translate(-136.58 -1426.374)" fill="#182e54" stroke="#182e54" stroke-width="1" fill-rule="evenodd"/>
          <path id="Path_46040" data-name="Path 46040" d="M255.45,1983.958c0-2.231-.136-4.474.041-6.687a24.521,24.521,0,0,1,1.108-5.677c.186-.564,1.472-.749,2.256-1.108a15.337,15.337,0,0,1,.207,2.145c-.062,1.59-.29,3.176-.315,4.768-.047,3,.084,6-.045,9-.03.736-.778,1.438-1.2,2.157a8.624,8.624,0,0,1-1.729-2.072,7.2,7.2,0,0,1-.062-2.524c-.089,0-.179,0-.266,0" transform="translate(-186.173 -1433.509)" fill="#182e54" stroke="#182e54" stroke-width="1" fill-rule="evenodd"/>
          <path id="Path_46041" data-name="Path 46041" d="M236.25,1933.813a6.114,6.114,0,0,0,1.731-.451c2.373-1.455,4.682-3.025,7.061-4.472a6.239,6.239,0,0,1,2.137-.622c.307-.053.89.1.95.286a1.724,1.724,0,0,1-.125,1.224c-1.606,2.89-7.69,5.631-10.86,4.939q-.447-.454-.894-.9" transform="translate(-172.148 -1402.77)" fill="#182e54" stroke="#182e54" stroke-width="1" fill-rule="evenodd"/>
          <path id="Path_46042" data-name="Path 46042" d="M266.087,2062.183c-.8-.5-2.172-.891-2.3-1.532a13.875,13.875,0,0,1,.157-4.665c.043-.285,1.169-.559,1.778-.524.288.018.728.75.772,1.191.168,1.652.2,3.317.287,4.978l-.694.553" transform="translate(-192.213 -1495.365)" fill="#182e54" stroke="#182e54" stroke-width="1" fill-rule="evenodd"/>
          <path id="Path_46043" data-name="Path 46043" d="M199.767,2083.149c.033-2.73,1.206-3.237,2.561-2.968.462.093.707,1.3,1.05,2l-3.611.966" transform="translate(-145.429 -1513.315)" fill="#182e54" stroke="#182e54" stroke-width="1" fill-rule="evenodd"/>
          <path id="Path_46044" data-name="Path 46044" d="M217.049,1822.707c0,1.54.046,3.082-.034,4.619-.02.4-.378,1.039-.681,1.107a1.369,1.369,0,0,1-1.147-.629c-1.72-3.373-1.312-7.018-1.046-10.6.037-.5,1.158-1.256,1.769-1.245.441.006,1.171,1.05,1.24,1.692a48.639,48.639,0,0,1,.058,5.055Z" transform="translate(-155.779 -1321.023)" fill="#182e54" stroke="#182e54" stroke-width="1" fill-rule="evenodd"/>
          <path id="Path_46045" data-name="Path 46045" d="M219.691,1870.179c-1.166,1.058-1.834,1.665-2.5,2.272-.428-.63-1.271-1.327-1.188-1.875.123-.81.909-1.516,1.411-2.265.588.482,1.176.965,2.28,1.868" transform="translate(-157.313 -1359.132)" fill="#182e54" stroke="#182e54" stroke-width="1" fill-rule="evenodd"/>
          <path id="Path_46046" data-name="Path 46046" d="M311.482,1512.06q-1.047-1.235-2.092-2.472l2.4-.9.871,2.756-1.18.615" transform="translate(-225.714 -1097.344)" fill="#182e54" stroke="#182e54" stroke-width="1" fill-rule="evenodd"/>
        </g>
      </g>
    </g>
  </g>
</svg>
