<svg id="כפתור" xmlns="http://www.w3.org/2000/svg" xmlns:xlink="http://www.w3.org/1999/xlink" width="230.205" height="59" viewBox="0 0 230.205 59">
  <defs>
    <clipPath id="clip-path">
      <rect id="Rectangle_4514" data-name="Rectangle 4514" width="230.205" height="58.435" fill="none"/>
    </clipPath>
  </defs>
  <g id="Group_9961" data-name="Group 9961" transform="translate(0 0)">
    <g id="Group_9961-2" data-name="Group 9961" transform="translate(0 0)" clip-path="url(#clip-path)">
      <path id="Path_30249" data-name="Path 30249" d="M192.409,53.55H33.048c-17.334,0-31.389-11.513-31.389-25.717S15.714,2.116,33.048,2.116H192.409c17.336,0,31.389,11.513,31.389,25.717S209.745,53.55,192.409,53.55" transform="translate(2.18 1.896)" fill="#fefefe"/>
      <path id="Path_30250" data-name="Path 30250" d="M83.559,29.934c1.893-.127-1.018-.485,1.238-.216a1.212,1.212,0,0,1-1.238.216" transform="translate(109.792 26.535)" fill="#fefefe"/>
      <path id="Path_30251" data-name="Path 30251" d="M201.008,55.627c2.872-1.249,6.146-2.178,9.332-3.61,3.159-1.4,6.2-3.312,7.9-5.716.444-.525.653.675,1.55-.622a59.063,59.063,0,0,0,4.757-8.8A28.606,28.606,0,0,0,226.7,26.432l.345.373c-.025-1.3-1.189-2.707-1.534-3.993.169-.051.377.362.523.006-.56-.227-1.113-2.264-1.759-2.669-.03-.555.428-.652.271-1.356l-.974-.483a8.683,8.683,0,0,1-2.735-2.984,10.561,10.561,0,0,0-3.293-3.267c.218.019.532.167.449-.08-4.348-2.942-10.316-6.033-16.415-6.863.282-.125.6-.4.305-.669-.442.409-2.337.3-3.961.214-.708-.586-2.786.322-4.73.045l.167-.123c-1.442.578-2.138-.332-3.307.36l-.914-.434c-.634.777-2.085-.4-3.274-.008l.037.159c-1.122.19-1.708-.2-2.749-.07l-.1-.089c-2.439.2-3.857-.229-3.8.377-.854-.485,2.365-.22,1.023-.927-8.022.624-16.292.5-24.368.514-.919-.245-1.5-.318-1.708-.548a24.961,24.961,0,0,0-3.772.421c.271-.011-.521-.309-.949-.339-1.469-.229-1.6.667-3.216.394.641-.161.858-.356.643-.582a22.974,22.974,0,0,1-4.841.552c.252-.1.646-.163.583-.355-1.779.538-3.244-.114-4.8.226l.583-.351c-2.508-.425-.74.734-2.911.482.521-.11.338-.248.433-.391-2.025.639-5.3.428-7.321.643.12-.049.09-.144.09-.144-2.2.08-4.5-.118-6.921.159-.882-.155.287-.855-2.041-.726.086.7-3.955.29-2.58,1.086a41.034,41.034,0,0,0-6.463-.142c.893-.267-.97-.859.683-.919l-1.25-.425c.185-.288,1.287.1.891-.265a38.539,38.539,0,0,1-3.985.191c-1.534.432-2.946,1.236-5.431,1.327,1.169-.275-.664-.775.13-.9L98.285,5.212c-.826.032-.178-.555-1.374-.372.062.186-.458.3-.824.451-.31-.08-3.436.176-3.8-.518-.363-.271,1.349-.146.433-.392-1.53.008-1.594.245-3.124.256l-.028-.093c-1.009-.1-2.973.3-1.877.677.7.023-.266-.415.773-.214a10.874,10.874,0,0,1-4.015.523c.521-.114.458-.3.669-.493a41.648,41.648,0,0,1-6.521.944c-.035.328.854-.6,1.192-.425-2.939-.457-6.067.646-8.513-.021.4-.059.218.468.19.375-1.416-.042-1.351-.519-2.272-.341-.093-.282-1.159.087-2.108.173-.491.2-.248-.135.578-.167a44.243,44.243,0,0,1-9.67.26,5.91,5.91,0,0,1-2.58.662l.273-.434c-.641-.26-2.353.038-2.471-.334-1.5.525,5.78-.449,3.749-.042-.523-.362-2.825.69-2.388.1-1.414.015-2.781.5-4.13.1.393.07,1.145-.6.007-.571-2.006.078-.572.207-2.2.353l-1.02.178c-.067.421-1.793-.057-1.046.415-.248-.349-2.918.212-2.712-.487l.28-.552a6.678,6.678,0,0,0-2.1.827c-.113-.053-.34-.163-.3-.252-.137.844-2.071-.07-3.1.582a26.581,26.581,0,0,0-3.094-.186,5.158,5.158,0,0,1-2.212-.271,15.978,15.978,0,0,1-3.827.828c.259-.152.653-.21.692-.4-.976-.129-1.136.193-1.911.48.143-.174-1.958-.11-3.071-.036-1.132.607-.488.9-.486,1.192C22.834,7.6,21.4,9.693,19.745,9.7c.3-.281,1.361-1.155.3-.872a1.764,1.764,0,0,0-1.654.781,3.655,3.655,0,0,1-1.766,1.416l.9.311c-1.034.059-1.726,1.793-2.187,1.153-.292.491-1.749,1.156-1.011,1.483a11.23,11.23,0,0,0-3.3,3.191c-.942,1.185-1.661,2.305-2.754,2.779-.109.366-.578,1.2-.118,1.149.664-.432.06-.9.481-1a.352.352,0,0,0,.106.508c-.5.673-.821,1.255-1.143.343-1.27,1.566.569,2.093-.386,4.142-.315-.155-.472-.008-.539.65l.349,1.283c-.3,1.4-.842.76-1.437.749.062.8-.062,1.773.391,2.125l-.664.974c.481-.72.386.641.551,1l-.164-.362c-.257.163-.019,1.071.174,1.515.326-.148.294-1.071.407-1.579.252.383.266,1,.685,1.475-.574-.114-.206,1.3-.074,1.9.1.709.736.669.775.868-.278.08.3,1.117-.261.681-.162-.214.111-.593-.259-.925-.072.493-.578.557.072,1.42.576.616.988-.453,1.222.918-.282-.3-.525-.3-.835-.508l.273,1.306.5-.1c-.049.2-.139.1-.169.2.62.2,1.18,1.731,1.853,1.771.363.559.523,1.3.847,1.869l-.113-.082a3.333,3.333,0,0,0,1.867,1.841l-.113.03a4.131,4.131,0,0,0,1.749,1.259c.576.967-1.157,1.392.349,1.835,1.011.73,2.152.557,1.983.066a11.8,11.8,0,0,0,2.828,1.778,11.677,11.677,0,0,1,2.832,1.64c.391-.036.264-.2.923-.055,3,1.365,6.745,1.4,9.272,2.436-1,.082-.123.432-.123.66.865-.345.972.43,1.319-.2-.058-.383.03-.567-.9-.756a31,31,0,0,1,6.548.254c-.616-.178-.141-.294.345-.408-.162.607,1.474.7,2.71.485l.176-.372.8.381c.477-.118.525-.777,1.754-.421a.666.666,0,0,0,.359.394,10.968,10.968,0,0,1,4.473-.5l1.136.54c.592-.059,1.592-.385.548-.54,2.367.326,3.9.366,4.646.834,4.082-1.141,10.006-1.187,14.749-1.105l-.139.279c1.275.26.662-.485,1.55-.294-.412.265.972.576-.03.9,1.823.292,2.349-.482,3.536-.607.18-.364-.953.233-.724-.229.2-.131,2.522.284,2.807-.267.456.216.1.622-.146.846l1.115-.267c1.363.645-3.105,1.151-1.675,1.945l1.027-.087c.979.578-2.717.652-.139.849,1.118-.271,2.076-1.071,1.078-1.314,2.328-.154,1.078-1.316,3.582-1.27.685.324-2,.078-1.523.533,1.18.444,2.367-.248,3.415-.093-1.164-.209-.18-.766.574-.866,1.273.26-.826.521.976.578.3-.318,1.955-.557.521-.777.653-.722,1.879.2,2.86-.36.588.506-1.858,1.174.123,1.428-.312-.491,2.446-.665,1.4-1.392.777.142.858.527.294.827,1.111.3,2.691-.893,3.057.078l.379-.5c.347.163.847.284,1.414.555.979.009,3.149-.677,3.059.078.315-.078,2.545-.044,1.685-.567-1.388-.318-1.594.383-2.367-.324.979.576,2-.074,2.8-.267l.13.292c.477-.114,1.578-.051,1.874-.366-.363.167-.176.366.206.436l.5-.444c1.939-.222.456.781,2.344.652l-1.435.345c.315-.074.958.341,1.86.2.352-.408,1.011-.893,1.314-1.208,1.064-.178.477.457,1.523.042l-1.372.487c-.206.133.926.671,2.349.66.907-.14,2.319-.726.884-.948.713-.006,1.712.241,1.145.537,1.615-.14-.211-.436,1.182-.688.572.271,2.346.656,3.418,1.048l-1.455.677.967.008c-1.254.544.634.415-.072.988a6.254,6.254,0,0,0,2.1-.254c-1.932-.918,2.166-1.255,1.606-2.093,2.647-.228,1.652,2.036,4.415.726-.451-.218.852-.855-.817-.614,1.645.093,1.12-.84,3.061-.493-1.439.345,1.543.849-.535,1.348.139-.279-1.159-.21-1.479-.131.678.319-.141.842,1.546.842,1.027-.082,2.437-.1,2.233-.533-.044-.48-1.571.051-.912-.434,2.05-.167,2.39.563,3.24-.286-1.294.064-1.617-.428-1.594-.756l1.506-.2-.294.318c2.413.229.713-.578,3.052-.493l1.1.629c-.558.542-3.4-.241-2.987.643,1.52.036,2.025-.413,3.459-.184-.322.076-.754.1-1.071.174.546.03,1.088,1.2,3.256.516,1.118-.267.3-.315.324-.645,2.439-.1,3.168-.438,4.741-.489-.324.645,2.777.063,1.041.722-.8-.377-4.329-.341-5.193.275.889.762-1.918-.108-2.444.665,1.96.017,1.865.77,2.18,1.263a4.5,4.5,0,0,0,1.393-.25c.231-.464-.479-.457-.521-.935a14.957,14.957,0,0,0,5.491-.584c.729.228.5.692-.366.736a73.8,73.8,0,0,1,7.842.066c-1.594-.756,2.754-.178,1.666-.808-1.324-.169-2.46-.707-1.731-1.048.826.049-.028.332.319.493,1.053-.413,1.636.664,2.668.011-2.372.245-.46.923-.9,1.517,1.712-.336-.072.421,1.617.421a49.318,49.318,0,0,1,5.7-.719c2.381.563,6.03.011,8.159-.011,1.111.3.359.971,1.567,1.086,1.416-.013-1.053-.724,1.046-.415l-.2.133c.634-.157,3.846.455,4.468-.508l-.648.726a2.659,2.659,0,0,0,1.078-.176c.014.235.47.451-.167.6,1.3.5,2.719-.08,4.126-.1l-.907-.43c2.411-.336,4.024.089,6.354-.061l-.069.421,1.386-.252c-.338.408.933.671,1.666.33l-3.6,1.029c-1-.248,1.092-.508.465-.923a4.13,4.13,0,0,0-3.041.157,3.5,3.5,0,0,0,1.506-.2c.273.586-.981.563-1.6.952.433-.023,1.048.155,1.141-.03a9.768,9.768,0,0,1-3.122.345c.958-.228-.523-.362-.16-.529-.113.516-1.465.673-3.212.529-1.25-.6-3.286.383-5.313.218a8.459,8.459,0,0,1,3.105-1.151c-1.27-.264-1.416.015-2.691-.248a5.054,5.054,0,0,1-2.714,1.221l-.09-.385c-1.506.2-1.506.766-3.42.66-3.281-.19-6.657-.19-9.159-.237l-.095-.385c-1.393.823-4.642.3-6.516.669-3.191-.37-6.93.368-8.566-.294-5.63.294-10.552.584-16.385.442L127,56.49c-1.046.411-.68-.32-1.7-.239,1.175.447-1.421.58-2.145.921a27.084,27.084,0,0,0-8.233.432l-.09-.385c-2.328.722-5.1.089-8-.028a3.108,3.108,0,0,0-1.722-.478,20.267,20.267,0,0,1-4.7.967,52.739,52.739,0,0,1-6.127-.4c-6.338.872-12.81.315-19.393.84l-.477-.451c-6.384.965-14.238.089-19.689.584l.528-.774c-1.708-.237-3.894.2-3.459.751-1.715-.237-4.276.375-5.364-.26-1.752-.142-2.143.356-3.6.461a55.384,55.384,0,0,0-8.171-.1l.877.07c.359-.173.407-.493-.44-.552-.676.082-1.914-.021-2.821-.025-.907.013-1.492.006-.882.565a24.019,24.019,0,0,0-3.094-.557l-3.321-.591c-1.1-.25-2.189-.557-3.212-.882A13.671,13.671,0,0,1,19.1,55.028c.155.339-.757.053-1.2.006-3.122-1.378-5.491-3.712-7.826-4.98-.261-.421.96.226.042-.639-.646-.436-.3.216-1.125-.313a17.657,17.657,0,0,1-4.845-5.67A47.022,47.022,0,0,1,1.557,37.2,20.806,20.806,0,0,1,.245,26.066a25.956,25.956,0,0,1,4.2-10.478l.146.159a7.823,7.823,0,0,1,2.594-3.3C8.252,11.426,9.42,10.607,9.73,9.521c.592-.322,2-1.422,1.9-.887C12.9,6.88,16.982,5.7,19.581,3.957a2.225,2.225,0,0,0-.7.391c3.186-.9,5.778-2.229,9.362-2.529-.331.146-.944.336-.99.537,1.354.017,3.01-1.223,3.892-.463.759-.1.488-.514.014-.428,4.022-.148,7.46-.059,11.137-.218L53.265.827c5.213.535.317,1.5,4.431.838.336.173.243-.341.3-.157,1.59-.248,2.476,1,3.582.529-.456-.548.734-.307.768-.639,3.184.356,3.825.851,6.34.434l-.19.288C71.448,1.3,74.863,1.74,77.351.8,93.611.631,109.2.108,125.053,0c15.67.18,31.014-.243,46.927.256,3.73.758,4.01.737,8.1.43-.164.123-.423.15-.148.265.206-.62,2.883-.059,3.274-.652,2.943.059,5.769.044,8.615.015A56.116,56.116,0,0,1,201.4.783c-1.106-.074-1.729.362-.458.482a13,13,0,0,1,1.418-.174l.169.212c.875.087,1.923-.008,1.085-.391a33.922,33.922,0,0,1,20.874,12.131,27.041,27.041,0,0,1,5.507,20.069,33.974,33.974,0,0,1-4.216,10.975A36.345,36.345,0,0,1,212.106,54.13a49.566,49.566,0,0,1-17.517,4,5.8,5.8,0,0,1,1.446-.906,13.865,13.865,0,0,1,1.985-.755,20.013,20.013,0,0,1,2.987-.844" transform="translate(0 0)" fill="#fefefe"/>
      <path id="Path_30252" data-name="Path 30252" d="M83.184,30.243c-.4-.311-1.728-.48-.673-.9.13.292.812.62.673.9" transform="translate(107.89 26.289)" fill="#fefefe"/>
      <path id="Path_30253" data-name="Path 30253" d="M67.64,28.3c-.046.093-.5-.125-.616-.178.435-.023.845-.284,1.192-.123-.442.025-.375.171-.576.3" transform="translate(88.066 25.035)" fill="#fefefe"/>
      <path id="Path_30254" data-name="Path 30254" d="M63.383,28.284c.134-.277,2.071-.5,3.214-.529Z" transform="translate(83.282 24.864)" fill="#fefefe"/>
      <path id="Path_30255" data-name="Path 30255" d="M59.99,27.6c-.729-.233-.528-.362.454-.355.072.148-.252.222-.454.355" transform="translate(78.248 24.407)" fill="#fefefe"/>
      <path id="Path_30256" data-name="Path 30256" d="M60.27,27.914a2.8,2.8,0,0,1-1.388-.315c.025.237,1.622-.15,1.388.315" transform="translate(77.368 24.724)" fill="#fefefe"/>
      <path id="Path_30257" data-name="Path 30257" d="M52.6,27.412c-.44.021-1.393.252-1.8-.055.46.214,2.14-.351,1.8.055" transform="translate(66.746 24.422)" fill="#fefefe"/>
      <path id="Path_30258" data-name="Path 30258" d="M48.42,27.725a1.74,1.74,0,0,0-.706.008c-.5-.125.028-.328.454-.355Z" transform="translate(62.425 24.526)" fill="#fefefe"/>
      <path id="Path_30259" data-name="Path 30259" d="M8.374,5.542,7.8,6.065l-.1-.281Z" transform="translate(10.113 4.965)" fill="#fefefe"/>
      <path id="Path_30260" data-name="Path 30260" d="M36.122,3.225c.919-.174.639.26.791.3-.828.028.305-.339-.791-.3" transform="translate(47.462 2.853)" fill="#fefefe"/>
      <path id="Path_30261" data-name="Path 30261" d="M52.081,2.74l-.278.008.095-.565Z" transform="translate(68.067 1.956)" fill="#fefefe"/>
    </g>
  </g>
  <g id="Path_34180" data-name="Path 34180" transform="translate(1.964 3)" fill="none">
    <path d="M27.627,0H197.332a27.815,27.815,0,0,1,27.627,28,27.815,27.815,0,0,1-27.627,28H27.627A27.815,27.815,0,0,1,0,28,27.815,27.815,0,0,1,27.627,0Z" stroke="none"/>
    <path d="M 27.62655639648438 1.5 C 24.10134887695312 1.5 20.68217468261719 2.199501037597656 17.46405029296875 3.579029083251953 C 14.35360717773438 4.912441253662109 11.55952453613281 6.821941375732422 9.159378051757812 9.254528045654297 C 6.757843017578125 11.68849945068359 4.87237548828125 14.52285385131836 3.555313110351562 17.67882537841797 C 2.191497802734375 20.94682312011719 1.499984741210938 24.41938209533691 1.499984741210938 28 C 1.499984741210938 31.58061790466309 2.191497802734375 35.05317687988281 3.555313110351562 38.32117462158203 C 4.87237548828125 41.47714614868164 6.757843017578125 44.31150054931641 9.159378051757812 46.7454719543457 C 11.55952453613281 49.17805862426758 14.35360717773438 51.08755874633789 17.46405029296875 52.42097091674805 C 20.68217468261719 53.80049896240234 24.10134887695312 54.5 27.62655639648438 54.5 L 197.3324279785156 54.5 C 200.8576354980469 54.5 204.2768096923828 53.80049896240234 207.4949340820312 52.42097091674805 C 210.6053771972656 51.08755874633789 213.3994598388672 49.17805862426758 215.7996063232422 46.7454719543457 C 218.2011413574219 44.31150054931641 220.0866088867188 41.47714614868164 221.4036712646484 38.32117462158203 C 222.7674865722656 35.05317687988281 223.4589996337891 31.58061790466309 223.4589996337891 28 C 223.4589996337891 24.41938209533691 222.7674865722656 20.94682312011719 221.4036712646484 17.67882537841797 C 220.0866088867188 14.52285385131836 218.2011413574219 11.68849945068359 215.7996063232422 9.254528045654297 C 213.3994598388672 6.821941375732422 210.6053771972656 4.912441253662109 207.4949340820312 3.579029083251953 C 204.2768096923828 2.199501037597656 200.8576354980469 1.5 197.3324279785156 1.5 L 27.62655639648438 1.5 M 27.62655639648438 0 L 197.3324279785156 0 C 212.5901641845703 0 224.9589996337891 12.53602981567383 224.9589996337891 28 C 224.9589996337891 43.46397018432617 212.5901641845703 56 197.3324279785156 56 L 27.62655639648438 56 C 12.36882019042969 56 -1.52587890625e-05 43.46397018432617 -1.52587890625e-05 28 C -1.52587890625e-05 12.53602981567383 12.36882019042969 0 27.62655639648438 0 Z" stroke="none" fill="#182e54"/>
  </g>
</svg>
