<svg xmlns="http://www.w3.org/2000/svg" xmlns:xlink="http://www.w3.org/1999/xlink" width="204.825" height="43.022" viewBox="0 0 204.825 43.022">
  <defs>
    <clipPath id="clip-path">
      <rect id="Rectangle_4514" data-name="Rectangle 4514" width="204.825" height="43.022" fill="none"/>
    </clipPath>
  </defs>
  <g id="Group_17957" data-name="Group 17957" transform="translate(-215.175 -8076.333)">
    <g id="Group_9961" data-name="Group 9961" transform="translate(215.175 8076.333)">
      <g id="Group_9961-2" data-name="Group 9961" clip-path="url(#clip-path)">
        <path id="Path_30249" data-name="Path 30249" d="M171.379,39.984H29.587c-15.423,0-27.928-8.477-27.928-18.934S14.164,2.116,29.587,2.116H171.379c15.425,0,27.928,8.477,27.928,18.934s-12.5,18.934-27.928,18.934" transform="translate(1.757 0.838)" fill="#f69a20"/>
        <path id="Path_30250" data-name="Path 30250" d="M83.559,29.852c1.684-.094-.906-.357,1.1-.159a1.25,1.25,0,0,1-1.1.159" transform="translate(88.475 11.723)" fill="#f69a20"/>
        <path id="Path_30251" data-name="Path 30251" d="M178.847,40.955c2.555-.92,5.468-1.6,8.3-2.658,2.81-1.033,5.52-2.438,7.033-4.208.4-.387.581.5,1.379-.458a41.791,41.791,0,0,0,4.233-6.481,17.975,17.975,0,0,0,1.911-7.691l.307.275c-.023-.96-1.058-1.993-1.365-2.94.15-.038.336.267.465,0-.5-.167-.99-1.667-1.565-1.965-.027-.409.381-.48.241-1l-.867-.356a7.045,7.045,0,0,1-2.434-2.2,8.78,8.78,0,0,0-2.93-2.4c.194.014.474.123.4-.059a40.515,40.515,0,0,0-14.605-5.053c.251-.092.537-.293.272-.493-.393.3-2.079.221-3.525.158-.63-.431-2.479.237-4.208.033l.148-.091c-1.283.426-1.9-.244-2.942.265l-.813-.32c-.564.572-1.855-.3-2.913-.006l.033.117c-1,.14-1.519-.147-2.446-.052l-.086-.066c-2.17.151-3.432-.169-3.381.278-.76-.357,2.1-.162.91-.683-7.138.459-14.5.37-21.682.378a4.988,4.988,0,0,1-1.519-.4,26.671,26.671,0,0,0-3.356.31c.241-.008-.463-.228-.844-.25-1.307-.169-1.427.491-2.862.29.57-.119.764-.262.572-.429a24.529,24.529,0,0,1-4.307.406c.224-.075.574-.12.519-.261-1.583.4-2.886-.084-4.274.166l.519-.258c-2.232-.313-.659.54-2.59.355.463-.081.3-.183.385-.288-1.8.47-4.715.315-6.514.473.107-.036.08-.106.08-.106-1.96.059-4-.087-6.158.117-.784-.114.255-.629-1.816-.535.076.518-3.519.214-2.3.8a44.093,44.093,0,0,0-5.75-.1c.795-.2-.863-.632.607-.677L98,2.582c.165-.212,1.145.071.793-.2-.739.02-2.886.226-3.545.141A19.374,19.374,0,0,1,90.42,3.5c1.04-.2-.591-.571.115-.66l-3.086.992c-.735.024-.159-.409-1.223-.274.056.137-.408.221-.733.332-.276-.059-3.057.13-3.379-.381-.323-.2,1.2-.107.385-.289-1.361.006-1.419.18-2.779.188L79.7,3.346c-.9-.075-2.646.218-1.67.5.624.017-.237-.306.688-.158a11.556,11.556,0,0,1-3.572.385c.463-.084.408-.219.6-.363a44.324,44.324,0,0,1-5.8.7c-.031.241.76-.442,1.06-.313-2.615-.336-5.4.476-7.574-.015.356-.043.194.345.169.276-1.26-.031-1.2-.382-2.022-.251-.082-.208-1.031.064-1.876.127-.436.151-.22-.1.515-.123a47.505,47.505,0,0,1-8.6.191,6.126,6.126,0,0,1-2.3.487l.243-.32c-.57-.191-2.094.028-2.2-.246-1.336.387,5.143-.331,3.335-.031-.465-.267-2.514.508-2.125.074a14.645,14.645,0,0,1-3.675.071c.35.052,1.019-.441.006-.42-1.785.057-.509.152-1.956.26l-.908.131c-.06.31-1.6-.042-.931.306-.22-.257-2.6.156-2.413-.359l.249-.406a6.715,6.715,0,0,0-1.871.609c-.1-.039-.3-.12-.266-.186-.121.621-1.843-.052-2.759.429-.807-.106-1.843-.114-2.753-.137a5.48,5.48,0,0,1-1.968-.2,16.8,16.8,0,0,1-3.405.61c.231-.112.581-.155.616-.3-.869-.095-1.011.142-1.7.353A11.685,11.685,0,0,0,22.1,5c-1.007.447-.434.66-.432.878-1.346-.283-2.623,1.259-4.1,1.267.266-.207,1.211-.85.268-.642a1.7,1.7,0,0,0-1.472.575,3.2,3.2,0,0,1-1.571,1.043l.8.229c-.92.043-1.536,1.32-1.946.849-.259.362-1.556.851-.9,1.091a9.414,9.414,0,0,0-2.932,2.349,7.038,7.038,0,0,1-2.45,2.046c-.1.269-.515.886-.105.846.591-.318.054-.662.428-.736a.238.238,0,0,0,.095.374c-.443.5-.731.924-1.017.253-1.13,1.153.506,1.541-.344,3.05-.28-.114-.42-.006-.48.479l.311.945c-.268,1.031-.749.56-1.279.551.056.589-.056,1.305.348,1.565l-.591.717c.428-.53.344.472.49.737L5.079,23.2c-.229.12-.016.789.154,1.115.29-.109.261-.789.362-1.163.224.282.237.734.609,1.086-.511-.084-.183.956-.066,1.4.086.522.655.493.69.639-.247.059.264.822-.233.5-.144-.158.1-.437-.231-.681-.064.363-.515.41.064,1.045.513.454.879-.334,1.087.676a3.446,3.446,0,0,0-.743-.374l.243.962.445-.077c-.043.151-.124.077-.15.149.552.149,1.05,1.274,1.649,1.3.323.412.465.959.754,1.376l-.1-.06c.161.592,1.019,1.111,1.661,1.355l-.1.022a3.72,3.72,0,0,0,1.556.927c.513.712-1.029,1.024.311,1.351.9.537,1.915.41,1.764.049a11.008,11.008,0,0,0,2.516,1.309,11.075,11.075,0,0,1,2.52,1.207c.348-.027.235-.151.821-.04,2.666,1,6,1.03,8.25,1.794-.889.06-.109.318-.109.486.77-.254.865.317,1.174-.151-.051-.282.027-.417-.8-.557A33.276,33.276,0,0,1,35,39.037c-.548-.131-.126-.216.307-.3-.144.447,1.311.515,2.411.357l.156-.274.714.281c.424-.087.467-.572,1.561-.31a.534.534,0,0,0,.319.29,11.685,11.685,0,0,1,3.98-.37l1.011.4c.527-.043,1.416-.283.488-.4,2.106.24,3.467.269,4.134.614,3.632-.84,8.9-.874,13.123-.814l-.124.205c1.134.191.589-.357,1.379-.216-.366.2.865.424-.027.663,1.622.215,2.09-.355,3.146-.447.161-.268-.848.172-.644-.169.181-.1,2.244.209,2.5-.2.406.159.091.458-.13.623l.992-.2c1.213.475-2.763.847-1.491,1.432l.914-.064c.871.426-2.417.48-.124.625.994-.2,1.847-.789.959-.967,2.071-.113.959-.969,3.187-.935.609.239-1.783.057-1.355.392,1.05.327,2.106-.183,3.039-.068-1.036-.154-.161-.564.511-.638,1.132.191-.735.384.869.426.264-.234,1.74-.41.463-.572.581-.532,1.672.147,2.545-.265.523.373-1.653.864.109,1.051-.278-.362,2.176-.49,1.244-1.025.692.1.764.388.261.609.988.222,2.394-.657,2.72.057l.338-.368c.309.12.754.209,1.258.409.871.007,2.8-.5,2.722.057.28-.057,2.265-.032,1.5-.417-1.235-.234-1.419.282-2.106-.239.871.424,1.781-.054,2.5-.2l.115.215c.424-.084,1.4-.038,1.668-.269-.323.123-.156.269.183.321l.447-.327c1.725-.163.406.575,2.086.48l-1.276.254a9.259,9.259,0,0,0,1.655.149c.313-.3.9-.657,1.169-.889.947-.131.424.336,1.355.031l-1.221.359c-.183.1.824.494,2.09.486.807-.1,2.063-.535.786-.7.634,0,1.524.177,1.019.4,1.437-.1-.187-.321,1.052-.507.509.2,2.088.483,3.041.772l-1.295.5.861.006c-1.116.4.564.306-.064.727a6.665,6.665,0,0,0,1.867-.187c-1.719-.676,1.927-.924,1.429-1.541,2.355-.167,1.47,1.5,3.928.535-.4-.161.758-.629-.727-.452,1.464.068,1-.618,2.724-.363-1.281.254,1.373.625-.476.992.124-.205-1.031-.155-1.316-.1.6.234-.126.62,1.375.62.914-.06,2.168-.071,1.987-.392-.039-.353-1.4.038-.811-.32,1.824-.123,2.127.415,2.882-.211-1.151.047-1.439-.315-1.419-.557l1.34-.148-.261.234c2.147.169.634-.426,2.716-.363l.976.463c-.5.4-3.027-.177-2.658.473a22.8,22.8,0,0,1,3.078-.135c-.286.056-.671.071-.953.128.486.022.968.884,2.9.38.994-.2.264-.232.288-.475,2.17-.074,2.819-.322,4.219-.36-.288.475,2.471.046.926.532a9.923,9.923,0,0,0-4.62.2c.791.561-1.707-.08-2.174.49,1.744.013,1.659.567,1.939.93a4.758,4.758,0,0,0,1.239-.184c.206-.342-.426-.336-.463-.688a15.942,15.942,0,0,0,4.886-.43c.649.167.445.509-.325.542,2.312-.1,4.785-.054,6.977.049-1.419-.557,2.45-.131,1.482-.595-1.178-.124-2.189-.521-1.54-.772.735.036-.025.244.284.363.937-.3,1.456.489,2.374.008-2.11.18-.41.68-.8,1.117,1.524-.247-.064.31,1.439.31,1.519-.243,3.383-.434,5.071-.529,2.119.415,5.365.008,7.259-.008.988.221.319.715,1.394.8,1.26-.01-.937-.533.931-.306l-.179.1c.564-.116,3.422.335,3.976-.374l-.576.535a2.814,2.814,0,0,0,.959-.13c.012.173.418.332-.148.445,1.153.368,2.419-.059,3.671-.073l-.807-.317c2.145-.247,3.58.066,5.654-.045l-.062.31,1.233-.186c-.3.3.83.494,1.482.243l-3.206.758c-.891-.183.972-.374.414-.68a4.385,4.385,0,0,0-2.705.116,3.713,3.713,0,0,0,1.34-.145c.243.431-.873.415-1.425.7.385-.017.933.114,1.015-.022a10.414,10.414,0,0,1-2.777.254c.852-.167-.465-.267-.142-.389-.1.38-1.3.5-2.858.389-1.112-.438-2.924.282-4.727.161a8.548,8.548,0,0,1,2.763-.847c-1.13-.194-1.26.011-2.394-.183a4.938,4.938,0,0,1-2.415.9l-.08-.283c-1.34.144-1.34.564-3.043.486-2.919-.14-5.923-.14-8.149-.174l-.084-.283c-1.239.606-4.13.223-5.8.493-2.839-.272-6.166.271-7.622-.216-5.009.216-9.388.43-14.579.325L113,41.59c-.931.3-.605-.236-1.515-.176,1.046.329-1.264.427-1.909.678a29.03,29.03,0,0,0-7.325.318l-.08-.283c-2.071.532-4.542.066-7.122-.021a3.2,3.2,0,0,0-1.532-.352,21.337,21.337,0,0,1-4.184.712c-1.5,0-3.93-.114-5.452-.292-5.639.642-11.4.232-17.255.618l-.424-.332c-5.68.71-12.668.066-17.519.43l.469-.569c-1.519-.174-3.465.149-3.078.553-1.526-.174-3.8.276-4.772-.191a16.579,16.579,0,0,0-3.2.339,59.523,59.523,0,0,0-7.27-.077l.78.052c.319-.127.362-.363-.391-.406-.6.06-1.7-.015-2.51-.018s-1.328,0-.784.416a25.433,25.433,0,0,0-2.753-.41l-2.954-.435c-.98-.184-1.948-.41-2.858-.649a13.312,13.312,0,0,1-2.366-.98c.138.25-.673.039-1.064,0-2.777-1.015-4.886-2.733-6.963-3.667-.233-.31.854.166.037-.47-.574-.321-.27.159-1-.23a14.026,14.026,0,0,1-4.311-4.175,31.613,31.613,0,0,1-2.306-4.588,12.9,12.9,0,0,1-1.167-8.2,17.4,17.4,0,0,1,3.735-7.714l.13.117A6.065,6.065,0,0,1,6.391,9.166c.951-.754,1.991-1.357,2.267-2.156.527-.237,1.783-1.047,1.692-.653,1.126-1.291,4.76-2.162,7.072-3.443A2.126,2.126,0,0,0,16.8,3.2c2.835-.666,5.141-1.641,8.33-1.862-.294.107-.84.247-.881.4,1.2.013,2.679-.9,3.463-.341.675-.075.434-.378.012-.315C31.3.969,34.362,1.034,37.633.917L47.392.609c4.639.394.282,1.107,3.943.617.3.127.216-.251.268-.116,1.414-.183,2.2.734,3.187.389-.406-.4.653-.226.684-.47,2.833.262,3.4.627,5.641.32l-.169.212c2.625-.6,5.664-.279,7.877-.971C83.29.465,97.158.08,111.266,0c13.942.133,27.595-.179,41.753.188a21.891,21.891,0,0,0,7.21.317c-.146.091-.377.11-.132.2.183-.456,2.565-.043,2.913-.48,2.619.043,5.133.032,7.665.011a60.242,60.242,0,0,1,8.517.345c-.984-.054-1.538.267-.408.355.42-.057.844-.11,1.262-.128l.15.156c.778.064,1.711-.006.966-.288,7.71,1.112,14.48,4.524,18.573,8.932a17.5,17.5,0,0,1,4.9,14.776,22.594,22.594,0,0,1-3.751,8.08,32.709,32.709,0,0,1-12.164,7.393A51.906,51.906,0,0,1,173.136,42.8a5.358,5.358,0,0,1,1.287-.667,14.009,14.009,0,0,1,1.766-.556,20.751,20.751,0,0,1,2.658-.621" transform="translate(0 0)" fill="#f69a20"/>
        <path id="Path_30252" data-name="Path 30252" d="M83.066,30.006c-.36-.229-1.538-.353-.6-.66.115.215.723.456.6.66" transform="translate(86.942 11.615)" fill="#f69a20"/>
        <path id="Path_30253" data-name="Path 30253" d="M67.572,28.206c-.041.068-.449-.092-.548-.131.387-.017.751-.209,1.06-.091-.393.018-.334.126-.513.222" transform="translate(70.967 11.06)" fill="#f69a20"/>
        <path id="Path_30254" data-name="Path 30254" d="M63.383,28.144a8.863,8.863,0,0,1,2.86-.389Z" transform="translate(67.112 10.985)" fill="#f69a20"/>
        <path id="Path_30255" data-name="Path 30255" d="M59.941,27.506c-.649-.172-.469-.267.4-.261.064.109-.224.163-.4.261" transform="translate(63.055 10.783)" fill="#f69a20"/>
        <path id="Path_30256" data-name="Path 30256" d="M60.117,27.831a2.916,2.916,0,0,1-1.235-.232c.023.174,1.443-.11,1.235.232" transform="translate(62.346 10.923)" fill="#f69a20"/>
        <path id="Path_30257" data-name="Path 30257" d="M52.4,27.372c-.391.015-1.239.186-1.6-.04.41.158,1.9-.258,1.6.04" transform="translate(53.787 10.79)" fill="#f69a20"/>
        <path id="Path_30258" data-name="Path 30258" d="M48.32,27.633a1.865,1.865,0,0,0-.628.006c-.449-.092.025-.241.4-.261Z" transform="translate(50.304 10.836)" fill="#f69a20"/>
        <path id="Path_30259" data-name="Path 30259" d="M8.3,5.542l-.513.385L7.7,5.721Z" transform="translate(8.149 2.194)" fill="#f69a20"/>
        <path id="Path_30260" data-name="Path 30260" d="M36.122,3.215c.817-.128.568.191.7.221-.737.021.272-.25-.7-.221" transform="translate(38.247 1.26)" fill="#f69a20"/>
        <path id="Path_30261" data-name="Path 30261" d="M52.051,2.593,51.8,2.6l.084-.416Z" transform="translate(54.851 0.864)" fill="#f69a20"/>
      </g>
    </g>
  </g>
</svg>
