<svg xmlns="http://www.w3.org/2000/svg" xmlns:xlink="http://www.w3.org/1999/xlink" width="240.604" height="61.503" viewBox="0 0 240.604 61.503">
  <defs>
    <clipPath id="clip-path">
      <rect id="Rectangle_6186" data-name="Rectangle 6186" width="240.604" height="61.503" fill="none"/>
    </clipPath>
  </defs>
  <g id="Group_15358" data-name="Group 15358" clip-path="url(#clip-path)">
    <path id="Path_41621" data-name="Path 41621" d="M201.025,56.25H34.466c-18.117,0-32.807-12.118-32.807-27.067S16.349,2.116,34.466,2.116h166.56c18.119,0,32.807,12.118,32.807,27.067S219.145,56.25,201.025,56.25" transform="translate(2.353 2.106)" fill="#38c2d9"/>
    <path id="Path_41622" data-name="Path 41622" d="M83.559,29.951c1.978-.134-1.064-.511,1.294-.227a1.26,1.26,0,0,1-1.294.227" transform="translate(118.526 29.483)" fill="#38c2d9"/>
    <path id="Path_41623" data-name="Path 41623" d="M210.087,58.548c3-1.315,6.423-2.293,9.754-3.8,3.3-1.477,6.484-3.486,8.261-6.016.464-.553.682.71,1.62-.654a62.3,62.3,0,0,0,4.972-9.264,30.291,30.291,0,0,0,2.244-10.994l.36.393c-.027-1.373-1.243-2.849-1.6-4.2.177-.054.394.381.547.006-.585-.239-1.163-2.382-1.838-2.809-.031-.585.447-.686.283-1.427l-1.018-.509a9.115,9.115,0,0,1-2.859-3.141,11.077,11.077,0,0,0-3.441-3.438c.227.02.556.176.469-.084-4.544-3.1-10.782-6.349-17.157-7.223.3-.132.631-.419.319-.7-.462.431-2.443.315-4.14.225-.74-.617-2.912.339-4.943.048l.174-.13c-1.507.609-2.235-.349-3.456.379l-.955-.457c-.663.818-2.179-.423-3.422-.008l.039.168c-1.173.2-1.785-.21-2.873-.074l-.1-.094c-2.549.215-4.032-.241-3.971.4-.892-.511,2.472-.231,1.069-.976-8.385.656-17.028.529-25.469.541-.96-.257-1.57-.335-1.785-.577a25.914,25.914,0,0,0-3.942.443c.283-.012-.544-.325-.992-.357-1.536-.241-1.676.7-3.362.415.67-.17.9-.375.672-.613a23.852,23.852,0,0,1-5.059.581c.264-.108.675-.172.609-.373-1.86.567-3.391-.12-5.021.237l.609-.369c-2.622-.447-.774.772-3.042.507.544-.116.353-.261.452-.411-2.116.672-5.538.451-7.652.676.126-.052.094-.152.094-.152-2.3.084-4.7-.124-7.234.168-.921-.164.3-.9-2.133-.764.089.74-4.133.305-2.7,1.143a42.59,42.59,0,0,0-6.755-.15c.934-.281-1.013-.9.713-.968l-1.306-.447c.193-.3,1.345.1.931-.279a40,40,0,0,1-4.165.2c-1.6.455-3.079,1.3-5.676,1.4,1.221-.289-.694-.816.135-.944l-3.625,1.419c-.863.034-.186-.585-1.437-.391.065.2-.479.315-.861.475-.324-.084-3.591.186-3.969-.545-.38-.285,1.41-.154.452-.413-1.6.008-1.666.257-3.265.269l-.029-.1c-1.054-.108-3.108.311-1.961.712.733.024-.278-.437.808-.225a11.292,11.292,0,0,1-4.2.551c.544-.12.479-.313.7-.519A43.246,43.246,0,0,1,82.15,6.3c-.036.345.892-.633,1.246-.447-3.071-.481-6.341.68-8.9-.022.418-.062.227.493.2.4-1.48-.044-1.412-.547-2.375-.359-.1-.3-1.212.092-2.2.182-.513.215-.259-.142.6-.176a45.922,45.922,0,0,1-10.107.273c.06.2-1.964.718-2.7.7l.285-.457c-.67-.273-2.46.04-2.583-.351-1.57.553,6.041-.473,3.918-.044-.547-.381-2.953.726-2.5.106-1.478.016-2.907.529-4.317.1.411.074,1.2-.631.007-.6-2.1.082-.6.217-2.3.371l-1.067.188c-.07.443-1.874-.06-1.093.437-.259-.367-3.05.223-2.834-.513l.293-.581a6.952,6.952,0,0,0-2.2.87c-.119-.056-.356-.172-.312-.265-.143.888-2.165-.074-3.241.613a27.59,27.59,0,0,0-3.233-.2,5.357,5.357,0,0,1-2.312-.285,16.6,16.6,0,0,1-4,.872c.271-.16.682-.221.723-.423-1.021-.136-1.187.2-2,.5.15-.184-2.046-.116-3.209-.038-1.183.639-.51.944-.508,1.255-1.582-.405-3.081,1.8-4.81,1.812.312-.3,1.422-1.215.314-.918a1.839,1.839,0,0,0-1.729.822,3.826,3.826,0,0,1-1.845,1.491l.943.327c-1.081.062-1.8,1.888-2.285,1.213-.3.517-1.828,1.217-1.057,1.56a11.775,11.775,0,0,0-3.444,3.358c-.984,1.247-1.736,2.426-2.878,2.925-.114.385-.6,1.267-.123,1.209.694-.455.063-.946.5-1.052a.372.372,0,0,0,.111.535c-.52.708-.859,1.321-1.195.361-1.328,1.648.595,2.2-.4,4.36-.329-.164-.493-.008-.564.684l.365,1.351c-.314,1.475-.88.8-1.5.788.065.842-.065,1.866.409,2.237l-.694,1.026c.5-.758.4.674.576,1.054l-.172-.381c-.268.172-.019,1.127.181,1.594.341-.156.307-1.127.426-1.662.264.4.278,1.05.716,1.552-.6-.12-.215,1.367-.077,2,.1.746.769.7.81.914-.29.084.31,1.175-.273.716-.169-.225.116-.625-.271-.974-.075.519-.6.587.075,1.495.6.648,1.033-.477,1.277.966-.3-.311-.549-.313-.873-.535l.285,1.375.522-.11c-.051.215-.145.11-.177.214.648.214,1.233,1.822,1.937,1.864.38.589.547,1.371.885,1.967l-.119-.086a3.5,3.5,0,0,0,1.952,1.937l-.119.032a4.319,4.319,0,0,0,1.828,1.325c.6,1.018-1.209,1.465.365,1.932,1.057.768,2.249.587,2.073.07a12.321,12.321,0,0,0,2.955,1.872,12.184,12.184,0,0,1,2.96,1.726c.409-.038.276-.216.965-.058,3.132,1.437,7.05,1.473,9.691,2.564-1.045.086-.128.455-.128.694.9-.363,1.016.453,1.379-.216-.06-.4.031-.6-.938-.8a32.175,32.175,0,0,1,6.844.267c-.643-.188-.148-.309.36-.429-.169.639,1.541.736,2.832.511l.184-.391.839.4c.5-.124.549-.818,1.833-.443a.7.7,0,0,0,.375.415c1.34-.317,3.224-.858,4.675-.529l1.187.569c.619-.062,1.664-.405.573-.569,2.474.343,4.073.385,4.856.878,4.266-1.2,10.457-1.249,15.415-1.163l-.145.293c1.333.273.692-.511,1.62-.309-.43.279,1.016.607-.031.948,1.906.307,2.455-.507,3.7-.639.189-.383-1,.245-.757-.241.213-.138,2.636.3,2.934-.281.476.227.106.654-.152.89l1.166-.281c1.424.678-3.246,1.211-1.751,2.047L81.9,57.39c1.023.609-2.839.686-.145.894,1.168-.285,2.169-1.127,1.127-1.383,2.433-.162,1.127-1.385,3.744-1.337.716.341-2.094.082-1.591.561,1.233.467,2.474-.261,3.57-.1-1.216-.219-.189-.806.6-.912,1.33.273-.863.549,1.021.609.31-.335,2.044-.587.544-.818.682-.76,1.964.21,2.989-.379.614.533-1.942,1.235.128,1.5-.326-.517,2.556-.7,1.461-1.465.813.15.9.555.307.87,1.161.317,2.813-.94,3.195.082l.4-.527c.363.172.885.3,1.478.585,1.023.01,3.292-.712,3.2.082.329-.082,2.66-.046,1.761-.6-1.451-.335-1.666.4-2.474-.341,1.023.607,2.092-.078,2.931-.281l.135.307c.5-.12,1.649-.054,1.959-.385-.38.176-.184.385.215.459l.525-.467c2.027-.233.476.822,2.45.686l-1.5.363c.329-.078,1,.359,1.944.214.368-.429,1.057-.94,1.374-1.271,1.113-.188.5.481,1.591.044L113.4,54.9c-.215.14.967.706,2.455.694.948-.148,2.423-.764.924-1,.745-.006,1.79.253,1.2.565,1.688-.148-.22-.459,1.236-.724.6.285,2.452.69,3.572,1.1l-1.521.712,1.011.008c-1.311.573.663.437-.075,1.04a6.494,6.494,0,0,0,2.194-.267c-2.019-.966,2.264-1.321,1.678-2.2,2.767-.239,1.727,2.143,4.614.764-.472-.229.89-.9-.854-.646,1.72.1,1.171-.884,3.2-.519-1.5.363,1.613.894-.559,1.419.145-.293-1.212-.221-1.545-.138.709.335-.148.886,1.616.886,1.074-.086,2.547-.1,2.334-.561-.046-.5-1.642.054-.953-.457,2.143-.176,2.5.593,3.386-.3-1.352.068-1.691-.451-1.666-.8l1.574-.212-.307.335c2.522.241.745-.609,3.19-.519l1.146.662c-.583.571-3.555-.253-3.122.676,1.589.038,2.116-.435,3.616-.194-.336.08-.788.1-1.12.184.571.032,1.137,1.263,3.4.543,1.168-.281.31-.331.339-.678,2.549-.106,3.311-.461,4.955-.515-.339.678,2.9.066,1.088.76-.837-.4-4.525-.359-5.427.289.929.8-2-.114-2.554.7,2.048.018,1.949.81,2.278,1.329a4.678,4.678,0,0,0,1.456-.263c.242-.489-.5-.481-.544-.984a15.529,15.529,0,0,0,5.739-.615c.762.239.522.728-.382.774a76.6,76.6,0,0,1,8.2.07c-1.666-.8,2.878-.188,1.741-.85-1.383-.178-2.571-.744-1.809-1.1.863.052-.029.349.334.519,1.1-.435,1.71.7,2.788.012-2.479.257-.481.972-.938,1.6,1.79-.353-.075.443,1.691.443a51.205,51.205,0,0,1,5.957-.756c2.489.593,6.3.012,8.528-.012,1.161.315.375,1.022,1.637,1.143,1.48-.014-1.1-.762,1.093-.437l-.21.14c.663-.166,4.019.479,4.67-.535l-.677.764a2.762,2.762,0,0,0,1.127-.186c.014.247.491.475-.174.637,1.354.527,2.842-.084,4.312-.1l-.948-.453c2.52-.353,4.206.094,6.641-.064l-.073.443,1.449-.265c-.353.429.975.706,1.741.347l-3.766,1.083c-1.047-.261,1.142-.535.486-.972a4.289,4.289,0,0,0-3.178.166,3.63,3.63,0,0,0,1.574-.208c.285.617-1.025.593-1.674,1,.452-.024,1.1.164,1.192-.032a10.141,10.141,0,0,1-3.262.363c1-.239-.547-.381-.167-.557-.118.543-1.531.708-3.357.557-1.306-.627-3.434.4-5.553.229a8.8,8.8,0,0,1,3.246-1.211c-1.328-.277-1.48.016-2.813-.261a5.267,5.267,0,0,1-2.837,1.285l-.094-.405c-1.574.206-1.574.806-3.574.694-3.429-.2-6.958-.2-9.572-.249l-.1-.405c-1.456.866-4.851.319-6.81.7-3.335-.389-7.243.387-8.953-.309-5.884.309-11.028.615-17.125.465l1.025-.589c-1.093.433-.711-.337-1.78-.251,1.229.471-1.485.611-2.242.97a28.115,28.115,0,0,0-8.6.455l-.094-.405c-2.433.76-5.335.094-8.365-.03a3.232,3.232,0,0,0-1.8-.5c-1.645.654-2.5.609-4.914,1.018a54.744,54.744,0,0,1-6.4-.417c-6.624.918-13.389.331-20.269.884l-.5-.475c-6.673,1.016-14.881.094-20.579.615l.551-.814c-1.785-.249-4.07.214-3.616.79-1.792-.249-4.469.4-5.606-.273-1.831-.15-2.24.375-3.761.485a57.485,57.485,0,0,0-8.54-.11l.917.074c.375-.182.426-.519-.459-.581-.706.086-2-.022-2.948-.026-.948.014-1.56.006-.921.595a24.946,24.946,0,0,0-3.233-.587l-3.47-.623c-1.151-.263-2.288-.587-3.357-.928a14.25,14.25,0,0,1-2.779-1.4c.162.357-.791.056-1.25.006-3.263-1.451-5.739-3.907-8.179-5.242-.273-.443,1,.237.044-.672-.675-.459-.317.227-1.175-.329a18.55,18.55,0,0,1-5.064-5.968,49.685,49.685,0,0,1-2.709-6.559A22.04,22.04,0,0,1,.256,27.434,27.427,27.427,0,0,1,4.643,16.406l.152.168A8.226,8.226,0,0,1,7.507,13.1c1.117-1.077,2.339-1.939,2.663-3.083.619-.339,2.094-1.5,1.988-.934C13.481,7.241,17.749,6,20.465,4.164a2.321,2.321,0,0,0-.73.411c3.33-.952,6.039-2.347,9.785-2.662-.346.154-.987.353-1.035.565,1.415.018,3.146-1.287,4.068-.487.793-.108.51-.541.015-.451,4.2-.156,7.8-.062,11.64-.229L55.671.87c5.449.563.331,1.582,4.631.882.351.182.254-.359.314-.166,1.661-.261,2.588,1.05,3.744.557-.476-.577.767-.323.8-.672,3.328.375,4,.9,6.627.457l-.2.3c3.084-.858,6.653-.4,9.253-1.389C97.839.664,114.13.114,130.7,0c16.378.19,32.415-.255,49.047.269,3.9.8,4.191.776,8.469.453-.172.13-.443.158-.155.279.215-.652,3.013-.062,3.422-.686,3.076.062,6.029.046,9,.016a58.247,58.247,0,0,1,10.005.493c-1.156-.078-1.807.381-.479.507a13.5,13.5,0,0,1,1.483-.184l.177.223c.914.092,2.01-.008,1.134-.411a35.406,35.406,0,0,1,21.817,12.768,28.606,28.606,0,0,1,5.756,21.123A35.91,35.91,0,0,1,235.975,46.4a38,38,0,0,1-14.288,10.569,51.5,51.5,0,0,1-18.308,4.212,6.061,6.061,0,0,1,1.512-.954,14.429,14.429,0,0,1,2.075-.794,20.8,20.8,0,0,1,3.122-.888" transform="translate(0 0)" fill="#38c2d9"/>
    <path id="Path_41624" data-name="Path 41624" d="M83.233,30.29c-.423-.327-1.807-.5-.7-.944.135.307.849.652.7.944" transform="translate(116.472 29.21)" fill="#38c2d9"/>
    <path id="Path_41625" data-name="Path 41625" d="M67.667,28.318c-.048.1-.527-.132-.643-.188.455-.024.883-.3,1.245-.13-.462.026-.392.18-.6.317" transform="translate(95.071 27.816)" fill="#38c2d9"/>
    <path id="Path_41626" data-name="Path 41626" d="M63.383,28.312c.14-.291,2.165-.523,3.359-.557Z" transform="translate(89.907 27.626)" fill="#38c2d9"/>
    <path id="Path_41627" data-name="Path 41627" d="M60.009,27.618c-.762-.245-.551-.381.474-.373.075.156-.264.233-.474.373" transform="translate(84.472 27.119)" fill="#38c2d9"/>
    <path id="Path_41628" data-name="Path 41628" d="M60.333,27.93a2.908,2.908,0,0,1-1.451-.331c.027.249,1.7-.158,1.451.331" transform="translate(83.522 27.471)" fill="#38c2d9"/>
    <path id="Path_41629" data-name="Path 41629" d="M52.682,27.42c-.46.022-1.456.265-1.884-.058.481.225,2.237-.369,1.884.058" transform="translate(72.055 27.135)" fill="#38c2d9"/>
    <path id="Path_41630" data-name="Path 41630" d="M48.461,27.743a1.806,1.806,0,0,0-.738.008c-.527-.132.029-.345.474-.373Z" transform="translate(67.39 27.251)" fill="#38c2d9"/>
    <path id="Path_41631" data-name="Path 41631" d="M8.4,5.542l-.6.551L7.7,5.8Z" transform="translate(10.917 5.516)" fill="#38c2d9"/>
    <path id="Path_41632" data-name="Path 41632" d="M36.122,3.228c.96-.184.667.273.827.315-.866.03.319-.357-.827-.315" transform="translate(51.238 3.17)" fill="#38c2d9"/>
    <path id="Path_41633" data-name="Path 41633" d="M52.094,2.769l-.29.008.1-.595Z" transform="translate(73.482 2.173)" fill="#38c2d9"/>
  </g>
</svg>
