<svg xmlns="http://www.w3.org/2000/svg" width="749.988" height="107.799" viewBox="0 0 749.988 107.799">
  <path id="Union_235" data-name="Union 235" d="M.013,107.8Q.007,84.261,0,60.709c0-6.19.553-7.49,3.819-6.715,15.713,3.73,31.452,7.251,47.227,9.628a508.483,508.483,0,0,0,50.7,5.311q33.241,1.635,66.507.967A397.882,397.882,0,0,0,212.81,66.02c18.388-2.441,36.785-5.078,55.1-9.031,28.01-6.045,56.008-12.546,83.917-20.261,22.531-6.23,44.9-14.872,67.387-21.807C434.529,10.2,449.9,6.274,465.282,2.564A75.967,75.967,0,0,1,482.517,0h.523a35.657,35.657,0,0,1,13.342,2.53A22.777,22.777,0,0,1,501.412,5.2c8.105,5.919,11.282,17.769,9.54,34.987-.524,5.174-1.16,10.4-1.256,15.634-.255,13.841,3.554,22.682,9.2,28.853a41.087,41.087,0,0,0,24.995,13.39c10.589,1.689,21.258,3,31.86,2.34a327.364,327.364,0,0,0,43.8-6.081c16.167-3.245,32.315-7.216,48.381-12.1,20.244-6.159,40.4-13.495,60.584-20.473,7.027-2.432,14.018-5.311,21.469-8.154v54.2Z" transform="translate(0)" fill="#80de66"/>
</svg>
