<?xml version="1.0" encoding="utf-8"?>
<!-- Generator: Adobe Illustrator 24.1.2, SVG Export Plug-In . SVG Version: 6.00 Build 0)  -->
<svg version="1.1" id="Layer_1" xmlns="http://www.w3.org/2000/svg" xmlns:xlink="http://www.w3.org/1999/xlink" x="0px" y="0px"
	 viewBox="0 0 749 120.5" style="enable-background:new 0 0 749 120.5;" xml:space="preserve">
<style type="text/css">
	.st0{clip-path:url(#SVGID_2_);}
	.st1{fill:#55CEE2;}
</style>
<g>
	<defs>
		<rect id="SVGID_1_" width="749" height="120.5"/>
	</defs>
	<clipPath id="SVGID_2_">
		<use xlink:href="#SVGID_1_"  style="overflow:visible;"/>
	</clipPath>
	<g id="Mask_Group_160" transform="translate(-0.5 -41)" class="st0">
		<path id="Union_251" class="st1" d="M709.6,41c-8.5,0.2-17,1-25.3,2.6c-22.6,3.7-45.2,7.6-67.7,12.4c-33.1,6.9-66,15.6-99.1,21.8
			c-41,7.7-82.2,14.2-123.4,20.3c-26.9,4-54,6.6-81,9c-21.8,2-43.7,3.6-65.5,3.9c-32.6,0.4-65.2,0.1-97.8-1
			c-24.9-0.8-49.7-2.8-74.6-5.3c-23.2-2.4-46.3-5.9-69.5-9.6C0.8,94.2,0,95.5,0,101.7c0,93.4,0.1,186.7,0.1,280.1H0v861h1102.9V94.6
			c-11,2.8-21.2,5.7-31.6,8.2c-29.7,7-59.3,14.3-89.1,20.5c-23.6,4.9-47.4,8.9-71.1,12.1c-21.4,2.9-42.9,5.2-64.4,6.1
			c-15.6,0.7-31.3-0.6-46.9-2.3c-12.7-1.4-25.3-4.9-36.8-13.4c-8.3-6.2-13.9-15-13.5-28.9c0.3-5.2,0.9-10.5,1.8-15.6
			c2.6-17.2-2.1-29.1-14-35c-2.4-1.1-4.9-2-7.4-2.7c-6.4-1.7-13-2.6-19.6-2.5H709.6z"/>
	</g>
</g>
</svg>
