<?xml version="1.0" encoding="utf-8"?>
<!-- Generator: Adobe Illustrator 24.1.2, SVG Export Plug-In . SVG Version: 6.00 Build 0)  -->
<svg version="1.1" id="Layer_1" xmlns="http://www.w3.org/2000/svg" xmlns:xlink="http://www.w3.org/1999/xlink" x="0px" y="0px"
	 viewBox="0 0 1920.5 181" style="enable-background:new 0 0 1920.5 181;" xml:space="preserve">
<style type="text/css">
	.st0{fill:#55CEE2;}
</style>
<path id="Intersection_1" class="st0" d="M0.1,181C0,144.9,0,108.5,0,72.5c0-2.9,0.2-5.1,1.1-6.5c0.9-1.3,2.4-1.8,5-1.8
	c1.2,0,2.4,0.1,3.6,0.2c38.5,4.3,79.8,8.6,120.9,11.5c47.9,3.4,90.3,5.5,129.8,6.4c39.8,0.9,80.6,1.4,121.1,1.4
	c16.3,0,32.8-0.1,49.2-0.2c40.5-0.4,80.4-2.6,114.1-4.6c42.7-2.7,92.3-5.9,141.1-10.8c39.8-4,75-7.7,107.5-11.4
	c38.4-4.3,73.5-8.5,107.3-12.9c33.8-4.4,68-9.8,101-15.1c23.4-3.7,47.6-7.6,71.5-11c41.7-6,83-10.9,118-14.8
	c11.3-1.3,23.3-2.5,35.6-2.9h17.9c8.8,0.3,17.5,1.3,26.1,2.9c4.4,0.8,8.7,1.8,12.9,3.2c4.7,1.5,9.2,3.8,13.2,6.6
	c3.4,2.5,6.3,5.6,8.5,9.2c2.1,3.6,3.3,7.6,3.7,11.8c0.4,4.8,0.1,9.6-1,14.2c-0.2,1-0.4,2-0.7,3l0,0.1c-1.3,5.1-2.2,10.4-2.5,15.6
	c-0.6,14.8,7.1,26.2,23.6,34.6c5,2.5,10.1,4.7,15.3,6.6c5.2,1.8,10.5,3.4,15.9,4.6c10.8,2.5,21.8,4.1,32.8,4.8c20,1.5,43.5,3,66.8,3
	c5,0,10-0.1,14.8-0.2c33.9-1,70.6-3.4,112.2-7.3c42.9-4,84.6-8.9,123.9-14.5c39.8-5.7,80-12.3,119-18.6h0l0.3,0
	c11.8-1.9,23.9-3.9,35.9-5.8c12.3-2,24.3-4.2,37.1-6.5h0c5.8-1.1,11.8-2.2,17.9-3.2v117H0.1z"/>
</svg>
