<svg xmlns="http://www.w3.org/2000/svg" width="343.137" height="116.034" viewBox="0 0 343.137 116.034">
  <g id="Group_15891" data-name="Group 15891" transform="translate(-913.174 -2641.629)">
    <g id="Group_15889" data-name="Group 15889" transform="translate(-578.236 234.069)">
      <g id="Group_15884" data-name="Group 15884" transform="translate(1608.736 2410.12)">
        <g id="Group_15885" data-name="Group 15885">
          <path id="Path_42054" data-name="Path 42054" d="M16.858,71.338c.21-.341,10.431,6.05,10.578,5.812,0,0-11.619-7.264-11.478-7.493,0,0,15.7,8.746,15.754,8.656C32.028,77.8,7,59.544,7,59.544c.583-.947,33.513,18.645,33.62,18.472C41.049,77.32,3.9,54.594,3.9,54.594c.366-.6,47.606,26.156,47.606,26.156L3.463,51.128l48.6,26.706S3.116,46.259,3.6,45.469c.074-.12,52.672,30.666,53.467,29.377C58.133,73.119,5.179,43.607,5.179,43.607s58.886,34,59.642,32.769c.835-1.355-60.557-33.993-60.339-34.347.6-.976,57.716,33.855,58.7,32.253,0,0-64.065-36.027-63.175-37.47L67.416,73.849c.5-.817-64.926-41.057-64.926-41.057.54-.877,68.232,37.489,68.232,37.489L3.915,29.789c1.2-1.947,64.567,35.474,64.567,35.474L5.045,25.427S70.836,62.506,71.265,61.81C71.673,61.149,1.426,23.8,1.829,23.149c1.44-2.337,72.979,40.1,72.979,40.1C75.793,61.647.95,19.914,2.453,17.477c1.38-2.241,72.226,39.795,72.277,39.712L2.519,12.812c.593-.963,73.609,42.979,74.776,41.085C78.331,52.217,3.83,13.838,5.324,11.413,6.055,10.227,75.7,50.08,75.7,50.08S9.459,12.58,9.958,11.773L75.8,47.951c.47-.763-69.677-40.708-68.922-41.933.925-1.5,70.785,40.137,71.358,39.206C78.861,44.215,9.525,3.95,9.9,3.334,10.941,1.654,77.213,40.5,77.3,40.361c.193-.313-64.25-38.335-64.039-38.678,1.112-1.8,62.694,36.566,63.67,34.983.364-.592-56.389-35.614-55.806-36.56L76.738,30.663C77.2,29.908,21.346.8,21.829.019c.57-.926,53.338,31.494,54.346,29.859C76.839,28.8,24.568.975,24.569.975,25.1.107,77.07,29.82,77.07,29.82S29.5,1.883,29.985,1.1c.182-.3,39.5,23.109,40.147,22.059,0,0-37.291-20.7-36.571-21.863,0,0,31.386,18.462,31.946,17.553.157-.257-22.076-14.005-21.692-14.629,0,0,11.664,6.975,11.925,6.553" transform="matrix(-0.574, -0.819, 0.819, -0.574, 44.878, 110.409)" fill="none" stroke="#f8d959" stroke-width="4"/>
          <path id="Path_42055" data-name="Path 42055" d="M16.858,71.338c.21-.341,10.431,6.05,10.578,5.812,0,0-11.619-7.264-11.478-7.493,0,0,15.7,8.746,15.754,8.656C32.028,77.8,7,59.544,7,59.544c.583-.947,33.513,18.645,33.62,18.472C41.049,77.32,3.9,54.594,3.9,54.594c.366-.6,47.606,26.156,47.606,26.156L3.463,51.128l48.6,26.706S3.116,46.259,3.6,45.469c.074-.12,52.672,30.666,53.467,29.377C58.133,73.119,5.179,43.607,5.179,43.607s58.886,34,59.642,32.769c.835-1.355-60.557-33.993-60.339-34.347.6-.976,57.716,33.855,58.7,32.253,0,0-64.065-36.027-63.175-37.47L67.416,73.849c.5-.817-64.926-41.057-64.926-41.057.54-.877,68.232,37.489,68.232,37.489L3.915,29.789c1.2-1.947,64.567,35.474,64.567,35.474L5.045,25.427S70.836,62.506,71.265,61.81C71.673,61.149,1.426,23.8,1.829,23.149c1.44-2.337,72.979,40.1,72.979,40.1C75.793,61.647.95,19.914,2.453,17.477c1.38-2.241,72.226,39.795,72.277,39.712L2.519,12.812c.593-.963,73.609,42.979,74.776,41.085C78.331,52.217,3.83,13.838,5.324,11.413,6.055,10.227,75.7,50.08,75.7,50.08S9.459,12.58,9.958,11.773L75.8,47.951c.47-.763-69.677-40.708-68.922-41.933.925-1.5,70.785,40.137,71.358,39.206C78.861,44.215,9.525,3.95,9.9,3.334,10.941,1.654,77.213,40.5,77.3,40.361c.193-.313-64.25-38.335-64.039-38.678,1.112-1.8,62.694,36.566,63.67,34.983.364-.592-56.389-35.614-55.806-36.56L76.738,30.663C77.2,29.908,21.346.8,21.829.019c.57-.926,53.338,31.494,54.346,29.859C76.839,28.8,24.568.975,24.569.975,25.1.107,77.07,29.82,77.07,29.82S29.5,1.883,29.985,1.1c.182-.3,39.5,23.109,40.147,22.059,0,0-37.291-20.7-36.571-21.863,0,0,31.386,18.462,31.946,17.553.157-.257-22.076-14.005-21.692-14.629,0,0,11.664,6.975,11.925,6.553" transform="matrix(-0.574, -0.819, 0.819, -0.574, 64.738, 110.409)" fill="none" stroke="#f8d959" stroke-width="4"/>
          <path id="Path_42056" data-name="Path 42056" d="M16.858,71.338c.21-.341,10.431,6.05,10.578,5.812,0,0-11.619-7.264-11.478-7.493,0,0,15.7,8.746,15.754,8.656C32.028,77.8,7,59.544,7,59.544c.583-.947,33.513,18.645,33.62,18.472C41.049,77.32,3.9,54.594,3.9,54.594c.366-.6,47.606,26.156,47.606,26.156L3.463,51.128l48.6,26.706S3.116,46.259,3.6,45.469c.074-.12,52.672,30.666,53.467,29.377C58.133,73.119,5.179,43.607,5.179,43.607s58.886,34,59.642,32.769c.835-1.355-60.557-33.993-60.339-34.347.6-.976,57.716,33.855,58.7,32.253,0,0-64.065-36.027-63.175-37.47L67.416,73.849c.5-.817-64.926-41.057-64.926-41.057.54-.877,68.232,37.489,68.232,37.489L3.915,29.789c1.2-1.947,64.567,35.474,64.567,35.474L5.045,25.427S70.836,62.506,71.265,61.81C71.673,61.149,1.426,23.8,1.829,23.149c1.44-2.337,72.979,40.1,72.979,40.1C75.793,61.647.95,19.914,2.453,17.477c1.38-2.241,72.226,39.795,72.277,39.712L2.519,12.812c.593-.963,73.609,42.979,74.776,41.085C78.331,52.217,3.83,13.838,5.324,11.413,6.055,10.227,75.7,50.08,75.7,50.08S9.459,12.58,9.958,11.773L75.8,47.951c.47-.763-69.677-40.708-68.922-41.933.925-1.5,70.785,40.137,71.358,39.206C78.861,44.215,9.525,3.95,9.9,3.334,10.941,1.654,77.213,40.5,77.3,40.361c.193-.313-64.25-38.335-64.039-38.678,1.112-1.8,62.694,36.566,63.67,34.983.364-.592-56.389-35.614-55.806-36.56L76.738,30.663C77.2,29.908,21.346.8,21.829.019c.57-.926,53.338,31.494,54.346,29.859C76.839,28.8,24.568.975,24.569.975,25.1.107,77.07,29.82,77.07,29.82S29.5,1.883,29.985,1.1c.182-.3,39.5,23.109,40.147,22.059,0,0-37.291-20.7-36.571-21.863,0,0,31.386,18.462,31.946,17.553.157-.257-22.076-14.005-21.692-14.629,0,0,11.664,6.975,11.925,6.553" transform="matrix(-0.574, -0.819, 0.819, -0.574, 111.121, 110.409)" fill="none" stroke="#f8d959" stroke-width="4"/>
          <path id="Path_42057" data-name="Path 42057" d="M16.858,71.338c.21-.341,10.431,6.05,10.578,5.812,0,0-11.619-7.264-11.478-7.493,0,0,15.7,8.746,15.754,8.656C32.028,77.8,7,59.544,7,59.544c.583-.947,33.513,18.645,33.62,18.472C41.049,77.32,3.9,54.594,3.9,54.594c.366-.6,47.606,26.156,47.606,26.156L3.463,51.128l48.6,26.706S3.116,46.259,3.6,45.469c.074-.12,52.672,30.666,53.467,29.377C58.133,73.119,5.179,43.607,5.179,43.607s58.886,34,59.642,32.769c.835-1.355-60.557-33.993-60.339-34.347.6-.976,57.716,33.855,58.7,32.253,0,0-64.065-36.027-63.175-37.47L67.416,73.849c.5-.817-64.926-41.057-64.926-41.057.54-.877,68.232,37.489,68.232,37.489L3.915,29.789c1.2-1.947,64.567,35.474,64.567,35.474L5.045,25.427S70.836,62.506,71.265,61.81C71.673,61.149,1.426,23.8,1.829,23.149c1.44-2.337,72.979,40.1,72.979,40.1C75.793,61.647.95,19.914,2.453,17.477c1.38-2.241,72.226,39.795,72.277,39.712L2.519,12.812c.593-.963,73.609,42.979,74.776,41.085C78.331,52.217,3.83,13.838,5.324,11.413,6.055,10.227,75.7,50.08,75.7,50.08S9.459,12.58,9.958,11.773L75.8,47.951c.47-.763-69.677-40.708-68.922-41.933.925-1.5,70.785,40.137,71.358,39.206C78.861,44.215,9.525,3.95,9.9,3.334,10.941,1.654,77.213,40.5,77.3,40.361c.193-.313-64.25-38.335-64.039-38.678,1.112-1.8,62.694,36.566,63.67,34.983.364-.592-56.389-35.614-55.806-36.56L76.738,30.663C77.2,29.908,21.346.8,21.829.019c.57-.926,53.338,31.494,54.346,29.859C76.839,28.8,24.568.975,24.569.975,25.1.107,77.07,29.82,77.07,29.82S29.5,1.883,29.985,1.1c.182-.3,39.5,23.109,40.147,22.059,0,0-37.291-20.7-36.571-21.863,0,0,31.386,18.462,31.946,17.553.157-.257-22.076-14.005-21.692-14.629,0,0,11.664,6.975,11.925,6.553" transform="matrix(-0.574, -0.819, 0.819, -0.574, 131.121, 110.409)" fill="none" stroke="#f8d959" stroke-width="4"/>
        </g>
        <g id="Group_15886" data-name="Group 15886" transform="translate(26)">
          <path id="Path_42054-2" data-name="Path 42054" d="M16.858,71.338c.21-.341,10.431,6.05,10.578,5.812,0,0-11.619-7.264-11.478-7.493,0,0,15.7,8.746,15.754,8.656C32.028,77.8,7,59.544,7,59.544c.583-.947,33.513,18.645,33.62,18.472C41.049,77.32,3.9,54.594,3.9,54.594c.366-.6,47.606,26.156,47.606,26.156L3.463,51.128l48.6,26.706S3.116,46.259,3.6,45.469c.074-.12,52.672,30.666,53.467,29.377C58.133,73.119,5.179,43.607,5.179,43.607s58.886,34,59.642,32.769c.835-1.355-60.557-33.993-60.339-34.347.6-.976,57.716,33.855,58.7,32.253,0,0-64.065-36.027-63.175-37.47L67.416,73.849c.5-.817-64.926-41.057-64.926-41.057.54-.877,68.232,37.489,68.232,37.489L3.915,29.789c1.2-1.947,64.567,35.474,64.567,35.474L5.045,25.427S70.836,62.506,71.265,61.81C71.673,61.149,1.426,23.8,1.829,23.149c1.44-2.337,72.979,40.1,72.979,40.1C75.793,61.647.95,19.914,2.453,17.477c1.38-2.241,72.226,39.795,72.277,39.712L2.519,12.812c.593-.963,73.609,42.979,74.776,41.085C78.331,52.217,3.83,13.838,5.324,11.413,6.055,10.227,75.7,50.08,75.7,50.08S9.459,12.58,9.958,11.773L75.8,47.951c.47-.763-69.677-40.708-68.922-41.933.925-1.5,70.785,40.137,71.358,39.206C78.861,44.215,9.525,3.95,9.9,3.334,10.941,1.654,77.213,40.5,77.3,40.361c.193-.313-64.25-38.335-64.039-38.678,1.112-1.8,62.694,36.566,63.67,34.983.364-.592-56.389-35.614-55.806-36.56L76.738,30.663C77.2,29.908,21.346.8,21.829.019c.57-.926,53.338,31.494,54.346,29.859C76.839,28.8,24.568.975,24.569.975,25.1.107,77.07,29.82,77.07,29.82S29.5,1.883,29.985,1.1c.182-.3,39.5,23.109,40.147,22.059,0,0-37.291-20.7-36.571-21.863,0,0,31.386,18.462,31.946,17.553.157-.257-22.076-14.005-21.692-14.629,0,0,11.664,6.975,11.925,6.553" transform="matrix(-0.574, -0.819, 0.819, -0.574, 44.878, 110.409)" fill="none" stroke="#f8d959" stroke-width="4"/>
          <path id="Path_42055-2" data-name="Path 42055" d="M16.858,71.338c.21-.341,10.431,6.05,10.578,5.812,0,0-11.619-7.264-11.478-7.493,0,0,15.7,8.746,15.754,8.656C32.028,77.8,7,59.544,7,59.544c.583-.947,33.513,18.645,33.62,18.472C41.049,77.32,3.9,54.594,3.9,54.594c.366-.6,47.606,26.156,47.606,26.156L3.463,51.128l48.6,26.706S3.116,46.259,3.6,45.469c.074-.12,52.672,30.666,53.467,29.377C58.133,73.119,5.179,43.607,5.179,43.607s58.886,34,59.642,32.769c.835-1.355-60.557-33.993-60.339-34.347.6-.976,57.716,33.855,58.7,32.253,0,0-64.065-36.027-63.175-37.47L67.416,73.849c.5-.817-64.926-41.057-64.926-41.057.54-.877,68.232,37.489,68.232,37.489L3.915,29.789c1.2-1.947,64.567,35.474,64.567,35.474L5.045,25.427S70.836,62.506,71.265,61.81C71.673,61.149,1.426,23.8,1.829,23.149c1.44-2.337,72.979,40.1,72.979,40.1C75.793,61.647.95,19.914,2.453,17.477c1.38-2.241,72.226,39.795,72.277,39.712L2.519,12.812c.593-.963,73.609,42.979,74.776,41.085C78.331,52.217,3.83,13.838,5.324,11.413,6.055,10.227,75.7,50.08,75.7,50.08S9.459,12.58,9.958,11.773L75.8,47.951c.47-.763-69.677-40.708-68.922-41.933.925-1.5,70.785,40.137,71.358,39.206C78.861,44.215,9.525,3.95,9.9,3.334,10.941,1.654,77.213,40.5,77.3,40.361c.193-.313-64.25-38.335-64.039-38.678,1.112-1.8,62.694,36.566,63.67,34.983.364-.592-56.389-35.614-55.806-36.56L76.738,30.663C77.2,29.908,21.346.8,21.829.019c.57-.926,53.338,31.494,54.346,29.859C76.839,28.8,24.568.975,24.569.975,25.1.107,77.07,29.82,77.07,29.82S29.5,1.883,29.985,1.1c.182-.3,39.5,23.109,40.147,22.059,0,0-37.291-20.7-36.571-21.863,0,0,31.386,18.462,31.946,17.553.157-.257-22.076-14.005-21.692-14.629,0,0,11.664,6.975,11.925,6.553" transform="matrix(-0.574, -0.819, 0.819, -0.574, 64.738, 110.409)" fill="none" stroke="#f8d959" stroke-width="4"/>
          <path id="Path_42056-2" data-name="Path 42056" d="M16.858,71.338c.21-.341,10.431,6.05,10.578,5.812,0,0-11.619-7.264-11.478-7.493,0,0,15.7,8.746,15.754,8.656C32.028,77.8,7,59.544,7,59.544c.583-.947,33.513,18.645,33.62,18.472C41.049,77.32,3.9,54.594,3.9,54.594c.366-.6,47.606,26.156,47.606,26.156L3.463,51.128l48.6,26.706S3.116,46.259,3.6,45.469c.074-.12,52.672,30.666,53.467,29.377C58.133,73.119,5.179,43.607,5.179,43.607s58.886,34,59.642,32.769c.835-1.355-60.557-33.993-60.339-34.347.6-.976,57.716,33.855,58.7,32.253,0,0-64.065-36.027-63.175-37.47L67.416,73.849c.5-.817-64.926-41.057-64.926-41.057.54-.877,68.232,37.489,68.232,37.489L3.915,29.789c1.2-1.947,64.567,35.474,64.567,35.474L5.045,25.427S70.836,62.506,71.265,61.81C71.673,61.149,1.426,23.8,1.829,23.149c1.44-2.337,72.979,40.1,72.979,40.1C75.793,61.647.95,19.914,2.453,17.477c1.38-2.241,72.226,39.795,72.277,39.712L2.519,12.812c.593-.963,73.609,42.979,74.776,41.085C78.331,52.217,3.83,13.838,5.324,11.413,6.055,10.227,75.7,50.08,75.7,50.08S9.459,12.58,9.958,11.773L75.8,47.951c.47-.763-69.677-40.708-68.922-41.933.925-1.5,70.785,40.137,71.358,39.206C78.861,44.215,9.525,3.95,9.9,3.334,10.941,1.654,77.213,40.5,77.3,40.361c.193-.313-64.25-38.335-64.039-38.678,1.112-1.8,62.694,36.566,63.67,34.983.364-.592-56.389-35.614-55.806-36.56L76.738,30.663C77.2,29.908,21.346.8,21.829.019c.57-.926,53.338,31.494,54.346,29.859C76.839,28.8,24.568.975,24.569.975,25.1.107,77.07,29.82,77.07,29.82S29.5,1.883,29.985,1.1c.182-.3,39.5,23.109,40.147,22.059,0,0-37.291-20.7-36.571-21.863,0,0,31.386,18.462,31.946,17.553.157-.257-22.076-14.005-21.692-14.629,0,0,11.664,6.975,11.925,6.553" transform="matrix(-0.574, -0.819, 0.819, -0.574, 111.121, 110.409)" fill="none" stroke="#f8d959" stroke-width="4"/>
          <path id="Path_42057-2" data-name="Path 42057" d="M16.858,71.338c.21-.341,10.431,6.05,10.578,5.812,0,0-11.619-7.264-11.478-7.493,0,0,15.7,8.746,15.754,8.656C32.028,77.8,7,59.544,7,59.544c.583-.947,33.513,18.645,33.62,18.472C41.049,77.32,3.9,54.594,3.9,54.594c.366-.6,47.606,26.156,47.606,26.156L3.463,51.128l48.6,26.706S3.116,46.259,3.6,45.469c.074-.12,52.672,30.666,53.467,29.377C58.133,73.119,5.179,43.607,5.179,43.607s58.886,34,59.642,32.769c.835-1.355-60.557-33.993-60.339-34.347.6-.976,57.716,33.855,58.7,32.253,0,0-64.065-36.027-63.175-37.47L67.416,73.849c.5-.817-64.926-41.057-64.926-41.057.54-.877,68.232,37.489,68.232,37.489L3.915,29.789c1.2-1.947,64.567,35.474,64.567,35.474L5.045,25.427S70.836,62.506,71.265,61.81C71.673,61.149,1.426,23.8,1.829,23.149c1.44-2.337,72.979,40.1,72.979,40.1C75.793,61.647.95,19.914,2.453,17.477c1.38-2.241,72.226,39.795,72.277,39.712L2.519,12.812c.593-.963,73.609,42.979,74.776,41.085C78.331,52.217,3.83,13.838,5.324,11.413,6.055,10.227,75.7,50.08,75.7,50.08S9.459,12.58,9.958,11.773L75.8,47.951c.47-.763-69.677-40.708-68.922-41.933.925-1.5,70.785,40.137,71.358,39.206C78.861,44.215,9.525,3.95,9.9,3.334,10.941,1.654,77.213,40.5,77.3,40.361c.193-.313-64.25-38.335-64.039-38.678,1.112-1.8,62.694,36.566,63.67,34.983.364-.592-56.389-35.614-55.806-36.56L76.738,30.663C77.2,29.908,21.346.8,21.829.019c.57-.926,53.338,31.494,54.346,29.859C76.839,28.8,24.568.975,24.569.975,25.1.107,77.07,29.82,77.07,29.82S29.5,1.883,29.985,1.1c.182-.3,39.5,23.109,40.147,22.059,0,0-37.291-20.7-36.571-21.863,0,0,31.386,18.462,31.946,17.553.157-.257-22.076-14.005-21.692-14.629,0,0,11.664,6.975,11.925,6.553" transform="matrix(-0.574, -0.819, 0.819, -0.574, 131.121, 110.409)" fill="none" stroke="#f8d959" stroke-width="4"/>
        </g>
      </g>
    </g>
    <g id="Group_15890" data-name="Group 15890" transform="translate(-692.37 234.069)">
      <g id="Group_15884-2" data-name="Group 15884" transform="translate(1608.736 2410.12)">
        <g id="Group_15885-2" data-name="Group 15885">
          <path id="Path_42054-3" data-name="Path 42054" d="M16.858,71.338c.21-.341,10.431,6.05,10.578,5.812,0,0-11.619-7.264-11.478-7.493,0,0,15.7,8.746,15.754,8.656C32.028,77.8,7,59.544,7,59.544c.583-.947,33.513,18.645,33.62,18.472C41.049,77.32,3.9,54.594,3.9,54.594c.366-.6,47.606,26.156,47.606,26.156L3.463,51.128l48.6,26.706S3.116,46.259,3.6,45.469c.074-.12,52.672,30.666,53.467,29.377C58.133,73.119,5.179,43.607,5.179,43.607s58.886,34,59.642,32.769c.835-1.355-60.557-33.993-60.339-34.347.6-.976,57.716,33.855,58.7,32.253,0,0-64.065-36.027-63.175-37.47L67.416,73.849c.5-.817-64.926-41.057-64.926-41.057.54-.877,68.232,37.489,68.232,37.489L3.915,29.789c1.2-1.947,64.567,35.474,64.567,35.474L5.045,25.427S70.836,62.506,71.265,61.81C71.673,61.149,1.426,23.8,1.829,23.149c1.44-2.337,72.979,40.1,72.979,40.1C75.793,61.647.95,19.914,2.453,17.477c1.38-2.241,72.226,39.795,72.277,39.712L2.519,12.812c.593-.963,73.609,42.979,74.776,41.085C78.331,52.217,3.83,13.838,5.324,11.413,6.055,10.227,75.7,50.08,75.7,50.08S9.459,12.58,9.958,11.773L75.8,47.951c.47-.763-69.677-40.708-68.922-41.933.925-1.5,70.785,40.137,71.358,39.206C78.861,44.215,9.525,3.95,9.9,3.334,10.941,1.654,77.213,40.5,77.3,40.361c.193-.313-64.25-38.335-64.039-38.678,1.112-1.8,62.694,36.566,63.67,34.983.364-.592-56.389-35.614-55.806-36.56L76.738,30.663C77.2,29.908,21.346.8,21.829.019c.57-.926,53.338,31.494,54.346,29.859C76.839,28.8,24.568.975,24.569.975,25.1.107,77.07,29.82,77.07,29.82S29.5,1.883,29.985,1.1c.182-.3,39.5,23.109,40.147,22.059,0,0-37.291-20.7-36.571-21.863,0,0,31.386,18.462,31.946,17.553.157-.257-22.076-14.005-21.692-14.629,0,0,11.664,6.975,11.925,6.553" transform="matrix(-0.574, -0.819, 0.819, -0.574, 44.878, 110.409)" fill="none" stroke="#f8d959" stroke-width="4"/>
          <path id="Path_42055-3" data-name="Path 42055" d="M16.858,71.338c.21-.341,10.431,6.05,10.578,5.812,0,0-11.619-7.264-11.478-7.493,0,0,15.7,8.746,15.754,8.656C32.028,77.8,7,59.544,7,59.544c.583-.947,33.513,18.645,33.62,18.472C41.049,77.32,3.9,54.594,3.9,54.594c.366-.6,47.606,26.156,47.606,26.156L3.463,51.128l48.6,26.706S3.116,46.259,3.6,45.469c.074-.12,52.672,30.666,53.467,29.377C58.133,73.119,5.179,43.607,5.179,43.607s58.886,34,59.642,32.769c.835-1.355-60.557-33.993-60.339-34.347.6-.976,57.716,33.855,58.7,32.253,0,0-64.065-36.027-63.175-37.47L67.416,73.849c.5-.817-64.926-41.057-64.926-41.057.54-.877,68.232,37.489,68.232,37.489L3.915,29.789c1.2-1.947,64.567,35.474,64.567,35.474L5.045,25.427S70.836,62.506,71.265,61.81C71.673,61.149,1.426,23.8,1.829,23.149c1.44-2.337,72.979,40.1,72.979,40.1C75.793,61.647.95,19.914,2.453,17.477c1.38-2.241,72.226,39.795,72.277,39.712L2.519,12.812c.593-.963,73.609,42.979,74.776,41.085C78.331,52.217,3.83,13.838,5.324,11.413,6.055,10.227,75.7,50.08,75.7,50.08S9.459,12.58,9.958,11.773L75.8,47.951c.47-.763-69.677-40.708-68.922-41.933.925-1.5,70.785,40.137,71.358,39.206C78.861,44.215,9.525,3.95,9.9,3.334,10.941,1.654,77.213,40.5,77.3,40.361c.193-.313-64.25-38.335-64.039-38.678,1.112-1.8,62.694,36.566,63.67,34.983.364-.592-56.389-35.614-55.806-36.56L76.738,30.663C77.2,29.908,21.346.8,21.829.019c.57-.926,53.338,31.494,54.346,29.859C76.839,28.8,24.568.975,24.569.975,25.1.107,77.07,29.82,77.07,29.82S29.5,1.883,29.985,1.1c.182-.3,39.5,23.109,40.147,22.059,0,0-37.291-20.7-36.571-21.863,0,0,31.386,18.462,31.946,17.553.157-.257-22.076-14.005-21.692-14.629,0,0,11.664,6.975,11.925,6.553" transform="matrix(-0.574, -0.819, 0.819, -0.574, 64.738, 110.409)" fill="none" stroke="#f8d959" stroke-width="4"/>
          <path id="Path_42056-3" data-name="Path 42056" d="M16.858,71.338c.21-.341,10.431,6.05,10.578,5.812,0,0-11.619-7.264-11.478-7.493,0,0,15.7,8.746,15.754,8.656C32.028,77.8,7,59.544,7,59.544c.583-.947,33.513,18.645,33.62,18.472C41.049,77.32,3.9,54.594,3.9,54.594c.366-.6,47.606,26.156,47.606,26.156L3.463,51.128l48.6,26.706S3.116,46.259,3.6,45.469c.074-.12,52.672,30.666,53.467,29.377C58.133,73.119,5.179,43.607,5.179,43.607s58.886,34,59.642,32.769c.835-1.355-60.557-33.993-60.339-34.347.6-.976,57.716,33.855,58.7,32.253,0,0-64.065-36.027-63.175-37.47L67.416,73.849c.5-.817-64.926-41.057-64.926-41.057.54-.877,68.232,37.489,68.232,37.489L3.915,29.789c1.2-1.947,64.567,35.474,64.567,35.474L5.045,25.427S70.836,62.506,71.265,61.81C71.673,61.149,1.426,23.8,1.829,23.149c1.44-2.337,72.979,40.1,72.979,40.1C75.793,61.647.95,19.914,2.453,17.477c1.38-2.241,72.226,39.795,72.277,39.712L2.519,12.812c.593-.963,73.609,42.979,74.776,41.085C78.331,52.217,3.83,13.838,5.324,11.413,6.055,10.227,75.7,50.08,75.7,50.08S9.459,12.58,9.958,11.773L75.8,47.951c.47-.763-69.677-40.708-68.922-41.933.925-1.5,70.785,40.137,71.358,39.206C78.861,44.215,9.525,3.95,9.9,3.334,10.941,1.654,77.213,40.5,77.3,40.361c.193-.313-64.25-38.335-64.039-38.678,1.112-1.8,62.694,36.566,63.67,34.983.364-.592-56.389-35.614-55.806-36.56L76.738,30.663C77.2,29.908,21.346.8,21.829.019c.57-.926,53.338,31.494,54.346,29.859C76.839,28.8,24.568.975,24.569.975,25.1.107,77.07,29.82,77.07,29.82S29.5,1.883,29.985,1.1c.182-.3,39.5,23.109,40.147,22.059,0,0-37.291-20.7-36.571-21.863,0,0,31.386,18.462,31.946,17.553.157-.257-22.076-14.005-21.692-14.629,0,0,11.664,6.975,11.925,6.553" transform="matrix(-0.574, -0.819, 0.819, -0.574, 111.121, 110.409)" fill="none" stroke="#f8d959" stroke-width="4"/>
          <path id="Path_42057-3" data-name="Path 42057" d="M16.858,71.338c.21-.341,10.431,6.05,10.578,5.812,0,0-11.619-7.264-11.478-7.493,0,0,15.7,8.746,15.754,8.656C32.028,77.8,7,59.544,7,59.544c.583-.947,33.513,18.645,33.62,18.472C41.049,77.32,3.9,54.594,3.9,54.594c.366-.6,47.606,26.156,47.606,26.156L3.463,51.128l48.6,26.706S3.116,46.259,3.6,45.469c.074-.12,52.672,30.666,53.467,29.377C58.133,73.119,5.179,43.607,5.179,43.607s58.886,34,59.642,32.769c.835-1.355-60.557-33.993-60.339-34.347.6-.976,57.716,33.855,58.7,32.253,0,0-64.065-36.027-63.175-37.47L67.416,73.849c.5-.817-64.926-41.057-64.926-41.057.54-.877,68.232,37.489,68.232,37.489L3.915,29.789c1.2-1.947,64.567,35.474,64.567,35.474L5.045,25.427S70.836,62.506,71.265,61.81C71.673,61.149,1.426,23.8,1.829,23.149c1.44-2.337,72.979,40.1,72.979,40.1C75.793,61.647.95,19.914,2.453,17.477c1.38-2.241,72.226,39.795,72.277,39.712L2.519,12.812c.593-.963,73.609,42.979,74.776,41.085C78.331,52.217,3.83,13.838,5.324,11.413,6.055,10.227,75.7,50.08,75.7,50.08S9.459,12.58,9.958,11.773L75.8,47.951c.47-.763-69.677-40.708-68.922-41.933.925-1.5,70.785,40.137,71.358,39.206C78.861,44.215,9.525,3.95,9.9,3.334,10.941,1.654,77.213,40.5,77.3,40.361c.193-.313-64.25-38.335-64.039-38.678,1.112-1.8,62.694,36.566,63.67,34.983.364-.592-56.389-35.614-55.806-36.56L76.738,30.663C77.2,29.908,21.346.8,21.829.019c.57-.926,53.338,31.494,54.346,29.859C76.839,28.8,24.568.975,24.569.975,25.1.107,77.07,29.82,77.07,29.82S29.5,1.883,29.985,1.1c.182-.3,39.5,23.109,40.147,22.059,0,0-37.291-20.7-36.571-21.863,0,0,31.386,18.462,31.946,17.553.157-.257-22.076-14.005-21.692-14.629,0,0,11.664,6.975,11.925,6.553" transform="matrix(-0.574, -0.819, 0.819, -0.574, 131.121, 110.409)" fill="none" stroke="#f8d959" stroke-width="4"/>
        </g>
        <g id="Group_15886-2" data-name="Group 15886" transform="translate(26)">
          <path id="Path_42054-4" data-name="Path 42054" d="M16.858,71.338c.21-.341,10.431,6.05,10.578,5.812,0,0-11.619-7.264-11.478-7.493,0,0,15.7,8.746,15.754,8.656C32.028,77.8,7,59.544,7,59.544c.583-.947,33.513,18.645,33.62,18.472C41.049,77.32,3.9,54.594,3.9,54.594c.366-.6,47.606,26.156,47.606,26.156L3.463,51.128l48.6,26.706S3.116,46.259,3.6,45.469c.074-.12,52.672,30.666,53.467,29.377C58.133,73.119,5.179,43.607,5.179,43.607s58.886,34,59.642,32.769c.835-1.355-60.557-33.993-60.339-34.347.6-.976,57.716,33.855,58.7,32.253,0,0-64.065-36.027-63.175-37.47L67.416,73.849c.5-.817-64.926-41.057-64.926-41.057.54-.877,68.232,37.489,68.232,37.489L3.915,29.789c1.2-1.947,64.567,35.474,64.567,35.474L5.045,25.427S70.836,62.506,71.265,61.81C71.673,61.149,1.426,23.8,1.829,23.149c1.44-2.337,72.979,40.1,72.979,40.1C75.793,61.647.95,19.914,2.453,17.477c1.38-2.241,72.226,39.795,72.277,39.712L2.519,12.812c.593-.963,73.609,42.979,74.776,41.085C78.331,52.217,3.83,13.838,5.324,11.413,6.055,10.227,75.7,50.08,75.7,50.08S9.459,12.58,9.958,11.773L75.8,47.951c.47-.763-69.677-40.708-68.922-41.933.925-1.5,70.785,40.137,71.358,39.206C78.861,44.215,9.525,3.95,9.9,3.334,10.941,1.654,77.213,40.5,77.3,40.361c.193-.313-64.25-38.335-64.039-38.678,1.112-1.8,62.694,36.566,63.67,34.983.364-.592-56.389-35.614-55.806-36.56L76.738,30.663C77.2,29.908,21.346.8,21.829.019c.57-.926,53.338,31.494,54.346,29.859C76.839,28.8,24.568.975,24.569.975,25.1.107,77.07,29.82,77.07,29.82S29.5,1.883,29.985,1.1c.182-.3,39.5,23.109,40.147,22.059,0,0-37.291-20.7-36.571-21.863,0,0,31.386,18.462,31.946,17.553.157-.257-22.076-14.005-21.692-14.629,0,0,11.664,6.975,11.925,6.553" transform="matrix(-0.574, -0.819, 0.819, -0.574, 44.878, 110.409)" fill="none" stroke="#f8d959" stroke-width="4"/>
          <path id="Path_42055-4" data-name="Path 42055" d="M16.858,71.338c.21-.341,10.431,6.05,10.578,5.812,0,0-11.619-7.264-11.478-7.493,0,0,15.7,8.746,15.754,8.656C32.028,77.8,7,59.544,7,59.544c.583-.947,33.513,18.645,33.62,18.472C41.049,77.32,3.9,54.594,3.9,54.594c.366-.6,47.606,26.156,47.606,26.156L3.463,51.128l48.6,26.706S3.116,46.259,3.6,45.469c.074-.12,52.672,30.666,53.467,29.377C58.133,73.119,5.179,43.607,5.179,43.607s58.886,34,59.642,32.769c.835-1.355-60.557-33.993-60.339-34.347.6-.976,57.716,33.855,58.7,32.253,0,0-64.065-36.027-63.175-37.47L67.416,73.849c.5-.817-64.926-41.057-64.926-41.057.54-.877,68.232,37.489,68.232,37.489L3.915,29.789c1.2-1.947,64.567,35.474,64.567,35.474L5.045,25.427S70.836,62.506,71.265,61.81C71.673,61.149,1.426,23.8,1.829,23.149c1.44-2.337,72.979,40.1,72.979,40.1C75.793,61.647.95,19.914,2.453,17.477c1.38-2.241,72.226,39.795,72.277,39.712L2.519,12.812c.593-.963,73.609,42.979,74.776,41.085C78.331,52.217,3.83,13.838,5.324,11.413,6.055,10.227,75.7,50.08,75.7,50.08S9.459,12.58,9.958,11.773L75.8,47.951c.47-.763-69.677-40.708-68.922-41.933.925-1.5,70.785,40.137,71.358,39.206C78.861,44.215,9.525,3.95,9.9,3.334,10.941,1.654,77.213,40.5,77.3,40.361c.193-.313-64.25-38.335-64.039-38.678,1.112-1.8,62.694,36.566,63.67,34.983.364-.592-56.389-35.614-55.806-36.56L76.738,30.663C77.2,29.908,21.346.8,21.829.019c.57-.926,53.338,31.494,54.346,29.859C76.839,28.8,24.568.975,24.569.975,25.1.107,77.07,29.82,77.07,29.82S29.5,1.883,29.985,1.1c.182-.3,39.5,23.109,40.147,22.059,0,0-37.291-20.7-36.571-21.863,0,0,31.386,18.462,31.946,17.553.157-.257-22.076-14.005-21.692-14.629,0,0,11.664,6.975,11.925,6.553" transform="matrix(-0.574, -0.819, 0.819, -0.574, 64.738, 110.409)" fill="none" stroke="#f8d959" stroke-width="4"/>
          <path id="Path_42056-4" data-name="Path 42056" d="M16.858,71.338c.21-.341,10.431,6.05,10.578,5.812,0,0-11.619-7.264-11.478-7.493,0,0,15.7,8.746,15.754,8.656C32.028,77.8,7,59.544,7,59.544c.583-.947,33.513,18.645,33.62,18.472C41.049,77.32,3.9,54.594,3.9,54.594c.366-.6,47.606,26.156,47.606,26.156L3.463,51.128l48.6,26.706S3.116,46.259,3.6,45.469c.074-.12,52.672,30.666,53.467,29.377C58.133,73.119,5.179,43.607,5.179,43.607s58.886,34,59.642,32.769c.835-1.355-60.557-33.993-60.339-34.347.6-.976,57.716,33.855,58.7,32.253,0,0-64.065-36.027-63.175-37.47L67.416,73.849c.5-.817-64.926-41.057-64.926-41.057.54-.877,68.232,37.489,68.232,37.489L3.915,29.789c1.2-1.947,64.567,35.474,64.567,35.474L5.045,25.427S70.836,62.506,71.265,61.81C71.673,61.149,1.426,23.8,1.829,23.149c1.44-2.337,72.979,40.1,72.979,40.1C75.793,61.647.95,19.914,2.453,17.477c1.38-2.241,72.226,39.795,72.277,39.712L2.519,12.812c.593-.963,73.609,42.979,74.776,41.085C78.331,52.217,3.83,13.838,5.324,11.413,6.055,10.227,75.7,50.08,75.7,50.08S9.459,12.58,9.958,11.773L75.8,47.951c.47-.763-69.677-40.708-68.922-41.933.925-1.5,70.785,40.137,71.358,39.206C78.861,44.215,9.525,3.95,9.9,3.334,10.941,1.654,77.213,40.5,77.3,40.361c.193-.313-64.25-38.335-64.039-38.678,1.112-1.8,62.694,36.566,63.67,34.983.364-.592-56.389-35.614-55.806-36.56L76.738,30.663C77.2,29.908,21.346.8,21.829.019c.57-.926,53.338,31.494,54.346,29.859C76.839,28.8,24.568.975,24.569.975,25.1.107,77.07,29.82,77.07,29.82S29.5,1.883,29.985,1.1c.182-.3,39.5,23.109,40.147,22.059,0,0-37.291-20.7-36.571-21.863,0,0,31.386,18.462,31.946,17.553.157-.257-22.076-14.005-21.692-14.629,0,0,11.664,6.975,11.925,6.553" transform="matrix(-0.574, -0.819, 0.819, -0.574, 111.121, 110.409)" fill="none" stroke="#f8d959" stroke-width="4"/>
          <path id="Path_42057-4" data-name="Path 42057" d="M16.858,71.338c.21-.341,10.431,6.05,10.578,5.812,0,0-11.619-7.264-11.478-7.493,0,0,15.7,8.746,15.754,8.656C32.028,77.8,7,59.544,7,59.544c.583-.947,33.513,18.645,33.62,18.472C41.049,77.32,3.9,54.594,3.9,54.594c.366-.6,47.606,26.156,47.606,26.156L3.463,51.128l48.6,26.706S3.116,46.259,3.6,45.469c.074-.12,52.672,30.666,53.467,29.377C58.133,73.119,5.179,43.607,5.179,43.607s58.886,34,59.642,32.769c.835-1.355-60.557-33.993-60.339-34.347.6-.976,57.716,33.855,58.7,32.253,0,0-64.065-36.027-63.175-37.47L67.416,73.849c.5-.817-64.926-41.057-64.926-41.057.54-.877,68.232,37.489,68.232,37.489L3.915,29.789c1.2-1.947,64.567,35.474,64.567,35.474L5.045,25.427S70.836,62.506,71.265,61.81C71.673,61.149,1.426,23.8,1.829,23.149c1.44-2.337,72.979,40.1,72.979,40.1C75.793,61.647.95,19.914,2.453,17.477c1.38-2.241,72.226,39.795,72.277,39.712L2.519,12.812c.593-.963,73.609,42.979,74.776,41.085C78.331,52.217,3.83,13.838,5.324,11.413,6.055,10.227,75.7,50.08,75.7,50.08S9.459,12.58,9.958,11.773L75.8,47.951c.47-.763-69.677-40.708-68.922-41.933.925-1.5,70.785,40.137,71.358,39.206C78.861,44.215,9.525,3.95,9.9,3.334,10.941,1.654,77.213,40.5,77.3,40.361c.193-.313-64.25-38.335-64.039-38.678,1.112-1.8,62.694,36.566,63.67,34.983.364-.592-56.389-35.614-55.806-36.56L76.738,30.663C77.2,29.908,21.346.8,21.829.019c.57-.926,53.338,31.494,54.346,29.859C76.839,28.8,24.568.975,24.569.975,25.1.107,77.07,29.82,77.07,29.82S29.5,1.883,29.985,1.1c.182-.3,39.5,23.109,40.147,22.059,0,0-37.291-20.7-36.571-21.863,0,0,31.386,18.462,31.946,17.553.157-.257-22.076-14.005-21.692-14.629,0,0,11.664,6.975,11.925,6.553" transform="matrix(-0.574, -0.819, 0.819, -0.574, 131.121, 110.409)" fill="none" stroke="#f8d959" stroke-width="4"/>
        </g>
      </g>
    </g>
  </g>
</svg>
