<svg xmlns="http://www.w3.org/2000/svg" xmlns:xlink="http://www.w3.org/1999/xlink" width="202.163" height="99.506" viewBox="0 0 202.163 99.506">
  <defs>
    <clipPath id="clip-path">
      <rect id="Rectangle_7115" data-name="Rectangle 7115" width="202.163" height="99.506" fill="none" stroke="#fff" stroke-width="1"/>
    </clipPath>
  </defs>
  <g id="Group_17334" data-name="Group 17334" transform="translate(0 0)" opacity="0.8">
    <g id="Group_17333" data-name="Group 17333" transform="translate(0 0)" clip-path="url(#clip-path)">
      <path id="Path_44858" data-name="Path 44858" d="M73.135,3.977q-2.462,12.988-4.927,25.978-1.231,6.494-2.465,12.988-.568,3-1.137,5.995c-.312,1.649-.873,3.464-.408,5.129.976,3.492,4.774,3.638,7.827,3.846q6.7.457,13.405.722,13.418.528,26.848.291c4.037-.068,4.05-6.205,0-6.138q-11.618.193-23.236-.162-5.933-.19-11.864-.528-2.579-.147-5.153-.323c-.144-.01-2.452-.262-2.473-.217q.766,1.826.827.509c.094-.5.191-1,.285-1.5Q74.93,28.09,79.193,5.61c.733-3.863-5.321-5.518-6.058-1.633" transform="translate(70.033 1.841)" fill="#fff" stroke="#fff" stroke-width="1"/>
      <path id="Path_44859" data-name="Path 44859" d="M80.051,14.622q.289,25.617,2.358,51.168c.316,3.912,6.6,3.945,6.282,0q-2.07-25.54-2.358-51.168c-.044-3.947-6.326-3.957-6.282,0" transform="translate(87.568 12.194)" fill="#fff" stroke="#fff" stroke-width="1"/>
      <path id="Path_44860" data-name="Path 44860" d="M13.657,2.216Q11.195,15.2,8.73,28.194,7.5,34.688,6.266,41.182q-.568,3-1.137,5.995c-.312,1.649-.873,3.464-.408,5.129.976,3.492,4.774,3.638,7.827,3.846q6.7.457,13.405.722,13.418.528,26.848.291c4.037-.068,4.05-6.205,0-6.138q-11.618.193-23.236-.162-5.933-.19-11.864-.528-2.579-.147-5.153-.323C12.4,50,10.1,49.752,10.075,49.8q.766,1.826.827.509c.094-.5.191-1,.285-1.5q4.265-22.48,8.528-44.96c.733-3.863-5.321-5.518-6.058-1.633" transform="translate(4.97 -0.001)" fill="#fff" stroke="#fff" stroke-width="1"/>
      <path id="Path_44861" data-name="Path 44861" d="M20.572,12.861q.289,25.617,2.358,51.168c.316,3.912,6.6,3.945,6.282,0q-2.07-25.54-2.358-51.168c-.044-3.947-6.326-3.957-6.282,0" transform="translate(22.504 10.352)" fill="#fff" stroke="#fff" stroke-width="1"/>
      <path id="Path_44862" data-name="Path 44862" d="M46.784,11.8c-10.1,8.972-16.9,22.217-14.3,35.755C35.033,60.775,46.509,71.1,60.6,70.465,75.154,69.8,87.33,58.743,91.487,45.475A31.426,31.426,0,0,0,80.311,10.563c-11.916-8.734-29.26-6.379-38.182,5.266-2.425,3.165,3.028,6.228,5.423,3.1,6.091-7.951,18.169-9.714,26.781-4.892A24.931,24.931,0,0,1,86.25,40.661C84.011,51.673,75.282,61.769,63.713,63.967,52.255,66.142,42.242,59.1,39.145,48.432c-3.52-12.139,3.026-24.247,12.08-32.29,3-2.662-1.453-6.993-4.441-4.34" transform="translate(34.927 5.53)" fill="#fff" stroke="#fff" stroke-width="1"/>
      <path id="Path_44863" data-name="Path 44863" d="M3.03,48.673l152.813,4.943,43.287,1.4c4.043.131,4.039-6.007,0-6.138q-76.4-2.471-152.813-4.943L3.03,42.535c-4.043-.131-4.039,6.007,0,6.138" transform="translate(-0.001 44.488)" fill="#fff" stroke="#fff" stroke-width="1"/>
    </g>
  </g>
</svg>
