<svg id="Group_9844" data-name="Group 9844" xmlns="http://www.w3.org/2000/svg" width="31.141" height="31.141" viewBox="0 0 31.141 31.141">
  <path id="Path_23857" data-name="Path 23857" d="M15.07,30.141a15.07,15.07,0,1,1,15.07-15.07,15.088,15.088,0,0,1-15.07,15.07m0-28.885A13.814,13.814,0,1,0,28.885,15.07,13.83,13.83,0,0,0,15.07,1.256" transform="translate(0.5 0.5)" fill="#182e54"/>
  <path id="Path_23857_-_Outline" data-name="Path 23857 - Outline" d="M15.07,30.641a15.57,15.57,0,1,1,15.57-15.57A15.588,15.588,0,0,1,15.07,30.641ZM15.07.5a14.57,14.57,0,1,0,14.57,14.57A14.587,14.587,0,0,0,15.07.5Zm0,28.885A14.314,14.314,0,1,1,29.385,15.07,14.331,14.331,0,0,1,15.07,29.385Zm0-27.629A13.314,13.314,0,1,0,28.385,15.07,13.33,13.33,0,0,0,15.07,1.756Z" transform="translate(0.5 0.5)" fill="#182e54"/>
  <path id="Path_23858" data-name="Path 23858" d="M138.628,53.556a.628.628,0,0,1-.628-.628V42.253a.628.628,0,0,1,1.256,0V52.928a.628.628,0,0,1-.628.628" transform="translate(-123.058 -36.769)" fill="#182e54"/>
  <path id="Path_23858_-_Outline" data-name="Path 23858 - Outline" d="M138.628,54.056a1.129,1.129,0,0,1-1.128-1.128V42.253a1.128,1.128,0,1,1,2.256,0V52.928A1.129,1.129,0,0,1,138.628,54.056Zm0-11.931a.128.128,0,0,0-.128.128V52.928a.128.128,0,1,0,.256,0V42.253A.128.128,0,0,0,138.628,42.125Z" transform="translate(-123.058 -36.769)" fill="#182e54"/>
  <path id="Path_23859" data-name="Path 23859" d="M144.279,148.682a.621.621,0,0,1-.35-.107l-5.651-3.807a.628.628,0,0,1,.7-1.041l5.651,3.807a.628.628,0,0,1-.351,1.149" transform="translate(-123.058 -128.088)" fill="#182e54"/>
  <path id="Path_23859_-_Outline" data-name="Path 23859 - Outline" d="M144.279,149.182a1.119,1.119,0,0,1-.631-.194L138,145.183a1.128,1.128,0,1,1,1.262-1.87l5.65,3.806a1.128,1.128,0,0,1-.631,2.063Zm-5.65-5.063a.128.128,0,0,0-.072.235l5.651,3.807a.123.123,0,0,0,.071.022.128.128,0,0,0,.106-.055.128.128,0,0,0-.034-.178l-5.651-3.807A.123.123,0,0,0,138.629,144.119Z" transform="translate(-123.058 -128.088)" fill="#182e54"/>
</svg>
