<svg id="Group_9840" data-name="Group 9840" xmlns="http://www.w3.org/2000/svg" xmlns:xlink="http://www.w3.org/1999/xlink" width="30.5" height="30.5" viewBox="0 0 30.5 30.5">
  <defs>
    <clipPath id="clip-path">
      <rect id="Rectangle_233" data-name="Rectangle 233" width="30.5" height="30.5" fill="#182e54"/>
    </clipPath>
  </defs>
  <g id="Group_9839" data-name="Group 9839" clip-path="url(#clip-path)">
    <path id="Path_23850" data-name="Path 23850" d="M30.413,13.565A25.551,25.551,0,0,0,16.858.075a.976.976,0,0,0-1.285.561,1.029,1.029,0,0,0,.543,1.326A23.555,23.555,0,0,1,28.613,14.4a.987.987,0,0,0,.9.6.952.952,0,0,0,.4-.09,1.032,1.032,0,0,0,.5-1.346" fill="#182e54"/>
    <path id="Path_23851" data-name="Path 23851" d="M15.6,7.393a14.267,14.267,0,0,1,7.58,7.527.954.954,0,0,0,.871.58.92.92,0,0,0,.39-.086.992.992,0,0,0,.479-1.3,16.2,16.2,0,0,0-8.6-8.543.944.944,0,0,0-1.243.541A.992.992,0,0,0,15.6,7.393" fill="#182e54"/>
    <path id="Path_23852" data-name="Path 23852" d="M25.23,19.268a2.325,2.325,0,0,0-3.515,0c-.822.815-1.642,1.629-2.451,2.458a.56.56,0,0,1-.4.212.576.576,0,0,1-.282-.088c-.531-.29-1.1-.525-1.608-.842a25.475,25.475,0,0,1-6.148-5.594,14.588,14.588,0,0,1-2.2-3.529.506.506,0,0,1,.125-.649c.821-.794,1.623-1.609,2.431-2.424a2.335,2.335,0,0,0-.007-3.6C10.535,4.565,9.892,3.93,9.25,3.281c-.663-.663-1.319-1.333-1.989-1.989A2.524,2.524,0,0,0,5.5.5a2.5,2.5,0,0,0-1.757.8c-.83.815-1.623,1.65-2.466,2.451a4,4,0,0,0-1.257,2.7,11.424,11.424,0,0,0,.885,4.923,29.9,29.9,0,0,0,5.31,8.846A32.846,32.846,0,0,0,17.1,28.735a15.722,15.722,0,0,0,6.028,1.754c.131.008.26.011.387.011a4.3,4.3,0,0,0,3.405-1.454c.7-.787,1.5-1.5,2.245-2.258a2.35,2.35,0,0,0,.014-3.577q-1.969-1.979-3.951-3.943m2.517,6.112c-.247.249-.5.493-.75.738-.519.5-1.055,1.024-1.566,1.6a2.332,2.332,0,0,1-1.914.785c-.09,0-.182,0-.277-.008a13.563,13.563,0,0,1-5.264-1.555A31.022,31.022,0,0,1,7.749,18.932a27.79,27.79,0,0,1-4.968-8.261,9.391,9.391,0,0,1-.764-4.064A2.014,2.014,0,0,1,2.66,5.2c.52-.495,1.021-1,1.524-1.51.319-.322.639-.645.968-.968A.651.651,0,0,1,5.5,2.5a.667.667,0,0,1,.358.221c.44.431.874.868,1.308,1.306l.659.66c.327.331.654.658.98.985s.632.631.949.952c.37.371.347.436.006.78l-.337.341c-.684.691-1.367,1.379-2.089,2.077a2.49,2.49,0,0,0-.553,2.838,16.332,16.332,0,0,0,2.5,4.018,27.363,27.363,0,0,0,6.641,6.028,12.685,12.685,0,0,0,1.141.612c.19.094.381.187.541.273a2.547,2.547,0,0,0,1.265.347,2.506,2.506,0,0,0,1.827-.816c.79-.81,1.593-1.606,2.429-2.436a.657.657,0,0,1,.345-.221.662.662,0,0,1,.35.221q1.974,1.964,3.942,3.934c.3.306.335.4-.015.76" fill="#182e54"/>
  </g>
</svg>
