<svg id="Layer_1" data-name="Layer 1" xmlns="http://www.w3.org/2000/svg" xmlns:xlink="http://www.w3.org/1999/xlink" viewBox="0 0 371.47 459.93"><defs><style>.cls-1,.cls-3{fill:none;}.cls-2{clip-path:url(#clip-path);}.cls-3{stroke:#fff;stroke-width:3px;}.cls-4{fill:#182e54;}</style><clipPath id="clip-path" transform="translate(-1.41 -1.13)"><rect class="cls-1" width="258.86" height="462.4"/></clipPath></defs><g class="cls-2"><g id="Group_13722" data-name="Group 13722"><g id="Group_9951" data-name="Group 9951"><path id="Path_30194" data-name="Path 30194" class="cls-3" d="M140.63,333.88c-.53.31-7.69-14.18-8.06-14,0,0,8.14,16.48,7.78,16.68,0,0-11.87-20.88-12-20.8-.81.47,14.58,39.3,14.58,39.3-1.48.85-25.36-44.55-25.63-44.4-1.09.63,25.33,52.66,25.33,52.66-.93.53-36.29-62.88-36.29-62.88l34,67.6-37-64.19s33.48,70.65,32.24,71.37c-.18.1-38.74-71.78-40.76-70.61-2.7,1.56,37.33,72,37.33,72S88.52,296.8,86.6,297.9c-2.13,1.23,45.58,80.9,45,81.22-1.53.88-42.25-79-44.76-77.52,0,0,48.17,85.66,45.91,87l-51.39-89c-1.28.74,45.09,92.65,45.09,92.65-1.38.79-52-90.11-52-90.11l47.83,93.09c-3,1.76-49.23-85.26-49.23-85.26l44.29,90.17S67.93,312,66.84,312.64,120.38,404.4,119.36,405c-3.66,2.11-55.64-96.37-55.64-96.37-2.5,1.44,54.05,101.06,50.23,103.27-3.51,2-55-95.53-55.11-95.45l51.21,101.39c-1.51.88-54-100.46-57-98.74-2.64,1.52,56.26,96.62,52.46,98.81C103.64,419,51.85,325,51.85,325s49.59,88.89,48.33,89.62L50,327.64c-1.19.69,51.14,95.13,49.22,96.24-2.36,1.35-52.95-95.08-54.41-94.24s49.51,95.26,48.54,95.82c-2.63,1.52-51.16-89.12-51.38-89-.49.29,46.5,88.74,46,89.05-2.82,1.63-46.06-85.51-48.54-84.08-.93.54,39.19,80.41,37.71,81.27l-42.4-73.44c-1.19.68,42.7,72.41,41.47,73.12-1.45.84-38.87-73.25-41.43-71.77-1.69,1,38.89,68.86,38.89,68.86-1.36.78-40-69.34-40-69.34S68.36,415.26,67.14,416c-.47.27-29-54-30.61-53,0,0,28.26,49.51,26.43,50.57,0,0-22.93-43-24.36-42.19-.4.23,15.3,31.56,14.32,32.13,0,0-8.43-16.13-9.09-15.75" transform="translate(-1.41 -1.13)"/><path id="Path_30195" data-name="Path 30195" class="cls-4" d="M155,392.75l7.3,2.95c4.48,1.81,7.22-5,2.73-6.77l-7.3-2.95c-4.48-1.81-7.22,5-2.73,6.77" transform="translate(-1.41 -1.13)"/><path id="Path_30196" data-name="Path 30196" class="cls-4" d="M131.69,241.71A92.41,92.41,0,0,0,123,245.5s14.37,5.71,18.29,9c2,1.67,18.41,20.76-11.95,13.46-10.12-2.43-14.13-3.53-16.26-4.12l-.1,0a20.52,20.52,0,0,0-4.53-.88c-1.52-.17-6.8,0-7.1,1.22s4,1.85,8.06,3l22.72,6.27c4.18,1.16,7.6,3.68,8.91,6h0a5.54,5.54,0,0,1,.57,4.32l0,.16h0l0,.11a6,6,0,0,1-3.6,3.74l-.3.1c-2.41.87-6.64.87-13.19-.74-12.75-3.16-15.76-3.74-18.78-4.31l-.08,0c-1.76-.34-3.56-.69-7.32-1.55-3.34-.78-9.2-.51-9.45.78s4.57,2.9,10.67,4.52h0c14,3.71,15.95,4.22,17.09,4.53,1.72.47,2.18.6,7.13,1.87l.12,0c4.78,1.27,7.92,3.87,9,6.38l.08.21a6.24,6.24,0,0,1,0,4.48,7.18,7.18,0,0,1-3.62,3.89c-2.73,1.36-7.61,1.65-14.75-.42-17.17-5-37.59-2.56-42.45-1.57-9.92,3-19.12,12.28-25.74,21.72-9.18,13.09-5.25,41.22-4,56.46,1.31,15.8,9.12,28,22,34.42,14.21,7.06,32.18,5.63,46.92-3.73,18-11.61,34.07-42.4,39.2-61,3.22-10.69-2.08-18-8.22-26.39-2.68-3.68-3.79-4.45-5.85-8.65l-.87-1.79c-1.81-3.07,2.87-7.1,5.51-2.7l.87,1.79c1.82,3.72,2.77,4.27,5.3,7.73,6.2,8.51,13.24,18.16,9.16,31.71-5.48,19.88-22.86,52.25-41.8,64.49-16.54,10.51-36.83,12-52.95,4-14.87-7.39-23.89-21.38-25.37-39.41-1.35-16.32-4.93-46.21,5.09-60.48,8.13-11.59,19.37-21.47,31.13-24.7,0,0,23.14-3.1,44.61,1.8,5,1.15,10.12,2.27,10,1.18s-2.81-2.4-5.69-3.15h0c-5.83-1.51-6.15-1.59-7.2-1.88-2-.54-5.81-1.58-17-4.54h0c-8.24-2.18-12.35-4.71-13.76-7.06a5.55,5.55,0,0,1-.12-5.61,8.75,8.75,0,0,1,3.76-3.69,21.18,21.18,0,0,1,13.62-1.58c3.62.84,5.4,1.18,7.11,1.5l.12,0c3,.58,6.06,1.16,19,4.36,3.43.85,7.75,2.12,7.68,1.28s-2.86-1.77-4.83-2.31l-22.72-6.28c-6.86-1.91-10.34-3.85-11.66-5.66a4.86,4.86,0,0,1-.06-5.77,8.7,8.7,0,0,1,3.48-3.08l.23-.13a25.56,25.56,0,0,1,11.3-2.27,23.47,23.47,0,0,1,5.18,1l.16,0c2.24.62,6.49,1.79,16.12,4.1,7.6,1.83,6.16-2.34,3.57-3.35l-19.51-8.79a2.12,2.12,0,0,1-.86-.79,3.77,3.77,0,0,1,1-4.58c4.5-4,9.42-6,12.61-7.88" transform="translate(-1.41 -1.13)"/><path id="Path_30197" data-name="Path 30197" class="cls-4" d="M24.36,424.71l-6.81,4c-4.19,2.41-7.86-3.91-3.67-6.32l6.81-3.95c4.17-2.45,7.87,3.88,3.67,6.32" transform="translate(-1.41 -1.13)"/><path id="Path_30198" data-name="Path 30198" class="cls-4" d="M115.84,442.83l3.68,7c2.23,4.26,8.71.87,6.48-3.39l-3.66-7c-2.25-4.31-8.73-.91-6.5,3.38" transform="translate(-1.41 -1.13)"/><path id="Path_30199" data-name="Path 30199" class="cls-4" d="M143.17,414.74l6.65,4.2c4.1,2.58,8-3.59,3.9-6.18l-6.66-4.19c-4.1-2.58-8,3.59-3.9,6.17" transform="translate(-1.41 -1.13)"/><path id="Path_30200" data-name="Path 30200" class="cls-4" d="M5.13,383.5l7.9-.2c4.83-.12,4.65-7.41-.18-7.29l-7.9.2c-4.84.11-4.65,7.41.18,7.29" transform="translate(-1.41 -1.13)"/><path id="Path_30201" data-name="Path 30201" class="cls-4" d="M71.42,458.5,73.77,451c1.45-4.64-5.55-6.83-7-2.19l-2.35,7.53c-1.44,4.61,5.55,6.79,7,2.18" transform="translate(-1.41 -1.13)"/><path id="Path_30202" data-name="Path 30202" class="cls-4" d="M9.32,348l7.84,1c4.8.6,5.7-6.64.91-7.24l-7.85-1c-4.79-.6-5.7,6.64-.9,7.24" transform="translate(-1.41 -1.13)"/><path id="Path_30203" data-name="Path 30203" class="cls-4" d="M106,322.12c1.75-.49,5.74-1.33,4.29,1.49-1.83,3.56-1.05,26.84-.88,31,.39,9.82-1.94,17.62.68,18.6,13.81,5.18,7.17,21.58-4.06,15.82-6.69-3.42-5.43-7.56-5.84-12.14-.23-2.51-5.13-3.62-11.35-5.18-5.77-1.46-11-4.13-12.63-2-3.59,4.82-4.15,11.79-11.37,9.61-5.32-2.43-7.76-6.86-5.87-11.9,3.64-6.91,8.23-2.25,13.69-5.37,1.68-1.34,3.29-6.17,4.92-9.66,9-19.36,9.5-17.27,11.08-26.56,0,0,3.39-4.84,4.84,1.23s-9.22,18.75-15.66,36.22c8.37.87,17.34,4.4,25.11,7.66,2.75-18.44-1.54-30.24,2.26-48.66,0,0,.31-.11.79-.24m-1,53.82c-.18,1.75.61,11.2,4.94,9.71,6.59-2.21,3.69-6.75-4.94-9.71m-32.34-9c-3,.41-8.85,1.24-9.55,3.1-.29.77,3.14,12.46,9.55-3.1" transform="translate(-1.41 -1.13)"/><path id="Path_30205" data-name="Path 30205" class="cls-4" d="M189.33,125.77c-6,13.28-11.34,30.56-17,48.86-15,48.61-33.85,104.29-72.78,122.72l-3.25-5.44c36.86-17.46,56.36-71.22,71.06-118.81,5.72-18.45,11.1-35.9,17.23-49.48,19.61-42.36,44-83.67,69.76-122.49l4.5,2.6c-25.74,38.7-50,79.87-69.54,122" transform="translate(-1.41 -1.13)"/><line id="Line_25" data-name="Line 25" class="cls-1" x1="371.47" y1="68.43" x2="366.89" y2="65.79"/><line id="Line_26" data-name="Line 26" class="cls-1" x1="257.45" y1="2.6" x2="252.95"/></g></g></g></svg>