<svg xmlns="http://www.w3.org/2000/svg" width="1920.547" height="181" viewBox="0 0 1920.547 181">
  <path id="Intersection_4" data-name="Intersection 4" d="M.057,181C.041,144.874.022,108.532,0,72.535c0-2.878.19-5.078,1.131-6.454.877-1.281,2.371-1.828,5-1.828a33.806,33.806,0,0,1,3.647.241C48.29,68.77,89.6,73.126,130.715,76.024c47.876,3.373,90.345,5.453,129.835,6.359,39.844.916,80.594,1.382,121.118,1.382,16.284,0,32.835-.076,49.193-.223,40.477-.365,80.391-2.554,114.1-4.647,42.682-2.65,92.307-5.89,141.109-10.815,39.8-4.017,74.977-7.739,107.543-11.38,38.424-4.3,73.538-8.51,107.35-12.882,33.772-4.367,67.964-9.813,101.031-15.079,23.422-3.731,47.641-7.589,71.529-11.034,41.69-6.016,83.024-10.856,117.96-14.8C1202.795,1.631,1214.812.428,1227.1,0h17.913a176.639,176.639,0,0,1,26.108,2.866,95.2,95.2,0,0,1,12.88,3.2,49.151,49.151,0,0,1,13.2,6.637,30.506,30.506,0,0,1,8.47,9.238,29.439,29.439,0,0,1,3.742,11.774,45.284,45.284,0,0,1-.984,14.248c-.215.993-.441,2-.661,2.983l-.021.092a88.7,88.7,0,0,0-2.537,15.647c-.584,14.848,7.124,26.15,23.566,34.551a128.108,128.108,0,0,0,15.314,6.58,150.215,150.215,0,0,0,15.876,4.647,211.092,211.092,0,0,0,32.816,4.809c19.966,1.49,43.517,3.013,66.808,3.013,5.038,0,10.011-.071,14.779-.211,33.884-1,70.573-3.377,112.164-7.282,42.933-4.03,84.617-8.906,123.9-14.5,39.757-5.656,80.046-12.25,119.009-18.626h.006l.265-.044c11.753-1.923,23.907-3.912,35.862-5.845,12.268-1.985,24.317-4.187,37.075-6.519l.018,0c5.785-1.058,11.767-2.151,17.884-3.243V181Z" fill="#f8d959"/>
</svg>
