<svg xmlns="http://www.w3.org/2000/svg" xmlns:xlink="http://www.w3.org/1999/xlink" width="750" height="174" viewBox="0 0 750 174">
  <defs>
    <clipPath id="clip-path">
      <rect id="Rectangle_7103" data-name="Rectangle 7103" width="750" height="174" transform="translate(0.5 0.5)" fill="#f8d959"/>
    </clipPath>
  </defs>
  <g id="Mask_Group_160" data-name="Mask Group 160" transform="translate(-0.5 -0.5)" clip-path="url(#clip-path)">
    <path id="Union_251" data-name="Union 251" d="M710.551,0a161.59,161.59,0,0,0-25.381,2.565C662.525,6.274,639.885,10.2,617.339,14.92,584.225,21.857,551.288,30.5,518.11,36.728c-41.1,7.716-82.326,14.215-123.573,20.26-26.976,3.954-54.066,6.592-81.143,9.031-21.842,1.97-43.732,3.593-65.611,3.882q-48.963.641-97.935-.968c-24.9-.831-49.814-2.769-74.661-5.312-23.228-2.377-46.405-5.9-69.544-9.627C.834,53.22.017,54.519.02,60.71Q.08,200.764.089,340.8H0v861H1104.414V53.6c-10.972,2.845-21.264,5.722-31.614,8.154-29.72,6.979-59.4,14.314-89.212,20.474-23.658,4.887-47.438,8.858-71.244,12.1-21.441,2.922-42.971,5.162-64.5,6.08-15.612.665-31.321-.65-46.915-2.338-12.733-1.381-25.32-4.866-36.806-13.391C755.8,78.506,750.2,69.666,750.571,55.825a130.749,130.749,0,0,1,1.85-15.635c2.566-17.218-2.111-29.066-14.048-34.985a40.584,40.584,0,0,0-7.406-2.675A74.768,74.768,0,0,0,711.32,0Z" transform="translate(-0.001 41)" fill="#f8d959"/>
  </g>
</svg>
