<svg xmlns="http://www.w3.org/2000/svg" width="322.792" height="253.33" viewBox="0 0 322.792 253.33">
  <path id="Path_34171" data-name="Path 34171" d="M56.169,190.256c.844-.932,37.6,14.74,38.189,14.087,0,0-41.783-17.815-41.218-18.44,0,0,56.653,21.227,56.878,20.982,1.27-1.41-88.255-46.709-88.255-46.709,2.342-2.592,120.95,45.25,121.379,44.776,1.723-1.907-131.962-57.534-131.962-57.534,1.468-1.629,171.875,63.4,171.875,63.4L10.2,138.262l175.478,64.733S9.816,125.365,11.771,123.2c.3-.328,189.844,74.737,193.035,71.207,4.269-4.725-186.835-76.358-186.835-76.358S230.262,200.839,233.3,197.482c3.351-3.71-218.5-82.565-217.621-83.536,2.411-2.672,207.974,82.565,211.934,78.18,0,0-231.14-87.52-227.57-91.47L243.4,190.432C245.427,188.2,10,89.653,10,89.653c2.168-2.4,246.34,90.871,246.34,90.871L15.848,81.485c4.819-5.329,233.109,85.987,233.109,85.987L20.856,69.748s237.355,90.1,239.075,88.19C261.57,156.128,7.724,65.9,9.339,64.106c5.779-6.4,263.478,97.192,263.478,97.192C276.774,156.922,6.679,55.622,12.711,48.95c5.539-6.133,260.739,96.486,260.944,96.26L13.824,36.543c2.381-2.636,265.282,104.773,269.966,99.588C287.948,131.532,18.5,39.1,24.5,32.464c2.936-3.248,254.071,93.726,254.071,93.726S39.635,35.035,41.635,32.825l237.721,87.693c1.885-2.087-251.105-99.243-248.073-102.6C35,13.809,286.609,115.5,288.909,112.956,291.407,110.2,41.484,12.089,43.01,10.4c4.158-4.6,242.969,90.127,243.305,89.751.775-.857-231.4-93.632-230.551-94.57,4.464-4.936,225.952,89.13,229.87,84.8C287.1,88.761,82.913,2.969,85.255.382L286.048,74.449C287.915,72.383,85.957,2.2,87.894.059,90.181-2.475,280.055,76.91,284.1,72.435,286.768,69.483,97.885,2.246,97.888,2.246c2.147-2.375,189.546,69.92,189.546,69.92S116.037,4.026,117.974,1.884c.733-.809,142.35,56.343,144.944,53.469,0,0-134.592-50.214-131.7-53.408,0,0,113.087,45.037,115.336,42.547.631-.7-79.353-34.387-77.81-36.094,0,0,42.005,17.04,43.053,15.883" transform="matrix(-0.995, -0.105, 0.105, -0.995, 294.082, 246.076)" fill="none" stroke="#182e54" stroke-width="12"/>
</svg>
