<svg xmlns="http://www.w3.org/2000/svg" viewBox="0 0 299.4 232.18"><defs><style>.cls-1{fill:none;stroke:#182e54;stroke-miterlimit:4;stroke-width:12.01px;}</style></defs><g id="Layer_2" data-name="Layer 2"><g id="Layer_1-2" data-name="Layer 1"><path id="Path_34171" data-name="Path 34171" class="cls-1" d="M246.91,39.14c-.94.83-35.87-18.62-36.52-18,0,0,39.7,22.11,39.08,22.67,0,0-54.15-27.06-54.39-26.84C193.66,18.2,278,72.68,278,72.68,275.38,75,162.39,15,161.91,15.38,160,17.1,287.18,86.48,287.18,86.48,285.54,88,122.82,5.35,122.82,5.35L287.19,95.7,119.39,12.86S286.22,108.57,284,110.52c-.33.29-181-94.3-184.59-91.12C94.71,23.65,277.33,115,277.33,115S74.8,10.33,71.42,13.35c-3.72,3.34,208.74,105.09,207.76,106-2.68,2.4-198.26-104-202.66-100,0,0,220.79,111.36,216.83,114.91L60.63,19.3c-2.25,2,221.65,124.78,221.65,124.78C279.87,146.24,46.72,27.8,46.72,27.8L275.61,151.6c-5.36,4.79-222.92-110-222.92-110l216.7,121.19S42.68,48.18,40.77,49.9,282.05,168,280.26,169.57c-6.42,5.76-252-124.37-252-124.37-4.39,3.94,253.72,133.09,247,139.1C269.16,189.82,26,60.92,25.78,61.12L272.9,196.53C270.26,198.9,20,64.42,14.74,69.09c-4.62,4.14,253.78,124.4,247.11,130.37-3.26,2.93-243-119.93-243-119.93s228.17,115.79,226,117.78L17.52,85.09C15.42,87,256.94,210.2,253.58,213.22,249.45,216.92,9.77,89.32,7.22,91.61,4.44,94.09,242.81,218,241.12,219.47,236.5,223.61,8.83,104.29,8.45,104.62c-.86.78,220.41,117.47,219.47,118.31C223,227.37,12.46,110.52,8.1,114.42,6.48,115.88,200.63,222.68,198,225L6,130.23c-2.07,1.86,191.5,92.89,189.35,94.82-2.54,2.28-183.13-96.64-187.62-92.62-3,2.66,177.91,89.4,177.91,89.39C183.27,224,4.4,132.35,4.4,132.35s163.39,85.8,161.23,87.73c-.81.72-135.72-71-138.6-68.42,0,0,128.65,64.09,125.43,67,0,0-107.79-56.68-110.29-54.44-.7.63,75.35,42.55,73.63,44.08,0,0-40-21.36-41.17-20.32"/></g></g></svg>