<svg xmlns="http://www.w3.org/2000/svg" xmlns:xlink="http://www.w3.org/1999/xlink" width="750" height="103" viewBox="0 0 750 103">
  <defs>
    <clipPath id="clip-path">
      <rect id="Rectangle_9904" data-name="Rectangle 9904" width="750" height="103" transform="translate(0 2813.516)" fill="#fff" stroke="#707070" stroke-width="1"/>
    </clipPath>
  </defs>
  <g id="Mask_Group_175" data-name="Mask Group 175" transform="translate(0 -2813.516)" clip-path="url(#clip-path)">
    <path id="Union_239" data-name="Union 239" d="M158.961,2316.833a35.633,35.633,0,0,1-13.342-2.531,22.652,22.652,0,0,1-5.029-2.675c-8.106-5.918-11.282-17.767-9.54-34.985.524-5.174,1.16-10.4,1.256-15.635.255-13.84-3.554-22.681-9.2-28.853a41.094,41.094,0,0,0-24.995-13.391c-10.59-1.688-21.258-3-31.86-2.338a327.387,327.387,0,0,0-43.8,6.08c-16.167,3.246-32.315,7.217-48.381,12.1-20.244,6.16-40.4,13.495-60.583,20.474-7.028,2.432-14.018,5.309-21.469,8.154V1976.033H-108V-546.374c7.451,2.844,14.44,5.722,21.469,8.154,20.183,6.979,40.34,14.314,60.584,20.473,16.066,4.888,32.215,8.859,48.381,12.1a327.216,327.216,0,0,0,43.8,6.081c10.6.665,21.27-.651,31.86-2.339a41.089,41.089,0,0,0,24.995-13.391c5.648-6.171,9.457-15.012,9.2-28.852-.1-5.237-.733-10.461-1.256-15.635-1.742-17.218,1.434-29.067,9.54-34.986a22.741,22.741,0,0,1,5.029-2.675,35.653,35.653,0,0,1,13.342-2.53h.522a75.982,75.982,0,0,1,17.236,2.564c15.378,3.71,30.753,7.633,46.064,12.356,22.487,6.935,44.855,15.577,67.386,21.807,27.91,7.716,55.907,14.216,83.918,20.261,18.319,3.954,36.715,6.591,55.1,9.031a397.884,397.884,0,0,0,44.556,3.881q33.25.641,66.507-.967a508.178,508.178,0,0,0,50.7-5.311c15.774-2.377,31.513-5.9,47.227-9.627,3.266-.776,3.82.525,3.819,6.714q-.02,68.619-.031,137.234H642V1976.033h-.047q.005,140.053.047,280.091c0,6.19-.553,7.49-3.819,6.715-15.713-3.73-31.452-7.25-47.227-9.627a507.962,507.962,0,0,0-50.7-5.312q-33.241-1.633-66.507-.968a397.916,397.916,0,0,0-44.556,3.882c-18.388,2.44-36.784,5.078-55.1,9.031-28.011,6.045-56.008,12.544-83.918,20.26-22.531,6.231-44.9,14.872-67.386,21.808-15.311,4.723-30.686,8.646-46.064,12.355a75.974,75.974,0,0,1-17.236,2.565Z" transform="translate(642 2316.833) rotate(180)" fill="#f8d959"/>
  </g>
</svg>
