<?xml version="1.0" encoding="utf-8"?>
<!-- Generator: Adobe Illustrator 24.1.2, SVG Export Plug-In . SVG Version: 6.00 Build 0)  -->
<svg version="1.1" id="Layer_1" xmlns="http://www.w3.org/2000/svg" xmlns:xlink="http://www.w3.org/1999/xlink" x="0px" y="0px"
	 viewBox="0 0 750 169.2" style="enable-background:new 0 0 750 169.2;" xml:space="preserve">
<style type="text/css">
	.st0{fill:#55CEE2;}
</style>
<path id="Union_235" class="st0" d="M482.5,0c-5.8,0.2-11.6,1.1-17.2,2.6c-15.4,3.7-30.8,7.6-46.1,12.4
	c-22.5,6.9-44.9,15.6-67.4,21.8c-27.9,7.7-55.9,14.2-83.9,20.3c-18.3,4-36.7,6.6-55.1,9c-14.8,2.1-29.6,3.4-44.6,3.9
	c-22.2,0.4-44.3,0.1-66.5-1c-17-0.9-33.9-2.7-50.7-5.3C35.3,61.2,19.5,57.7,3.8,54C0.6,53.2,0,54.5,0,60.7c0,36.2,0,72.4,0,108.5
	h750V53.6c-7.5,2.8-14.4,5.7-21.5,8.2c-20.2,7-40.3,14.3-60.6,20.5c-16.1,4.9-32.2,8.9-48.4,12.1c-14.4,3-29.1,5-43.8,6.1
	c-10.6,0.7-21.3-0.7-31.9-2.3c-9.7-1.4-18.5-6.1-25-13.4c-5.6-6.2-9.5-15-9.2-28.9c0.1-5.2,0.7-10.5,1.3-15.6
	c1.7-17.2-1.4-29.1-9.5-35c-1.6-1.1-3.2-2-5-2.7C492.1,0.8,487.6,0,483,0L482.5,0z"/>
</svg>
