<?xml version="1.0" encoding="utf-8"?>
<!-- Generator: Adobe Illustrator 24.1.2, SVG Export Plug-In . SVG Version: 6.00 Build 0)  -->
<svg version="1.1" id="Layer_1" xmlns="http://www.w3.org/2000/svg" xmlns:xlink="http://www.w3.org/1999/xlink" x="0px" y="0px"
	 viewBox="0 0 750 167.1" style="enable-background:new 0 0 750 167.1;" xml:space="preserve">
<style type="text/css">
	.st0{fill:#80DE66;}
</style>
<path id="Union_235" class="st0" d="M267.5,0c5.8,0.2,11.6,1.1,17.2,2.6c15.4,3.7,30.8,7.7,46.1,12.4c22.5,7,44.9,15.7,67.4,21.9
	c27.9,7.8,55.9,14.3,83.9,20.4c18.3,4,36.7,6.6,55.1,9.1c14.8,2.1,29.6,3.4,44.6,3.9c22.2,0.4,44.3,0.1,66.5-1
	c17-0.9,33.9-2.7,50.7-5.3c15.8-2.4,31.5-5.9,47.2-9.7c3.3-0.8,3.8,0.5,3.8,6.8c0,35.3,0,70.7,0,106H0L0,53.9
	c7.5,2.9,14.4,5.8,21.5,8.2c20.2,7,40.3,14.4,60.6,20.6c16.1,4.9,32.2,8.9,48.4,12.2c14.4,3,29.1,5.1,43.8,6.1
	c10.6,0.7,21.3-0.7,31.9-2.4c9.7-1.4,18.5-6.1,25-13.5c5.6-6.2,9.5-15.1,9.2-29c-0.1-5.3-0.7-10.5-1.3-15.7
	c-1.7-17.3,1.4-29.2,9.5-35.2c1.6-1.1,3.2-2,5-2.7c4.2-1.7,8.8-2.6,13.3-2.5L267.5,0z"/>
</svg>
