<svg xmlns="http://www.w3.org/2000/svg" xmlns:xlink="http://www.w3.org/1999/xlink" width="266.543" height="196.73" viewBox="0 0 266.543 196.73">
  <defs>
    <clipPath id="clip-path">
      <rect id="Rectangle_4511" data-name="Rectangle 4511" width="239.977" height="118.608" fill="#182e54"/>
    </clipPath>
  </defs>
  <g id="Group_11027" data-name="Group 11027" transform="translate(0 0)">
    <g id="Group_9953" data-name="Group 9953" transform="translate(266.543 110.731) rotate(159)">
      <g id="Group_9952" data-name="Group 9952" transform="translate(0 0)" clip-path="url(#clip-path)">
        <path id="Path_30206" data-name="Path 30206" d="M187.433,34.315c-2.547.836-2.547.836-2.708,3.8A9.6,9.6,0,0,1,180.454,46c-3.872,2.6-7.157,3.8-10.65,3.9-3.776.108-4.617.929-5.011,4.942a2.172,2.172,0,0,0-.016.232,76.867,76.867,0,0,1-1.833,15.05l-.221,1.166a60.951,60.951,0,0,1-6.134,18.317c-3.157,5.79-7.991,10.116-12.665,14.3l-1.137,1.019a20.041,20.041,0,0,1-5.274,3.642c-1.924.836-3.84,1.688-5.756,2.539-2.036.9-4.072,1.811-6.116,2.7a38.886,38.886,0,0,1-8.339,2.534c-.87.161-1.74.33-2.61.5-2.689.525-5.469,1.067-8.237,1.349-4.605.466-9.5.813-14.347-.485-9.639-2.581-17.089-5.6-23.449-9.486-8.238-5.039-14.236-9.883-18.878-15.241-8.263-9.539-12.89-20.2-13.753-31.681-.114-1.526-.386-3.077-.648-4.575l-.058-.329a1.8,1.8,0,0,0-.64-1.225,1.729,1.729,0,0,0-1.311-.175c-3.07.558-5.739-.4-8.8-2.024A6.7,6.7,0,0,1,20.8,48.6c-.393-1.654-1.361-1.965-3.126-1.982a20.6,20.6,0,0,1-13.3-5.1A11.494,11.494,0,0,1,.128,30.872a11.037,11.037,0,0,1,6.683-8.58c.321-.136.642-.286.964-.438a9.2,9.2,0,0,1,2.85-.98c2.325-.248,3.95-1.388,5.436-3.814a14.138,14.138,0,0,1,10.77-6.951,19.073,19.073,0,0,1,6,.485l.7.131c4.708.871,8.013,3.267,9.822,7.12.532,1.135,1.2,1.372,2.559.893.992-.348,2-.661,3-.973.9-.28,1.8-.562,2.7-.868,3.455-1.189,7.932,0,11.137,2.952,2.657,2.449,3.763,5.5,3.033,8.363a1.35,1.35,0,0,0,.093,1.071A1.694,1.694,0,0,0,67,29.939c.734.156,1.5.352,2.283.586a10.248,10.248,0,0,1,6.837,6.265,13.822,13.822,0,0,1,.679,9c-.944,3.746-2.787,8.071-8.692,8.252a1.065,1.065,0,0,0-.846.32A1.2,1.2,0,0,0,67.3,55.4a15.514,15.514,0,0,0,.781,1.65l.214.409a35.392,35.392,0,0,0,6.467,8.266c5.272,5.439,12.089,8.389,22.1,9.562,8.63.508,19.75-6.071,23.758-14.041,3.336-6.633,5.052-13.75,6.411-20.453a2.761,2.761,0,0,0-.778-2.452,12.845,12.845,0,0,1-2.766-7.6,27.152,27.152,0,0,1,3.234-14.621,11.809,11.809,0,0,1,7.749-6.312,2.785,2.785,0,0,0,2.384-2.335c.744-3.45,3.133-5.558,7.3-6.445C149.125-.027,153.2.557,156.6,2.817c1.5.992,2.552.97,3.766-.086C162.253,1.089,164.615.684,166.9.291l.418-.072A14.432,14.432,0,0,1,169.791,0a13.3,13.3,0,0,1,7.849,2.623c2.532,1.793,3.738,4.363,3.8,8.087.018,1.155.522,1.638,1.744,1.662a7.645,7.645,0,0,1,4.619,1.293,17.831,17.831,0,0,1,4.817,5.194,11.835,11.835,0,0,1,.716,9.786,9.347,9.347,0,0,1-5.9,5.669M177.61,14.251a13.339,13.339,0,0,0,.362-3.845c-.217-4.048-3-6.872-6.778-6.872h-.012c-3.909.005-7.652.265-10.464,3.347-.71.778-1.2,1.139-1.726,1.139-.558,0-1.156-.406-2.1-1.158A13.43,13.43,0,0,0,145.6,4.184c-3.342.586-5.213,2.245-5.719,5.072-.414,2.309-1.521,3.352-3.949,3.722-3.283.5-5.691,2.637-7.36,6.53a24.39,24.39,0,0,0-1.656,12.536c.446,3.906,3.595,6.187,8.638,6.259a20.341,20.341,0,0,0,6.257-1.624c1.212-.49,1.989-.761,2.574-.437.533.3.734.986.961,2.321.428,2.53,2.017,3.928,5,4.4a12,12,0,0,0,6.985-.523,2.2,2.2,0,0,1,1.871-.156,2.256,2.256,0,0,1,1.118,1.551,9.552,9.552,0,0,0,.534,1.509c.747,1.548,1.688,2.047,3.051,1.622a13.611,13.611,0,0,1,4.172-.44c.711,0,1.437,0,2.144-.063,5.342-.488,8.587-2.286,10.517-5.832a5.848,5.848,0,0,0,.73-4.532,13.77,13.77,0,0,1-.369-2.354,1.8,1.8,0,0,1,.339-1.369,1.762,1.762,0,0,1,1.253-.585c.334-.031.669-.009,1-.027a7.655,7.655,0,0,0,6.561-3.9,7.775,7.775,0,0,0-.562-7.735c-2.291-3.785-4.436-4.761-8.833-4a5.263,5.263,0,0,0-.53.131,4.551,4.551,0,0,1-.786.172,1.873,1.873,0,0,1-1.706-.452,1.875,1.875,0,0,1-.229-1.724M61.9,31.453a13.009,13.009,0,0,1,.367-1.472c.108-.37.216-.738.3-1.113a7.41,7.41,0,0,0-1.1-5.848,7.55,7.55,0,0,0-5.214-3.09,11.352,11.352,0,0,0-5.715.6c-.748.286-1.494.581-2.238.875-1.295.511-2.633,1.04-3.968,1.515a2.762,2.762,0,0,1-2.315.122,2.58,2.58,0,0,1-1.064-1.892c-.846-3.975-3.3-6.24-7.95-7.342-5.51-1.3-9.588-.314-12.84,3.11a9.5,9.5,0,0,0-2.068,2.824c-.986,2.526-2.861,3.813-5.9,4.051a11.683,11.683,0,0,0-5.078,1.952,8.213,8.213,0,0,0-3.949,5.82A7.2,7.2,0,0,0,5.015,37.53C8.638,41.5,12.8,43.5,17.429,43.5a17.163,17.163,0,0,0,2.39-.172c1.363-.2,2.3-.285,2.909.2.562.445.735,1.283.862,2.673A5.232,5.232,0,0,0,26.9,50.75a12.583,12.583,0,0,0,10.066.3,5.338,5.338,0,0,0,3.14-3.3c.121-.313.233-.628.346-.944.182-.512.37-1.042.6-1.554a1.551,1.551,0,0,1,1.729-.927,1.572,1.572,0,0,1,1.2,1.071l.045.118a2.166,2.166,0,0,1,.169.607c.206,2.5,1.589,3.941,4.624,4.815l.187.054c2.375.682,4.618,1.329,6.749-.413,1.432-1.173,2.522-.4,3.312.4,1.965,1.98,2.283,2,4.883.287a3.693,3.693,0,0,1,3.135-.336c2.383.605,4.158-.316,5.584-2.9a10.872,10.872,0,0,0-.023-11.088c-1.525-2.7-4.072-3.9-7.565-3.581-.134.018-.267.039-.4.061a6.767,6.767,0,0,1-.951.106,1.832,1.832,0,0,1-1.514-.553,1.778,1.778,0,0,1-.318-1.517M160.61,49.8l-.277-.142c-.691-.353-1.474-.754-1.711-1.4-.8-2.191-2.227-2.147-4.474-1.808a5.489,5.489,0,0,1-.829.057c-.408,0-.815-.034-1.214-.067-.333-.027-.668-.054-1-.061-1.557-.034-1.623.021-1.676,1.489-.023.638-.037,1.276-.051,1.912a41.892,41.892,0,0,1-.43,6.089,84.107,84.107,0,0,1-9.081,26.745c-4.453,8.067-11.408,14.056-20.672,17.8A64.348,64.348,0,0,1,97,104.842c-8.675.253-15.811-1.161-21.81-4.363-7.119-3.8-11.972-7.866-15.27-12.8-1.795-2.684-3.67-5.629-5.9-9.268a46.582,46.582,0,0,1-6.626-20.2c-.053-.565-.143-1.128-.232-1.69l-.093-.593a3.431,3.431,0,0,0-2.191-3.02,8.521,8.521,0,0,1-1.969-1.285c-.206-.163-.411-.327-.619-.48-3.295,1.662-3.784,3.936-3.522,7.514.721,9.9,4.062,19.143,10.213,28.256a41.956,41.956,0,0,0,9.595,9.913c.282.216.566.427.85.638.689.51,1.4,1.039,2.062,1.614,6.782,5.9,15.137,10.3,25.542,13.457,4.512,1.365,9.89,2.72,15.552,2.384,1-.058,2.014-.187,2.992-.311.536-.068,1.071-.136,1.609-.194,9.138-.979,18.227-3.829,28.6-8.966l.156-.077a6.3,6.3,0,0,0,.956-.538c7.4-5.385,14.8-11.636,18.786-20.826,1.983-4.567,2.938-9.5,3.862-14.266l.269-1.379A117.372,117.372,0,0,0,161.3,56.584c.133-1.45.266-2.9.419-4.349A2.109,2.109,0,0,0,160.61,49.8M61.575,55.7a26.213,26.213,0,0,0-8.854-.833c-.446.008-.892.018-1.34.023-.8.01-1.333.063-1.534.3-.172.2-.2.635-.089,1.413l.091.651c.6,4.3,1.221,8.745,3.043,12.8a76.928,76.928,0,0,0,10.041,16.7C68.371,93.506,75,97.893,82.635,99.785a59.147,59.147,0,0,0,13.148,1.827c10.183-.465,18.205-2.206,25.248-5.481,8.681-4.036,15.1-10.928,19.084-20.481,3.372-8.085,5.326-14.836,6.15-21.247a46.106,46.106,0,0,0,.238-6.157c0-.588-.008-1.177,0-1.765,0-.711-.081-1.211-.514-1.507a12.413,12.413,0,0,1-3.911-4.212c-.214-.382-.565-.415-1.393-.142a15.906,15.906,0,0,1-5.066.76,26.114,26.114,0,0,1-3.315-.227c-1.288-.164-1.813.222-2.149,1.6-.278,1.144-.539,2.294-.8,3.446a65.358,65.358,0,0,1-3.414,11.64c-2.266,5.222-4.893,10.617-9.861,14.153-7.079,5.036-13.527,7.162-20.32,6.687a39.5,39.5,0,0,1-15.3-4.589A34.04,34.04,0,0,1,65.244,58.5c-.825-1.644-1.882-2.235-3.669-2.805" transform="translate(14.39 0)" fill="#182e54"/>
        <path id="Path_30207" data-name="Path 30207" d="M16.7,2.684A15.642,15.642,0,0,0,10.2,9.341l-.715,1.246c-3.219,5.6-6.548,11.4-7.077,18.554l-.05.665-.6-.493c-1.868-1.529-2-1.689-1.533-3.527A65.305,65.305,0,0,1,11.162,3.444,9.7,9.7,0,0,1,15.511.18,2.227,2.227,0,0,1,16.348,0a1.236,1.236,0,0,1,1.086.57,1.313,1.313,0,0,1,.211,1.085A1.721,1.721,0,0,1,16.7,2.684" transform="translate(7.493 5.915)" fill="#182e54"/>
        <path id="Path_30208" data-name="Path 30208" d="M12.015,2.38c-2.479,1.522-3.781,4-5,6.611l-.142.3c-.459.981-.933,1.994-1.353,3.005l-.139.337a36.642,36.642,0,0,0-2.563,7.747c-.106.619-.267,1.552-1.353,1.758l-.057.012-.058-.01a1.386,1.386,0,0,1-1.245-1,3.4,3.4,0,0,1,.2-2.155l.234-.663c.431-1.22.877-2.481,1.355-3.71A74.7,74.7,0,0,1,6.558,4.3,9.782,9.782,0,0,1,10.605.219,1.927,1.927,0,0,1,11.461,0a1.336,1.336,0,0,1,1.087.535,1.106,1.106,0,0,1,.253.89,1.512,1.512,0,0,1-.787.955" transform="translate(0 6.015)" fill="#182e54"/>
        <path id="Path_30209" data-name="Path 30209" d="M3.929,20.246c-.791,1.192-1.579,1.082-2.1.777-.875-.51-.473-1.407-.239-1.93l.2-.443A9.492,9.492,0,0,0,2.959,14.5C2.858,10.555,2.476,7.312.943,4.3A6.8,6.8,0,0,1,0,1.329C-.013.561.374.052,1.01,0a.764.764,0,0,1,.083,0A1.391,1.391,0,0,1,2.222.527a14.292,14.292,0,0,1,1.4,2.65,45.756,45.756,0,0,1,2.093,10.3l0,.031,0,.03a13.185,13.185,0,0,1-1.792,6.7" transform="translate(214.594 11.505)" fill="#182e54"/>
        <path id="Path_30210" data-name="Path 30210" d="M2.048,19.261a1.227,1.227,0,0,1-1.629-.05,1.269,1.269,0,0,1-.2-1.653c.585-.925,1.371-2.137,2.262-3.306,2.854-3.745,3.311-7.375,1.394-11.1L3.72,2.875a2.66,2.66,0,0,1-.3-2.659L3.5.047,3.682.021A2.475,2.475,0,0,1,4,0,1.892,1.892,0,0,1,5.657,1.1l.079.122c3.6,5.439,1.77,14.374-3.689,18.038" transform="translate(232.38 23.514)" fill="#182e54"/>
        <path id="Path_30211" data-name="Path 30211" d="M34.1,47.534c7.231.89,16.6,1.143,24.821-4.884,1.1-.807,2.247-1.591,3.355-2.35,1.139-.781,2.319-1.59,3.449-2.42a11.393,11.393,0,0,0,1.733-1.723l.3-.347c2.982-3.367,5.074-7.644,6.583-13.462A85.741,85.741,0,0,0,77.231,2.741c0-.116,0-.234,0-.352A2.6,2.6,0,0,1,77.658.618a1.833,1.833,0,0,1,1.022-.59A1.333,1.333,0,0,1,78.942,0,1.241,1.241,0,0,1,80.12.868a3.761,3.761,0,0,1,.163,1.43,102.434,102.434,0,0,1-3.976,23.618C74.064,33.175,70.5,38.451,65.4,42.046c-2.249,1.586-4.624,3.062-6.921,4.49q-1.16.719-2.317,1.446a20.36,20.36,0,0,1-7.943,2.713,41.533,41.533,0,0,1-15.322-.065,16.769,16.769,0,0,0-2.255-.319,17.871,17.871,0,0,1-6.481-1.841A39.51,39.51,0,0,1,10.4,37.484,53.227,53.227,0,0,1,.375,17.626l-.067-.235c-.3-1.047-.673-2.349.454-3.433l.135-.13.183.041a1.914,1.914,0,0,1,1.51,1.8,28.224,28.224,0,0,0,1.636,5.24c.17.442.34.883.5,1.326A47.657,47.657,0,0,0,15.489,38.7c4.8,4.994,10.886,7.885,18.613,8.838" transform="translate(71.858 41.634)" fill="#182e54"/>
      </g>
    </g>
    <path id="Union_21" data-name="Union 21" d="M41.818,0c-.113.063,3.053,5.86,6.062,11.427l.738-.4-.575-1.006C45.172,5.014,42.212,0,41.834,0A.027.027,0,0,0,41.818,0Zm1.229,0c-.063.037,2.963,5.629,5.812,10.9l.5-.267c-.213-.384-.427-.772-.642-1.159C46.094,4.739,43.463,0,43.067,0A.044.044,0,0,0,43.048.006ZM40.491.342c-.229.126,3.047,6.11,6.152,11.756l.69-.373-.437-.771C43.884,5.645,40.838.338,40.5.338A.027.027,0,0,0,40.491.342ZM50.07,10.25l.864-.466L45.514.667C45.341.764,47.736,5.584,50.07,10.25ZM45.725.742C45.6.813,47.718,4.334,50,8.1,47.893,4.312,45.922.74,45.73.74Zm.585.659s2.57,4.179,4.969,8.2l.04-.021a95.177,95.177,0,0,0-5-8.179Zm-7.233.256c-.43.241,2.8,5.774,6.044,11.261l.644-.347c-3.121-5.379-6.4-10.917-6.68-10.916Zm-1.033,0,6.142,11.764.513-.277c-.068-.121-.137-.242-.2-.364C41.352,7.22,38.263,1.658,38.048,1.659Zm9.744.542a75.228,75.228,0,0,0,3.7,7.285l.354-.191c-.212-.37-.426-.745-.639-1.121C49.507,5.187,47.853,2.2,47.787,2.2ZM45.8,12.555l.4-.216-5.9-9.926C40.152,2.493,42.955,7.532,45.8,12.555ZM18.23,2.45c-.113.064,3.053,5.86,6.062,11.427l.233-.126,3.933,7.534.513-.276-.2-.363c-1.422-2.519-2.833-5.038-3.972-7.041l.235-.127q-.286-.5-.575-1.006C21.585,7.459,18.625,2.446,18.247,2.446A.041.041,0,0,0,18.23,2.45Zm1.23,0c-.05.029,1.741,3.366,3.871,7.31a22.416,22.416,0,0,0,1.8,3.664l-.1.054c1.663,2.913,3.235,5.711,4.187,7.4l-.247.133c3.125,5.53,6.24,10.941,6.568,10.756.3-.166-2.932-5.553-6.144-10.985l-.1.052c-.339-.64-.766-1.435-1.248-2.332.441.752.893,1.516,1.345,2.28l.582-.313a8.609,8.609,0,0,0,.51.74c.674,1.164,1.333,2.307,1.945,3.372-.591-1.038-1.222-2.147-1.86-3.273.068.072.118.1.145.088a5.452,5.452,0,0,0-.457-1.079l.208-.112-1.479-2.489c-.729-1.468-1.612-3.231-2.506-5.018l-.36.195-1.554-2.614a17.915,17.915,0,0,0,1.36,2.718l-.163.088c.236.425.47.847.7,1.262-.259-.433-.507-.847-.744-1.239l.044-.023c-.212-.385-.427-.772-.64-1.16-2.621-4.737-5.254-9.475-5.647-9.475A.035.035,0,0,0,19.461,2.452ZM52.03,9.194l.265-.143c-1.61-2.758-3.554-6.289-3.554-6.289C48.52,2.885,50.321,6.181,52.03,9.194ZM16.9,2.787c-.205.115,2.423,4.967,5.213,10.049.237.509.526,1.1.856,1.752l-.366.2L26.953,22.1l-.375.2c3.269,5.716,6.569,11.775,6.569,11.775.287-.161-2.981-6.07-6.142-11.889l1.343,2.259A16.911,16.911,0,0,0,27.135,22l.826-.445a15.3,15.3,0,0,0,1.56,2.458c.018-.01.006-.07-.032-.173,2.555,4.535,4.729,8.509,4.74,8.5l-5.77-11.055-.167.09c-1-1.926-2.478-4.684-4-7.5l-.453.244c-.42-.682-.8-1.285-1.133-1.782-2.8-4.933-5.479-9.555-5.791-9.554A.021.021,0,0,0,16.9,2.787Zm20.271.192c-.42.235,2.484,5.688,5.506,11.253l1.183-.637C40.83,8.261,37.7,2.972,37.2,2.973A.059.059,0,0,0,37.176,2.979ZM26.483,12.7l.367-.2c1.147,2.147,2.626,4.841,4.067,7.462l.692-.373q-.217-.385-.437-.771l-.322-.567c.213.33.395.6.54.786l.3.508-.082.044c.089.157.178.313.266.469l-.216.116c.684,1.166,2.5,4.264,2.527,4.251a1.492,1.492,0,0,0-.138-.538,53.864,53.864,0,0,0,3.332,5.544c.161-.091-2.175-4.482-4.764-9.277-.054-.136-.108-.272-.163-.41l-.045.024-.256-.474-.187.1c-.29-.527-2.208-4.013-4.066-7.463l-.171.093c2.018,3.477,3.942,6.854,4.236,7.371l-.239.129c-.025-.059-.063-.136-.111-.23.06.054.1.075.13.06.183-.1-1.865-3.639-4.055-7.309l-.278.149-1-1.65q.151.269.3.537c-.49-.821-.913-1.507-1.239-2L21.928,3.114C21.755,3.209,24.149,8.03,26.483,12.7ZM22.138,3.187c-.128.072,1.992,3.592,4.274,7.358-2.107-3.786-4.076-7.36-4.269-7.359Zm.585.659s2.569,4.18,4.969,8.2l.039-.021a95.506,95.506,0,0,0-5-8.179S22.724,3.845,22.723,3.846ZM15.49,4.1c-.432.242,2.8,5.774,6.043,11.262l.116-.062.93,1.83-1.046-1.767-.423.228c1.522,2.7,3.043,5.364,4.24,7.368l-.285.154C28,28.238,31.027,33.758,31.027,33.758l-4.559-8.972c.656,1.032,1.1,1.626,1.209,1.563.15-.084-.618-1.533-1.835-3.654l.185-.1c-1.669-2.851-3.278-5.622-4.278-7.348l.072-.039c1.133,1.925,2.741,4.6,4.363,7.3l.228-.123c.92,1.607,1.519,2.647,1.519,2.647s-.59-1.037-1.513-2.651l.16-.086c-1.578-2.759-3.147-5.438-4.335-7.318l.364-.2-5.9-9.927c-.137.076,2.428,4.7,5.139,9.5-.146-.225-.284-.434-.414-.626C18.554,8.793,15.753,4.1,15.5,4.1,15.494,4.1,15.491,4.1,15.49,4.1Zm-1.034,0,5.782,11.079c-.325-.445-.546-.678-.627-.632l.763,1.438-.1.052.073.13c.689,1.213,1.373,2.426,2.019,3.576L24.358,23.5l.078-.042c1.156,2.082,1.923,3.476,1.932,3.471L24.529,23.4l.536-.289c-1.682-2.931-3.337-5.731-4.382-7.293l.427-.229-.205-.362C17.765,9.666,14.675,4.1,14.461,4.1Zm21.514.4c-.113.064,2.888,5.064,5.938,10.145l.395-.212C39.383,9.331,36.49,4.5,36,4.5A.065.065,0,0,0,35.97,4.5ZM24.2,4.646a75.752,75.752,0,0,0,3.7,7.285l.213-.114c1.134,2.113,2.6,4.821,4.04,7.477l.1-.053c.066.167.135.335.2.5l.705-.38c2.555,4.481,4.825,8.561,4.849,8.548s-.554-1.119-1.455-2.8c-.443-1.039-1.718-3.572-2.954-5.981l-.21.113-.256-.474-.237.128q-.135-.234-.267-.458c-.1-.183-.208-.364-.312-.546-1.3-2.269-2.616-4.538-3.7-6.341l.095-.051c-1.61-2.758-3.554-6.289-3.554-6.289-.146.081.586,1.539,1.591,3.386-.35-.5-.581-.769-.652-.728-.009,0,0,.039.024.1-1.06-1.88-1.872-3.32-1.917-3.319ZM52.736,8.813l.42-.227a33.592,33.592,0,0,1-2.108-3.548A24.632,24.632,0,0,0,52.736,8.813ZM13.587,5.425c-.419.235,2.485,5.689,5.508,11.254l.268-.144c.837,1.61,2.33,4.488,3.9,7.549l.644-.346c-1.746-2.977-3.4-5.762-4.37-7.3l.738-.4C17.242,10.71,14.11,5.417,13.613,5.418A.062.062,0,0,0,13.587,5.425Zm27.639,9.592.526-.284c-2.734-4.672-5.309-9.125-5.309-9.125ZM35.337,6.689l4.747,8.943.705-.38c-2.544-4.433-5.026-8.569-5.43-8.568A.051.051,0,0,0,35.337,6.689ZM12.38,6.951c-.111.063,2.889,5.064,5.941,10.145l.394-.212c-2.92-5.106-5.813-9.941-6.306-9.94A.059.059,0,0,0,12.38,6.951Zm22.014.393s2.205,4.23,4.6,8.879l.644-.347C37,11.393,34.578,7.342,34.4,7.342Zm-6.68.893c-.2-.266-.334-.4-.392-.366-.031.018.692,1.393,1.776,3.416l-.391.211a16.436,16.436,0,0,0,2.1,3.213c.031-.018-.389-.878-.939-2,.981,1.825,2.14,3.966,3.27,6.055l.22-.119c.082.16.165.319.246.48l.292-.157c2.329,4.21,4.44,7.979,4.687,7.839,0,0,0-.008,0-.018.4.7.645,1.119.645,1.119l-.863-1.662c-.563-1.241-2.132-4.366-3.776-7.653l.18-.1-.275-.464.718-.386L29.788,8.529a72.114,72.114,0,0,0,3.542,7.55L31.321,12.7l2.859,5.5-.456.247c-.621-1.052-1.2-2.026-1.678-2.81-.922-1.663-1.812-3.253-2.567-4.557l.09-.048a33.407,33.407,0,0,1-2.108-3.546C27.418,7.511,27.521,7.794,27.714,8.236ZM17.638,17.464l.145-.077c.8,1.632,2.365,4.5,4.033,7.48l.533-.288L18,17.268l.163-.088c-2.734-4.672-5.309-9.127-5.309-9.127ZM50.405,8.828l.533.955,0,0,.1.174c1.3,2.327,2.558,4.527,3.377,5.807l1.035,1.943.428-.23c-.207-.359-.413-.716-.616-1.064-.667-1.214-2.24-4.083-3.771-6.928l-.171.092c1.375,2.37,2.706,4.693,3.509,6.1q-.215-.363-.419-.7c-.771-1.388-1.929-3.36-3.13-5.372L51,9.75,50,8.1C50.135,8.342,50.27,8.585,50.405,8.828ZM35.325,13a31.993,31.993,0,0,0,1.428,3.152,53.021,53.021,0,0,0-3.492-5.9c-.049.027,1.6,2.778,3.61,6.137l.141.285.023-.012.111.186c-.036-.063-.071-.126-.106-.189l.235-.127.263.471.534-.289-5.1-8.577C32.811,8.23,33.845,10.268,35.325,13ZM56.489,8.243c-.068.038,1.856,3.552,3.687,6.926l.448-.241-.351-.611C58.525,11.277,56.728,8.24,56.5,8.24Zm.744,0c-.038.022,1.8,3.413,3.536,6.606l.3-.161-.391-.7c-1.592-2.873-3.192-5.745-3.433-5.745Zm-1.549.2a78.116,78.116,0,0,0,3.741,7.126l.42-.226-.266-.468a61.463,61.463,0,0,0-3.888-6.435ZM30,8.605c-.13.072,2,3.61,4.292,7.388C32.18,12.195,30.2,8.6,30.007,8.6Zm31.5,5.851.522-.281L58.731,8.647C58.627,8.706,60.084,11.628,61.5,14.456ZM58.861,8.694c-.078.043,1.206,2.169,2.591,4.449-1.278-2.292-2.473-4.451-2.588-4.451Zm-6.566.357a16.485,16.485,0,0,0,2.1,3.211c.044-.025-.8-1.712-1.654-3.449Zm6.92.04s1.562,2.535,3.021,4.972l.023-.013A57.665,57.665,0,0,0,59.218,9.09Zm-47.466.044L16.5,18.08l.7-.38c-2.544-4.434-5.025-8.572-5.429-8.57A.046.046,0,0,0,11.749,9.135Zm40.095.159c.563.985,1.111,1.929,1.583,2.717l2.715,5.324.319-.171c-.938-1.6-1.846-3.156-2.459-4.208.242.386.445.7.6.9.584.979,1.269,2.114,1.956,3.256l.237-.128a50.956,50.956,0,0,0-3.713-5.954c-.333-.578-.689-1.2-1.05-1.838Zm2.983-.053c-.262.146,1.7,3.5,3.676,6.827l.391-.21A75.583,75.583,0,0,0,54.832,9.24Zm-.626,0,3.734,7.129.311-.167-.125-.219c-1.909-3.374-3.788-6.744-3.917-6.744Zm-23.615.019S32.161,11.826,34,14.87c.393.843.832,1.773,1.29,2.735l-.014.007c-.325-.538-.654-1.08-.98-1.618.129.232.259.464.388.7l.532.954,0,0,.133.224.136.243-.711.383,5.146,8.66s-2.095-4.267-4.074-8.4c1.456,2.586,2.782,4.87,3.413,5.692l.37.624c.022-.013-.03-.141-.145-.364.061.055.1.076.131.061.174-.1-1.7-3.346-3.779-6.845l.035-.019c2.089,3.607,4,6.972,4,6.972s-1.914-3.472-3.848-7.055l.142-.076-.268-.469.226-.122c-.212-.37-.426-.746-.64-1.122-1.7-3-3.368-6-3.418-5.973a14.421,14.421,0,0,0,1.2,2.578c-.535-.948-.867-1.534-.874-1.53a18.021,18.021,0,0,0,1.25,2.994,42.641,42.641,0,0,0-3.05-4.842Zm29.525.315a45.961,45.961,0,0,0,2.252,4.417l.216-.116c-.129-.224-.26-.452-.39-.68-1.03-1.811-2.039-3.623-2.077-3.623Zm-1.2,6.272.242-.131L55.567,9.7C55.48,9.749,57.185,12.8,58.912,15.849ZM10.806,9.789s2.207,4.231,4.6,8.88l.645-.347c-2.63-4.483-5.056-8.534-5.236-8.534Zm51.887,4.028.16-.085c-.979-1.672-2.161-3.813-2.161-3.813A22.849,22.849,0,0,0,62.692,13.817Zm-9.019-3.776c-.253.142,1.513,3.448,3.351,6.821l.717-.384c-1.847-3.234-3.75-6.441-4.052-6.44A.036.036,0,0,0,53.674,10.041Zm-4.319.6c1.923,3.478,3.741,6.745,4.544,7.886l.009.015h0c.206.292.343.439.4.41a1.766,1.766,0,0,0-.2-.517l.121-.065-.744-1.247c-.8-1.658-2.1-4.237-3.415-6.866Zm-35.4,8.815.535-.288-5.1-8.579C9.149,10.716,11.436,14.953,13.951,19.452ZM36.3,17.057l.266-.144c-1.61-2.757-3.553-6.29-3.553-6.29C32.795,10.748,34.6,14.044,36.3,17.057Zm.317-.171-.052.028c.092.158.183.314.272.465l-.271.147-.267-.469-.186.1c.09.157.179.314.268.468l-.226.123c.247.435.5.876.752,1.316,2.315,4.038,4.7,8.079,4.93,7.95.274-.154-1.444-3.434-3.424-7,2.536,4.38,5.08,8.65,5.292,8.532.077-.043-.146-.545-.572-1.358.262.373.438.567.5.531,0,0-3.2-5.529-6.1-10.71l-.227.122-.165-.277c.052.094.1.188.157.282l-.055.029q-.119-.24-.237-.484l-.355.191C34.8,13.6,33.166,10.8,33.166,10.8S34.712,13.551,36.622,16.886Zm12-5.853c1.854,3.247,3.6,6.352,4.49,7.933l-.038.021c.15.264.3.531.458.8a35.815,35.815,0,0,0,3,4.82c.166-.093-.879-2.08-2.081-4.243a44.033,44.033,0,0,0,3.216,5.17c.047-.026-.089-.331-.349-.823.159.225.267.343.3.321,0,0-1.947-3.352-3.71-6.492l-.139.074c-.038-.065-.077-.129-.115-.193.036.065.073.13.11.2l-.23.124c-1.192-2.1-2.284-3.962-2.284-3.962s1.03,1.826,2.265,3.973l-.34.183c-.848-1.613-2.547-4.757-4.314-8.027Zm14.5,2.555.255-.138A20.2,20.2,0,0,1,62.093,11.3,14.79,14.79,0,0,0,63.12,13.588ZM47.334,11.725c1.74,3.068,3.427,6.05,4.524,7.912l-.1.053c1.448,2.454,3.179,5.455,3.179,5.455l-1.883-3.611c.025.027.043.038.052.032a9.75,9.75,0,0,0-.947-2.091l.065-.035-.636-1.067c-.982-1.881-2.33-4.387-3.71-6.941Zm-1.14.614,4.546,7.648c.027.069.055.137.083.206l.029-.016L51.936,22a11.456,11.456,0,0,0-.926-1.906l.245-.131a12.717,12.717,0,0,0-1.46-2.283s.109.263.277.672c-.955-1.759-2.178-3.979-3.429-6.252Zm-.431.232c.847,1.458,1.68,2.9,2.439,4.225-.759-1.332-1.585-2.786-2.407-4.241Zm6.228.112s1.341,2.563,2.795,5.381l.391-.21c-1.6-2.717-3.073-5.173-3.183-5.172ZM9.674,12.7c-.052.029,1.759,3.035,3.887,6.6A68.312,68.312,0,0,0,9.68,12.7Zm35.023.447c3.123,5.53,6.24,10.94,6.568,10.755.294-.165-2.933-5.551-6.146-10.983Zm17.007.448.325.58h0l.067.113c1,1.781,1.953,3.438,2.386,4l.229.387c.014-.008-.019-.087-.09-.225.038.035.066.049.083.04a35.224,35.224,0,0,0-2.466-4.43l-.17.091-.614-1.01ZM13.3,19.8l-.666.359c-.194-.348-.341-.618-.341-.618-.023.013.025.155.122.379-1.931-3.388-3.6-6.375-3.614-6.366a68.452,68.452,0,0,0,3.13,6.984l.084-.045c.277.5.58,1.041.878,1.564l.16-.085c-.293-.5-.6-1.042-.9-1.556l.386-.208c.2.437.488,1.033.777,1.62l.142-.076c1.027,1.791,2.061,3.565,2.9,4.959.119.293.239.594.36.9l.141-.076c.758,1.221,1.284,1.984,1.387,1.927.136-.076-.223-.929-.862-2.209l.048-.025-.511-.882c-.592-1.138-1.326-2.49-2.1-3.888.959,1.657,1.92,3.3,2.754,4.692l-.143.077c.231.4.468.818.7,1.234,1.426,2.508,2.809,5.018,2.839,5a19.674,19.674,0,0,0-1.424-3.142c.311.456.511.7.563.673.077-.044-.146-.546-.572-1.359.262.373.438.567.5.531,0,0-.775-1.339-1.909-3.315l.131-.071c-1.252-2.126-2.376-4-2.894-4.783-.474-.839-.956-1.695-1.43-2.541l-.227.122c-.056-.092-.109-.183-.164-.274l.156.278-.382.206c-1.96-3.467-3.756-6.536-3.756-6.536S11.272,16.259,13.3,19.8ZM43.864,13.6c.023.043.049.086.073.13,3.061,5.382,6,10.76,6.017,10.751l-5.77-11.054Zm18.988.136a9.992,9.992,0,0,0,1.273,1.947c.026-.016-.487-1.038-1.006-2.091Zm-.273.146a18.1,18.1,0,0,0,1.848,2.938s-.847-1.436-1.734-3Zm-.319.171c1.334,2.29,2.6,4.509,2.6,4.509s-1.27-2.295-2.5-4.565ZM42.3,14.437c3.269,5.717,6.569,11.776,6.569,11.776.29-.163-3.016-6.133-6.19-11.98Zm9,.008c-.031.017,1.061,1.823,2.347,3.973a41.629,41.629,0,0,0-2.343-3.974Zm9.762.245c1.48,2.664,2.854,5.124,3.01,5.037.062-.035-1.239-2.611-2.574-5.271Zm-19.316.043c3.036,5.188,6.271,10.644,6.4,10.571s-3.089-5.4-6.243-10.655Zm18.872.195c1.617,2.826,3.095,5.475,3.109,5.466.032-.017-1.423-2.7-2.964-5.543Zm-9.847.034a42.137,42.137,0,0,0,1.905,4.232l.388-.208c-1.212-2.118-2.28-4.024-2.293-4.024Zm-9.988.29c2.94,5.123,5.964,10.642,5.964,10.642L41.226,15.017ZM10.843,21.127l.063-.034c.262.524.533,1.066.8,1.6l.39-.209L16.326,29.6l-.679-1.387a13.853,13.853,0,0,1,.926,1.562,13.47,13.47,0,0,0,.918,1.572s-1.159-2.27-1.625-3.279l-.229.124c-.207-.423-.451-.925-.724-1.484a5.3,5.3,0,0,0-.493-1.014l-.068-.14c.434.754.712,1.243.712,1.243s-.378-.684-.921-1.673c-.452-.932-.94-1.944-1.434-2.968l.073-.04c-.129-.224-.259-.452-.389-.68l-.186-.326-.274-.575-.039.021c-.84-1.482-1.554-2.756-1.579-2.742a22.611,22.611,0,0,0,1.4,2.837l-.163.088A30.879,30.879,0,0,0,9.42,17.332s.97,1.573,2.095,3.434l-.155.083a39.389,39.389,0,0,0-2.3-3.915,43.986,43.986,0,0,0,2.275,3.926l-.026.015L8.937,16.888a2.774,2.774,0,0,0,.309.8L7.734,15.146Zm49-5.781c1.753,3.082,3.414,6.019,3.509,5.965s-1.5-3.041-3.179-6.143Zm-.691.371,3.491,5.855c.076-.042-1.53-2.939-3.22-6Zm-19.521.158c3.257,5.551,6.824,11.764,6.824,11.764L40.084,15.632Zm19.261-.018c.5.857.99,1.707,1.439,2.487-.449-.787-.937-1.641-1.421-2.5Zm-.647.348c1.9,3.354,3.793,6.634,3.992,6.521.179-.1-1.782-3.367-3.735-6.659ZM7.224,16.195s1.37,2.61,2.79,5.379l.105-.057c.282.52.57,1.049.854,1.574l.3-.161-.392-.7q-.239-.434-.479-.864l.009,0-.2-.332a29.825,29.825,0,0,0-2.761-4.544c-.126-.187-.207-.291-.229-.29Zm30.849.521,6.819,11.473c.158-.089-3.008-6.335-5.9-11.966Zm19.669-.239.045.08c1.86,3.259,3.649,6.521,3.659,6.516l-3.51-6.7Zm-51.048.006c-.045.026.8,1.608,1.915,3.663a8.656,8.656,0,0,0-1.432-2.105s.322.78.77,1.876A19.225,19.225,0,0,0,5.89,16.687a50.912,50.912,0,0,0,2.877,5.56l-.325.175L5.77,17.942c-.07.039,1.086,2.141,2.466,4.59l-.04.022a47.349,47.349,0,0,0-3.163-5.072c-.221.123,1.146,2.535,2.766,5.287l-.038.021c.021-.012.09.079.189.237l.307.52c.134.234.282.5.432.773l-.237.127c1.9,3.354,3.794,6.634,3.992,6.521.16-.088-1.363-2.665-3.072-5.542-.156-.31-.367-.727-.583-1.16l.191-.1c.757,1.283,1.605,2.715,1.622,2.706s0-.1-.047-.255c1.127,1.972,2.014,3.51,2.041,3.557-.026-.047-.9-1.576-2.041-3.558-.095-.319-.312-.91-.59-1.639l2.886,4.839c.076-.042-1.529-2.939-3.22-6l-.1.053-.322-.812.419.76.421-.225-.267-.468c-.207-.364-.414-.728-.62-1.088l.362-.195.854,1.573.086-.046c1.359,2.4,2.627,4.7,2.655,4.678a39.263,39.263,0,0,0-2.294-4.872h0l0-.008c-.267-.524-.539-1.058-.811-1.587l-.078.043A36.841,36.841,0,0,0,6.7,16.481Zm43.127.076s.834,1.582,1.7,3.26l.242-.13c-1-1.7-1.869-3.131-1.937-3.13Zm-31.105.324c1.486,2.6,2.979,5.27,4.165,7.409l-.192.1c-1.184-2-2.781-4.663-4.366-7.3l-.156.084C19.7,19.8,21.284,22.491,22.493,24.5l-.145.078L29.167,36.05c.158-.088-3.007-6.334-5.9-11.966l-.123.067C22,22,20.533,19.329,19.095,16.679Zm31.571,3.56.015.03h0l1.214,2.118s-.462-.813-1.208-2.121l.033-.018-.156-.265a.647.647,0,0,0,.073.2c-.558-.976-1.266-2.213-2.056-3.586C49,18.194,49.722,19.457,50.286,20.444Zm6.507-3.458c1.988,3.466,4,7.139,4,7.139.175-.1-1.834-3.718-3.765-7.264Zm-.332.178c1.847,3.145,3.813,6.452,3.891,6.408s-1.878-3.275-3.8-6.458Zm-.584.313c1.788,3.1,3.627,6.451,3.627,6.451l-3.362-6.593ZM17.2,17.7c1.51,2.63,3.041,5.366,4.174,7.4l-.177.1c-1.96-3.467-3.756-6.536-3.756-6.536s1.693,3.011,3.724,6.553l-.685.369L16.5,18.08l-.45.243c.332.565.667,1.138,1,1.711.548,1.272,1.609,3.534,2.749,5.922l.526-.284c1.489,2.575,2.547,4.416,2.547,4.416l-1.624-3.06c2.3,4.006,4.646,7.975,4.874,7.847.273-.153-1.448-3.435-3.427-7.006,2.535,4.381,5.081,8.655,5.295,8.536.076-.043-.146-.547-.575-1.362.264.375.439.57.5.534,0,0-3.2-5.528-6.1-10.71l-.228.123-.175-.291c.056.1.11.2.166.3l-.092.049-.749-1.476c.221.368.446.747.675,1.131-.373-.668-.737-1.319-1.083-1.934l-2.692-5.3Zm-12.8-.215L8.14,24.614l.311-.167c-.042-.073-.083-.146-.124-.22-1.91-3.373-3.789-6.744-3.918-6.744Zm50.771.37c1.979,3.365,4.148,7.131,4.148,7.131l-3.876-7.277Zm-.947.509,4.146,6.955c.1-.053-1.829-3.84-3.59-7.254ZM3.879,18.282c-.254.142,1.513,3.448,3.35,6.821l.717-.384C6.1,21.483,4.2,18.277,3.895,18.278A.034.034,0,0,0,3.879,18.282ZM62.39,21.93c-.026-.047-.906-1.59-2.057-3.585C61.467,20.33,62.363,21.883,62.39,21.93Zm-47.9-2.767L17.538,24.3,18.7,26.543l.127-.068,2.472,4.16a8.013,8.013,0,0,0-.7-1.652l3.59,6.037s-2.326-4.737-4.394-9.064l-.541.291c-1.1-2.2-2.507-4.957-3.854-7.577Zm37.739.276,3.129,5.25s-1.415-2.873-2.672-5.5ZM3.148,19.2c-.068.039,1.756,3.071,3.612,6.151L7,25.227C5.224,22.13,3.464,19.2,3.166,19.2A.039.039,0,0,0,3.148,19.2Zm28.443,1.005.068-.037-.256-.437A1.886,1.886,0,0,0,31.592,20.209Zm19.663-.248c.142.245.285.5.429.748.867,1.521,1.708,3.042,1.727,3.03a38.43,38.43,0,0,0-1.893-3.919ZM6.347,25.577l.318-.171C5,22.573,3.437,19.872,3.437,19.872ZM30.469,20.2l5.741,9.66c.128-.072-2.514-4.851-5.292-9.9Zm19.873.249c.416.708,1.523,2.585,1.539,2.576a26,26,0,0,0-1.058-2.834Zm-19-.11a9.335,9.335,0,0,1,.95,1.574,13.258,13.258,0,0,0,.92,1.574s-1.159-2.271-1.625-3.281Zm18.8.212a5.553,5.553,0,0,1,.577.955,8.172,8.172,0,0,0,.56.953s-.705-1.376-.987-1.987ZM2.767,20.528l2.888,5.421.428-.23c-1.548-2.687-3.057-5.194-3.3-5.194A.031.031,0,0,0,2.767,20.528Zm-.571.4S3.537,23.487,4.99,26.3l.392-.209c-1.6-2.716-3.074-5.173-3.184-5.172Zm8.217.436.907,1.546-.046.025a42.127,42.127,0,0,0,2.988,5.037c.823,1.424,1.378,2.388,1.378,2.388l-2.587-4.978c-.405-.811-.873-1.74-1.345-2.68l-.038.021-.827-1.59Zm-6.3,5.417.323-.173-3.1-5.2A38.147,38.147,0,0,0,4.111,26.777Zm8.945-4.8a9.965,9.965,0,0,0,1.275,1.947c.025-.015-.489-1.038-1.008-2.091Zm49.334-.041h0Zm-49.607.188a18.133,18.133,0,0,0,1.849,2.938s-.847-1.437-1.735-3Zm13.244.477c3.036,5.188,6.271,10.643,6.4,10.57s-3.09-5.4-6.244-10.654Zm-24.516.089c-.031.017,1.06,1.824,2.347,3.973a41.748,41.748,0,0,0-2.343-3.974Zm2.206,4.3-.444.239c.15.264.3.53.457.8a36.093,36.093,0,0,0,3,4.82c.166-.093-.878-2.08-2.081-4.244a43.818,43.818,0,0,0,3.217,5.17c.047-.025-.089-.33-.349-.823.159.226.266.343.3.321,0,0-1.948-3.352-3.711-6.493l-.138.074-.115-.193.109.2-.23.124c-1.191-2.1-2.284-3.962-2.284-3.962S2.483,24.841,3.718,26.989Zm7.11-3.819c1.617,2.825,3.1,5.474,3.11,5.466.031-.018-1.424-2.7-2.965-5.544ZM.981,23.2a42.115,42.115,0,0,0,1.905,4.232l.387-.208C2.062,25.109,1,23.2.982,23.2Zm9.069.385c1.752,3.082,3.414,6.019,3.509,5.965s-1.5-3.041-3.179-6.143Zm13.858.151C27.164,29.29,30.731,35.5,30.731,35.5L24.358,23.5ZM2.226,27.79l.205-.109-2.1-3.516Zm33.568,2.662s-1.45-2.552-3.36-5.874C34.316,27.883,35.794,30.452,35.794,30.452ZM7.945,24.718c.015.027.03.053.046.08,1.86,3.26,3.647,6.521,3.656,6.517l-3.508-6.7ZM.025,24.8s.833,1.582,1.7,3.26l.241-.13C.962,26.234.095,24.8.027,24.8ZM7,25.227c1.987,3.465,3.994,7.137,3.994,7.137.176-.1-1.833-3.716-3.765-7.261Zm-.334.179c1.846,3.145,3.812,6.452,3.892,6.408s-1.879-3.275-3.8-6.459Zm-.583.313c1.787,3.1,3.626,6.451,3.626,6.451L6.347,25.577ZM0,25.919s.511,1.233,1.028,2.515l.431-.231A13.889,13.889,0,0,0,.006,25.918Zm5.382.176C7.361,29.46,9.53,33.226,9.53,33.226L5.654,25.949Zm-.947.508L8.58,33.559c.1-.053-1.829-3.84-3.59-7.254Zm13.84.171c2.383,4.046,5.227,9,5.227,9l-4.8-9.227Zm-15.844.906L5.56,32.93s-1.416-2.872-2.673-5.495Zm13.436.392.069-.037-.257-.436A1.9,1.9,0,0,0,15.866,28.073Zm.069-.037c.683,1.166,2.5,4.264,2.529,4.249a42.5,42.5,0,0,0-1.735-4.677ZM1.964,27.931c1.449,2.453,3.179,5.452,3.179,5.452L2.226,27.79Zm-.5.271c.142.244.285.5.43.747.866,1.521,1.708,3.042,1.727,3.03a38.5,38.5,0,0,0-1.893-3.919ZM.5,28.714l.041-.022c-.1-.164-.155-.265-.155-.265A1.118,1.118,0,0,0,.5,28.714Zm.041-.022c.416.708,1.521,2.585,1.539,2.576a25.88,25.88,0,0,0-1.057-2.834Zm-.19.1a5.441,5.441,0,0,1,.578.955,8.075,8.075,0,0,0,.56.953S.789,29.326.5,28.714Zm12.239,1.377h0Z" transform="translate(236.049 115.51) rotate(180)" fill="rgba(0,0,0,0)" stroke="#fff" stroke-width="1"/>
    <path id="Union_22" data-name="Union 22" d="M38.633,0c-.114.064,3.052,5.861,6.061,11.428l.739-.4c-.192-.335-.384-.671-.577-1.008C41.983,5.014,39.024,0,38.649,0A.035.035,0,0,0,38.633,0Zm1.227,0c-.063.036,2.965,5.628,5.813,10.9l.5-.268-.641-1.159C42.907,4.739,40.274,0,39.879,0A.038.038,0,0,0,39.859.008ZM37.3.341c-.228.128,3.048,6.113,6.152,11.758l.691-.372-.437-.772C40.7,5.647,37.652.338,37.316.338A.027.027,0,0,0,37.3.341Zm9.581,9.91.863-.465L42.327.667C42.154.763,44.551,5.584,46.885,10.251ZM42.538.744c-.128.071,2,3.6,4.279,7.364C44.709,4.318,42.735.742,42.544.742Zm.585.658s2.569,4.179,4.969,8.2l.039-.021a95.3,95.3,0,0,0-5-8.179S43.124,1.4,43.123,1.4Zm-7.233.256c-.43.24,2.8,5.773,6.045,11.26l.643-.346c-3.12-5.38-6.4-10.917-6.68-10.916Zm-1.032,0L41,13.423l.019-.01c.671,1.4,3.346,6.3,5.905,11.036l.739-.4q-.286-.5-.576-1.007c-2.457-4.288-4.977-8.576-5.891-9.726l.316-.171c-.068-.121-.136-.242-.2-.362C38.164,7.222,35.076,1.659,34.861,1.66ZM44.6,2.2a75.869,75.869,0,0,0,3.7,7.286l.354-.191c-.212-.37-.426-.745-.64-1.121C46.321,5.189,44.665,2.2,44.6,2.2ZM42.609,12.556l.4-.216-5.9-9.926C36.966,2.494,39.769,7.534,42.609,12.556Zm-24.9-9.812C17.6,2.807,20.767,8.6,23.775,14.17l.61-.329c1.014,1.874,2.191,4.02,3.346,6.119l.221-.119q.138.243.266.471l-.058.031a9.314,9.314,0,0,1,.952,1.573,13.648,13.648,0,0,0,.917,1.574s-1.158-2.27-1.625-3.279l-.086.047-.255-.477.36-.195c-.145-.257-.291-.514-.437-.771-1.042-1.835-2.088-3.669-3.024-5.285l.287-.155-.642-1.16c-2.666-4.822-5.347-9.647-5.665-9.469C18.9,2.772,20.4,5.584,22.3,9.093c-.393-.6-.648-.927-.717-.889a7.334,7.334,0,0,0,.863,1.966c-2.329-4.013-4.4-7.43-4.713-7.43A.034.034,0,0,0,17.714,2.744ZM48.844,9.2l.265-.144C47.5,6.293,45.556,2.76,45.556,2.76,45.334,2.885,47.135,6.182,48.844,9.2ZM33.988,2.979c-.419.235,2.485,5.689,5.507,11.254l.288-.155c.815,1.769,3.414,6.512,5.9,11.037l.692-.373-.436-.77c-2.418-4.258-4.856-8.517-5.9-10.035l.636-.342C37.643,8.264,34.511,2.973,34.016,2.973A.066.066,0,0,0,33.988,2.979Zm-17.6.1c-.23.128,3.045,6.111,6.15,11.756l.153-.083c1.034,1.815,2.274,3.924,3.518,6.026l.47-.253A29.324,29.324,0,0,0,29,24.306c.023-.012,0-.108-.072-.278q.163.281.319.555l-.327-.575c-.235-.573-.924-1.927-1.853-3.689l.214-.116-2.733-4.6c-.255-.474-.514-.953-.773-1.434l-.06.032-2.332-3.925a33.307,33.307,0,0,0,2.092,4.055l-.154.083c-.708-1.187-1.346-2.241-1.86-3.063C18.937,6.93,16.685,3.078,16.4,3.079A.023.023,0,0,0,16.388,3.082Zm8.08,6.906c-.852-1.358-1.438-2.189-1.562-2.12-.069.039,1.117,2.275,2.744,5.292l-.4.215c1.275,2.3,2.5,4.517,3.42,6.078l-.246.133.268.47-.219.118c.685,1.167,2.5,4.262,2.53,4.249a1.514,1.514,0,0,0-.14-.54c.615,1.082,1.182,2.07,1.667,2.9.56,1.22,1.279,2.745,2.034,4.324l.639-.345c-.738-1.294-1.444-2.541-2.041-3.6-.755-1.471-1.851-3.527-3.048-5.75-.135-.32-.416-.916-.8-1.7l.658-.355c2.556,4.481,4.825,8.561,4.848,8.548s-.484-.988-1.292-2.5c.7,1.184,1.646,2.758,2.662,4.46-1.342-2.4-2.561-4.571-3.266-5.727-.6-1.263-1.568-3.176-2.514-5.019l-.209.112-.257-.475-.238.128c-.068-.119-.137-.236-.2-.352l-.374-.654c-1-1.747-2.014-3.494-2.923-5.03l.425-.229c.991,1.842,2.168,4.016,3.314,6.136l.219-.119.247.481.228-.123c.083.121.157.225.226.313l.375.631,0,0c.269.484.533.958.789,1.418.282.916,2.326,4.686,4.549,8.66l.534-.288-1.737-2.923a.022.022,0,0,0,.014,0s0-.007,0-.018l.645,1.118-.864-1.663C34.611,25,33.044,21.881,31.4,18.6l.18-.1-.276-.465.719-.387L29.735,13.8l-.2-.4c.494.82,1.024,1.695,1.562,2.584-.878-1.576-1.731-3.115-2.443-4.377-.009-.017-.017-.034-.024-.05h0A18.1,18.1,0,0,0,26.813,8.6a21.125,21.125,0,0,0,1.669,3.029l-.026.014L26.6,8.53a6.61,6.61,0,0,0,.67,1.675c-1.348-2.36-2.637-4.7-2.637-4.7-.222.125,1.58,3.421,3.288,6.433l.138-.074c.324.671.688,1.412,1.076,2.195-.378-.655-.793-1.379-1.214-2.121l-.187.1q.268.468.528.917L30.994,18.2l-.278.15c-.789-1.44-2.074-3.791-3.332-6.126l-.171.092c1.359,2.341,2.676,4.637,3.48,6.046l-.025.014c-.735-1.372-2.086-3.678-3.5-6.038l-.123.066a34.562,34.562,0,0,0-2.764-4.457,34.629,34.629,0,0,0-2.665-4.467A40.355,40.355,0,0,0,24.21,8.05c.052.108.13.264.23.459l-3.032-5.1A57.246,57.246,0,0,0,24.468,9.987ZM22.205,4.14s2.569,4.18,4.968,8.2l.04-.021a95.349,95.349,0,0,0-5-8.179ZM14.971,4.4c-.3.17,1.206,2.957,3.257,6.505a8.731,8.731,0,0,0,1.015,2.59C16.51,8.638,14.089,4.318,13.94,4.4l6.14,11.763.4-.217c.951,1.832,2.11,3.983,3.287,6.15l.288-.155c1.653,2.828,2.9,4.815,3.1,4.7.18-.1-.955-2.153-2.6-4.974l.391-.21c-1.211-2.129-2.437-4.25-3.507-6.032l.215-.115c-3.122-5.379-6.4-10.917-6.682-10.917ZM32.782,4.5c-.114.063,2.888,5.064,5.94,10.146l.394-.212C36.2,9.332,33.3,4.5,32.811,4.5A.058.058,0,0,0,32.782,4.5Zm-9.1.435a75.043,75.043,0,0,0,3.7,7.286l.354-.191c-.212-.37-.426-.746-.64-1.122-1.7-2.985-3.35-5.973-3.415-5.973ZM49.55,8.814l.419-.226a33.547,33.547,0,0,1-2.106-3.549A24.453,24.453,0,0,0,49.55,8.814ZM21.69,15.293l.355-.19,3.227,6.183.383-.207,2.175,3.659c.021-.011-.031-.146-.145-.385,2.387,4.172,4.408,7.559,4.669,7.412.03-.017.022-.091-.019-.215l.307.6.4-.215c-1.665-2.827-3.1-5.213-3.191-5.166,0,0,.441.841,1.083,2.075-1.187-2.1-2.958-5.073-4.726-8.062l-.316.171c-.944-1.736-2.136-3.9-3.354-6.114l-.178.1a51.828,51.828,0,0,0-3.228-5.411l2.5,4.794L16.188,5.155C16.046,5.232,18.851,10.272,21.69,15.293Zm16.35-.275.075-.041a6.5,6.5,0,0,0,.384.944l-.459-.9-.437.235c1.99,3.469,4.02,7.12,5.122,9.116-2.226-3.953-4.3-7.659-5.189-9.08l.067-.036c-2.6-4.528-5.132-8.745-5.455-8.564L36.9,15.634l.536-.289,5.793,11.1.512-.275c-.067-.121-.137-.242-.205-.363-.048-.087-.1-.173-.146-.261L39.2,17.307c1.157,2.173,3.057,5.409,4.961,8.63l.644-.348c-2.779-4.791-5.686-9.708-6.484-10.724l.245-.131c-2.735-4.673-5.31-9.127-5.31-9.127Zm-24.969-9.3c-.42.235,2.484,5.689,5.5,11.254l.578-.312,3.16,6.218.525-.283c-1.291-2.208-2.547-4.366-3.513-6.029l.084-.044c1.035,1.743,2.307,3.859,3.586,5.989l.181-.1c1.558,2.8,2.662,4.809,2.672,4.8l-2.543-4.873.084-.045c-.389-.68-.777-1.356-1.159-2.015L20.08,16.162l-.22.119c-.534-.876-1.02-1.65-1.434-2.273-2.564-4.444-4.907-8.3-5.329-8.3A.053.053,0,0,0,13.071,5.718ZM11.863,7.246c-.113.064,2.888,5.063,5.94,10.144l.1-.053.993,1.871L17.8,17.389l-.156.083c1.133,1.937,2.293,3.908,3.31,5.618l.215.4.02-.01a50.244,50.244,0,0,0,2.855,4.56c.072-.04-1.059-1.983-2.656-4.667l.23-.124c1.811,3.251,3.146,5.7,3.146,5.7.165-.093-.847-2.089-2.338-4.876,2.755,4.828,5.412,9.68,5.412,9.68L22.314,22.879l-.409.221c-1.009-1.871-2.178-4.007-3.329-6.128l-.253.136c-.514-.823-.953-1.493-1.282-1.941-2.49-4.295-4.723-7.929-5.149-7.929A.058.058,0,0,0,11.863,7.246Zm19.345.1s2.206,4.23,4.595,8.878l.4-.216c-.338.354,2.534,5.745,5.52,11.244l1.009-.544.537.933-.5-.95.143-.076c-.779-1.367-1.563-2.732-2.309-4.005l-3.7-6.975-.451.243q.253.43.507.864c-.36-.495-.611-.766-.718-.75l.211-.115c-2.629-4.482-5.054-8.532-5.233-8.532ZM27.676,9.577c-.153-.217-.25-.33-.278-.314l.576.939c.209.435.434.895.658,1.352l.126-.068c.577.949,1.294,2.128,2.055,3.389.393.841.832,1.771,1.289,2.73l-.013.007-.989-1.63.4.708.532.955,0,0,.13.221.14.248-.712.383,5.146,8.659s-2.094-4.265-4.072-8.4c.455.81.9,1.589,1.311,2.3-.3-.468-.493-.723-.528-.7,0,0,2.205,4.23,4.6,8.881l.645-.347c-.961-1.64-1.9-3.22-2.7-4.567.031.043.062.084.091.122l.37.623c.021-.013-.03-.14-.145-.363.06.054.1.076.131.061.174-.1-1.7-3.345-3.778-6.844l.033-.018c2.09,3.607,4,6.972,4,6.972s-1.913-3.473-3.847-7.057l.142-.076c-.091-.157-.18-.314-.269-.47l.226-.121c-.212-.37-.426-.746-.64-1.122-1.7-3-3.367-6-3.417-5.974a14.45,14.45,0,0,0,1.206,2.58c-.536-.95-.869-1.536-.876-1.533a18.16,18.16,0,0,0,1.254,3c-.587-1-1.136-1.915-1.6-2.679l.2-.105a33.1,33.1,0,0,1-2.109-3.547A7.289,7.289,0,0,0,27.676,9.577ZM47.22,8.829q.267.478.533.954l0,0,.122.207c1.292,2.3,2.533,4.481,3.35,5.758l1.043,1.958.428-.23c-.214-.372-.428-.74-.637-1.1-.678-1.234-2.235-4.075-3.752-6.893l-.171.092C49.485,11.913,50.8,14.2,51.6,15.612q-.2-.333-.383-.643c-.771-1.388-1.928-3.358-3.128-5.369l-.278.15-1-1.642ZM32.137,12.992a31.608,31.608,0,0,0,1.418,3.131,52.987,52.987,0,0,0-3.479-5.869c-.049.027,1.6,2.772,3.605,6.129l.144.293.023-.013.129.215-.122-.219.233-.126.264.473.534-.288-5.1-8.58C29.625,8.229,30.657,10.265,32.137,12.992ZM53.3,8.242c-.068.04,1.856,3.553,3.686,6.928l.449-.241-.351-.609c-1.747-3.041-3.547-6.08-3.775-6.08A.013.013,0,0,0,53.3,8.242Zm.746,0c-.038.021,1.8,3.411,3.534,6.6l.3-.161-.39-.7C55.9,11.115,54.3,8.243,54.06,8.243A.023.023,0,0,0,54.048,8.246ZM16.893,17.311a12.824,12.824,0,0,0-1.408-2.1s.547,1.051,1.394,2.682l-.193.1c.97,1.69,1.949,3.425,2.826,4.989l.568,1.1.037-.021c1.473,2.638,2.531,4.569,2.531,4.569L20.28,23.976l.442-.238c-1.33-2.266-2.606-4.421-3.568-6l.493-.266c-2.735-4.67-5.309-9.125-5.309-9.125ZM52.5,8.445a78.566,78.566,0,0,0,3.742,7.127l.418-.225-.267-.467A60.92,60.92,0,0,0,52.5,8.443Zm5.819,6.011.522-.281L55.545,8.648C55.44,8.707,56.9,11.628,58.316,14.456ZM55.675,8.692c-.079.044,1.216,2.188,2.607,4.478-1.286-2.3-2.489-4.479-2.6-4.479Zm-6.566.359A16.474,16.474,0,0,0,51.2,12.265c.044-.025-.8-1.712-1.653-3.451Zm6.919.041s1.563,2.533,3.021,4.969l.022-.011a57.857,57.857,0,0,0-3.04-4.959Zm-7.371.2c.563.985,1.11,1.927,1.581,2.714l2.718,5.328.318-.172c-.939-1.6-1.849-3.16-2.461-4.212.244.392.45.7.6.912.583.977,1.266,2.11,1.952,3.25l.238-.128a50.651,50.651,0,0,0-3.712-5.952c-.333-.579-.69-1.2-1.051-1.84Zm2.983-.054c-.26.146,1.7,3.5,3.677,6.826l.39-.21a75.389,75.389,0,0,0-4.062-6.617Zm-.626,0,3.734,7.131.312-.167-.125-.219c-1.911-3.374-3.789-6.746-3.918-6.746Zm-39.781.188,4.747,8.943.705-.38c-2.544-4.434-5.025-8.569-5.43-8.568A.04.04,0,0,0,11.232,9.429Zm45.692.148a45.639,45.639,0,0,0,2.251,4.416l.215-.115L59,13.2c-1.031-1.811-2.039-3.621-2.077-3.621Zm-1.2,6.271.242-.13L52.38,9.7C52.293,9.75,54,12.8,55.725,15.848Zm3.78-2.031.16-.086c-.979-1.672-2.16-3.812-2.16-3.812A22.834,22.834,0,0,0,59.5,13.817Zm-9.016-3.775c-.255.142,1.512,3.448,3.348,6.821l.718-.385c-1.847-3.233-3.751-6.44-4.05-6.439A.036.036,0,0,0,50.489,10.042Zm-40.2.042s2.031,3.893,4.306,8.315c-.133-.2-.219-.3-.246-.281a7.388,7.388,0,0,0,.48.874l-.292.158-.283-.484.275.488-.562.3,3.566,6-.285.154c.248.435.5.875.753,1.316,2.316,4.04,4.7,8.079,4.932,7.95.273-.153-1.458-3.454-3.445-7.037,2.543,4.393,5.1,8.686,5.312,8.566.077-.043-.146-.545-.572-1.357.262.372.438.566.5.531,0,0-3.2-5.53-6.1-10.711l-.229.123-.161-.271c.051.091.1.184.153.275l-.338.182c-.818-1.622-1.742-3.435-2.661-5.225.719,1.211,1.739,2.914,2.846,4.768-1.366-2.44-2.6-4.645-3.3-5.785l.349-.188c.858,1.643,2.071,3.849,3.343,6.122l.414-.224c1.879,3.24,3.312,5.735,3.312,5.735l-2.125-4,5.751,9.676c.158-.089-3.007-6.335-5.9-11.966l-.83.447-3.27-6.16-.385.207L14.062,16c-.019.01-.021.046-.01.106a65.35,65.35,0,0,0-3.759-6.025Zm35.88.553c1.926,3.481,3.744,6.752,4.545,7.89l.006.011h0c.207.292.345.44.4.41a1.746,1.746,0,0,0-.2-.518l.121-.065L50.3,17.117c-.806-1.658-2.1-4.238-3.415-6.866Zm-13.052,6.42.267-.144c-1.61-2.758-3.553-6.29-3.553-6.29C29.607,10.749,31.409,14.044,33.117,17.057Zm.319-.172-.053.029c.092.158.184.314.273.466l-.272.147c-.089-.156-.179-.313-.268-.47l-.186.1.269.469-.226.122c.248.435.5.875.753,1.316C34.895,21.1,36.08,23.139,37,24.641l2.13,4.011.705-.381c-.735-1.282-1.467-2.54-2.144-3.679-.643-1.272-1.533-2.92-2.482-4.632,2.032,3.512,4.075,6.963,4.924,8.15l-.3.161c2.939,5.124,5.962,10.643,5.962,10.643L40.525,28.542h0c.047-.026-.017-.221-.169-.552l.439-.237c-2.734-4.671-5.308-9.126-5.308-9.126L37.43,22.45c-.956-1.678-2.036-3.584-3.077-5.444l-.226.122c-.051-.083-.1-.167-.149-.25l.142.253-.056.03c-.078-.161-.158-.323-.238-.485l-.355.191C31.617,13.6,29.981,10.8,29.981,10.8S31.527,13.551,33.437,16.885Zm-20,2.859.25-.134c.25.611.7,1.618,1.269,2.834-.5-.89-1.016-1.8-1.519-2.7l-.227.123c-.052-.086-.1-.172-.154-.257l.146.261-.382.205c-1.96-3.467-3.755-6.535-3.755-6.535s1.693,3.011,3.724,6.553l-.431.232-.059-.107c-.012.007,0,.052.021.127l-.263.141c.248.436.5.876.752,1.317l.431.75-.182.1A9.955,9.955,0,0,0,14.331,24.6a6.766,6.766,0,0,0-.352-.761c.4.7.8,1.37,1.171,2l.368.708.041-.022c1.168,1.95,2.044,3.308,2.179,3.231.035-.019.038-.089.012-.2L21,35.021s-1.246-2.537-2.724-5.595a7.382,7.382,0,0,0,1.327,1.856c.078-.043-.145-.545-.57-1.356.261.372.436.565.5.529,0,0-1.135-1.96-2.666-4.64l.381-.2c-1.483-2.6-2.835-5.009-3.437-6.07l.156-.083-5.1-8.579C8.632,11.01,10.918,15.246,13.434,19.744Zm.891,3.022c.669,1.155,1.338,2.3,1.964,3.362l-.108.059C15.637,25.154,15,23.976,14.324,22.766ZM45.433,11.034c1.854,3.247,3.6,6.353,4.49,7.933l-.039.021c.151.264.3.53.458.8.425.739.854,1.479,1.249,2.148l-.253.137a16.509,16.509,0,0,0,2.1,3.215,12.259,12.259,0,0,0-.623-1.355c.289.445.483.7.53.676A10.873,10.873,0,0,0,52,21.712l.037-.02a27.658,27.658,0,0,0,2.438,3.837c.047-.025-.086-.326-.342-.811.154.218.258.332.3.31,0,0-1.946-3.35-3.709-6.491l-.138.074-.126-.211.12.214-.14.075c-.206-.375-.345-.632-.345-.632-.032.019.02.189.133.467-1.144-2.013-2.161-3.749-2.161-3.749s1.011,1.793,2.231,3.916c.008.02.017.04.025.06l-.333.179c-.848-1.612-2.546-4.757-4.314-8.027Zm14.5,2.553.255-.136a20.29,20.29,0,0,1-1.28-2.149A14.97,14.97,0,0,0,59.933,13.586Zm-15.785-1.86c1.74,3.068,3.426,6.05,4.523,7.912l-.03.016a44.945,44.945,0,0,0-3.288-5.234s.542.882,1.361,2.224c-.044-.06-.071-.089-.079-.084s.834,1.582,1.7,3.261l.233-.125c.16.266.324.537.488.811.425.723.854,1.458,1.242,2.125l-.255.137-1-1.652.408.732q.267.478.533.953l0,0,.1.17c1.661,2.963,3.241,5.721,3.945,6.637l.368.618c.022-.012-.03-.14-.145-.363.061.054.1.076.131.061.155-.086-1.317-2.682-3.115-5.725l-.252-.483c1.938,3.35,3.626,6.319,3.626,6.319s-2.088-3.787-4.1-7.532l-.12.065-.538-1.031c.023.023.04.034.049.029.033-.019-.041-.223-.2-.577.266.5.538,1,.812,1.513l.255-.137,1.384,2.323s-.191-.389-.5-1.012a17.962,17.962,0,0,0,2.255,3.484s-1.395-2.371-2.856-4.95l-.091.049c-.234-.481-.488-1-.749-1.542.276.495.56,1,.84,1.493l.267-.144c-.556-.951-1.15-2-1.691-2.954l.237-.128c-1.213-2.121-2.282-4.03-2.292-4.025a12.617,12.617,0,0,0,.843,1.989c-.4-.713-.649-1.171-.649-1.171-.148.083.6,1.579,1.629,3.46l-.209.112c-1.283-2.274-2.336-4.154-2.376-4.132s.039.206.187.53C46.3,14.4,45.5,12.927,44.693,11.432Zm-1.14.613,4.09,6.88q.242.49.494,1l-.437.235c.416.707,1.521,2.584,1.539,2.575a17.892,17.892,0,0,0-.816-2.235c.4.812.82,1.646,1.235,2.476l.637-.344c.28.5.465.82.473.815a3.463,3.463,0,0,0-.36-.875l.113-.062-.855-1.439-.363-.715.282.467-.55-.99-.157-.3-.009,0a57.543,57.543,0,0,0-3.556-6.064,65.209,65.209,0,0,0,3.507,6.09l-.041.021-3.678-6.188a5.142,5.142,0,0,0,.551,1.413l-1.65-3Zm-.431.232c.832,1.431,1.651,2.853,2.4,4.155-.747-1.313-1.559-2.741-2.367-4.171Zm6.228.111s1.342,2.564,2.795,5.382l.391-.209c-1.6-2.717-3.074-5.174-3.183-5.173Zm-7.294.464c2.627,4.65,5.248,9.216,6.211,10.441l.18.333.086-.046c.04.03.071.041.092.029s.022-.04.016-.086l.3-.163c-.214-.385-.428-.773-.642-1.16-2.669-4.823-5.348-9.648-5.666-9.47a7.741,7.741,0,0,0,.439.9l-.595-1.005ZM9.157,12.993c-.052.029,1.764,3.043,3.9,6.617a68.376,68.376,0,0,0-3.89-6.619A.008.008,0,0,0,9.157,12.993Zm49.361.6.324.579,0,0,.093.156c.992,1.765,1.933,3.4,2.361,3.96l.229.387c.015-.008-.019-.087-.089-.225.037.035.065.049.082.04a35.049,35.049,0,0,0-2.467-4.431l-.169.092c-.2-.327-.4-.657-.6-.983C58.36,13.311,58.44,13.452,58.519,13.593Zm-17.84,0,.073.128c3.062,5.382,6,10.762,6.017,10.752L41,13.423Zm18.986.135a10.042,10.042,0,0,0,1.273,1.949c.027-.016-.487-1.04-1.006-2.094Zm-.274.147a18.1,18.1,0,0,0,1.851,2.938s-.848-1.437-1.736-3Zm-51.1-.031A36.2,36.2,0,0,0,10.312,18.5a10.644,10.644,0,0,0,.73,1.544c.124.258.248.52.373.782l.029-.015c.341.646.729,1.371,1.122,2.1l.009,0,.264.506-.272-.5-.1.056c.491.844.974,1.677,1.386,2.395l.041.078c-.407-.706-.9-1.539-1.407-2.386-.012-.026-.024-.052-.037-.078l.018-.009c-.042-.071-.083-.142-.124-.213-.308-.639-.618-1.287-.924-1.925l-.157.085a23.741,23.741,0,0,0-1.841-2.9s.8,1.3,1.792,2.931l-.137.074a31.252,31.252,0,0,0-2.009-3.4,34.666,34.666,0,0,0,1.97,3.425l-.022.012L8.936,17.565a27.549,27.549,0,0,0,1.588,3.44L7.216,15.439l3.108,5.98.32-.172c.339.683.7,1.408,1.063,2.127l.17-.092.352.591c-.2-.286-.332-.441-.376-.417,0,0,.185.446.468,1.138l-.613-1.221-.288.154-1.1-2.109-.205.111c-1.338-2.4-2.521-4.457-2.682-4.367-.023.014.685,1.339,1.641,3.108a37.677,37.677,0,0,0-2.373-3.783s.636,1.21,1.489,2.858a9.38,9.38,0,0,0-1.5-2.186c-.055.03,1.144,2.244,2.555,4.84l-.185.1c.231.4.47.82.705,1.235.157.278.315.556.47.83l-.188.1c1.754,3.081,3.416,6.019,3.511,5.964.023-.014-.04-.175-.171-.454h0a13.385,13.385,0,0,0,.918,1.573s-1.16-2.269-1.626-3.278l-.116.063c-.2-.563-1.024-2.239-1.99-4.151l.254-.136-.351-.612c-.28-.487-.562-.973-.837-1.447l.2-.108c.368.681.753,1.39,1.132,2.089L11.1,23.7c.821,1.408,1.634,2.806,2.311,3.977l-.247.134c-.562-1.047-1.361-2.523-2.187-4.044l-.146.078c.864,1.51,1.689,2.969,2.271,4l-.352.189c.685,1.167,2.5,4.264,2.531,4.249a28.9,28.9,0,0,0-1.34-3.687c.715,1.237,1.183,2.05,1.183,2.05L13.552,27.63l0-.006c.4.663.669,1.057.732,1.021a7.986,7.986,0,0,0-.521-1.155l.467-.252.872,1.468c1.374,2.423,2.667,4.769,2.7,4.75A56.3,56.3,0,0,0,14.9,27.412h0c.028-.017-.036-.177-.172-.446l.027-.015c.19.333.3.528.3.528l-.293-.533.317-.171c-.92-1.562-1.771-2.989-2.362-3.946l.059-.031-.389-.68c-.271-.474-.539-.948-.789-1.389l.132-.071c.345.638.755,1.371,1.158,2.079l.161-.086c-.393-.668-.816-1.413-1.185-2.064l.184-.1c-1.992-3.495-3.747-6.64-3.77-6.639Zm5.643,12.2c.255.422.474.771.641,1.011l-.118.064ZM59.071,14.05c1.334,2.289,2.6,4.51,2.6,4.51s-1.27-2.3-2.5-4.566Zm-19.955.388c2.359,4.125,4.734,8.428,5.874,10.5l-5.652-9.51a3.088,3.088,0,0,0,.383.88c-.33-.551-.665-1.108-1-1.663l-.155.084c1.307,2.233,2.651,4.517,3.768,6.387.776,1.393,1.638,2.922,2.5,4.452l.384-.207c.3.54.464.846.464.846s.021-.033.016-.073l5.277,8.879c.127-.072-2.515-4.852-5.293-9.9l-.312.168c-.885-1.921-3.421-6.522-5.879-11.05Zm9,.008c-.029.017,1.056,1.813,2.338,3.955a40.539,40.539,0,0,0-2.334-3.956Zm9.765.243c1.478,2.665,2.854,5.124,3.009,5.037.063-.033-1.239-2.61-2.575-5.27Zm-.446.239c1.618,2.828,3.1,5.477,3.111,5.468.03-.019-1.425-2.7-2.966-5.546Zm-.779.419c1.754,3.082,3.417,6.019,3.512,5.966s-1.5-3.042-3.182-6.144Zm-35-.036c.842,1.45,1.671,2.888,2.428,4.2-.756-1.326-1.578-2.773-2.4-4.222Zm34.307.407,3.49,5.856c.078-.042-1.529-2.94-3.218-6Zm-.261.14c.5.854.988,1.7,1.438,2.481-.448-.785-.935-1.638-1.419-2.491Zm-.646.348c1.9,3.352,3.795,6.634,3.993,6.522.178-.1-1.783-3.367-3.736-6.66Zm-20.173.512,1.151,1.938c-.537-.774-.9-1.2-1.026-1.131s2.888,5.063,5.94,10.144l.335-.181.416.7c.015-.008,0-.065-.033-.166,3.158,5.543,6.245,11.208,6.245,11.208.289-.162-3.016-6.132-6.19-11.98l-.311.167c-.836-1.848-3.309-6.716-5.611-11.2Zm19.668-.241.045.081c1.86,3.26,3.649,6.521,3.658,6.516l-3.51-6.7ZM47.1,20.446a.223.223,0,0,0,.014.029v0c.746,1.3,1.215,2.117,1.215,2.117s-.463-.813-1.209-2.12l.033-.018L47,20.188a.654.654,0,0,0,.072.2c-.566-.993-1.29-2.256-2.1-3.657C45.79,18.154,46.526,19.442,47.1,20.446Zm6.5-3.459c1.987,3.465,4,7.139,4,7.139.176-.1-1.834-3.718-3.765-7.263Zm-.333.178c1.847,3.145,3.814,6.452,3.892,6.408s-1.879-3.275-3.8-6.458Zm-.583.313c1.788,3.105,3.627,6.45,3.627,6.45l-3.362-6.591Zm-46.8-.114a28.758,28.758,0,0,0,1.974,3.9c.158.392.324.8.49,1.214l.134-.072c.374.681.762,1.384,1.146,2.08l.418-.224L9.781,23.8c-.306-.537-.612-1.073-.911-1.595l.191-.1a20.989,20.989,0,0,0-2.4-3.765s.047.112.129.313a5.6,5.6,0,0,0-.9-1.285Zm46.1.491c1.979,3.366,4.148,7.132,4.148,7.132l-3.876-7.278Zm-.947.509,4.146,6.954c.1-.053-1.829-3.839-3.59-7.253ZM5.03,18.16c-.2.114.943,2.172,2.392,4.648.02.043.042.091.064.141l.015-.007c.388.663.8,1.354,1.206,2.045l.051-.027c.665,1.127,1.31,2.211,1.326,2.2a7.547,7.547,0,0,0-.515-1.573c.319.552.633,1.093.928,1.6-.306-.535-.628-1.1-.954-1.674-.1-.253-.2-.526-.312-.814l.128-.068-.453-.759c-.18-.455-.367-.927-.555-1.395l-.21.113L5.77,18.619A44.722,44.722,0,0,0,7.948,22.7l-.051.027a42.546,42.546,0,0,0-2.863-4.569Zm-.624,0L8.14,25.292l.311-.167L8.324,24.9,7.415,23.3c.184.288.482.824.778,1.359l.258.47h0l.069.122c.169.306.321.576.429.756,1.721,3.023,3.312,5.745,3.494,5.642s-1.781-3.366-3.735-6.658l-.177.095c-.359-.716-.8-1.6-1.044-2.132l-.205.11c-1.5-2.656-2.769-4.9-2.872-4.9Zm54.8,3.77c-.027-.046-.908-1.593-2.062-3.592C58.28,20.328,59.178,21.885,59.205,21.931ZM3.879,18.959c-.255.142,1.512,3.449,3.35,6.822l.716-.385c-1.846-3.234-3.751-6.441-4.05-6.441A.037.037,0,0,0,3.879,18.959Zm21.26,2.4-.187.1.075.13c3.059,5.379,6,10.761,6.015,10.752l-3.971-7.608.343.6-.376-.662-1.766-3.382-.129.069c-.329-.575-.684-1.193-1.056-1.84C24.456,20.162,24.81,20.782,25.139,21.357ZM28.4,20.211l.068-.037-.257-.437A1.974,1.974,0,0,0,28.4,20.211ZM3.146,19.883c-.068.038,1.757,3.069,3.612,6.149L7,25.9c-1.775-3.1-3.535-6.026-3.834-6.025A.031.031,0,0,0,3.146,19.883Zm24.136.318,5.742,9.662c.127-.073-2.515-4.853-5.293-9.9Zm19.683.354a5.449,5.449,0,0,1,.578.954,8.2,8.2,0,0,0,.559.952s-.7-1.375-.986-1.986Zm-40.619,5.7.319-.171C5,23.251,3.438,20.551,3.438,20.551Zm-3.581-5.05,2.889,5.422L6.08,26.4c-1.548-2.688-3.057-5.2-3.3-5.2A.033.033,0,0,0,2.765,21.205Zm-.57.4s1.342,2.563,2.8,5.381l.39-.209C3.782,24.057,2.307,21.6,2.2,21.6Zm57.011.33h0ZM4.11,27.456l.323-.174-3.1-5.2A38.514,38.514,0,0,0,4.11,27.456ZM23.391,22.3c3.269,5.718,6.57,11.776,6.57,11.776.289-.162-3.016-6.132-6.191-11.98Zm-.551.3c3.037,5.188,6.272,10.645,6.4,10.571S26.151,27.762,23,22.512Zm-10.057.2a18.133,18.133,0,0,0,1.848,2.938s-.847-1.437-1.735-3Zm35.614.856c2.432,4.4,4.692,8.454,4.95,8.309.1-.056-2.039-4.307-4.234-8.695ZM1.511,23.363c-.031.017,1.062,1.825,2.349,3.977a41.358,41.358,0,0,0-2.346-3.978Zm19.212.375c3.255,5.55,6.823,11.763,6.823,11.763L21.172,23.5ZM3.717,27.667l-.443.238.458.8a35.947,35.947,0,0,0,3,4.817c.165-.092-.875-2.071-2.075-4.229a43.845,43.845,0,0,0,3.21,5.158c.046-.026-.089-.33-.348-.822.158.225.266.342.3.321,0,0-1.948-3.352-3.711-6.493l-.138.074-.113-.189c.035.064.071.128.108.193l-.231.124C2.544,25.556,1.453,23.7,1.453,23.7S2.482,25.521,3.717,27.667Zm32.216,2.707-.729.394c.248.435.5.875.751,1.314,2.318,4.04,4.7,8.079,4.934,7.95.273-.152-1.446-3.432-3.425-7C40,37.41,42.542,41.68,42.755,41.56c.077-.043-.145-.545-.571-1.357.262.372.437.566.5.531,0,0-3.2-5.528-6.1-10.71l-.227.123-.163-.272c.052.091.1.184.154.276l-.382.206C34,26.89,32.209,23.821,32.209,23.821S33.9,26.832,35.933,30.374ZM.981,23.881a41.876,41.876,0,0,0,1.905,4.232l.387-.208C2.062,25.787.994,23.88.981,23.881Zm46.68.17c2.662,4.661,5.092,9.03,5.115,9.017.053-.029-2.34-4.459-4.875-9.147Zm-1.283.691c2.884,5.083,5.616,9.932,5.772,9.844s-2.462-5.019-5.229-10.137Zm-37.02-.105,3.491,5.854c.076-.042-1.53-2.939-3.22-6Zm23.248,5.815s-1.449-2.55-3.358-5.87C31.13,27.885,32.606,30.452,32.606,30.452ZM2.225,28.469l.2-.11L.334,24.845ZM7.944,25.4l.046.079C9.85,28.735,11.639,32,11.648,31.992l-3.509-6.7Zm-7.92.082s.833,1.582,1.7,3.261l.242-.13c-1-1.7-1.87-3.132-1.937-3.132Zm44.782.112c.809,1.393,1.606,2.776,2.338,4.049-.73-1.283-1.52-2.673-2.307-4.065ZM33.472,31.7l.338-.183-3.447-5.8ZM7,25.9c1.988,3.466,4,7.139,4,7.139.176-.1-1.834-3.718-3.766-7.262Zm36.74.262c3.124,5.529,6.24,10.94,6.568,10.754.295-.165-2.932-5.551-6.144-10.983ZM6.665,26.084c1.846,3.146,3.812,6.453,3.89,6.409s-1.878-3.276-3.8-6.46ZM6.08,26.4c1.788,3.1,3.627,6.451,3.627,6.451L6.346,26.255Zm36.828.216c.023.043.049.086.073.13,3.06,5.379,6,10.761,6.015,10.752l-5.77-11.054Zm-27.821.161c2.383,4.047,5.229,9,5.229,9l-4.8-9.229ZM0,26.6s.511,1.233,1.028,2.515l.43-.231A14.029,14.029,0,0,0,.006,26.595Zm5.38.178C7.359,30.139,9.529,33.9,9.529,33.9L5.653,26.627Zm-.946.508,4.146,6.953c.1-.053-1.828-3.838-3.589-7.251Zm8.161,3.567c-.027-.048-.927-1.627-2.1-3.655C11.65,29.212,12.566,30.8,12.595,30.849Zm.085-2.776.067-.037-.256-.437A1.869,1.869,0,0,0,12.68,28.073ZM40.8,27.752c3.036,5.188,6.271,10.644,6.4,10.571s-3.09-5.4-6.244-10.655Zm-38.367.606L5.56,33.609s-1.416-2.873-2.673-5.5Zm-.465.25c1.448,2.453,3.18,5.453,3.18,5.453L2.225,28.469Zm27.845,0s.841,2.035,1.689,4.151l.712-.383a22.921,22.921,0,0,0-2.392-3.771A.015.015,0,0,0,29.809,28.613Zm8.868.282C41.933,34.446,45.5,40.659,45.5,40.659L39.127,28.652ZM1.458,28.88c.142.245.286.5.429.748.867,1.52,1.708,3.043,1.727,3.032a37.856,37.856,0,0,0-1.892-3.92ZM.5,29.393l.041-.022L.39,29.105A1.165,1.165,0,0,0,.5,29.393Zm.041-.022c.416.707,1.523,2.585,1.538,2.577a25.527,25.527,0,0,0-1.056-2.836Zm36.57.365,6.817,11.471c.158-.087-3.007-6.333-5.9-11.964ZM.355,29.473a5.487,5.487,0,0,1,.578.955,7.86,7.86,0,0,0,.559.952S.788,30,.5,29.393ZM50.561,35.61s-1.478-2.6-3.416-5.972C49.054,32.99,50.561,35.61,50.561,35.61ZM12.595,30.85h0Zm21.215.668,5.146,8.658s-2.325-4.737-4.392-9.064Zm-.767.414c2.383,4.046,5.228,9,5.228,9l-4.8-9.227Zm-.833.449c.231.4.468.818.7,1.232,1.427,2.509,2.808,5.019,2.838,5a62.381,62.381,0,0,0-3.108-6.467Zm-1.576.849.068-.037-.257-.437A1.884,1.884,0,0,0,30.634,33.23Zm.068-.037c.685,1.167,2.5,4.262,2.528,4.249A41.794,41.794,0,0,0,31.5,32.765Zm-.312.168a9.3,9.3,0,0,1,.949,1.574,13.007,13.007,0,0,0,.92,1.571S31.1,34.239,30.634,33.23Z" transform="matrix(-0.978, 0.208, -0.208, -0.978, 130.155, 164.07)" fill="rgba(0,0,0,0)" stroke="#fff" stroke-width="1"/>
  </g>
</svg>
