<svg xmlns="http://www.w3.org/2000/svg" xmlns:xlink="http://www.w3.org/1999/xlink" width="358.066" height="265.144" viewBox="0 0 358.066 265.144">
  <defs>
    <clipPath id="clip-path">
      <rect id="Rectangle_5596" data-name="Rectangle 5596" width="358.066" height="265.144" fill="#182e54" stroke="#182e54" stroke-width="3"/>
    </clipPath>
  </defs>
  <g id="Group_13887" data-name="Group 13887" transform="translate(0 -0.004)">
    <g id="Group_13886" data-name="Group 13886" transform="translate(0 0.004)" clip-path="url(#clip-path)">
      <path id="Path_38058" data-name="Path 38058" d="M407.373,1161.39c.379.017-.621-.306,0,0" transform="translate(-329.03 -938.414)" fill="#182e54" stroke="#182e54" stroke-width="3"/>
      <path id="Path_38059" data-name="Path 38059" d="M357.787,321.515c-1.064-2.562-4.816-1.027-4.273,1.426l-.036.084a4.335,4.335,0,0,1-.673,1.191,34.4,34.4,0,0,1-3.205,3.911c-3.315,3.6-6.942,6.931-10.566,10.215-9.542,8.644-19.7,16.562-29.367,25.051-3.8,3.333-7.275,7.047-11.171,10.258a31.23,31.23,0,0,0-2.725,2.626c-.13.138-.51.49-.739.725-.037-.021-.069-.038-.115-.065-.752-.459-1.5-.925-2.242-1.4a53.709,53.709,0,0,1-9.747-8.647,79.241,79.241,0,0,1-7.076-8.426c9.7-9.766,18.709-20.183,28.118-30.229,9.115-9.731,19.551-18.379,26.619-29.841a.646.646,0,0,0-1.057-.741c-8.476,10.461-19.12,18.739-28.465,28.36-9.827,10.117-19.136,20.729-29.234,30.581a2.126,2.126,0,0,0-.392,2.745,16.084,16.084,0,0,0-3.689,3.03c-1.136,1.227-2.322,2.187-2.734,3.838a31.913,31.913,0,0,0-.787,8.439,166.464,166.464,0,0,0,2.01,18.632,57.569,57.569,0,0,1,.62,8.112,35.137,35.137,0,0,0,.42,7.848c1.368,5.991,7.865,5.553,12.761,6.241a1.552,1.552,0,0,0,1.656-1.77,95.031,95.031,0,0,1,.512-12.284c.141-1.994,1.59-8.767-2.223-8.15a2.271,2.271,0,0,1-.25.031c-.071.035-.154.075-.272.126a2.824,2.824,0,0,0-1.012.876,2.986,2.986,0,0,0-.245,2.407,32.594,32.594,0,0,1,.1,5.475,82.807,82.807,0,0,0,.132,10.183,16.839,16.839,0,0,1-6.112-1.043c-2.335-1.032-2.412-3.281-2.519-5.567-.214-4.578-.149-8.98-.8-13.537a132.064,132.064,0,0,1-1.813-16.676,34.832,34.832,0,0,1,.548-7.614c.53-2.529,2.794-5.064,4.8-6.892a72.38,72.38,0,0,0,7.15,8.516,61.664,61.664,0,0,0,9.919,8.964,21.639,21.639,0,0,0,4.009,2.436c-1.138,1.4-1.022,4.062-1.085,5.59-.136,3.3-.4,6.617-.709,9.906-.355,3.751-.571,7.527-.98,11.271-.5,4.56-2.222,7.673-6.9,8.88-9.639,2.489-19.659,1.322-29.367,3.166-3.364.639-6.9,1.817-10.352,1.588s-4.988-2.084-5.478-5.127c8.184-2.322,16.214-5.359,24.539-7.115a.4.4,0,0,0-.128-.784c-6.579.578-12.858,2.24-19.174,3.905q2.191-.839,4.366-1.72c2.486-1.01,4.946-2.086,7.417-3.135a21.056,21.056,0,0,0,6.353-3.632c3.494-3.215,2.336-8.369,1.74-12.49-.839-5.8-.891-11.775-1.249-17.628-.409-6.683-.43-13.354-.553-20.045-.121-6.544-.376-13.074-.586-19.6-.239.161-.473.33-.71.493.011-.059.022-.118.034-.177a1.154,1.154,0,0,0,.3-.818q0-.556.005-1.112a1.2,1.2,0,0,0-.252-.777c3.689-2.264,7.52-4.321,11.712-4.7a1.755,1.755,0,0,0,1.723-1.723c-.01-1.816-2.136-3.392-3.208-4.75a48.957,48.957,0,0,1-4.27-7.169,62.383,62.383,0,0,1-5.5-12.952c.035-.016.063-.037.1-.052l.333-.133c.02-.263.035-.527.056-.79a1.742,1.742,0,0,0-.913-1.629c1.745-5.437,3.012-11.037,4.413-16.565,1.6-6.324,3.549-12.519,5.611-18.706a141.023,141.023,0,0,0,5.285-18.422c.9-4.793,1.7-10.211-.283-14.82-3.221-7.478-13.192-10.552-20.448-7.772-4.177,1.6-6.674,5.112-8.738,8.907-2.423,4.454-4.363,9.168-6.728,13.661a147.831,147.831,0,0,0-7.35,15.463c.394-4.415.679-8.861.912-13.247.331-6.227.325-12.568-1.088-18.673-1.079-4.662-3.3-10.071-8.069-11.975-5.555-2.217-13.387.78-17.393,4.787-6.316,6.315-5.4,17.679-5.229,25.816.26,12.031-2,23.923-1.062,35.932a52.574,52.574,0,0,1-2-5.663c-1.286-4.493-1.488-9.084-2.1-13.667a1.31,1.31,0,0,0-.083-.6c-.01-.066-.02-.132-.029-.2,1.665.229,3.969-1.717,2.71-3.417-1.841-2.486-6.078-3.121-8.867-3.721a15.427,15.427,0,0,0-10.086,1.364c-2.759,1.312-3.942,4.325-2.08,6.355a1.161,1.161,0,0,0,1.087,1.53q.937.01,1.878.031c-.113,1.169-.154,2.333-.167,3.5-16.291,2.5-32.749,3.476-49.086,5.6a.728.728,0,0,0-.686.9A121.855,121.855,0,0,0,134.01,286a15.4,15.4,0,0,0-1.907-.539c-4.032-.855-6.711,1.868-10.162,3.218a27.771,27.771,0,0,1-.443-3.867c.971-.366.77-1.767-.081-2.245a54.6,54.6,0,0,0-.347-6.049c-.319-2.329-.687-7.919-4-8.069a.8.8,0,0,0-.8.8c-.058,3.991,1.1,7.883,1.864,11.8A47.426,47.426,0,0,0,106.045,270.6c-5.248-3.163-11.321-4.118-17.361-4.192-1.516-.019-1.42,2.112,0,2.289,2.492.311,4.579,2.641,6.246,4.315,2.285,2.3,4.4,4.748,6.831,6.9,4.58,4.061,10.91,5.6,16.966,5.23a19.511,19.511,0,0,1-.063,3.8c-2.646-.4-5.506-1.884-7.645-2.619-3.257-1.119-6.688-1.842-9.917-.283-3.357,1.621-4.834,5.458-5.132,8.925a25.751,25.751,0,0,0,.386,6.088c.137.89.324,1.773.528,2.65l-.021,0a2.858,2.858,0,0,0-.3-.024,3,3,0,0,0-.422.062c-.031.005-.037.007-.035.007a1.321,1.321,0,0,0-.2.064.6.6,0,0,0-.642.569.511.511,0,0,0-.068.855c-4.324,9.619-13.241,16.077-19.348,24.46-.554.76.216,1.624.973,1.7,6.554.625,12.341,4.153,18.4,6.461.28,22.263.984,44.523.962,66.787-.166-.056-.334-.11-.5-.159a.817.817,0,0,0-.916,1.191c1.532,2.235,4.048,3.547,6.389,4.811a84.122,84.122,0,0,0,8.215,3.785,91.614,91.614,0,0,0-14.454-2.678.4.4,0,0,0-.128.784c8.326,1.756,16.358,4.793,24.543,7.115-.491,3.043-2.021,4.9-5.479,5.127s-6.989-.949-10.353-1.588c-9.71-1.845-19.732-.678-29.372-3.166-4.676-1.207-6.4-4.32-6.9-8.88-.409-3.744-.625-7.52-.98-11.271-.312-3.289-.574-6.605-.709-9.906-.063-1.529.053-4.193-1.085-5.59a21.672,21.672,0,0,0,4.01-2.436,61.7,61.7,0,0,0,9.92-8.964,72.449,72.449,0,0,0,7.152-8.516c2.006,1.829,4.271,4.364,4.8,6.893a34.823,34.823,0,0,1,.549,7.614,132.207,132.207,0,0,1-1.814,16.676c-.647,4.557-.582,8.959-.8,13.537-.107,2.286-.185,4.535-2.52,5.567a16.842,16.842,0,0,1-6.112,1.043,82.883,82.883,0,0,0,.132-10.183,32.57,32.57,0,0,1,.1-5.475,2.985,2.985,0,0,0-.244-2.407,2.829,2.829,0,0,0-1.013-.876c-.116-.052-.2-.092-.271-.126a2.391,2.391,0,0,1-.25-.031c-3.814-.617-2.364,6.156-2.224,8.15a94.994,94.994,0,0,1,.512,12.284,1.552,1.552,0,0,0,1.656,1.77c4.9-.688,11.395-.25,12.763-6.241a35.146,35.146,0,0,0,.42-7.848,57.5,57.5,0,0,1,.62-8.112,166.369,166.369,0,0,0,2.009-18.632,31.874,31.874,0,0,0-.787-8.438c-.412-1.652-1.6-2.612-2.734-3.839a16.1,16.1,0,0,0-3.69-3.03,2.127,2.127,0,0,0-.391-2.746c-10.1-9.852-19.412-20.463-29.24-30.581-9.346-9.621-19.992-17.9-28.47-28.36a.646.646,0,0,0-1.057.741c7.068,11.462,17.507,20.11,26.623,29.841,9.41,10.045,18.417,20.463,28.122,30.228a79.079,79.079,0,0,1-7.078,8.426,53.716,53.716,0,0,1-9.748,8.647c-.741.476-1.491.943-2.243,1.4-.045.027-.078.045-.115.065-.23-.234-.609-.587-.739-.725a31.24,31.24,0,0,0-2.726-2.626c-3.9-3.212-7.377-6.926-11.173-10.259-9.672-8.489-19.828-16.407-29.371-25.051-3.625-3.284-7.252-6.614-10.568-10.215a34.361,34.361,0,0,1-3.206-3.911,4.354,4.354,0,0,1-.674-1.191l-.035-.084c.543-2.453-3.21-3.988-4.274-1.426-1.488,3.582,3.362,7.785,5.477,9.995,4.725,4.936,9.947,9.4,15.107,13.873,5.517,4.775,11.132,9.435,16.755,14.084,4.217,3.488,8.587,6.892,12.511,10.712,2.278,2.216,4.476,4.505,6.859,6.611,1.314,1.161,2.387,2.565,3.7,3.718a3.673,3.673,0,0,0,.349.267,2.366,2.366,0,0,0-.443.781,5.742,5.742,0,0,0-.063,2.779c.273,1.627.52,3.259.683,4.9.323,3.241.52,6.525,1.075,9.738.8,4.61.488,9.414,2.211,13.841,1.778,4.567,6.011,6.215,10.482,7.157,10.339,2.179,21.034.495,31.373,2.751,3.408.744,7.007,1.555,10.471.746,3.629-.847,5.033-4.476,5.21-7.825,2.359.808,4.719,1.614,7.065,2.459,7.315,2.634,14.5,5.5,21.644,8.579,7.1,3.061,14.268,6.511,21.7,8.689a1.836,1.836,0,0,0,2.134-.66.932.932,0,0,0,.652-.662l.009-.033a1.987,1.987,0,0,0,1.312-.2c18.94-9.615,39.54-14.927,59.5-21.928a1.983,1.983,0,0,0-.02.355c.144,3.391,1.538,7.117,5.22,7.976,3.463.809,7.061,0,10.469-.746,10.337-2.256,21.03-.572,31.368-2.751,4.469-.942,8.7-2.59,10.479-7.157,1.723-4.427,1.415-9.231,2.211-13.841.555-3.212.752-6.5,1.075-9.738.163-1.642.41-3.274.683-4.9a5.741,5.741,0,0,0-.062-2.779,2.367,2.367,0,0,0-.443-.781,3.746,3.746,0,0,0,.349-.267c1.312-1.154,2.385-2.557,3.7-3.719,2.383-2.106,4.581-4.4,6.858-6.611,3.924-3.82,8.292-7.225,12.509-10.712,5.622-4.649,11.236-9.308,16.753-14.084,5.159-4.468,10.38-8.937,15.1-13.873,2.114-2.21,6.964-6.412,5.476-9.995M107.9,281.063c-2.911-1.032-5.233-3.437-7.351-5.588-1.921-1.95-3.953-4.549-6.319-6.474a28.609,28.609,0,0,1,10.78,3.37c4.84,2.723,8.351,7.013,12.685,10.345a26.4,26.4,0,0,1-9.8-1.654M263.741,312.37c1.194,2.564,2.524,5.066,3.945,7.511.657,1.13,1.314,2.255,1.958,3.392.107.19.225.374.337.562-6.014,1.29-11.312,5.153-16.546,8.2-7.578,4.407-16.046,6.656-24.006,10.179-4.338,1.92-8.753,3.665-13.146,5.455-3.761,1.533-7.472,3.437-11.364,4.6-5.528,1.651-12.062,2.3-16.8,5.865-.964-1.463-2.247-2.742-3.252-4.182-1.788-2.557-3.48-5.179-5.118-7.834-1.6-2.587-3.137-5.215-4.523-7.922-.222-.433-1.051-1.794-1.539-2.974q2.044-.657,4.075-1.351c3.119-1.068,6.206-2.231,9.276-3.432,5.868-2.3,11.652-4.807,17.412-7.361,11.853-5.258,23.589-10.792,35.7-15.453a178.412,178.412,0,0,1,17.568-5.716c-.016.219-.027.438-.041.657.713-.256,1.414-.541,2.112-.836.572,3.705,2.44,7.4,3.954,10.646m-16.486-12.3a44.066,44.066,0,0,0-5.824-3.552,19.208,19.208,0,0,1,8.292.075c2.36.416,4.85,1.511,7.275,1.5q-4.967,1.4-9.832,3.086a.709.709,0,0,0,.089-1.113m18.768-31.841q-.645,1.808-1.238,3.632a15.186,15.186,0,0,0-15.726-8.115c2.26-2.934,6.205-2.645,9.6-1.91,3.113.675,5.581,2.305,8.37,3.634-.338.923-.675,1.843-1,2.759m-33.215-2.211a94.515,94.515,0,0,1,7.836-17.986c2.565-4.7,5.063-9.374,7.364-14.211,2.051-4.31,4.384-8.571,9.12-10.252a14.465,14.465,0,0,1,12.483,1.857c4.4,2.844,5.441,7.24,5.093,12.17a62.825,62.825,0,0,1-2.67,13.527c-3.719-5.419-13.344-5.385-18.644-2.42-.224.126-.069.523.179.423,5.274-2.116,15.353-2.12,17.825,4.064-.323,1.008-.662,2.011-1.008,3.012-1.54-6.2-9.327-7.873-15.245-6.675-.3.06-.167.5.123.447,5.836-.99,15.284.706,14.162,8.507a.72.72,0,0,0,.033.356c-.688,1.91-1.392,3.8-2.087,5.687a11.973,11.973,0,0,0-3.682-1.577c-2.179-.539-4.219-1.383-6.455-1.746-3.177-.514-7.175-.176-9.061,2.81a.29.29,0,0,0,.324.422c6.7-1.358,13.427,3.1,15.663,9.378-.983,3.141-1.882,6.309-2.759,9.483a4.461,4.461,0,0,0-3.658-1.607.267.267,0,0,0-.134.494A16.855,16.855,0,0,1,261,284.762q-.485,1.764-.968,3.528a16.411,16.411,0,0,0-10.467-7.953,15.215,15.215,0,0,1,6.022.491c.188.058.255-.219.079-.287a14.881,14.881,0,0,0-11.659-.139l-.015,0v0c-.058.025-.116.046-.175.071-.8.348-.2,1.495.562,1.333,5.92-1.249,13.085,3.151,14.987,8.879q-.88,3.164-1.82,6.308c-2.5-1.5-6.113-1.9-8.912-2.269-3.244-.426-6.494-.459-9.514.94a.808.808,0,0,0,0,1.385,69.465,69.465,0,0,1,7.232,4.188.593.593,0,0,0,.3.119c-10.145,3.526-20.006,7.845-29.818,12.285,5.439-9.409,8.349-20.14,11.209-30.55,1.565-5.7,3.053-11.418,4.761-17.075m-30.336.007c.338-5.692,1.121-11.385,1.137-17.089.022-8.036-.821-17.474,3.4-24.686,2.029-3.468,5.794-5.242,9.509-6.365a10.174,10.174,0,0,1,7.668.277c4.694,2.452,5.687,8.94,6.124,13.657a93.158,93.158,0,0,1,.231,12.83c-4.556-2.828-11.76-1.134-15.424,2.3a.365.365,0,0,0,.441.572c3.865-2.2,11.086-3.688,14.745-.413a1.078,1.078,0,0,0,.1.073c-.024.384-.047.769-.075,1.153-.165,2.289-.388,4.574-.629,6.857-.1.914-.187,1.862-.253,2.825a13.522,13.522,0,0,0-13.48,2.493.366.366,0,0,0,.441.572,14.7,14.7,0,0,1,12.944-.943,21.312,21.312,0,0,0,.8,6.775c-.871,2.912-1.661,5.853-2.442,8.79a23.7,23.7,0,0,0-9.483-.1.433.433,0,0,0,0,.83c2.966.557,6.013.584,8.943,1.3q-.263.99-.527,1.98c-1.223,4.567-2.487,9.122-3.884,13.63-1.6-1.125-4.3-.6-6.112-.445a.5.5,0,0,0,0,.993c.991.083,1.98.172,2.966.3a9.11,9.11,0,0,0,2.828.163,147.557,147.557,0,0,1-7.9,20.334l-.912.414c1.127-8.955-4.721-17.189-8.863-24.744q-1.191-2.172-2.274-4.384a.583.583,0,0,0,.022-.208,142.746,142.746,0,0,1-.037-19.741m-23.195-4.314c-.022,0-.041.005-.062.006a2.507,2.507,0,0,1-.275-2.469c.653-1.229,2.494-1.838,3.707-2.243a12.928,12.928,0,0,1,7.221-.426,28.552,28.552,0,0,1,6.42,2.3,5.961,5.961,0,0,1,1,.6,2.531,2.531,0,0,0,.249.177.051.051,0,0,0-.017.005c-.769.549-1.7.421-2.052,1.419a.342.342,0,0,0-.014.139.423.423,0,0,0-.069.083,1.216,1.216,0,0,0-.242.014c-5.205.884-10.611.444-15.864.4m2.38,19.531a29.881,29.881,0,0,0,1.125-8.67A.947.947,0,0,0,182.77,271q-.01-.522-.025-1.045a1.342,1.342,0,0,0-.074-2.136c-.045-1.22-.09-2.448-.1-3.692a73.828,73.828,0,0,0,12.52-.414c-.589,8.539,2.371,17.136,5.823,24.8,3.889,8.63,11.537,18.108,9.289,28.15-7.281,3.312-14.564,6.6-21.946,9.6q-4.241,1.721-8.542,3.288c-1.424.52-2.857,1.018-4.292,1.507-.715.244-1.434.478-2.152.714l-.008,0a1.694,1.694,0,0,0-.043-.229c-1.913-6.523-1.8-13.394-.743-20.142,5.126,2.731,12.229,2.8,17.584,2.423,6.322-.441,15.182-2.151,18.271-8.474a.182.182,0,0,0-.315-.184c-3.976,5.64-12.024,7.356-18.457,7.879-5.56.452-11.794.076-16.968-2.36a113.283,113.283,0,0,1,2.973-12.642c1.643-5.715,4.376-11.092,6.1-16.8m-48.911-6.726c16.033-1.9,32.267-1.852,48.246-4.205,0,.228,0,.457.005.685-7.535.594-15.116,1.974-22.54,3.271a210.369,210.369,0,0,0-24.018,5.551.017.017,0,0,0,.009.032,191.006,191.006,0,0,1,24.155-4.5c7.429-.987,14.959-1.411,22.376-2.473a30.222,30.222,0,0,1-1.709,8.54c-1.972,5.858-4.883,11.361-6.656,17.283-1.034,3.453-1.984,7.021-2.69,10.639a.2.2,0,0,0-.052.268c-1.336,6.969-1.752,14.117-.1,20.986-5.614-2.2-11.079-4.824-16.524-7.4-3.781-1.787-7.659-3.349-11.591-4.775a18.81,18.81,0,0,0-.893-2.775c-.373-1.213-.734-2.426-1.107-3.636,2.914-6.065,4.782-13.621,1.949-19.461a12.837,12.837,0,0,0-6.113-5.938c-.506-4.053-1.925-8.1-2.749-12.092m-11.585,14.391a5.958,5.958,0,0,1-1.276.129,19.74,19.74,0,0,0,.072-4c.172-.018.342-.044.514-.065.176,1.328.386,2.647.691,3.936m-3.333-18.441c1.443,1.59,1.661,7.116,1.857,8.349.192,1.205.337,2.432.481,3.663-.167.026-.334.053-.5.075-.628-4.017-1.849-7.98-1.836-12.086M102.823,287.68c2.979-1.055,6.485.666,9.177,1.816a23.9,23.9,0,0,0,7.987,2.369,8.182,8.182,0,0,0,5.136,1.984c1.129.046,1.134-1.75,0-1.754a8.932,8.932,0,0,1-2.724-.454c2.258-.642,4.224-2.392,6.43-3.1,3.909-1.252,8.02,1.845,9.933,4.984,1.988,3.261,1.284,7.3.432,10.811a35.883,35.883,0,0,1-4.3,10.365,1.267,1.267,0,0,0-.034,1.385c-6.339-2.061-12.763-3.888-19.115-5.812-5.764-1.745-11.521-3.506-17.32-5.125-.109-.925-.2-1.856-.362-2.78a31.452,31.452,0,0,1-.434-5.671c.044-3.652,1.44-7.692,5.191-9.019m34.366,29.18c-.144-.049-.287-.1-.431-.147a1.371,1.371,0,0,0,.407-.287,3.577,3.577,0,0,0,.024.434m-40,19.271c0-.034,0-.068,0-.1a13.972,13.972,0,0,0-2-.748c0,.042,0,.084,0,.126-5.455-2.11-10.519-5.151-16.333-6.047,5.715-7.642,13.392-13.828,17.179-22.745.186.11.361.239.538.367q-.01-.465-.02-.928a1.673,1.673,0,0,0,.186-.065c.053-.022.1-.047.156-.069l.951.362c.118.234.236.476.346.738a.249.249,0,0,0,.479-.132c-.018-.1-.03-.207-.046-.31,11.939,4.481,24.327,7.8,36.422,11.819a148.909,148.909,0,0,1,18.43,7.375c5.48,2.672,10.724,5.782,16.269,8.33-2.768,3.694-4.59,8.06-6.51,12.229a73.4,73.4,0,0,1-3.994,7.813,27.483,27.483,0,0,1-3.062,3.76c-3.546-3.806-10.046-4.523-14.573-6.449-7.181-3.056-14.258-6.349-21.641-8.9-7.455-2.578-15.252-3.952-22.733-6.409l-.041-.014m76.6,98.116a1.564,1.564,0,0,0-.179.376l-.054-.023c-7.125-2.713-14.261-5.31-21.314-8.221-6.948-2.867-13.945-5.484-21.029-7.989-6.1-2.155-12.306-3.976-18.387-6.176-3.056-1.106-6.071-2.318-9.008-3.709-1.97-.933-3.854-2.19-5.842-3.133a.934.934,0,0,0,.158-.54c-.04-22.093-.435-44.174-.9-66.257,6.734,2.3,13.788,3.693,20.534,5.98,7.168,2.431,14,5.71,20.893,8.819a92.179,92.179,0,0,0,8.7,3.332c2.7.908,5.734,2.056,7.744,4.161a1.372,1.372,0,0,0,2.3-.94,13.425,13.425,0,0,0,2.744-3.543,61.591,61.591,0,0,0,3.759-7.662c2.064-4.712,3.88-9.832,6.765-14.165.205.106.421.217.643.323-.394,8.2-.177,16.412-.351,24.616-.192,9.069.116,18.039.557,27.092.434,8.907,1.651,17.786,1.405,26.719a83.21,83.21,0,0,0,.605,11.3,41.846,41.846,0,0,1,.253,9.637m2.218-1.36c.492-6.034-1.025-12.2-1.238-18.222-.312-8.837-1.278-17.609-1.818-26.432q-.827-13.534-.973-27.089c-.1-8.639.515-17.29.177-25.925a3.621,3.621,0,0,0,.353.092,16.6,16.6,0,0,0,.592,1.553,74.35,74.35,0,0,0,4.1,8.039c1.716,3.039,3.536,6.02,5.394,8.974,1.145,1.821,2.269,4.428,3.916,5.877a1.851,1.851,0,0,0,3.021,1.865c4.389-4.272,11.7-4.623,17.294-6.339,3.8-1.167,7.455-3.066,11.14-4.564,4.173-1.695,8.352-3.374,12.487-5.16,7.706-3.329,15.776-5.685,23.231-9.622,1.381-.729,2.762-1.571,4.155-2.442.041.981.135,1.959.261,2.933-.082.063-.167.123-.249.187q.048,1.272.1,2.542c.487,13.348.477,26.687,1.3,40.022.333,5.425.8,10.743,1.376,16.142.224,2.115.334,4.092-1.139,5.787-1.676,1.931-4.505,2.882-6.792,3.83-11.635,4.829-23.455,8.916-35.482,12.662-14,4.361-28,8.831-41.2,15.291" transform="translate(0 -173.578)" fill="#182e54" stroke="#182e54" stroke-width="3"/>
      <path id="Path_38060" data-name="Path 38060" d="M1457.352,1144.464c.62-.306-.379.017,0,0" transform="translate(-1177.616 -924.736)" fill="#182e54" stroke="#182e54" stroke-width="3"/>
      <path id="Path_38061" data-name="Path 38061" d="M1335.36,315.352c.609-.2,1.207-.429,1.805-.663a6.032,6.032,0,0,0,1.686-1.131c.341-.288.044-.8-.339-.819a9.261,9.261,0,0,0-3.627.889c-1.078.377-.626,2.089.475,1.724" transform="translate(-1078.224 -252.721)" fill="#182e54" stroke="#182e54" stroke-width="3"/>
      <path id="Path_38062" data-name="Path 38062" d="M1359.968,337.158a.745.745,0,0,0,0-1.49.745.745,0,0,0,0,1.49" transform="translate(-1098.409 -271.254)" fill="#182e54" stroke="#182e54" stroke-width="3"/>
      <path id="Path_38063" data-name="Path 38063" d="M905.886,669.9c4.393-2.376,9.633-3.574,14.542-4.308a72.529,72.529,0,0,1,7.849-.647c1.225-.049,2.451-.068,3.677-.086,1.5-.022,2.934-.346,4.431-.4a.083.083,0,0,0,0-.165c-1.249-.044-2.445-.345-3.693-.373-1.469-.033-2.947.031-4.415.073a78.32,78.32,0,0,0-7.98.627,35.64,35.64,0,0,0-14.427,5.25.016.016,0,0,0,.017.028" transform="translate(-732.027 -536.506)" fill="#182e54" stroke="#182e54" stroke-width="3"/>
      <path id="Path_38064" data-name="Path 38064" d="M1070.875,668.007a2.2,2.2,0,0,1,.776.272.664.664,0,0,0,.546.072.1.1,0,0,0,0-.171,1.33,1.33,0,0,0-.3-.1,2.761,2.761,0,0,1-.385-.19,1.625,1.625,0,0,0-.641-.212c-.211-.017-.215.324,0,.331" transform="translate(-865.246 -539.55)" fill="#182e54" stroke="#182e54" stroke-width="3"/>
      <path id="Path_38065" data-name="Path 38065" d="M934.5,763.78c.052-.026.073-.037.067-.037.037-.013.074-.025.112-.035a2.724,2.724,0,0,0,.6-.323.435.435,0,0,0,0-.743,1.373,1.373,0,0,0-.964-.249,2.154,2.154,0,0,0-1.04.529.728.728,0,0,0,1.03,1.03.935.935,0,0,1,.193-.172" transform="translate(-754.012 -616.078)" fill="#182e54" stroke="#182e54" stroke-width="3"/>
      <path id="Path_38066" data-name="Path 38066" d="M942.777,774.663a3.871,3.871,0,0,0-1.705.652,6.366,6.366,0,0,0-1.506,1.195.348.348,0,0,0,.491.491,6.164,6.164,0,0,1,1.431-.974,8.547,8.547,0,0,0,1.57-.686c.289-.224.033-.675-.281-.678" transform="translate(-759.182 -626.007)" fill="#182e54" stroke="#182e54" stroke-width="3"/>
      <path id="Path_38067" data-name="Path 38067" d="M663.978,653.332a6.16,6.16,0,0,0,3.57-.471.856.856,0,0,0-.429-1.584,9.007,9.007,0,0,0-1.59.224,12.353,12.353,0,0,1-1.551.11.861.861,0,0,0,0,1.721" transform="translate(-535.889 -526.298)" fill="#182e54" stroke="#182e54" stroke-width="3"/>
      <path id="Path_38068" data-name="Path 38068" d="M668.066,689.752a4.255,4.255,0,0,0-2.417-.2.994.994,0,0,0,0,1.986,4.252,4.252,0,0,0,2.417-.2.924.924,0,0,0,0-1.582" transform="translate(-537.137 -557.167)" fill="#182e54" stroke="#182e54" stroke-width="3"/>
      <path id="Path_38069" data-name="Path 38069" d="M776.155,642.446a28.912,28.912,0,0,1,4.284-2.241c1.377-.685,4.22-1.491,4.892-2.963a.625.625,0,0,0-.366-.9c-1.647-.551-4.184,1.342-5.525,2.154a15.48,15.48,0,0,0-3.887,3.17c-.345.4.124,1.139.6.78" transform="translate(-626.63 -514.149)" fill="#182e54" stroke="#182e54" stroke-width="3"/>
      <path id="Path_38070" data-name="Path 38070" d="M801.061,691.679a11.689,11.689,0,0,0-2.317.819c-.95.355-1.86.76-2.838,1.044a.928.928,0,0,0,.493,1.787c1.787-.414,4.35-1.019,5.41-2.678.348-.545-.222-1.048-.748-.972" transform="translate(-642.64 -558.941)" fill="#182e54" stroke="#182e54" stroke-width="3"/>
      <path id="Path_38081" data-name="Path 38081" d="M1262.761,954.734a1.606,1.606,0,0,0,1.62,2.772,19.331,19.331,0,0,1,4.284-1.576c.9-.259,2.839-1.122,2.076-2.4-1.389-2.334-6.371.262-7.981,1.209" transform="translate(-1019.809 -769.78)" fill="#182e54" stroke="#182e54" stroke-width="3"/>
      <path id="Path_38082" data-name="Path 38082" d="M1259.918,1033.427c-.771-.278-1.671.2-2.422.413a5.976,5.976,0,0,1-2.95-.061c-1.517-.351-2.16,1.979-.642,2.33a9.808,9.808,0,0,0,3.9.135c1.083-.179,2.62-.889,2.623-2.148a.711.711,0,0,0-.51-.67" transform="translate(-1012.58 -835.046)" fill="#182e54" stroke="#182e54" stroke-width="3"/>
      <path id="Path_38083" data-name="Path 38083" d="M1260.177,1147.767c-.236-.04-.471-.083-.709-.109a9.321,9.321,0,0,0-1.123,0,1.258,1.258,0,0,0,0,2.516,9.222,9.222,0,0,0,1.123,0c.238-.026.473-.068.709-.109.35-.06.509-.328.71-.562a.854.854,0,0,0,0-1.177c-.2-.234-.36-.5-.71-.563" transform="translate(-1015.853 -927.409)" fill="#182e54" stroke="#182e54" stroke-width="3"/>
      <path id="Path_38084" data-name="Path 38084" d="M629.729,1042.882a.745.745,0,0,0-1.436.4,34.078,34.078,0,0,0,1.752,5.2c.556,1.269,1.132,3.277,2.63,3.621a.567.567,0,0,0,.692-.393c.26-1.349-.828-2.5-1.455-3.643a31.185,31.185,0,0,1-2.183-5.179" transform="translate(-507.701 -842.333)" fill="#182e54" stroke="#182e54" stroke-width="3"/>
      <path id="Path_38085" data-name="Path 38085" d="M682.183,1033.182c-.257-1.17-2.027-.671-1.788.494.4,1.92,1.544,5.575,3.86,5.841a.576.576,0,0,0,.579-.579c-.09-1.051-.94-1.792-1.481-2.652a9.615,9.615,0,0,1-1.171-3.1" transform="translate(-549.81 -834.377)" fill="#182e54" stroke="#182e54" stroke-width="3"/>
      <path id="Path_38086" data-name="Path 38086" d="M733.36,1041.167a21.911,21.911,0,0,0,1.076,2.475,3.274,3.274,0,0,0,1.64,1.912.962.962,0,0,0,1.084-.441c.882-1.426-.764-3.331-1.247-4.65-.58-1.583-3.109-.926-2.553.7" transform="translate(-592.565 -840.068)" fill="#182e54" stroke="#182e54" stroke-width="3"/>
      <path id="Path_38087" data-name="Path 38087" d="M1057.8,832.911a.845.845,0,0,0-1.688,0c.008.914-.085,3.085,1.268,3.056.621-.014.728-.834.582-1.278a5.528,5.528,0,0,1-.161-1.777" transform="translate(-853.441 -672.417)" fill="#182e54" stroke="#182e54" stroke-width="3"/>
      <path id="Path_38088" data-name="Path 38088" d="M1560.549,855.538a.2.2,0,0,0-.281-.281c-2.257,1.969-4.294,4.185-6.391,6.321a.248.248,0,0,0,.351.351c2.136-2.1,4.351-4.135,6.321-6.391" transform="translate(-1255.631 -691.091)" fill="#182e54" stroke="#182e54" stroke-width="3"/>
      <path id="Path_38089" data-name="Path 38089" d="M1570.418,881.79c.963-.843,1.929-1.682,2.918-2.5,1.028-.847,2.428-1.866,2.739-3.226a1.138,1.138,0,0,0-1.085-1.425c-1.405.019-2.688,1.159-3.617,2.131-.973,1.019-1.9,2.083-2.828,3.142a1.325,1.325,0,0,0,1.873,1.873" transform="translate(-1267.246 -706.801)" fill="#182e54" stroke="#182e54" stroke-width="3"/>
      <path id="Path_38090" data-name="Path 38090" d="M1607.118,937.869a4.658,4.658,0,0,0,3.98-2,1.183,1.183,0,0,0-1.608-1.607,6.923,6.923,0,0,1-2.373.961,1.325,1.325,0,0,0,0,2.648" transform="translate(-1297.679 -754.866)" fill="#182e54" stroke="#182e54" stroke-width="3"/>
      <path id="Path_38091" data-name="Path 38091" d="M267.882,885.819a11.407,11.407,0,0,0,5.607-2.806c.432-.441-.023-1.012-.547-.94-1.944.262-3.726,1.208-5.658,1.575-1.413.269-.823,2.512.6,2.171" transform="translate(-215.338 -712.8)" fill="#182e54" stroke="#182e54" stroke-width="3"/>
      <path id="Path_38092" data-name="Path 38092" d="M315.917,930.021c-.629-1.183-1.976-1.492-3.212-1.7-1.567-.261-3.149-.454-4.721-.68-1.979-.285-2.887,2.677-.845,3.064l4.665.885c1.367.26,2.891.471,3.981-.549a.853.853,0,0,0,.132-1.023" transform="translate(-247.266 -749.615)" fill="#182e54" stroke="#182e54" stroke-width="3"/>
      <path id="Path_38093" data-name="Path 38093" d="M335.93,974.956l-.847-.182a1.424,1.424,0,1,0,0,2.745l.847-.182a2.325,2.325,0,0,0,.9-.461.859.859,0,0,0,0-1.458,2.322,2.322,0,0,0-.9-.461" transform="translate(-269.325 -787.688)" fill="#182e54" stroke="#182e54" stroke-width="3"/>
    </g>
  </g>
</svg>
