<svg xmlns="http://www.w3.org/2000/svg" width="335.873" height="126.011" viewBox="0 0 335.873 126.011">
  <g id="Group_13888" data-name="Group 13888" transform="translate(-1544.836 -7771.571)">
    <path id="Path_38094" data-name="Path 38094" d="M13.727,41.418c5.663,4.28,11.789,7.925,17.7,11.837,4.8,3.177,10.572,6.71,13.446,11.894,1.773,3.2,7.339,1,6-2.531C46.46,50.95,53.8,40.8,59.4,31.04c5.019-8.75,8.24-18.488,1-27.092C48.981-9.629,37.636,15.188,33.938,27.466c-3.378-4.713-6.638-9.5-10.828-13.658C16.935,7.677,5.976,3.028,1.58,13.728c-5.051,12.3,2.821,20.642,12.147,27.69M5.622,19.71c.726-2.731,2.232-6.938,5.75-6.194,3.943.834,7.725,3.933,10.732,6.442,4,3.333,7.373,7.248,10.907,11.006-.056.258-.107.506-.149.733a3.407,3.407,0,0,0,4.673,3.793c.1.09.192.185.29.276a.98.98,0,0,0,1.386-1.385c-.1-.114-.187-.229-.282-.343a3.838,3.838,0,0,0,.23-.6A88.216,88.216,0,0,1,46.9,13.953c1.468-2.624,3.254-5.574,6-7,2.169-1.125,4.522,4.794,4.91,6.039,1.111,3.565-.649,7.534-2.2,10.676-2.19,4.43-4.982,8.547-7.379,12.866C45.192,42.015,43,47.714,42.7,53.543c-5.436-4.247-11.93-7.559-17.436-10.936C17.925,38.1,2.776,30.43,5.622,19.71" transform="matrix(0.966, 0.259, -0.259, 0.966, 1587.408, 7815.758)" fill="#182e54" stroke="#fff" stroke-width="1"/>
    <path id="Path_38095" data-name="Path 38095" d="M13.833,37.574c3.737,2.126,7.7,3.8,11.335,6.122,4.223,2.7,6.8,6.867,8.716,11.4.634,1.5,2.926.658,2.921-.791,0-.325-.024-.633-.041-.946a10.113,10.113,0,0,0,2.66,2.122c3.221,1.816,6.775-2.563,4-5.179-2.831-2.665-1.19-6.708,0-9.81,1.779-4.657,4.741-8.914,7.516-13.017,4.025-5.949,9.846-13.142,7.913-20.88C57.188-.037,49.01.846,44.345,3.06,38.577,5.8,34.884,11.016,32.837,16.848,29.1,10.462,25.731,3.195,18.6.815,8.329-2.618.593,5.3.036,15.073c-.567,9.963,5.534,17.8,13.8,22.5M17.646,7.458c3.672,1.915,5.892,6.317,7.856,9.752a72.418,72.418,0,0,0,6.507,10.23c2.115,2.583,5.452.146,5.774-2.391.846-6.653,4.383-14.83,11.055-17.546,7.44-3.029,5.167,5.653,3.2,9.517-1.612,3.171-4.229,5.851-6.422,8.621a103.689,103.689,0,0,0-7.587,10.637,23.433,23.433,0,0,0-3.437,9.587c-5.8-9.837-21.377-12.228-26.721-23.13C4.6,16.051,7.762,2.3,17.646,7.458" transform="matrix(0.966, 0.259, -0.259, 0.966, 1676.888, 7772.231)" fill="#182e54" stroke="#fff" stroke-width="1"/>
    <path id="Path_38096" data-name="Path 38096" d="M9.875,18.52a1.413,1.413,0,0,0,.336-2.566C7.62,14.823,4.363,14.13,3.968,10.793,3.579,7.5,6,4.587,7.918,2.209A1.312,1.312,0,0,0,6.335.158a11.593,11.593,0,0,0-6.294,11.2A8.233,8.233,0,0,0,9.875,18.52" transform="matrix(0.966, 0.259, -0.259, 0.966, 1562.633, 7823.33)" fill="#182e54" stroke="#fff" stroke-width="1"/>
    <path id="Path_38097" data-name="Path 38097" d="M7.018,13.893a1.485,1.485,0,0,0,1.039-2.508C6.908,10.181,5.43,9.27,4.631,7.764,3.7,6,4,3.849,4.413,1.992a1.634,1.634,0,0,0-3.148-.868C.2,3.7-.542,6.792.506,9.5a6.47,6.47,0,0,0,6.511,4.39" transform="matrix(0.966, 0.259, -0.259, 0.966, 1549.056, 7825.467)" fill="#182e54" stroke="#fff" stroke-width="1"/>
    <path id="Path_38098" data-name="Path 38098" d="M1.083,2.711A8.252,8.252,0,0,1,10.1,5.727a4.459,4.459,0,0,1,.268,4.458c-.787,1.7-2.266,2.306-2.522,4.245-.1.761.7,1.348,1.371,1.372,2.676.095,4.289-3.056,5-5.294a8.024,8.024,0,0,0-1.083-6.557C10.411-.4,4.721-.879.429,1.159c-.893.424-.25,1.782.654,1.552" transform="matrix(0.966, 0.259, -0.259, 0.966, 1741.764, 7782.434)" fill="#182e54" stroke="#fff" stroke-width="1"/>
    <path id="Path_38099" data-name="Path 38099" d="M.68,2.755a8.745,8.745,0,0,1,3.5,3.787c.7,1.747-.106,3.266.12,4.976a1.322,1.322,0,0,0,2.229.924c1.74-1.555,1.682-4.776.894-6.794A11.433,11.433,0,0,0,2.163.219,1.47,1.47,0,0,0,.68,2.755" transform="matrix(0.966, 0.259, -0.259, 0.966, 1764.428, 7782.869)" fill="#182e54" stroke="#fff" stroke-width="1"/>
    <path id="Path_38100" data-name="Path 38100" d="M11.89,33.424a1.77,1.77,0,0,0,2.768-2.137c-3.647-7.008-7.189-13.845-9.325-21.4,5.08,2.05,6.573,10,8.068,14.785a3.218,3.218,0,0,0,6.156,0c1.9-5.687,6.631-10.551,11.373-14.018,1.769-1.293,9-6.445,10.055-2.411,2.092,7.979-6.351,15.342-11.493,19.921-5.7,5.072-13.632,10-17.35,16.869-2.33,4.3,3.424,8.167,6.4,5.255a12.964,12.964,0,0,0,3.429-4.076,41.14,41.14,0,0,1,4.984-6.268c4.054-4.414,8.945-8,12.981-12.466,5.14-5.683,11.579-16.689,6.168-24.233-4.446-6.2-13.031-2.184-17.943,1.114a41.332,41.332,0,0,0-11.77,11.6C13.429,10.089,9.269,4.519,2.271,4.806A2.331,2.331,0,0,0,.057,7.711C1.915,16.687,5.339,26.766,11.89,33.424" transform="matrix(0.966, 0.259, -0.259, 0.966, 1795.319, 7822.544)" fill="#182e54" stroke="#fff" stroke-width="1"/>
    <path id="Path_38101" data-name="Path 38101" d="M2.187,8.637C7.22,8.057,12.252,7,17.221,6.031c3.958-.769,2.237-6.626-1.649-5.982-4.78.792-9.28,3-13.984,4.162-2.421.6-1.959,4.72.6,4.425" transform="matrix(0.966, 0.259, -0.259, 0.966, 1861.276, 7825.383)" fill="#182e54" stroke="#fff" stroke-width="1"/>
    <path id="Path_38102" data-name="Path 38102" d="M14.446,3.917C15.481,1.378,11.763.4,10.117.255,7.549.031,4.971.241,2.4.012c-3.032-.27-3.123,4-.669,4.938,3.391,1.3,10.882,3.462,12.714-1.033" transform="matrix(0.966, 0.259, -0.259, 0.966, 1855.354, 7856.347)" fill="#182e54" stroke="#fff" stroke-width="1"/>
    <path id="Path_38103" data-name="Path 38103" d="M8.461,5.773a2.46,2.46,0,0,0,.977-.541,1.93,1.93,0,0,0,0-3.27C7.683.647,5.292.97,3.344.179.516-.967-1.39,3.7,1.28,5.073a9.875,9.875,0,0,0,4.093,1.2,5.04,5.04,0,0,0,2.435-.435c-.121.061.681-.075.653-.07" transform="matrix(0.966, 0.259, -0.259, 0.966, 1853.013, 7877.109)" fill="#182e54" stroke="#fff" stroke-width="1"/>
  </g>
</svg>
