<?xml version="1.0" encoding="utf-8"?>
<!-- Generator: Adobe Illustrator 24.1.2, SVG Export Plug-In . SVG Version: 6.00 Build 0)  -->
<svg version="1.1" id="Layer_1" xmlns="http://www.w3.org/2000/svg" xmlns:xlink="http://www.w3.org/1999/xlink" x="0px" y="0px"
	 viewBox="0 0 750 111.8" style="enable-background:new 0 0 750 111.8;" xml:space="preserve">
<style type="text/css">
	.st0{fill:#F8D959;}
</style>
<path id="Union_235" class="st0" d="M0,111.8c0-17,0-34.1,0-51.1c0-6.2,0.6-7.5,3.8-6.7c15.7,3.7,31.5,7.3,47.2,9.6
	c16.8,2.6,33.7,4.4,50.7,5.3c22.2,1.1,44.3,1.4,66.5,1c14.9-0.5,29.8-1.8,44.6-3.9c18.4-2.4,36.8-5.1,55.1-9c28-6,56-12.5,83.9-20.3
	c22.5-6.2,44.9-14.9,67.4-21.8c15.3-4.7,30.7-8.6,46.1-12.4c5.6-1.5,11.4-2.4,17.2-2.6l0.5,0c4.6,0,9.1,0.8,13.3,2.5
	c1.8,0.7,3.5,1.6,5,2.7c8.1,5.9,11.3,17.8,9.5,35c-0.5,5.2-1.2,10.4-1.3,15.6c-0.3,13.8,3.6,22.7,9.2,28.9c6.5,7.3,15.3,12,25,13.4
	c10.6,1.7,21.3,3,31.9,2.3c14.7-1,29.4-3.1,43.8-6.1c16.2-3.2,32.3-7.2,48.4-12.1c20.2-6.2,40.4-13.5,60.6-20.5
	c7-2.4,14-5.3,21.5-8.2v58.2L0,111.8z"/>
</svg>
