<svg xmlns="http://www.w3.org/2000/svg" xmlns:xlink="http://www.w3.org/1999/xlink" width="749" height="128.3" viewBox="0 0 749 128.3">
  <defs>
    <clipPath id="clip-path">
      <rect id="Rectangle_7103" data-name="Rectangle 7103" width="749" height="128.3" transform="translate(0 42.596)" fill="#80de66"/>
    </clipPath>
  </defs>
  <g id="Mask_Group_160" data-name="Mask Group 160" transform="translate(0 -42.596)" clip-path="url(#clip-path)">
    <path id="Union_251" data-name="Union 251" d="M709.6,0a153.5,153.5,0,0,0-25.347,2.7c-22.615,3.9-45.225,8.027-67.741,12.995-33.07,7.3-65.963,16.384-99.1,22.937C476.375,46.745,435.2,53.581,394.011,59.939c-26.94,4.159-53.993,6.933-81.034,9.5-21.813,2.072-43.674,3.779-65.524,4.083q-48.9.674-97.8-1.018c-24.872-.874-49.748-2.913-74.561-5.587-23.2-2.5-46.343-6.2-69.451-10.126-4.8-.815-5.618.552-5.616,7.063q.06,147.306.069,294.593H0v905.58H1102.941V56.37c-10.957,2.992-21.236,6.018-31.571,8.576C1041.69,72.287,1012.046,80,982.276,86.48,958.65,91.62,934.9,95.8,911.127,99.211c-21.412,3.073-42.914,5.43-64.414,6.4-15.591.7-31.279-.684-46.853-2.459-12.716-1.452-25.286-5.118-36.757-14.084-8.307-6.492-13.908-15.79-13.533-30.347a144.514,144.514,0,0,1,1.848-16.444c2.562-18.109-2.108-30.571-14.029-36.8a39.221,39.221,0,0,0-7.4-2.813A71.119,71.119,0,0,0,710.372,0Z" transform="translate(-0.5 42.597)" fill="#80de66"/>
  </g>
</svg>
