<svg xmlns="http://www.w3.org/2000/svg" xmlns:xlink="http://www.w3.org/1999/xlink" width="169.215" height="157.385" viewBox="0 0 169.215 157.385">
  <defs>
    <clipPath id="clip-path">
      <rect id="Rectangle_5612" data-name="Rectangle 5612" width="72.455" height="73.802" fill="none" stroke="#182e54" stroke-width="1.5"/>
    </clipPath>
  </defs>
  <g id="Group_15281" data-name="Group 15281" transform="translate(3.213 2.712)">
    <path id="Path_38204" data-name="Path 38204" d="M26.3,108.246c.4-.532,17.742,8.333,18.021,7.961,0,0-19.713-10.077-19.445-10.433,0,0,26.734,12,26.84,11.857.6-.8-41.622-26.451-41.622-26.451,1.111-1.478,57.074,25.573,57.278,25.3C68.188,115.4,5.114,83.935,5.114,83.935c.7-.929,81.106,35.829,81.106,35.829L4.668,78.726l82.806,36.581S4.508,71.388,5.436,70.154c.141-.187,89.577,42.253,91.091,40.24,2.026-2.695-88.153-43.18-88.153-43.18s100.171,46.8,101.611,44.887c1.59-2.116-103.1-46.666-102.688-47.22,1.144-1.524,98.131,46.681,100.01,44.18,0,0-109.069-49.467-107.375-51.72l114.84,50.733C115.732,106.8,4.657,51.066,4.657,51.066,5.685,49.7,120.9,102.418,120.9,102.418L7.434,46.41C9.72,43.37,117.436,95,117.436,95L9.821,39.723s112,50.924,112.817,49.837c.778-1.032-119.016-52.01-118.25-53.03,2.742-3.648,124.333,54.924,124.333,54.924C130.6,88.958,3.146,31.705,6.008,27.9c2.628-3.5,123.04,54.526,123.137,54.4L6.556,20.838c1.13-1.5,125.172,59.235,127.394,56.278C135.923,74.494,8.762,22.288,11.606,18.5,13,16.65,131.5,71.467,131.5,71.467S18.755,19.943,19.7,18.682L131.882,68.238c.895-1.19-118.483-56.109-117.044-58.021,1.762-2.346,120.48,55.157,121.571,53.7,1.185-1.574-116.741-57.039-116.017-58C22.365,3.3,135.046,56.855,135.205,56.64,135.573,56.151,26.025,3.7,26.427,3.16,28.545.345,133.041,53.551,134.9,51.08c.694-.923-95.64-49.446-94.529-50.922l94.752,41.856C136.01,40.835,40.7,1.193,41.619-.03c1.085-1.445,90.669,43.453,92.587,40.9C135.473,39.186,46.336,1.2,46.338,1.2c1.018-1.355,89.445,39.512,89.445,39.512S54.911,2.187,55.829.964C56.177.5,123,32.819,124.227,31.18c0,0-63.512-28.379-62.142-30.2,0,0,53.359,25.464,54.426,24.044.3-.4-37.437-19.452-36.705-20.426,0,0,19.819,9.635,20.316,8.976" transform="matrix(-0.966, 0.259, -0.259, -0.966, 162.664, 115.859)" fill="none" stroke="#fff" stroke-width="5"/>
    <g id="Group_13961" data-name="Group 13961" transform="translate(45.104 38.789)">
      <g id="Group_13929" data-name="Group 13929" transform="translate(0 0)">
        <g id="Group_13928" data-name="Group 13928" transform="translate(0)" clip-path="url(#clip-path)">
          <path id="Path_38143" data-name="Path 38143" d="M134.5,59.38c0-8.5,6.159-15.388,13.758-15.388s13.757,6.89,13.757,15.388" transform="translate(-95.708 -29.403)" fill="none" stroke="#182e54" stroke-linecap="round" stroke-linejoin="round" stroke-width="1.5"/>
          <path id="Path_38144" data-name="Path 38144" d="M169.01,59.9,159.63,70.4,150.25,59.9" transform="translate(-107.081 -40.418)" fill="none" stroke="#182e54" stroke-linecap="round" stroke-linejoin="round" stroke-width="1.5"/>
          <path id="Path_38151" data-name="Path 38151" d="M0,1.036V14.714" transform="translate(52.293 14.834)" fill="none" stroke="#182e54" stroke-linecap="round" stroke-width="1.5"/>
          <path id="Path_38145" data-name="Path 38145" d="M17.5,71.969c0-5.408,3.92-9.792,8.755-9.792s8.755,4.384,8.755,9.792" transform="translate(-11.226 -41.992)" fill="none" stroke="#182e54" stroke-linecap="round" stroke-linejoin="round" stroke-width="1.5"/>
          <path id="Path_38146" data-name="Path 38146" d="M72.084,42.94a10.571,10.571,0,0,1,.554-2.277,10.613,10.613,0,0,1,11.8,2.878,12.192,12.192,0,0,1,2.724,12.47" transform="translate(-50.64 -26.6)" fill="none" stroke="#182e54" stroke-linecap="round" stroke-linejoin="round" stroke-width="1.5"/>
          <path id="Path_38147" data-name="Path 38147" d="M90.413,57.867a7.527,7.527,0,0,1,3.571,3.1c.959,1.327,1.709,2.809,2.655,4.146a8.668,8.668,0,0,0,3.762,3.305" transform="translate(-63.874 -39.008)" fill="none" stroke="#182e54" stroke-linecap="round" stroke-linejoin="round" stroke-width="1.5"/>
          <path id="Path_38148" data-name="Path 38148" d="M117.107,11.795q.228-.654.534-1.326c3.412-7.463,9.938-6.42,9.938-6.42a14.127,14.127,0,0,1,2.163,7.741" transform="translate(-83.149 -1.717)" fill="none" stroke="#182e54" stroke-linecap="round" stroke-linejoin="round" stroke-width="1.5"/>
          <path id="Path_38149" data-name="Path 38149" d="M137.457,24.372a8.788,8.788,0,0,1-1.661,4.7c-.336.541-.7,1.055-1.072,1.563" transform="translate(-95.87 -15.82)" fill="none" stroke="#182e54" stroke-linecap="round" stroke-linejoin="round" stroke-width="1.5"/>
          <g id="Path_38150" data-name="Path 38150" transform="translate(-1.478 -64.023)" fill="none" stroke-linecap="round" stroke-linejoin="round">
            <path d="M37.769,135.542h0C19.119,135.542,4,118.8,4,98.154V96.769A2.646,2.646,0,0,1,6.5,94H69.036a2.646,2.646,0,0,1,2.5,2.769v1.385C71.537,118.8,56.419,135.542,37.769,135.542Z" stroke="none"/>
            <path d="M 37.76856994628906 134.0415496826172 C 42.10581970214844 134.0415496826172 46.31417083740234 133.1006622314453 50.2767219543457 131.2450561523438 C 54.11595916748047 129.4471740722656 57.56679916381836 126.8701934814453 60.53340911865234 123.5856704711914 C 63.5098991394043 120.2901840209961 65.84780883789062 116.4499969482422 67.482177734375 112.1717681884766 C 69.17749786376953 107.7340087890625 70.03710174560547 103.0177841186523 70.03710174560547 98.15411376953125 L 70.03710174560547 96.76942443847656 C 70.03710174560547 96.08131408691406 69.57854461669922 95.49998474121094 69.03575134277344 95.49998474121094 L 6.501380920410156 95.49998474121094 C 5.95858097076416 95.49998474121094 5.500000953674316 96.08131408691406 5.500000953674316 96.76942443847656 L 5.500000953674316 98.15411376953125 C 5.500000953674316 103.0177841186523 6.359601020812988 107.7340087890625 8.05492115020752 112.1717681884766 C 9.689291000366211 116.4499969482422 12.02720069885254 120.2901840209961 15.00370121002197 123.5856704711914 C 17.97031021118164 126.8701934814453 21.42116165161133 129.4471740722656 25.26040077209473 131.2450561523438 C 29.22296142578125 133.1006622314453 33.43132019042969 134.0415496826172 37.76856994628906 134.0415496826172 M 37.76856994628906 135.5415496826172 C 19.11858177185059 135.5415496826172 4.000000953674316 118.8027954101562 4.000000953674316 98.15411376953125 L 4.000000953674316 96.76942443847656 C 4.000000953674316 95.23977661132812 5.119791030883789 93.99998474121094 6.501380920410156 93.99998474121094 L 69.03575134277344 93.99998474121094 C 70.41706848144531 93.99998474121094 71.53710174560547 95.23977661132812 71.53710174560547 96.76942443847656 L 71.53710174560547 98.15411376953125 C 71.53710174560547 118.8027954101562 56.41852951049805 135.5415496826172 37.76856994628906 135.5415496826172 Z" stroke="none" fill="#182e54"/>
          </g>
          <g id="Path_38152" data-name="Path 38152" transform="translate(6.651 -59.05)" fill="#5fbb46" stroke-linecap="round" stroke-linejoin="round">
            <path d="M 29.63899040222168 124.7907028198242 C 26.28848075866699 124.7907028198242 23.03777122497559 124.0639801025391 19.97717094421387 122.6307373046875 C 17.01504135131836 121.2436065673828 14.35335063934326 119.256217956543 12.06604099273682 116.7237777709961 C 9.773771286010742 114.1858673095703 7.973570823669434 111.2291717529297 6.71544075012207 107.9358215332031 C 5.411271095275879 104.5219497680664 4.750000953674316 100.8944396972656 4.750000953674316 97.154052734375 L 4.750000953674316 96.10269165039062 C 4.750000953674316 95.3568115234375 5.265521049499512 94.74999237060547 5.899180889129639 94.74999237060547 L 53.37879180908203 94.74999237060547 C 54.0124397277832 94.74999237060547 54.52796173095703 95.3568115234375 54.52796173095703 96.10269165039062 L 54.52796173095703 97.154052734375 C 54.52796173095703 100.8944396972656 53.86669158935547 104.5219497680664 52.56251907348633 107.9358215332031 C 51.30438995361328 111.2291717529297 49.50419235229492 114.1858673095703 47.21192932128906 116.7237930297852 C 44.92462158203125 119.256217956543 42.26293182373047 121.2436065673828 39.30080032348633 122.6307373046875 C 36.24020004272461 124.0639801025391 32.989501953125 124.7907028198242 29.63899040222168 124.7907028198242 Z" stroke="none"/>
            <path d="M 29.63899040222168 124.0407028198242 C 32.87874984741211 124.0407028198242 36.02244186401367 123.3377990722656 38.98273086547852 121.951530456543 C 41.85391235351562 120.6069869995117 44.43535232543945 118.6789932250977 46.65534973144531 116.221076965332 C 48.8852424621582 113.7522125244141 50.63698196411133 110.8746032714844 51.86190032958984 107.6681671142578 C 53.13330078125 104.3400726318359 53.77796173095703 100.8026123046875 53.77796173095703 97.154052734375 L 53.77796173095703 96.10269165039062 C 53.77796173095703 95.75773620605469 53.56722259521484 95.49999237060547 53.37879180908203 95.49999237060547 L 5.899180889129639 95.49999237060547 C 5.710751056671143 95.49999237060547 5.500000953674316 95.75773620605469 5.500000953674316 96.10269165039062 L 5.500000953674316 97.154052734375 C 5.500000953674316 100.8026123046875 6.144660949707031 104.3400726318359 7.416060924530029 107.6681671142578 C 8.64098072052002 110.8746032714844 10.39272117614746 113.7522125244141 12.62262058258057 116.221076965332 C 14.84262084960938 118.6789932250977 17.4240608215332 120.6069869995117 20.29524040222168 121.951530456543 C 23.25554084777832 123.3377990722656 26.39923095703125 124.0407028198242 29.63899040222168 124.0407028198242 M 29.63899040222168 125.5407028198242 C 15.47888088226318 125.5407028198242 4.000000953674316 112.8317031860352 4.000000953674316 97.154052734375 L 4.000000953674316 96.10269165039062 C 4.000000953674316 94.94135284423828 4.850200653076172 93.99999237060547 5.899180889129639 93.99999237060547 L 53.37879180908203 93.99999237060547 C 54.42755126953125 93.99999237060547 55.27796173095703 94.94135284423828 55.27796173095703 96.10269165039062 L 55.27796173095703 97.154052734375 C 55.27796173095703 112.8317031860352 43.79909133911133 125.5407028198242 29.63899040222168 125.5407028198242 Z" stroke="none" fill="#182e54"/>
          </g>
        </g>
      </g>
    </g>
  </g>
</svg>
