<svg xmlns="http://www.w3.org/2000/svg" xmlns:xlink="http://www.w3.org/1999/xlink" width="169.215" height="157.385" viewBox="0 0 169.215 157.385">
  <defs>
    <clipPath id="clip-path">
      <rect id="Rectangle_7150" data-name="Rectangle 7150" width="72.928" height="74.569" fill="none" stroke="#182e54" stroke-width="2.5"/>
    </clipPath>
  </defs>
  <g id="Group_15281" data-name="Group 15281" transform="translate(3.213 2.712)">
    <path id="Path_38204" data-name="Path 38204" d="M26.3,108.246c.4-.532,17.742,8.333,18.021,7.961,0,0-19.713-10.077-19.445-10.433,0,0,26.734,12,26.84,11.857.6-.8-41.622-26.451-41.622-26.451,1.111-1.478,57.074,25.573,57.278,25.3C68.188,115.4,5.114,83.935,5.114,83.935c.7-.929,81.106,35.829,81.106,35.829L4.668,78.726l82.806,36.581S4.508,71.388,5.436,70.154c.141-.187,89.577,42.253,91.091,40.24,2.026-2.695-88.153-43.18-88.153-43.18s100.171,46.8,101.611,44.887c1.59-2.116-103.1-46.666-102.688-47.22,1.144-1.524,98.131,46.681,100.01,44.18,0,0-109.069-49.467-107.375-51.72l114.84,50.733C115.732,106.8,4.657,51.066,4.657,51.066,5.685,49.7,120.9,102.418,120.9,102.418L7.434,46.41C9.72,43.37,117.436,95,117.436,95L9.821,39.723s112,50.924,112.817,49.837c.778-1.032-119.016-52.01-118.25-53.03,2.742-3.648,124.333,54.924,124.333,54.924C130.6,88.958,3.146,31.705,6.008,27.9c2.628-3.5,123.04,54.526,123.137,54.4L6.556,20.838c1.13-1.5,125.172,59.235,127.394,56.278C135.923,74.494,8.762,22.288,11.606,18.5,13,16.65,131.5,71.467,131.5,71.467S18.755,19.943,19.7,18.682L131.882,68.238c.895-1.19-118.483-56.109-117.044-58.021,1.762-2.346,120.48,55.157,121.571,53.7,1.185-1.574-116.741-57.039-116.017-58C22.365,3.3,135.046,56.855,135.205,56.64,135.573,56.151,26.025,3.7,26.427,3.16,28.545.345,133.041,53.551,134.9,51.08c.694-.923-95.64-49.446-94.529-50.922l94.752,41.856C136.01,40.835,40.7,1.193,41.619-.03c1.085-1.445,90.669,43.453,92.587,40.9C135.473,39.186,46.336,1.2,46.338,1.2c1.018-1.355,89.445,39.512,89.445,39.512S54.911,2.187,55.829.964C56.177.5,123,32.819,124.227,31.18c0,0-63.512-28.379-62.142-30.2,0,0,53.359,25.464,54.426,24.044.3-.4-37.437-19.452-36.705-20.426,0,0,19.819,9.635,20.316,8.976" transform="matrix(-0.966, 0.259, -0.259, -0.966, 162.664, 115.859)" fill="none" stroke="#fff" stroke-width="5"/>
    <path id="Path_44916" data-name="Path 44916" d="M8,0a7.762,7.762,0,0,1,8,7.5c0,4.142,1.683,5.028-2.736,5.028-.42,0-5.065-4.83-5.065-4.83s-3.576,4.82-5.568,5.1C1.912,12.916,0,8.924,0,7.5A7.762,7.762,0,0,1,8,0Z" transform="translate(76.913 56.088)" fill="#5fbb46"/>
    <g id="Group_17470" data-name="Group 17470" transform="translate(48.563 35.965)">
      <g id="Group_17467" data-name="Group 17467">
        <g id="Group_17466" data-name="Group 17466" clip-path="url(#clip-path)">
          <line id="Line_328" data-name="Line 328" y2="19.907" transform="translate(36.464 0)" fill="none" stroke="#182e54" stroke-miterlimit="10" stroke-width="2.5"/>
        </g>
      </g>
      <line id="Line_329" data-name="Line 329" x2="19.907" transform="translate(44.661 28.104)" fill="none" stroke="#182e54" stroke-miterlimit="10" stroke-width="2.5"/>
      <line id="Line_330" data-name="Line 330" x2="19.907" transform="translate(8.36 28.104)" fill="none" stroke="#182e54" stroke-miterlimit="10" stroke-width="2.5"/>
      <g id="Group_17469" data-name="Group 17469">
        <g id="Group_17468" data-name="Group 17468" clip-path="url(#clip-path)">
          <path id="Path_44908" data-name="Path 44908" d="M196.135,150.544a8.2,8.2,0,1,1,10.352,0" transform="translate(-164.847 -116.093)" fill="none" stroke="#182e54" stroke-miterlimit="10" stroke-width="2.5"/>
          <path id="Path_44909" data-name="Path 44909" d="M150.173,114.558a15.235,15.235,0,1,1,20.317-.012" transform="translate(-123.873 -75.119)" fill="none" stroke="#182e54" stroke-miterlimit="10" stroke-width="2.5"/>
          <path id="Path_44910" data-name="Path 44910" d="M147.27,244.5l-3.954-4.259A52.928,52.928,0,0,1,129.7,211.71h8.2L126.192,200l-11.71,11.71h8.2a52.928,52.928,0,0,1-13.61,28.529l-3.954,4.259" transform="translate(-89.728 -170.725)" fill="none" stroke="#182e54" stroke-miterlimit="10" stroke-width="2.5"/>
          <path id="Path_44911" data-name="Path 44911" d="M124.874,83.783a22.249,22.249,0,1,0-11.021,0" transform="translate(-82.899 -34.146)" fill="none" stroke="#182e54" stroke-miterlimit="10" stroke-width="2.5"/>
          <path id="Path_44912" data-name="Path 44912" d="M147.125,360a32.99,32.99,0,0,1-3.771,4.473" transform="translate(-122.371 -307.305)" fill="none" stroke="#182e54" stroke-miterlimit="10" stroke-width="2.5"/>
          <path id="Path_44913" data-name="Path 44913" d="M1.114,409.358l2.248-.316a32.918,32.918,0,0,0,16.851-7.682" transform="translate(-0.951 -342.611)" fill="none" stroke="#182e54" stroke-miterlimit="10" stroke-width="2.5"/>
          <path id="Path_44914" data-name="Path 44914" d="M332.885,364.473A32.989,32.989,0,0,1,329.114,360" transform="translate(-280.94 -307.305)" fill="none" stroke="#182e54" stroke-miterlimit="10" stroke-width="2.5"/>
          <path id="Path_44915" data-name="Path 44915" d="M366.634,401.36a32.918,32.918,0,0,0,16.851,7.682l2.248.316" transform="translate(-312.968 -342.611)" fill="none" stroke="#182e54" stroke-miterlimit="10" stroke-width="2.5"/>
        </g>
      </g>
    </g>
  </g>
</svg>
