<svg xmlns="http://www.w3.org/2000/svg" xmlns:xlink="http://www.w3.org/1999/xlink" width="169.215" height="157.385" viewBox="0 0 169.215 157.385">
  <defs>
    <clipPath id="clip-path">
      <rect id="Rectangle_7154" data-name="Rectangle 7154" width="82.467" height="79.791" fill="none" stroke="#182e54" stroke-width="2"/>
    </clipPath>
  </defs>
  <g id="Group_15281" data-name="Group 15281" transform="translate(3.213 2.712)">
    <path id="Path_38204" data-name="Path 38204" d="M26.3,108.246c.4-.532,17.742,8.333,18.021,7.961,0,0-19.713-10.077-19.445-10.433,0,0,26.734,12,26.84,11.857.6-.8-41.622-26.451-41.622-26.451,1.111-1.478,57.074,25.573,57.278,25.3C68.188,115.4,5.114,83.935,5.114,83.935c.7-.929,81.106,35.829,81.106,35.829L4.668,78.726l82.806,36.581S4.508,71.388,5.436,70.154c.141-.187,89.577,42.253,91.091,40.24,2.026-2.695-88.153-43.18-88.153-43.18s100.171,46.8,101.611,44.887c1.59-2.116-103.1-46.666-102.688-47.22,1.144-1.524,98.131,46.681,100.01,44.18,0,0-109.069-49.467-107.375-51.72l114.84,50.733C115.732,106.8,4.657,51.066,4.657,51.066,5.685,49.7,120.9,102.418,120.9,102.418L7.434,46.41C9.72,43.37,117.436,95,117.436,95L9.821,39.723s112,50.924,112.817,49.837c.778-1.032-119.016-52.01-118.25-53.03,2.742-3.648,124.333,54.924,124.333,54.924C130.6,88.958,3.146,31.705,6.008,27.9c2.628-3.5,123.04,54.526,123.137,54.4L6.556,20.838c1.13-1.5,125.172,59.235,127.394,56.278C135.923,74.494,8.762,22.288,11.606,18.5,13,16.65,131.5,71.467,131.5,71.467S18.755,19.943,19.7,18.682L131.882,68.238c.895-1.19-118.483-56.109-117.044-58.021,1.762-2.346,120.48,55.157,121.571,53.7,1.185-1.574-116.741-57.039-116.017-58C22.365,3.3,135.046,56.855,135.205,56.64,135.573,56.151,26.025,3.7,26.427,3.16,28.545.345,133.041,53.551,134.9,51.08c.694-.923-95.64-49.446-94.529-50.922l94.752,41.856C136.01,40.835,40.7,1.193,41.619-.03c1.085-1.445,90.669,43.453,92.587,40.9C135.473,39.186,46.336,1.2,46.338,1.2c1.018-1.355,89.445,39.512,89.445,39.512S54.911,2.187,55.829.964C56.177.5,123,32.819,124.227,31.18c0,0-63.512-28.379-62.142-30.2,0,0,53.359,25.464,54.426,24.044.3-.4-37.437-19.452-36.705-20.426,0,0,19.819,9.635,20.316,8.976" transform="matrix(-0.966, 0.259, -0.259, -0.966, 162.664, 115.859)" fill="none" stroke="#fff" stroke-width="5"/>
    <g id="Group_17476" data-name="Group 17476" transform="translate(40.098 34.795)">
      <g id="Group_17475" data-name="Group 17475" clip-path="url(#clip-path)">
        <path id="Path_44952" data-name="Path 44952" d="M41.233,3.906s-.011-1.927-4.093-2.721-6.576,1.361-6.916,5.442,1.984,9.013,5.556,10.884a22.387,22.387,0,0,1,5.453,3.855s8.735-6.406,10.929-11.281-.736-6.973-3.288-7.936S41.233,3.906,41.233,3.906Z" fill="#38c2d9"/>
        <path id="Path_44944" data-name="Path 44944" d="M95.023,64.45a7.5,7.5,0,1,0-7.5-7.5A7.5,7.5,0,0,0,95.023,64.45Z" transform="translate(-77.319 -43.688)" fill="none" stroke="#182e54" stroke-linecap="round" stroke-linejoin="round" stroke-width="2"/>
        <path id="Path_44945" data-name="Path 44945" d="M99.364,210.452l-2.718,2.718-5.159,5.159a8.819,8.819,0,0,0-2.589,6.241v35.913a3.661,3.661,0,0,1-3.553,3.966,3.927,3.927,0,0,1-3.886-3.966v-17.7a2.131,2.131,0,0,0-4.261,0v17.7a3.927,3.927,0,0,1-3.886,3.966,3.661,3.661,0,0,1-3.553-3.966V238.771s0,0,0,0V220.311" transform="translate(-61.623 -185.909)" fill="none" stroke="#182e54" stroke-linecap="round" stroke-linejoin="round" stroke-width="2"/>
        <path id="Path_44946" data-name="Path 44946" d="M17.6,203.541a3.635,3.635,0,0,1-3.6,3.672,3.389,3.389,0,0,1-3.289-3.672V186.651A7.652,7.652,0,0,1,18.366,179H34.2a5.32,5.32,0,0,0,3.762-1.558l1.619-1.619,2.175-2.175" transform="translate(-9.465 -153.395)" fill="none" stroke="#182e54" stroke-linecap="round" stroke-linejoin="round" stroke-width="2"/>
        <path id="Path_44947" data-name="Path 44947" d="M498.535,64.45a7.5,7.5,0,1,1,7.5-7.5A7.5,7.5,0,0,1,498.535,64.45Z" transform="translate(-433.772 -43.688)" fill="none" stroke="#182e54" stroke-linecap="round" stroke-linejoin="round" stroke-width="2"/>
        <path id="Path_44948" data-name="Path 44948" d="M383.518,210.452l2.718,2.718,5.159,5.159a8.818,8.818,0,0,1,2.589,6.241v14.2s0,0,0,0v21.713a3.661,3.661,0,0,0,3.553,3.966,3.927,3.927,0,0,0,3.886-3.966v-17.7a2.131,2.131,0,0,1,4.261,0v17.7a3.927,3.927,0,0,0,3.886,3.966,3.661,3.661,0,0,0,3.553-3.966V238.771s0,0,0,0V220.311" transform="translate(-338.792 -185.909)" fill="none" stroke="#182e54" stroke-linecap="round" stroke-linejoin="round" stroke-width="2"/>
        <path id="Path_44949" data-name="Path 44949" d="M454.377,203.54a3.635,3.635,0,0,0,3.6,3.672,3.389,3.389,0,0,0,3.289-3.672V186.65A7.652,7.652,0,0,0,453.612,179H437.775a5.32,5.32,0,0,1-3.762-1.558l-1.619-1.619-2.175-2.175" transform="translate(-380.046 -153.395)" fill="none" stroke="#182e54" stroke-linecap="round" stroke-linejoin="round" stroke-width="2"/>
        <path id="Path_44950" data-name="Path 44950" d="M266.823,30.574c-.455-.276-11.133-6.835-11.133-13.782A6.078,6.078,0,0,1,267.1,13.884a6.078,6.078,0,0,1,11.415,2.908c0,6.947-10.678,13.506-11.133,13.782l-.282.171Z" transform="translate(-225.872 -9.465)" fill="none" stroke="#182e54" stroke-linecap="round" stroke-linejoin="round" stroke-width="2"/>
        <path id="Path_44951" data-name="Path 44951" d="M399.336,42.763a2.343,2.343,0,0,1,2.341,2.341" transform="translate(-352.766 -37.776)" fill="none" stroke="#182e54" stroke-linecap="round" stroke-linejoin="round" stroke-width="2"/>
      </g>
    </g>
  </g>
</svg>
