<svg xmlns="http://www.w3.org/2000/svg" xmlns:xlink="http://www.w3.org/1999/xlink" width="169.215" height="157.385" viewBox="0 0 169.215 157.385">
  <defs>
    <clipPath id="clip-path">
      <rect id="Rectangle_5616" data-name="Rectangle 5616" width="80.101" height="72.294" fill="rgba(0,0,0,0)" stroke="#182e54" stroke-width="2"/>
    </clipPath>
  </defs>
  <g id="Group_15281" data-name="Group 15281" transform="translate(3.213 2.712)">
    <path id="Path_38204" data-name="Path 38204" d="M26.3,108.246c.4-.532,17.742,8.333,18.021,7.961,0,0-19.713-10.077-19.445-10.433,0,0,26.734,12,26.84,11.857.6-.8-41.622-26.451-41.622-26.451,1.111-1.478,57.074,25.573,57.278,25.3C68.188,115.4,5.114,83.935,5.114,83.935c.7-.929,81.106,35.829,81.106,35.829L4.668,78.726l82.806,36.581S4.508,71.388,5.436,70.154c.141-.187,89.577,42.253,91.091,40.24,2.026-2.695-88.153-43.18-88.153-43.18s100.171,46.8,101.611,44.887c1.59-2.116-103.1-46.666-102.688-47.22,1.144-1.524,98.131,46.681,100.01,44.18,0,0-109.069-49.467-107.375-51.72l114.84,50.733C115.732,106.8,4.657,51.066,4.657,51.066,5.685,49.7,120.9,102.418,120.9,102.418L7.434,46.41C9.72,43.37,117.436,95,117.436,95L9.821,39.723s112,50.924,112.817,49.837c.778-1.032-119.016-52.01-118.25-53.03,2.742-3.648,124.333,54.924,124.333,54.924C130.6,88.958,3.146,31.705,6.008,27.9c2.628-3.5,123.04,54.526,123.137,54.4L6.556,20.838c1.13-1.5,125.172,59.235,127.394,56.278C135.923,74.494,8.762,22.288,11.606,18.5,13,16.65,131.5,71.467,131.5,71.467S18.755,19.943,19.7,18.682L131.882,68.238c.895-1.19-118.483-56.109-117.044-58.021,1.762-2.346,120.48,55.157,121.571,53.7,1.185-1.574-116.741-57.039-116.017-58C22.365,3.3,135.046,56.855,135.205,56.64,135.573,56.151,26.025,3.7,26.427,3.16,28.545.345,133.041,53.551,134.9,51.08c.694-.923-95.64-49.446-94.529-50.922l94.752,41.856C136.01,40.835,40.7,1.193,41.619-.03c1.085-1.445,90.669,43.453,92.587,40.9C135.473,39.186,46.336,1.2,46.338,1.2c1.018-1.355,89.445,39.512,89.445,39.512S54.911,2.187,55.829.964C56.177.5,123,32.819,124.227,31.18c0,0-63.512-28.379-62.142-30.2,0,0,53.359,25.464,54.426,24.044.3-.4-37.437-19.452-36.705-20.426,0,0,19.819,9.635,20.316,8.976" transform="matrix(-0.966, 0.259, -0.259, -0.966, 162.664, 115.859)" fill="none" stroke="#fff" stroke-width="5"/>
    <g id="Group_13943" data-name="Group 13943" transform="translate(41.579 37.292)">
      <path id="Path_38187" data-name="Path 38187" d="M62.636.461-.189.561,4.873,5.4H57.467Z" transform="translate(7.964 64.696)" fill="#ffce00"/>
      <g id="Group_13942" data-name="Group 13942" transform="translate(0 0)">
        <path id="Path_38184" data-name="Path 38184" d="M238.029,70.227l13.5-23.376,3.6,6.233" transform="translate(-212.882 -39.79)" fill="none" stroke="#182e54" stroke-linecap="round" stroke-linejoin="round" stroke-width="2"/>
        <path id="Path_38185" data-name="Path 38185" d="M112.345,268.534l5.1,8.394H50.378L65.067,252.74" transform="translate(-44.934 -212.682)" fill="none" stroke="#182e54" stroke-linecap="round" stroke-linejoin="round" stroke-width="2"/>
        <line id="Line_47" data-name="Line 47" x2="14.9" y2="25.808" transform="translate(47.73 21.819)" fill="none" stroke="#182e54" stroke-linecap="round" stroke-linejoin="round" stroke-width="2"/>
        <line id="Line_48" data-name="Line 48" x1="43.356" transform="translate(17.192 45.857)" fill="none" stroke="#182e54" stroke-linecap="round" stroke-linejoin="round" stroke-width="2"/>
        <line id="Line_49" data-name="Line 49" x1="23.804" transform="translate(27.007 28.45)" fill="none" stroke="#182e54" stroke-linecap="round" stroke-linejoin="round" stroke-width="2"/>
        <line id="Line_50" data-name="Line 50" x1="10.799" y1="10.799" transform="translate(13.681 26.58)" fill="none" stroke="#182e54" stroke-linecap="round" stroke-linejoin="round" stroke-width="2"/>
        <g id="Group_13941" data-name="Group 13941">
          <g id="Group_13940" data-name="Group 13940" clip-path="url(#clip-path)">
            <path id="Rectangle_5613" data-name="Rectangle 5613" d="M4.986,0h.146a4.986,4.986,0,0,1,4.986,4.986v0A4.986,4.986,0,0,1,5.132,9.972H4.986A4.986,4.986,0,0,1,0,4.986v0A4.986,4.986,0,0,1,4.986,0Z" transform="translate(1.214 13.997)" fill="#ffce00" stroke="#182e54" stroke-linecap="round" stroke-linejoin="round" stroke-width="2"/>
            <line id="Line_51" data-name="Line 51" y1="4.388" x2="4.452" transform="translate(61.913 50.353)" fill="none" stroke="#182e54" stroke-linecap="round" stroke-linejoin="round" stroke-width="2"/>
            <path id="Rectangle_5614" data-name="Rectangle 5614" d="M4.986,0h.146a4.986,4.986,0,0,1,4.986,4.986v0A4.986,4.986,0,0,1,5.132,9.972H4.986A4.986,4.986,0,0,1,0,4.986v0A4.986,4.986,0,0,1,4.986,0Z" transform="translate(68.769 37.756)" fill="#ffce00" stroke="#182e54" stroke-linecap="round" stroke-linejoin="round" stroke-width="2"/>
            <line id="Line_52" data-name="Line 52" y1="6.495" x2="6.59" transform="translate(42.396 13.666)" fill="none" stroke="#182e54" stroke-linecap="round" stroke-linejoin="round" stroke-width="2"/>
            <rect id="Rectangle_5615" data-name="Rectangle 5615" width="10.117" height="9.971" rx="4.986" transform="translate(51.261 1.196)" fill="#ffce00" stroke="#182e54" stroke-linecap="round" stroke-linejoin="round" stroke-width="2"/>
            <line id="Line_53" data-name="Line 53" x1="5.404" transform="translate(46.428 41.072)" fill="none" stroke="#182e54" stroke-linecap="round" stroke-linejoin="round" stroke-width="2"/>
            <line id="Line_54" data-name="Line 54" x1="9.276" transform="translate(15.388 59.236)" fill="none" stroke="#182e54" stroke-linecap="round" stroke-linejoin="round" stroke-width="2"/>
            <line id="Line_55" data-name="Line 55" x1="2.924" transform="translate(38.65 41.072)" fill="none" stroke="#182e54" stroke-linecap="round" stroke-linejoin="round" stroke-width="2" stroke-dasharray="6.611 33.068"/>
            <line id="Line_56" data-name="Line 56" x1="8.681" transform="translate(28.547 59.236)" fill="none" stroke="#182e54" stroke-linecap="round" stroke-linejoin="round" stroke-width="2" stroke-dasharray="6.611 33.068"/>
            <path id="Path_38186" data-name="Path 38186" d="M116.881,413.231l-7.181,7.077H57.424l-7.046-6.945" transform="translate(-44.699 -349.211)" fill="rgba(0,0,0,0)" stroke="#182e54" stroke-linecap="round" stroke-linejoin="round" stroke-width="2"/>
          </g>
        </g>
      </g>
    </g>
  </g>
</svg>
