<svg xmlns="http://www.w3.org/2000/svg" xmlns:xlink="http://www.w3.org/1999/xlink" width="169.215" height="157.385" viewBox="0 0 169.215 157.385">
  <defs>
    <clipPath id="clip-path">
      <rect id="Rectangle_7153" data-name="Rectangle 7153" width="70.166" height="74.376" fill="#182e54"/>
    </clipPath>
  </defs>
  <g id="Group_15281" data-name="Group 15281" transform="translate(3.213 2.712)">
    <path id="Path_38204" data-name="Path 38204" d="M26.3,108.246c.4-.532,17.742,8.333,18.021,7.961,0,0-19.713-10.077-19.445-10.433,0,0,26.734,12,26.84,11.857.6-.8-41.622-26.451-41.622-26.451,1.111-1.478,57.074,25.573,57.278,25.3C68.188,115.4,5.114,83.935,5.114,83.935c.7-.929,81.106,35.829,81.106,35.829L4.668,78.726l82.806,36.581S4.508,71.388,5.436,70.154c.141-.187,89.577,42.253,91.091,40.24,2.026-2.695-88.153-43.18-88.153-43.18s100.171,46.8,101.611,44.887c1.59-2.116-103.1-46.666-102.688-47.22,1.144-1.524,98.131,46.681,100.01,44.18,0,0-109.069-49.467-107.375-51.72l114.84,50.733C115.732,106.8,4.657,51.066,4.657,51.066,5.685,49.7,120.9,102.418,120.9,102.418L7.434,46.41C9.72,43.37,117.436,95,117.436,95L9.821,39.723s112,50.924,112.817,49.837c.778-1.032-119.016-52.01-118.25-53.03,2.742-3.648,124.333,54.924,124.333,54.924C130.6,88.958,3.146,31.705,6.008,27.9c2.628-3.5,123.04,54.526,123.137,54.4L6.556,20.838c1.13-1.5,125.172,59.235,127.394,56.278C135.923,74.494,8.762,22.288,11.606,18.5,13,16.65,131.5,71.467,131.5,71.467S18.755,19.943,19.7,18.682L131.882,68.238c.895-1.19-118.483-56.109-117.044-58.021,1.762-2.346,120.48,55.157,121.571,53.7,1.185-1.574-116.741-57.039-116.017-58C22.365,3.3,135.046,56.855,135.205,56.64,135.573,56.151,26.025,3.7,26.427,3.16,28.545.345,133.041,53.551,134.9,51.08c.694-.923-95.64-49.446-94.529-50.922l94.752,41.856C136.01,40.835,40.7,1.193,41.619-.03c1.085-1.445,90.669,43.453,92.587,40.9C135.473,39.186,46.336,1.2,46.338,1.2c1.018-1.355,89.445,39.512,89.445,39.512S54.911,2.187,55.829.964C56.177.5,123,32.819,124.227,31.18c0,0-63.512-28.379-62.142-30.2,0,0,53.359,25.464,54.426,24.044.3-.4-37.437-19.452-36.705-20.426,0,0,19.819,9.635,20.316,8.976" transform="matrix(-0.966, 0.259, -0.259, -0.966, 162.664, 115.859)" fill="none" stroke="#fff" stroke-width="5"/>
    <g id="Group_17474" data-name="Group 17474" transform="translate(46.546 38.503)">
      <g id="Group_17473" data-name="Group 17473" clip-path="url(#clip-path)">
        <path id="Path_44943" data-name="Path 44943" d="M45.162,51.307l4.325-8.438L53.4,51.307l11.113,1.533-7.472,7.473,1.149,9.963-8.335-4.12-9.2,4.6V59.965l-5.1-6.19Z" fill="#38c2d9"/>
        <path id="Path_44922" data-name="Path 44922" d="M67.391,223.057a4.714,4.714,0,0,1-4.689-5.2q0-.042.012-.083l5.262-29.658a10.773,10.773,0,0,1,7.942-8.77l1.685-.437a.793.793,0,0,0,.567-.562l.27-1.333a1.167,1.167,0,1,1,2.288.463l-.276,1.361q0,.023-.01.046a3.123,3.123,0,0,1-2.252,2.284l-1.685.437a8.441,8.441,0,0,0-6.224,6.882l0,.025L65.02,218.137a2.378,2.378,0,0,0,4.693.712l4.3-22.653a1.167,1.167,0,1,1,2.293.435L72,219.3l0,.025a4.719,4.719,0,0,1-4.607,3.734" transform="translate(-52.924 -148.681)" fill="#182e54"/>
        <path id="Path_44923" data-name="Path 44923" d="M220.463,47.917a1.167,1.167,0,0,1-1.166-1.138l-.164-6.553a1.167,1.167,0,0,1,.344-.857l12.246-12.176a4.038,4.038,0,0,0,.869-2.942L230.338,4.485a2.4,2.4,0,0,0-2.585-2.143,2.392,2.392,0,0,0-2.177,2.6l1.745,17.8a1.167,1.167,0,0,1-.4,1l-7.8,6.72a3.082,3.082,0,0,1-4.449-.447,6.16,6.16,0,0,1-1.259-2.563l2.3-.378,0-.019a4.16,4.16,0,0,0,.8,1.53.748.748,0,0,0,1.08.108l7.341-6.324-1.687-17.2a4.726,4.726,0,0,1,4.3-5.141,4.752,4.752,0,0,1,5.106,4.214L234.911,24a6.39,6.39,0,0,1-1.425,4.726,1.086,1.086,0,0,1-.076.083L221.479,40.67l.151,6.051a1.167,1.167,0,0,1-1.137,1.2h-.03" transform="translate(-180.207 0)" fill="#182e54"/>
        <path id="Path_44924" data-name="Path 44924" d="M214.008,290.49a1.167,1.167,0,0,1-1.15-1.364l1.787-10.421-7.572-7.381a1.167,1.167,0,0,1,.647-1.991l10.464-1.521,4.679-9.482a1.167,1.167,0,0,1,2.093,0l4.679,9.482,10.464,1.521a1.167,1.167,0,0,1,.647,1.991l-7.572,7.381,1.788,10.421a1.167,1.167,0,0,1-1.693,1.23l-9.359-4.92-9.359,4.92a1.166,1.166,0,0,1-.543.134m9.9-7.54a1.167,1.167,0,0,1,.543.134l7.809,4.106-1.492-8.7a1.167,1.167,0,0,1,.336-1.033l6.318-6.158-8.731-1.269a1.166,1.166,0,0,1-.879-.638l-3.9-7.912-3.9,7.912a1.166,1.166,0,0,1-.879.638L210.4,271.3l6.318,6.158a1.167,1.167,0,0,1,.336,1.033l-1.491,8.7,7.809-4.106a1.167,1.167,0,0,1,.543-.134" transform="translate(-174.556 -217.585)" fill="#182e54"/>
        <path id="Path_44925" data-name="Path 44925" d="M141.309,82.379a8.105,8.105,0,0,1-8-7.023l-.459-3.605a8.331,8.331,0,1,1,16.59-.895l-.067,3.626a8.1,8.1,0,0,1-7.629,7.885c-.145.008-.29.012-.434.012m.37-1.177h0Zm-.558-16.522q-.167,0-.336.009a6,6,0,0,0-5.622,6.763l.459,3.605a5.733,5.733,0,0,0,11.416-.622l.067-3.626a6,6,0,0,0-5.983-6.13" transform="translate(-112.119 -52.646)" fill="#182e54"/>
        <path id="Path_44926" data-name="Path 44926" d="M136.567,298.781a1.167,1.167,0,0,1-1.167-1.167V267.8a1.167,1.167,0,0,1,2.334,0v29.817a1.167,1.167,0,0,1-1.167,1.167" transform="translate(-114.332 -225.143)" fill="#182e54"/>
        <path id="Path_44927" data-name="Path 44927" d="M172.8,140.78a2.8,2.8,0,0,1-2.748-2.309,1.167,1.167,0,0,1,2.3-.4.457.457,0,1,0,.9-.158,1.167,1.167,0,0,1,2.3-.4,2.793,2.793,0,0,1-2.751,3.275" transform="translate(-143.581 -115.295)" fill="#182e54"/>
        <path id="Path_44928" data-name="Path 44928" d="M405.626,29.44a1.167,1.167,0,0,1-1.167-1.164v-.293a1.167,1.167,0,1,1,2.334-.007v.293a1.167,1.167,0,0,1-1.164,1.17Z" transform="translate(-341.525 -22.641)" fill="#182e54"/>
        <path id="Path_44929" data-name="Path 44929" d="M405.754,74.61a1.167,1.167,0,0,1-1.167-1.164v-.293a1.167,1.167,0,0,1,1.164-1.17h0a1.167,1.167,0,0,1,1.167,1.164v.293a1.167,1.167,0,0,1-1.164,1.17Z" transform="translate(-341.633 -60.782)" fill="#182e54"/>
        <path id="Path_44930" data-name="Path 44930" d="M382.167,52.735a1.167,1.167,0,0,1,0-2.334h.3a1.167,1.167,0,0,1,0,2.334h-.3Z" transform="translate(-321.717 -42.558)" fill="#182e54"/>
        <path id="Path_44931" data-name="Path 44931" d="M427.336,52.607a1.167,1.167,0,0,1,0-2.334h.3a1.167,1.167,0,0,1,0,2.334h-.3Z" transform="translate(-359.857 -42.45)" fill="#182e54"/>
        <path id="Path_44932" data-name="Path 44932" d="M24.626,245.44a1.167,1.167,0,0,1-1.167-1.164v-.293a1.167,1.167,0,0,1,1.164-1.17h0a1.167,1.167,0,0,1,1.167,1.164v.293a1.167,1.167,0,0,1-1.164,1.17Z" transform="translate(-19.808 -205.031)" fill="#182e54"/>
        <path id="Path_44933" data-name="Path 44933" d="M24.754,290.61a1.167,1.167,0,0,1-1.167-1.164v-.293a1.167,1.167,0,0,1,1.164-1.17h0a1.167,1.167,0,0,1,1.167,1.164v.293a1.167,1.167,0,0,1-1.164,1.17Z" transform="translate(-19.916 -243.173)" fill="#182e54"/>
        <path id="Path_44934" data-name="Path 44934" d="M1.167,268.735a1.167,1.167,0,0,1,0-2.334h.3a1.167,1.167,0,0,1,0,2.334h-.3Z" transform="translate(0 -224.948)" fill="#182e54"/>
        <path id="Path_44935" data-name="Path 44935" d="M46.336,268.607a1.167,1.167,0,0,1,0-2.334h.3a1.167,1.167,0,0,1,0,2.334h-.3Z" transform="translate(-38.141 -224.84)" fill="#182e54"/>
        <path id="Path_44936" data-name="Path 44936" d="M433.054,139.145a1.167,1.167,0,0,1-.825-1.992l.63-.63a1.167,1.167,0,0,1,1.65,1.65l-.63.63a1.163,1.163,0,0,1-.825.342" transform="translate(-364.686 -114.991)" fill="#182e54"/>
        <path id="Path_44937" data-name="Path 44937" d="M342.907,177.274a1.167,1.167,0,0,1-.811-2.007L351.9,165.8a1.167,1.167,0,0,1,1.621,1.679l-9.805,9.469a1.163,1.163,0,0,1-.811.328" transform="translate(-288.566 -139.724)" fill="#182e54"/>
        <path id="Path_44938" data-name="Path 44938" d="M405.706,222.224a1.167,1.167,0,0,1-.562-2.19l4.886-2.679a1.167,1.167,0,1,1,1.122,2.046l-4.886,2.679a1.163,1.163,0,0,1-.56.144" transform="translate(-341.592 -183.413)" fill="#182e54"/>
        <path id="Path_44939" data-name="Path 44939" d="M6.869,24.9a1.164,1.164,0,0,1-.881-.4L5.4,23.829A1.167,1.167,0,0,1,7.164,22.3l.585.673a1.167,1.167,0,0,1-.88,1.933" transform="translate(-4.321 -18.49)" fill="#182e54"/>
        <path id="Path_44940" data-name="Path 44940" d="M42.093,67.818A1.164,1.164,0,0,1,41.2,67.4L32.436,56.96a1.167,1.167,0,1,1,1.788-1.5L42.986,65.9a1.167,1.167,0,0,1-.893,1.917" transform="translate(-27.158 -46.478)" fill="#182e54"/>
        <path id="Path_44941" data-name="Path 44941" d="M89.449,34.937a1.167,1.167,0,0,1-1.061-.679L86.056,29.2a1.167,1.167,0,1,1,2.12-.977l2.332,5.061a1.168,1.168,0,0,1-1.059,1.656" transform="translate(-72.575 -23.256)" fill="#182e54"/>
        <path id="Path_44942" data-name="Path 44942" d="M18.313,143.941a1.162,1.162,0,0,1-.405-.073l-8.4-3.112a1.167,1.167,0,0,1,.811-2.189l8.4,3.112a1.167,1.167,0,0,1-.405,2.262" transform="translate(-7.383 -116.945)" fill="#182e54"/>
      </g>
    </g>
  </g>
</svg>
