<svg xmlns="http://www.w3.org/2000/svg" xmlns:xlink="http://www.w3.org/1999/xlink" width="169.215" height="157.385" viewBox="0 0 169.215 157.385">
  <defs>
    <clipPath id="clip-path">
      <rect id="Rectangle_7152" data-name="Rectangle 7152" width="70.157" height="68.745" fill="none" stroke="#182e54" stroke-width="1"/>
    </clipPath>
  </defs>
  <g id="Group_15281" data-name="Group 15281" transform="translate(3.213 2.712)">
    <path id="Path_38204" data-name="Path 38204" d="M26.3,108.246c.4-.532,17.742,8.333,18.021,7.961,0,0-19.713-10.077-19.445-10.433,0,0,26.734,12,26.84,11.857.6-.8-41.622-26.451-41.622-26.451,1.111-1.478,57.074,25.573,57.278,25.3C68.188,115.4,5.114,83.935,5.114,83.935c.7-.929,81.106,35.829,81.106,35.829L4.668,78.726l82.806,36.581S4.508,71.388,5.436,70.154c.141-.187,89.577,42.253,91.091,40.24,2.026-2.695-88.153-43.18-88.153-43.18s100.171,46.8,101.611,44.887c1.59-2.116-103.1-46.666-102.688-47.22,1.144-1.524,98.131,46.681,100.01,44.18,0,0-109.069-49.467-107.375-51.72l114.84,50.733C115.732,106.8,4.657,51.066,4.657,51.066,5.685,49.7,120.9,102.418,120.9,102.418L7.434,46.41C9.72,43.37,117.436,95,117.436,95L9.821,39.723s112,50.924,112.817,49.837c.778-1.032-119.016-52.01-118.25-53.03,2.742-3.648,124.333,54.924,124.333,54.924C130.6,88.958,3.146,31.705,6.008,27.9c2.628-3.5,123.04,54.526,123.137,54.4L6.556,20.838c1.13-1.5,125.172,59.235,127.394,56.278C135.923,74.494,8.762,22.288,11.606,18.5,13,16.65,131.5,71.467,131.5,71.467S18.755,19.943,19.7,18.682L131.882,68.238c.895-1.19-118.483-56.109-117.044-58.021,1.762-2.346,120.48,55.157,121.571,53.7,1.185-1.574-116.741-57.039-116.017-58C22.365,3.3,135.046,56.855,135.205,56.64,135.573,56.151,26.025,3.7,26.427,3.16,28.545.345,133.041,53.551,134.9,51.08c.694-.923-95.64-49.446-94.529-50.922l94.752,41.856C136.01,40.835,40.7,1.193,41.619-.03c1.085-1.445,90.669,43.453,92.587,40.9C135.473,39.186,46.336,1.2,46.338,1.2c1.018-1.355,89.445,39.512,89.445,39.512S54.911,2.187,55.829.964C56.177.5,123,32.819,124.227,31.18c0,0-63.512-28.379-62.142-30.2,0,0,53.359,25.464,54.426,24.044.3-.4-37.437-19.452-36.705-20.426,0,0,19.819,9.635,20.316,8.976" transform="matrix(-0.966, 0.259, -0.259, -0.966, 162.664, 115.859)" fill="none" stroke="#fff" stroke-width="5"/>
    <g id="Group_17472" data-name="Group 17472" transform="translate(46.917 39.494)">
      <g id="Group_17471" data-name="Group 17471" transform="translate(0 0)" clip-path="url(#clip-path)">
        <path id="Path_44917" data-name="Path 44917" d="M36.907,40.028l18.064-17.48A12.748,12.748,0,0,0,58.589,13.6,12.433,12.433,0,0,0,46.334,1a12.1,12.1,0,0,0-9.427,4.553A12.1,12.1,0,0,0,27.48,1,12.433,12.433,0,0,0,15.225,13.6a12.748,12.748,0,0,0,3.618,8.943Z" transform="translate(6.782 0.445)" fill="#ffce00" stroke="#182e54" stroke-miterlimit="10" stroke-width="2"/>
        <path id="Path_44918" data-name="Path 44918" d="M46.125,9.721A6.958,6.958,0,0,1,44.2,14.572L30.225,28.1" transform="translate(13.464 4.33)" fill="none" stroke="#182e54" stroke-miterlimit="10" stroke-width="2"/>
        <path id="Path_44919" data-name="Path 44919" d="M21.147,16.675a6.958,6.958,0,0,1-1.922-4.851A6.663,6.663,0,0,1,25.7,5" transform="translate(8.564 2.227)" fill="none" stroke="#182e54" stroke-miterlimit="10" stroke-width="2"/>
        <path id="Path_44920" data-name="Path 44920" d="M47.926,36.626,59.3,31.885a6.925,6.925,0,0,1,8.858,3.3L39.592,52.062a9.145,9.145,0,0,1-6.872,1l-17.5-4.375a8.693,8.693,0,0,0-3.985-.052L.225,51.081" transform="translate(0.1 13.965)" fill="none" stroke="#182e54" stroke-miterlimit="10" stroke-width="2"/>
        <path id="Path_44921" data-name="Path 44921" d="M26.243,41.382H44.312a3.614,3.614,0,0,0,0-7.227H33.471L23.42,31.14a17.345,17.345,0,0,0-8.885-.288l-14.31,3.3" transform="translate(0.1 13.545)" fill="none" stroke="#182e54" stroke-miterlimit="10" stroke-width="2"/>
      </g>
    </g>
  </g>
</svg>
