<svg xmlns="http://www.w3.org/2000/svg" width="476.001" height="78.002" viewBox="0 0 476.001 78.002">
  <g id="Group_25490" data-name="Group 25490" transform="translate(11454 18191)">
    <path id="Subtraction_30" data-name="Subtraction 30" d="M476,78H0V41.038c.061,3.082,2.087,6.277,5.861,9.237A45.179,45.179,0,0,0,20.942,57.5c9.513,2.462,42.432,3.131,54.313,3.181,62.719.265,126.522.372,188.224.475h.046c33.351.056,67.837.113,101.95.2,2.71.007,5.831.026,9.135.046h.008c5.319.032,11.347.069,17.711.069,21.126,0,50.827-.371,64.785-3.583l.018-.005a75.88,75.88,0,0,0,10.489-3.169c8.494-3.528,9.465-10.4,7.541-15.662-2.144-5.859-12.63-10.171-31.165-12.818-12.158-1.736-27.513-2.725-45.637-2.94-12.133-.045-24.407-.085-36.277-.124l-.516,0h-.219a53.2,53.2,0,0,0-13.175,1.582l-1,.236a37.641,37.641,0,0,1-9.263,1.347c-.182,0-.37,0-.556-.005a32.753,32.753,0,0,1-9.056-1.516,39.673,39.673,0,0,0-11.941-1.772c-1.644,0-3.364-.008-5.258-.015-3.156-.009-6.355-.03-9.741-.052h-.059c-4.582-.03-9.319-.06-14.008-.06-8.051,0-14.378.092-19.91.29a38.312,38.312,0,0,0-6.241.743,30.239,30.239,0,0,1-5.624.609,35.482,35.482,0,0,1-6.1-.676l-.01,0c-.88-.146-1.877-.312-2.994-.478a106.917,106.917,0,0,0-13.878-.677c-2.29,0-4.547.025-6.729.05h-.011c-1.824.021-3.546.04-5.1.042-4.688.005-9.608.007-15.041.007h-2.82c-1.453,0-2.735-.007-3.867-.012h-.028c-.952,0-1.851-.009-2.677-.009a93.22,93.22,0,0,0-13.644.928l-1.527.179a63.621,63.621,0,0,1-7.236.58,38.384,38.384,0,0,1-6.562-.65,77.74,77.74,0,0,0-15.023-1.179c-.9-.009-1.916-.02-3.019-.035-1.528-.022-3.077-.033-4.735-.033-2.306,0-4.492.02-6.807.042h-.026q-2.071.019-4.288.035c-6.013,0-11.515-.016-16.823-.035-1.5-.005-2.819-.019-4.093-.032h-.03c-1.3-.013-2.537-.026-3.705-.026a86.971,86.971,0,0,0-12.373.814l-.06.007a73.515,73.515,0,0,1-8.95.734,27.524,27.524,0,0,1-4.87-.4c-.571-.1-1.091-.2-1.571-.282a40.381,40.381,0,0,0-9.25-.9c-.393,0-.809,0-1.271.006-23.021.209-39.738,1.375-57.061,6.718C8.8,30.754,5.354,32.564,3.1,34.655a8.531,8.531,0,0,0-3.1,6.1V0H476V78Z" transform="translate(-11453.999 -18191)" fill="#182e54"/>
    <g id="Group_25487" data-name="Group 25487" transform="translate(-11461.998 -18178.775)">
      <g id="Group_15986" data-name="Group 15986" transform="translate(1.517 0)">
        <g id="Group_15984" data-name="Group 15984" transform="translate(0 6.331)">
          <g id="Group_25488" data-name="Group 25488">
            <path id="Path_42196" data-name="Path 42196" d="M455.08,36.5c-19.239,4.592-68.676,3.638-91.23,3.582-96.294-.242-192.653-.27-288.929-.692-11.912-.052-44.617-.747-54.071-3.286C-.065,29.787-9.674,14.712,13.27,6.946,31.314,1.172,48.825.207,70.078.007c5.932-.056,6.78.245,12.038,1.213,4.534.839,9.3.222,13.818-.356,8.21-1.114,11.776-.812,20.112-.781q8.377.031,16.749.036c5.517-.034,10.16-.13,15.785-.046,8,.116,10.43-.053,17.962,1.254,5.72.992,7.814.771,13.737.072l1.52-.185c9.1-1.18,10.955-.94,20.127-.936q8.894,0,17.781-.007c7.422-.009,18.855-.438,25.606.6,6.25.965,8.23,1.822,14.661.565a36.931,36.931,0,0,1,6.214-.768C279.9.163,295.854.448,309.711.488Q312.33.5,314.946.5c10.42.031,12.642,3.238,20.9,3.4,8.328.161,11.9-3.3,24.108-3.263s24.42.084,36.629.13c24.114.3,71.557,2.376,76.461,16.277,1.8,5.1,1.283,12.39-7.508,16.178A73.31,73.31,0,0,1,455.1,36.5" transform="translate(7.52 2.9)" fill="none" stroke="#fff" stroke-linejoin="round" stroke-width="2" fill-rule="evenodd"/>
            <path id="Path_42197" data-name="Path 42197" d="M456.52,48.95c-19.238,4.592-68.679,3.638-91.23,3.582C269,52.29,172.636,52.262,76.36,51.84c-11.912-.051-44.618-.747-54.075-3.286C1.375,42.234-8.237,27.159,14.707,19.393q1.551-.525,3.137-1C13.29,26.021,22.48,35.094,37.52,39.64c9.453,2.537,42.162,3.234,54.074,3.286,96.281.42,192.64.448,288.929.692,22.547.057,71.986,1.011,91.23-3.582l2.385-.631c-.992,2.38-3.49,4.565-7.17,6.271a73.143,73.143,0,0,1-10.441,3.273" transform="translate(6.271 -9.545)" fill="none" stroke="#fff" stroke-linejoin="round" stroke-width="2" fill-rule="evenodd"/>
            <path id="Path_42198" data-name="Path 42198" d="M174.684,27.585c8.6,8.573-18.31,2.048-23.437.615-15.306-4.355-31.841-9.557-46.526-14.421-6.475-2.1-14.293-4.36-18.828-7.421-1.928-1.3,2.5-.32,3.67-.107,7.339,1.339,9.312,1.357,16.763.093,5.386-.913,11.551.5,16.419,1.523,19.628,4.2,41.35,10.686,51.938,19.717" transform="translate(246.041 -0.953)" fill="none" stroke="#fff" stroke-linejoin="round" stroke-width="2" fill-rule="evenodd"/>
            <path id="Path_42199" data-name="Path 42199" d="M294.387,23.147c8.6,8.573-18.312,2.048-23.436.616-15.307-4.355-31.841-9.557-46.528-14.42-6.476-2.1-14.293-4.36-18.828-7.422-1.928-1.3,2.5-.32,3.67-.107,7.341,1.339,9.313,1.357,16.766.093,5.386-.913,11.55.5,16.418,1.524,19.63,4.2,41.35,10.686,51.94,19.717" transform="translate(43.661 2.049)" fill="none" stroke="#fff" stroke-linejoin="round" stroke-width="2" fill-rule="evenodd"/>
            <path id="Path_42200" data-name="Path 42200" d="M412.243,22.87c8.6,8.573-18.311,2.048-23.437.615-15.307-4.355-31.842-9.557-46.527-14.42-6.476-2.1-14.294-4.36-18.827-7.421-1.929-1.3,2.5-.32,3.67-.107,7.341,1.339,9.313,1.357,16.766.093,5.378-.911,11.549.5,16.417,1.523,19.629,4.2,41.349,10.686,51.94,19.718" transform="translate(-155.598 2.237)" fill="none" stroke="#fff" stroke-linejoin="round" stroke-width="2" fill-rule="evenodd"/>
            <path id="Path_42201" data-name="Path 42201" d="M536.7,22.23c8.6,8.573-18.313,2.047-23.437.614-15.307-4.355-31.842-9.557-46.528-14.42C460.26,6.32,452.444,4.064,447.911,1c-1.928-1.3,2.5-.32,3.668-.107,7.341,1.339,9.315,1.357,16.765.093,5.386-.913,11.551.5,16.418,1.524,19.63,4.2,41.351,10.685,51.941,19.718" transform="translate(-366.02 2.671)" fill="none" stroke="#fff" stroke-linejoin="round" stroke-width="2" fill-rule="evenodd"/>
            <path id="Path_42202" data-name="Path 42202" d="M343.619,31.441c-3.86,1.1-6.1-1.052-.42-1.928,1.487-.268,3.021-.476,4.585-.621.656.135-1.9,1.373-2.277,1.586a11.435,11.435,0,0,1-1.88.962" transform="translate(-101.163 -16.647)" fill="none" stroke="#fff" stroke-linejoin="round" stroke-width="2" fill-rule="evenodd"/>
            <path id="Path_42203" data-name="Path 42203" d="M465.418,8.561c-3.86,1.1-6.1-1.052-.418-1.928,1.487-.268,3.021-.475,4.584-.62.656.135-1.9,1.374-2.278,1.586a11.411,11.411,0,0,1-1.887.963" transform="translate(-307.089 -1.168)" fill="none" stroke="#fff" stroke-linejoin="round" stroke-width="2" fill-rule="evenodd"/>
            <path id="Path_42204" data-name="Path 42204" d="M381.232,26.189c-.09,2.1-5.213,1.851-3.728-.847a8.805,8.805,0,0,1,1.359-2.132c.6-.187,1.465,1.47,1.645,1.73a3.68,3.68,0,0,1,.727,1.249" transform="translate(-160.385 -12.793)" fill="none" stroke="#fff" stroke-linejoin="round" stroke-width="2" fill-rule="evenodd"/>
            <path id="Path_42205" data-name="Path 42205" d="M457.519,38.531c-.09,2.1-5.215,1.85-3.73-.846a8.776,8.776,0,0,1,1.358-2.132c.6-.187,1.466,1.471,1.645,1.73a3.7,3.7,0,0,1,.727,1.249" transform="translate(-289.36 -21.143)" fill="none" stroke="#fff" stroke-linejoin="round" stroke-width="2" fill-rule="evenodd"/>
            <path id="Path_42206" data-name="Path 42206" d="M223.738,21.331c-4.043-.913-5.882,1.341-.07,1.94,1.531.2,3.1.329,4.676.4.627-.167-2.137-1.276-2.553-1.469a13.473,13.473,0,0,0-2.051-.868" transform="translate(101.032 -11.386)" fill="none" stroke="#fff" stroke-linejoin="round" stroke-width="2" fill-rule="evenodd"/>
            <path id="Path_42207" data-name="Path 42207" d="M508.71,38.563c-4.041-.912-5.881,1.342-.071,1.94,1.532.2,3.1.329,4.677.4.627-.167-2.137-1.276-2.551-1.469a13.343,13.343,0,0,0-2.053-.867" transform="translate(-380.77 -23.045)" fill="none" stroke="#fff" stroke-linejoin="round" stroke-width="2" fill-rule="evenodd"/>
            <path id="Path_42208" data-name="Path 42208" d="M590.6,19.525c-4.042-.913-5.882,1.341-.071,1.94,1.531.2,3.1.329,4.677.4.627-.167-2.138-1.276-2.552-1.469a13.445,13.445,0,0,0-2.053-.867" transform="translate(-519.211 -10.164)" fill="none" stroke="#fff" stroke-linejoin="round" stroke-width="2" fill-rule="evenodd"/>
            <path id="Path_42209" data-name="Path 42209" d="M290.285,33.079c.09-2.1,5.214-1.85,3.728.846a8.8,8.8,0,0,1-1.357,2.133c-.6.187-1.465-1.469-1.647-1.729a3.707,3.707,0,0,1-.725-1.249" transform="translate(-13.378 -18.534)" fill="none" stroke="#fff" stroke-linejoin="round" stroke-width="2" fill-rule="evenodd"/>
            <path id="Path_42210" data-name="Path 42210" d="M195.643,51.728c.091-2.1,5.213-1.851,3.73.846a8.807,8.807,0,0,1-1.359,2.132c-.6.187-1.465-1.469-1.645-1.73a3.681,3.681,0,0,1-.727-1.249" transform="translate(146.632 -31.15)" fill="none" stroke="#fff" stroke-linejoin="round" stroke-width="2" fill-rule="evenodd"/>
            <path id="Path_42211" data-name="Path 42211" d="M76.763,39.076C73.6,38.933,74.327,37.268,78.3,37.9c1.075.143,2.122.331,3.126.561.241.206-2.321.4-2.724.444a18.043,18.043,0,0,1-1.935.17" transform="translate(348.308 -22.645)" fill="none" stroke="#fff" stroke-linejoin="round" stroke-width="2" fill-rule="evenodd"/>
            <path id="Path_42212" data-name="Path 42212" d="M356.961,66.5c-3.164-.143-2.435-1.808,1.535-1.174,1.074.144,2.12.332,3.124.56.242.207-2.321.4-2.723.445a17.563,17.563,0,0,1-1.935.17" transform="translate(-125.422 -41.199)" fill="none" stroke="#fff" stroke-linejoin="round" stroke-width="2" fill-rule="evenodd"/>
            <path id="Path_42213" data-name="Path 42213" d="M553.128,50.6c-3.164-.142-2.436-1.808,1.534-1.174,1.075.144,2.121.331,3.125.56.242.207-2.321.4-2.723.445a17.746,17.746,0,0,1-1.936.169" transform="translate(-457.079 -30.443)" fill="none" stroke="#fff" stroke-linejoin="round" stroke-width="2" fill-rule="evenodd"/>
            <path id="Path_42214" data-name="Path 42214" d="M49.647,21.332c-3.164-.143-2.434-1.808,1.535-1.174,1.075.144,2.12.332,3.125.561.241.206-2.321.4-2.725.445a17.711,17.711,0,0,1-1.934.169" transform="translate(394.152 -10.64)" fill="none" stroke="#fff" stroke-linejoin="round" stroke-width="2" fill-rule="evenodd"/>
            <path id="Path_42215" data-name="Path 42215" d="M99.538,24.26c.089-2.1,5.213-1.851,3.727.847a8.73,8.73,0,0,1-1.357,2.132c-.6.187-1.465-1.469-1.645-1.73a3.667,3.667,0,0,1-.725-1.249" transform="translate(309.117 -12.567)" fill="none" stroke="#fff" stroke-linejoin="round" stroke-width="2" fill-rule="evenodd"/>
          </g>
        </g>
      </g>
    </g>
  </g>
</svg>
